M48
; DRILL file {KiCad 9.0.4} date 2026-04-21T23:27:28+0200
; FORMAT={-:-/ absolute / metric / decimal}
; #@! TF.CreationDate,2026-04-21T23:27:28+02:00
; #@! TF.GenerationSoftware,Kicad,Pcbnew,9.0.4
; #@! TF.FileFunction,Plated,1,4,PTH
FMAT,2
METRIC
; #@! TA.AperFunction,Plated,PTH,ViaDrill
T1C0.300
; #@! TA.AperFunction,Plated,PTH,ViaDrill
T2C0.400
; #@! TA.AperFunction,Plated,PTH,ComponentDrill
T3C0.800
; #@! TA.AperFunction,Plated,PTH,ComponentDrill
T4C1.000
%
G90
G05
T1
X174.902Y-59.499
X175.997Y-59.561
X177.231Y-110.566
X177.24Y-71.99
X177.245Y-76.5
X177.245Y-77.5
X177.245Y-78.5
X177.245Y-79.5
X177.245Y-80.5
X177.245Y-81.5
X177.245Y-82.5
X177.245Y-83.5
X177.245Y-84.5
X177.245Y-85.5
X177.245Y-86.5
X177.245Y-87.5
X177.245Y-88.5
X177.245Y-89.5
X177.245Y-90.5
X177.245Y-91.5
X177.245Y-92.5
X177.245Y-93.5
X177.245Y-94.5
X177.245Y-95.5
X177.245Y-96.5
X177.245Y-97.5
X177.245Y-98.5
X177.245Y-99.5
X177.245Y-100.5
X177.245Y-101.5
X177.245Y-102.5
X177.245Y-103.5
X177.245Y-104.5
X177.245Y-105.5
X177.245Y-106.5
X177.245Y-107.5
X177.245Y-108.5
X177.245Y-109.5
X177.245Y-111.5
X177.245Y-112.5
X177.245Y-113.5
X177.245Y-114.5
X177.245Y-115.5
X177.245Y-116.5
X177.245Y-117.5
X177.245Y-118.5
X177.245Y-119.5
X177.245Y-120.5
X177.245Y-121.5
X177.245Y-122.5
X177.245Y-123.5
X177.245Y-124.5
X177.245Y-125.5
X177.245Y-126.5
X177.245Y-127.5
X177.245Y-128.5
X177.245Y-129.5
X177.245Y-130.5
X177.245Y-131.5
X177.245Y-132.5
X177.35Y-59.6
X178.0Y-135.0
X178.0Y-137.0
X178.0Y-139.0
X178.45Y-59.45
X179.3Y-59.5
X179.4Y-69.95
X179.606Y-57.142
X179.614Y-142.379
X179.624Y-139.954
X179.649Y-141.142
X179.65Y-75.8
X179.658Y-143.497
X179.681Y-138.678
X179.7Y-68.3
X179.7Y-74.1
X179.706Y-55.948
X179.713Y-137.619
X179.745Y-58.362
X179.775Y-136.374
X180.45Y-59.45
X180.817Y-73.996
X180.83Y-69.224
X180.834Y-140.058
X180.836Y-138.814
X180.843Y-142.412
X180.845Y-143.665
X180.872Y-75.264
X180.891Y-137.62
X180.908Y-141.098
X180.959Y-57.259
X180.959Y-58.36
X180.97Y-136.383
X180.975Y-56.035
X181.74Y-71.99
X181.99Y-138.853
X181.996Y-136.412
X181.997Y-141.225
X181.999Y-73.921
X182.004Y-143.548
X182.014Y-75.085
X182.03Y-137.639
X182.032Y-140.063
X182.04Y-77.99
X182.04Y-81.99
X182.04Y-85.99
X182.04Y-89.99
X182.04Y-93.99
X182.04Y-97.99
X182.04Y-101.99
X182.04Y-105.99
X182.04Y-110.04
X182.04Y-113.99
X182.04Y-117.99
X182.04Y-121.99
X182.04Y-126.002
X182.04Y-130.002
X182.04Y-133.89
X182.041Y-142.293
X182.059Y-59.558
X182.061Y-103.875
X182.067Y-55.867
X182.069Y-58.428
X182.107Y-69.091
X182.173Y-57.068
X182.71Y-104.365
X182.84Y-77.99
X182.84Y-81.99
X182.84Y-85.99
X182.84Y-89.99
X182.84Y-93.99
X182.84Y-97.99
X182.84Y-101.99
X182.84Y-105.99
X182.84Y-110.04
X182.84Y-113.99
X182.84Y-117.99
X182.84Y-121.99
X182.84Y-126.002
X182.84Y-130.002
X182.84Y-133.89
X183.24Y-135.114
X183.244Y-138.8
X183.245Y-143.656
X183.267Y-75.228
X183.27Y-137.524
X183.279Y-69.113
X183.302Y-141.114
X183.325Y-110.74
X183.334Y-73.942
X183.343Y-139.918
X183.344Y-70.384
X183.344Y-136.302
X183.377Y-142.447
X183.45Y-104.06
X183.69Y-111.54
X183.75Y-77.95
X183.94Y-112.39
X184.09Y-104.54
X184.39Y-113.69
X184.402Y-75.088
X184.416Y-143.5
X184.416Y-136.344
X184.416Y-73.938
X184.426Y-138.782
X184.448Y-142.289
X184.45Y-82.0
X184.473Y-133.901
X184.478Y-97.913
X184.484Y-85.932
X184.517Y-137.633
X184.519Y-69.153
X184.523Y-70.334
X184.53Y-135.256
X184.535Y-139.924
X184.539Y-141.122
X184.715Y-103.867
X184.8Y-122.05
X185.04Y-114.915
X185.25Y-118.0
X185.356Y-103.343
X185.45Y-126.05
X185.54Y-115.54
X185.589Y-136.299
X185.594Y-142.303
X185.594Y-97.866
X185.599Y-56.2
X185.599Y-57.42
X185.602Y-59.188
X185.602Y-60.61
X185.606Y-137.535
X185.607Y-73.936
X185.626Y-138.766
X185.635Y-76.424
X185.636Y-70.448
X185.67Y-141.24
X185.673Y-139.918
X185.704Y-135.223
X185.721Y-143.474
X185.765Y-134.024
X185.784Y-75.225
X186.0Y-86.0
X186.031Y-116.49
X186.032Y-102.915
X186.29Y-117.39
X186.465Y-118.365
X186.47Y-119.49
X186.47Y-120.54
X186.47Y-121.598
X186.73Y-123.57
X186.73Y-124.58
X186.73Y-125.58
X186.73Y-126.57
X186.73Y-127.58
X186.73Y-128.54
X186.75Y-130.3
X186.797Y-75.117
X186.807Y-136.334
X186.809Y-73.9
X186.821Y-59.188
X186.821Y-60.61
X186.846Y-141.106
X186.859Y-143.524
X186.897Y-77.572
X186.899Y-137.474
X186.94Y-135.155
X186.943Y-76.324
X186.947Y-142.332
X186.964Y-140.05
X186.971Y-138.7
X186.981Y-133.875
X187.021Y-56.2
X187.021Y-57.42
X187.45Y-90.0
X187.75Y-96.9
X187.989Y-76.392
X187.998Y-143.528
X188.004Y-142.365
X188.025Y-78.8
X188.033Y-138.792
X188.068Y-134.047
X188.07Y-135.262
X188.081Y-75.221
X188.082Y-74.063
X188.108Y-141.097
X188.145Y-139.951
X188.145Y-77.598
X188.162Y-136.301
X188.188Y-137.64
X188.65Y-93.75
X189.188Y-74.04
X189.193Y-76.439
X189.201Y-77.612
X189.224Y-137.649
X189.232Y-143.66
X189.233Y-132.799
X189.266Y-80.023
X189.271Y-78.807
X189.282Y-141.237
X189.309Y-75.144
X189.327Y-138.825
X189.335Y-135.101
X189.345Y-133.89
X189.359Y-140.043
X189.367Y-136.352
X189.386Y-142.461
X189.6Y-108.7
X189.75Y-63.85
X190.15Y-56.0
X190.2Y-108.05
X190.35Y-111.5
X190.391Y-121.89
X190.397Y-136.295
X190.41Y-115.14
X190.449Y-124.378
X190.46Y-143.507
X190.466Y-78.756
X190.469Y-142.318
X190.47Y-56.87
X190.471Y-79.896
X190.488Y-73.879
X190.5Y-77.538
X190.501Y-76.34
X190.503Y-123.12
X190.506Y-125.558
X190.52Y-75.07
X190.534Y-131.529
X190.58Y-81.117
X190.6Y-66.8
X190.69Y-117.859
X190.715Y-118.549
X191.211Y-130.048
X191.389Y-127.79
X191.452Y-118.494
X191.456Y-133.563
X191.456Y-134.413
X191.48Y-110.43
X191.514Y-140.167
X191.514Y-141.017
X191.597Y-123.114
X191.617Y-124.406
X191.654Y-81.262
X191.684Y-73.896
X191.684Y-77.475
X191.698Y-76.442
X191.73Y-114.1
X191.738Y-78.693
X191.745Y-143.62
X191.753Y-79.934
X191.763Y-75.194
X191.773Y-82.422
X191.79Y-89.44
X191.85Y-62.6
X191.9Y-57.95
X191.99Y-127.189
X192.34Y-109.39
X192.722Y-117.097
X192.824Y-76.349
X192.841Y-82.379
X192.866Y-143.522
X192.89Y-81.258
X192.906Y-79.889
X192.916Y-124.306
X192.976Y-117.986
X192.984Y-83.542
X193.313Y-129.797
X193.484Y-59.007
X193.484Y-60.43
X193.535Y-56.213
X193.535Y-57.432
X193.83Y-94.99
X194.054Y-137.527
X194.126Y-143.515
X194.163Y-129.797
X194.33Y-112.52
X194.703Y-59.007
X194.703Y-60.43
X194.732Y-90.09
X194.732Y-90.79
X194.732Y-91.49
X194.957Y-56.213
X194.957Y-57.432
X195.21Y-106.908
X195.22Y-131.612
X195.23Y-143.535
X195.24Y-102.89
X195.262Y-124.59
X195.262Y-130.178
X195.283Y-82.407
X195.315Y-136.54
X195.315Y-138.065
X195.4Y-74.3
X195.4Y-80.0
X195.74Y-96.89
X195.77Y-113.541
X195.8Y-76.4
X195.8Y-77.4
X196.131Y-112.545
X196.151Y-124.717
X196.45Y-83.65
X196.468Y-131.537
X196.536Y-143.544
X196.585Y-111.807
X196.59Y-107.593
X196.69Y-92.29
X196.85Y-79.5
X197.15Y-73.75
X197.175Y-96.909
X197.307Y-69.596
X197.317Y-97.696
X197.421Y-111.763
X197.483Y-126.223
X197.5Y-82.8
X197.556Y-140.912
X197.633Y-108.49
X197.634Y-131.498
X197.665Y-143.508
X197.802Y-98.332
X197.9Y-63.5
X197.929Y-117.351
X198.036Y-112.779
X198.131Y-107.864
X198.2Y-76.7
X198.2Y-78.0
X198.35Y-129.35
X198.437Y-127.384
X198.53Y-107.158
X198.555Y-98.605
X198.7Y-137.29
X198.727Y-92.927
X198.8Y-68.95
X198.802Y-130.325
X198.861Y-64.391
X198.898Y-143.494
X198.935Y-131.657
X199.0Y-65.6
X199.13Y-107.83
X199.189Y-114.176
X199.199Y-127.384
X199.423Y-98.622
X199.58Y-120.78
X199.6Y-87.4
X199.7Y-56.3
X199.7Y-76.7
X199.7Y-78.1
X199.834Y-112.144
X200.027Y-143.602
X200.05Y-122.8
X200.068Y-131.525
X200.107Y-126.421
X200.127Y-98.242
X200.252Y-107.096
X200.3Y-57.85
X200.46Y-137.35
X200.49Y-136.24
X200.5Y-82.85
X200.596Y-140.338
X200.603Y-97.599
X200.85Y-115.573
X200.9Y-75.6
X200.95Y-61.15
X201.05Y-56.87
X201.051Y-107.125
X201.212Y-72.671
X201.231Y-117.097
X201.29Y-143.582
X201.358Y-113.541
X201.39Y-98.79
X201.485Y-122.939
X201.485Y-124.971
X201.485Y-130.305
X201.601Y-107.707
X201.65Y-79.8
X201.95Y-56.05
X202.0Y-57.8
X202.12Y-128.273
X202.247Y-130.305
X202.355Y-97.675
X202.382Y-76.128
X202.401Y-107.73
X202.43Y-114.792
X202.476Y-95.837
X202.481Y-143.521
X202.556Y-72.727
X202.6Y-90.435
X202.85Y-84.3
X203.009Y-136.222
X203.046Y-96.399
X203.14Y-75.74
X203.188Y-107.874
X203.25Y-80.1
X203.291Y-97.71
X203.385Y-111.317
X203.39Y-56.264
X203.39Y-57.483
X203.542Y-59.058
X203.542Y-60.48
X203.614Y-143.65
X203.62Y-72.847
X203.74Y-92.19
X203.753Y-81.235
X203.965Y-93.136
X204.002Y-96.34
X204.19Y-108.36
X204.35Y-85.75
X204.406Y-115.573
X204.525Y-100.255
X204.56Y-97.77
X204.606Y-107.145
X204.762Y-59.058
X204.762Y-60.48
X204.812Y-56.264
X204.812Y-57.483
X204.838Y-119.041
X204.84Y-100.99
X204.866Y-96.09
X204.867Y-82.317
X204.885Y-72.737
X204.887Y-143.516
X205.268Y-98.814
X205.309Y-99.613
X205.396Y-107.015
X205.499Y-98.048
X205.676Y-121.288
X205.867Y-89.916
X205.9Y-101.466
X205.95Y-143.9
X205.965Y-97.398
X205.981Y-108.182
X206.028Y-62.033
X206.04Y-102.742
X206.117Y-82.291
X206.117Y-72.741
X206.209Y-105.605
X206.262Y-104.782
X206.3Y-130.15
X206.53Y-104.028
X206.85Y-128.7
X206.9Y-126.9
X206.985Y-108.092
X207.04Y-106.236
X207.15Y-143.9
X207.188Y-69.571
X207.2Y-118.113
X207.205Y-103.598
X207.265Y-102.016
X207.275Y-75.217
X207.278Y-119.467
X207.296Y-81.102
X207.314Y-72.797
X207.32Y-120.802
X207.366Y-82.279
X207.518Y-89.916
X207.65Y-129.75
X207.815Y-96.087
X207.815Y-97.084
X207.846Y-111.011
X207.86Y-108.131
X208.0Y-60.15
X208.24Y-91.24
X208.407Y-82.439
X208.411Y-72.823
X208.411Y-118.445
X208.453Y-120.68
X208.464Y-75.116
X208.5Y-56.0
X208.5Y-143.9
X208.509Y-76.377
X208.524Y-81.181
X208.553Y-119.604
X208.75Y-69.0
X208.9Y-129.95
X209.602Y-55.889
X209.607Y-77.514
X209.611Y-83.611
X209.622Y-76.35
X209.677Y-108.966
X209.717Y-84.69
X209.725Y-85.885
X209.726Y-75.195
X209.729Y-119.488
X209.75Y-143.9
X209.766Y-82.4
X209.779Y-87.111
X210.045Y-116.208
X210.1Y-129.9
X210.2Y-56.8
X210.248Y-114.303
X210.3Y-89.6
X210.43Y-95.68
X210.705Y-92.129
X210.705Y-93.399
X210.705Y-94.669
X210.769Y-99.873
X210.806Y-76.378
X210.847Y-84.843
X210.852Y-108.721
X210.9Y-57.9
X210.904Y-75.178
X210.92Y-77.49
X210.95Y-143.9
X210.965Y-78.682
X210.995Y-97.261
X211.137Y-114.303
X211.4Y-129.9
X211.476Y-96.475
X211.62Y-56.823
X211.8Y-86.7
X211.823Y-98.326
X211.823Y-104.54
X212.009Y-77.498
X212.011Y-117.117
X212.094Y-108.728
X212.1Y-55.9
X212.123Y-76.413
X212.169Y-71.549
X212.25Y-143.9
X212.6Y-78.4
X213.093Y-101.425
X213.214Y-72.671
X213.218Y-122.004
X213.278Y-143.485
X213.344Y-120.801
X213.347Y-71.504
X213.35Y-130.05
X213.375Y-77.621
X213.448Y-56.264
X213.448Y-57.483
X213.448Y-59.058
X213.448Y-60.48
X213.7Y-131.1
X213.702Y-105.509
X213.727Y-114.534
X213.85Y-127.05
X213.868Y-86.8
X213.9Y-125.85
X213.95Y-123.2
X213.95Y-124.45
X214.04Y-109.01
X214.261Y-94.669
X214.3Y-73.3
X214.3Y-120.4
X214.315Y-92.54
X214.4Y-143.6
X214.5Y-78.35
X214.53Y-119.619
X214.6Y-128.15
X214.668Y-59.058
X214.668Y-60.48
X214.871Y-56.264
X214.871Y-57.483
X214.947Y-132.718
X214.947Y-135.258
X214.947Y-139.068
X214.947Y-141.608
X215.15Y-75.3
X215.46Y-72.1
X215.6Y-127.65
X215.607Y-104.219
X215.736Y-143.565
X215.836Y-117.097
X215.836Y-119.129
X215.92Y-86.614
X215.95Y-135.5
X216.2Y-120.5
X216.65Y-76.45
X216.803Y-132.693
X216.818Y-131.516
X216.843Y-117.723
X216.846Y-118.627
X216.925Y-72.86
X216.942Y-73.965
X216.977Y-71.622
X216.985Y-143.528
X217.2Y-77.25
X217.221Y-69.571
X217.25Y-123.75
X217.3Y-125.0
X217.35Y-122.5
X217.35Y-126.2
X217.45Y-121.35
X218.007Y-124.395
X218.022Y-122.04
X218.033Y-77.536
X218.047Y-72.679
X218.051Y-123.157
X218.057Y-126.833
X218.072Y-71.511
X218.118Y-125.477
X218.122Y-103.8
X218.177Y-74.002
X218.56Y-112.69
X218.8Y-143.9
X220.428Y-143.52
X221.592Y-117.229
X221.594Y-88.368
X221.609Y-95.555
X221.612Y-131.489
X221.618Y-81.133
X221.624Y-112.403
X221.627Y-119.621
X221.631Y-100.402
X221.642Y-133.91
X221.647Y-110.009
X221.651Y-124.351
X221.653Y-123.24
X221.654Y-87.134
X221.655Y-85.914
X221.659Y-135.175
X221.667Y-99.077
X221.684Y-75.11
X221.689Y-108.721
X221.697Y-74.009
X221.701Y-91.976
X221.704Y-115.976
X221.707Y-72.825
X221.708Y-132.82
X221.711Y-97.883
X221.713Y-77.577
X221.722Y-94.279
X221.731Y-120.864
X221.736Y-84.665
X221.739Y-121.903
X221.744Y-90.708
X221.746Y-111.094
X221.746Y-93.116
X221.747Y-96.688
X221.752Y-83.65
X221.758Y-89.567
X221.771Y-125.625
X221.778Y-76.265
X221.779Y-126.694
X221.785Y-79.987
X221.786Y-78.691
X222.791Y-73.871
X222.802Y-94.323
X222.807Y-91.868
X222.809Y-84.803
X222.819Y-131.542
X222.822Y-81.218
X222.824Y-100.267
X222.824Y-72.726
X222.825Y-117.245
X222.826Y-132.846
X222.827Y-115.984
X222.828Y-111.153
X222.84Y-87.104
X222.842Y-90.83
X222.859Y-86.065
X222.86Y-121.92
X222.866Y-88.345
X222.872Y-89.52
X222.873Y-97.873
X222.875Y-126.678
X222.882Y-135.158
X222.893Y-96.799
X222.897Y-114.695
X222.906Y-75.193
X222.909Y-110.037
X222.913Y-95.479
X222.922Y-78.766
X222.925Y-108.779
X222.928Y-77.584
X222.94Y-112.289
X222.944Y-80.023
X222.953Y-130.46
X222.955Y-83.548
X222.956Y-124.404
X222.966Y-123.26
X222.97Y-125.65
X222.97Y-120.761
X222.972Y-93.225
X222.974Y-133.995
X222.975Y-76.298
X222.976Y-99.135
X222.981Y-119.58
X224.05Y-143.477
X224.108Y-141.213
X224.137Y-142.336
X225.27Y-142.406
X225.319Y-141.222
X226.389Y-88.305
X226.391Y-107.507
X226.397Y-87.152
X226.4Y-77.52
X226.403Y-93.211
X226.405Y-83.622
X226.406Y-118.382
X226.412Y-132.698
X226.413Y-94.311
X226.416Y-117.083
X226.426Y-95.499
X226.427Y-82.436
X226.429Y-106.386
X226.432Y-120.844
X226.433Y-104.048
X226.434Y-100.44
X226.434Y-78.742
X226.437Y-141.099
X226.437Y-127.984
X226.443Y-110.038
X226.446Y-114.806
X226.448Y-123.198
X226.452Y-130.425
X226.453Y-112.319
X226.458Y-135.131
X226.458Y-90.679
X226.461Y-115.94
X226.462Y-113.543
X226.464Y-85.942
X226.474Y-101.588
X226.474Y-125.523
X226.476Y-126.798
X226.48Y-124.414
X226.482Y-99.139
X226.487Y-142.383
X226.494Y-102.696
X226.496Y-98.037
X226.503Y-129.175
X226.504Y-108.75
X226.508Y-131.466
X226.521Y-119.583
X226.523Y-111.186
X226.525Y-81.144
X226.526Y-75.263
X226.526Y-80.001
X226.534Y-76.307
X226.54Y-84.852
X226.547Y-96.832
X226.552Y-74.041
X226.559Y-105.163
X226.565Y-136.34
X226.566Y-91.869
X226.572Y-89.514
X226.573Y-121.938
X226.574Y-72.695
X226.587Y-134.027
X227.72Y-141.222
X227.752Y-142.428
X228.75Y-58.15
X228.806Y-141.152
X228.925Y-57.097
X228.986Y-142.358
X229.4Y-139.9
X229.45Y-74.05
X229.45Y-79.65
X229.45Y-86.85
X229.5Y-61.35
X229.5Y-67.4
X229.5Y-92.7
X229.5Y-106.95
X229.5Y-123.2
X229.5Y-131.8
X229.55Y-100.6
X229.55Y-115.0
T2
X177.24Y-68.99
X177.24Y-74.99
X177.525Y-56.14
X177.525Y-58.14
X177.525Y-141.84
X177.525Y-143.84
X177.54Y-60.99
X177.54Y-62.99
X177.54Y-65.0
X177.56Y-66.97
X178.49Y-68.99
X178.49Y-74.99
X178.54Y-60.99
X178.54Y-62.99
X178.54Y-65.0
X178.56Y-66.97
X179.54Y-60.99
X179.54Y-62.99
X179.54Y-65.0
X179.56Y-66.97
X180.54Y-60.99
X180.54Y-62.99
X180.54Y-65.0
X180.56Y-66.97
X186.212Y-59.899
X186.31Y-56.81
X193.515Y-69.588
X194.094Y-59.718
X194.246Y-56.823
X194.69Y-69.588
X195.84Y-69.588
X203.39Y-69.571
X204.101Y-56.874
X204.152Y-59.769
X204.565Y-69.571
X205.715Y-69.59
X210.515Y-72.54
X213.39Y-69.571
X214.058Y-59.769
X214.16Y-56.874
X214.59Y-69.571
X215.765Y-69.571
X222.37Y-147.68
X222.64Y-52.27
T3
X216.141Y-92.145
X216.141Y-94.145
T4
X219.65Y-60.62
X219.65Y-63.16
X219.65Y-65.7
X219.65Y-68.24
X219.65Y-70.78
X219.65Y-73.32
X219.65Y-75.86
X219.65Y-78.4
X219.65Y-80.94
X219.65Y-83.48
X219.65Y-86.02
X219.65Y-88.56
X219.65Y-91.1
X219.65Y-93.64
X219.65Y-96.18
X219.65Y-98.72
X219.65Y-101.26
X219.65Y-103.8
X219.65Y-106.34
X219.65Y-108.88
X219.65Y-111.42
X219.65Y-113.96
X219.65Y-116.5
X219.65Y-119.04
X219.65Y-121.58
X219.65Y-124.12
X219.65Y-126.66
X219.65Y-129.2
X219.65Y-131.74
X219.65Y-134.28
X219.65Y-136.82
X219.65Y-139.36
X224.73Y-60.62
X224.73Y-63.16
X224.73Y-65.7
X224.73Y-68.24
X224.73Y-70.78
X224.73Y-73.32
X224.73Y-75.86
X224.73Y-78.4
X224.73Y-80.94
X224.73Y-83.48
X224.73Y-86.02
X224.73Y-88.56
X224.73Y-91.1
X224.73Y-93.64
X224.73Y-96.18
X224.73Y-98.72
X224.73Y-101.26
X224.73Y-103.8
X224.73Y-106.34
X224.73Y-108.88
X224.73Y-111.42
X224.73Y-113.96
X224.73Y-116.5
X224.73Y-119.04
X224.73Y-121.58
X224.73Y-124.12
X224.73Y-126.66
X224.73Y-129.2
X224.73Y-131.74
X224.73Y-134.28
X224.73Y-136.82
X224.73Y-139.36
M30
