%TF.GenerationSoftware,KiCad,Pcbnew,9.0.6*%
%TF.CreationDate,2026-05-11T15:02:08+02:00*%
%TF.ProjectId,UCB_board,5543425f-626f-4617-9264-2e6b69636164,0.3*%
%TF.SameCoordinates,Original*%
%TF.FileFunction,Legend,Top*%
%TF.FilePolarity,Positive*%
%FSLAX46Y46*%
G04 Gerber Fmt 4.6, Leading zero omitted, Abs format (unit mm)*
G04 Created by KiCad (PCBNEW 9.0.6) date 2026-05-11 15:02:08*
%MOMM*%
%LPD*%
G01*
G04 APERTURE LIST*
%ADD10C,0.100000*%
%ADD11C,0.150000*%
%ADD12C,0.254000*%
%ADD13C,0.120000*%
%ADD14C,0.200000*%
G04 APERTURE END LIST*
D10*
X217898609Y-94412782D02*
X217946228Y-94269925D01*
X217946228Y-94269925D02*
X217993847Y-94222306D01*
X217993847Y-94222306D02*
X218089085Y-94174687D01*
X218089085Y-94174687D02*
X218231942Y-94174687D01*
X218231942Y-94174687D02*
X218327180Y-94222306D01*
X218327180Y-94222306D02*
X218374800Y-94269925D01*
X218374800Y-94269925D02*
X218422419Y-94365163D01*
X218422419Y-94365163D02*
X218422419Y-94746115D01*
X218422419Y-94746115D02*
X217422419Y-94746115D01*
X217422419Y-94746115D02*
X217422419Y-94412782D01*
X217422419Y-94412782D02*
X217470038Y-94317544D01*
X217470038Y-94317544D02*
X217517657Y-94269925D01*
X217517657Y-94269925D02*
X217612895Y-94222306D01*
X217612895Y-94222306D02*
X217708133Y-94222306D01*
X217708133Y-94222306D02*
X217803371Y-94269925D01*
X217803371Y-94269925D02*
X217850990Y-94317544D01*
X217850990Y-94317544D02*
X217898609Y-94412782D01*
X217898609Y-94412782D02*
X217898609Y-94746115D01*
X217422419Y-93555639D02*
X217422419Y-93365163D01*
X217422419Y-93365163D02*
X217470038Y-93269925D01*
X217470038Y-93269925D02*
X217565276Y-93174687D01*
X217565276Y-93174687D02*
X217755752Y-93127068D01*
X217755752Y-93127068D02*
X218089085Y-93127068D01*
X218089085Y-93127068D02*
X218279561Y-93174687D01*
X218279561Y-93174687D02*
X218374800Y-93269925D01*
X218374800Y-93269925D02*
X218422419Y-93365163D01*
X218422419Y-93365163D02*
X218422419Y-93555639D01*
X218422419Y-93555639D02*
X218374800Y-93650877D01*
X218374800Y-93650877D02*
X218279561Y-93746115D01*
X218279561Y-93746115D02*
X218089085Y-93793734D01*
X218089085Y-93793734D02*
X217755752Y-93793734D01*
X217755752Y-93793734D02*
X217565276Y-93746115D01*
X217565276Y-93746115D02*
X217470038Y-93650877D01*
X217470038Y-93650877D02*
X217422419Y-93555639D01*
X217422419Y-92508020D02*
X217422419Y-92317544D01*
X217422419Y-92317544D02*
X217470038Y-92222306D01*
X217470038Y-92222306D02*
X217565276Y-92127068D01*
X217565276Y-92127068D02*
X217755752Y-92079449D01*
X217755752Y-92079449D02*
X218089085Y-92079449D01*
X218089085Y-92079449D02*
X218279561Y-92127068D01*
X218279561Y-92127068D02*
X218374800Y-92222306D01*
X218374800Y-92222306D02*
X218422419Y-92317544D01*
X218422419Y-92317544D02*
X218422419Y-92508020D01*
X218422419Y-92508020D02*
X218374800Y-92603258D01*
X218374800Y-92603258D02*
X218279561Y-92698496D01*
X218279561Y-92698496D02*
X218089085Y-92746115D01*
X218089085Y-92746115D02*
X217755752Y-92746115D01*
X217755752Y-92746115D02*
X217565276Y-92698496D01*
X217565276Y-92698496D02*
X217470038Y-92603258D01*
X217470038Y-92603258D02*
X217422419Y-92508020D01*
X217422419Y-91793734D02*
X217422419Y-91222306D01*
X218422419Y-91508020D02*
X217422419Y-91508020D01*
D11*
X197555110Y-118095846D02*
X198127530Y-118668266D01*
X198127530Y-118668266D02*
X198228545Y-118701938D01*
X198228545Y-118701938D02*
X198295889Y-118701938D01*
X198295889Y-118701938D02*
X198396904Y-118668266D01*
X198396904Y-118668266D02*
X198531591Y-118533579D01*
X198531591Y-118533579D02*
X198565263Y-118432564D01*
X198565263Y-118432564D02*
X198565263Y-118365220D01*
X198565263Y-118365220D02*
X198531591Y-118264205D01*
X198531591Y-118264205D02*
X197959171Y-117691785D01*
X199373385Y-117691785D02*
X198969324Y-118095846D01*
X199171354Y-117893816D02*
X198464248Y-117186709D01*
X198464248Y-117186709D02*
X198497919Y-117355068D01*
X198497919Y-117355068D02*
X198497919Y-117489755D01*
X198497919Y-117489755D02*
X198464248Y-117590770D01*
X201024819Y-74242857D02*
X200548628Y-74576190D01*
X201024819Y-74814285D02*
X200024819Y-74814285D01*
X200024819Y-74814285D02*
X200024819Y-74433333D01*
X200024819Y-74433333D02*
X200072438Y-74338095D01*
X200072438Y-74338095D02*
X200120057Y-74290476D01*
X200120057Y-74290476D02*
X200215295Y-74242857D01*
X200215295Y-74242857D02*
X200358152Y-74242857D01*
X200358152Y-74242857D02*
X200453390Y-74290476D01*
X200453390Y-74290476D02*
X200501009Y-74338095D01*
X200501009Y-74338095D02*
X200548628Y-74433333D01*
X200548628Y-74433333D02*
X200548628Y-74814285D01*
X200120057Y-73861904D02*
X200072438Y-73814285D01*
X200072438Y-73814285D02*
X200024819Y-73719047D01*
X200024819Y-73719047D02*
X200024819Y-73480952D01*
X200024819Y-73480952D02*
X200072438Y-73385714D01*
X200072438Y-73385714D02*
X200120057Y-73338095D01*
X200120057Y-73338095D02*
X200215295Y-73290476D01*
X200215295Y-73290476D02*
X200310533Y-73290476D01*
X200310533Y-73290476D02*
X200453390Y-73338095D01*
X200453390Y-73338095D02*
X201024819Y-73909523D01*
X201024819Y-73909523D02*
X201024819Y-73290476D01*
X200024819Y-72433333D02*
X200024819Y-72623809D01*
X200024819Y-72623809D02*
X200072438Y-72719047D01*
X200072438Y-72719047D02*
X200120057Y-72766666D01*
X200120057Y-72766666D02*
X200262914Y-72861904D01*
X200262914Y-72861904D02*
X200453390Y-72909523D01*
X200453390Y-72909523D02*
X200834342Y-72909523D01*
X200834342Y-72909523D02*
X200929580Y-72861904D01*
X200929580Y-72861904D02*
X200977200Y-72814285D01*
X200977200Y-72814285D02*
X201024819Y-72719047D01*
X201024819Y-72719047D02*
X201024819Y-72528571D01*
X201024819Y-72528571D02*
X200977200Y-72433333D01*
X200977200Y-72433333D02*
X200929580Y-72385714D01*
X200929580Y-72385714D02*
X200834342Y-72338095D01*
X200834342Y-72338095D02*
X200596247Y-72338095D01*
X200596247Y-72338095D02*
X200501009Y-72385714D01*
X200501009Y-72385714D02*
X200453390Y-72433333D01*
X200453390Y-72433333D02*
X200405771Y-72528571D01*
X200405771Y-72528571D02*
X200405771Y-72719047D01*
X200405771Y-72719047D02*
X200453390Y-72814285D01*
X200453390Y-72814285D02*
X200501009Y-72861904D01*
X200501009Y-72861904D02*
X200596247Y-72909523D01*
X193850825Y-130553036D02*
X193951840Y-129980617D01*
X193446764Y-130148975D02*
X194153871Y-129441869D01*
X194153871Y-129441869D02*
X194423245Y-129711243D01*
X194423245Y-129711243D02*
X194456917Y-129812258D01*
X194456917Y-129812258D02*
X194456917Y-129879601D01*
X194456917Y-129879601D02*
X194423245Y-129980617D01*
X194423245Y-129980617D02*
X194322230Y-130081632D01*
X194322230Y-130081632D02*
X194221214Y-130115304D01*
X194221214Y-130115304D02*
X194153871Y-130115304D01*
X194153871Y-130115304D02*
X194052856Y-130081632D01*
X194052856Y-130081632D02*
X193783482Y-129812258D01*
X194524260Y-131226471D02*
X194120199Y-130822410D01*
X194322230Y-131024441D02*
X195029336Y-130317334D01*
X195029336Y-130317334D02*
X194860978Y-130351006D01*
X194860978Y-130351006D02*
X194726291Y-130351006D01*
X194726291Y-130351006D02*
X194625275Y-130317334D01*
X194860978Y-131563189D02*
X194995665Y-131697876D01*
X194995665Y-131697876D02*
X195096680Y-131731548D01*
X195096680Y-131731548D02*
X195164024Y-131731548D01*
X195164024Y-131731548D02*
X195332382Y-131697876D01*
X195332382Y-131697876D02*
X195500741Y-131596861D01*
X195500741Y-131596861D02*
X195770115Y-131327487D01*
X195770115Y-131327487D02*
X195803787Y-131226472D01*
X195803787Y-131226472D02*
X195803787Y-131159128D01*
X195803787Y-131159128D02*
X195770115Y-131058113D01*
X195770115Y-131058113D02*
X195635428Y-130923426D01*
X195635428Y-130923426D02*
X195534413Y-130889754D01*
X195534413Y-130889754D02*
X195467069Y-130889754D01*
X195467069Y-130889754D02*
X195366054Y-130923426D01*
X195366054Y-130923426D02*
X195197695Y-131091785D01*
X195197695Y-131091785D02*
X195164024Y-131192800D01*
X195164024Y-131192800D02*
X195164024Y-131260143D01*
X195164024Y-131260143D02*
X195197695Y-131361159D01*
X195197695Y-131361159D02*
X195332382Y-131495846D01*
X195332382Y-131495846D02*
X195433398Y-131529517D01*
X195433398Y-131529517D02*
X195500741Y-131529517D01*
X195500741Y-131529517D02*
X195601756Y-131495846D01*
X182125714Y-123744819D02*
X182125714Y-122744819D01*
X182125714Y-122744819D02*
X182363809Y-122744819D01*
X182363809Y-122744819D02*
X182506666Y-122792438D01*
X182506666Y-122792438D02*
X182601904Y-122887676D01*
X182601904Y-122887676D02*
X182649523Y-122982914D01*
X182649523Y-122982914D02*
X182697142Y-123173390D01*
X182697142Y-123173390D02*
X182697142Y-123316247D01*
X182697142Y-123316247D02*
X182649523Y-123506723D01*
X182649523Y-123506723D02*
X182601904Y-123601961D01*
X182601904Y-123601961D02*
X182506666Y-123697200D01*
X182506666Y-123697200D02*
X182363809Y-123744819D01*
X182363809Y-123744819D02*
X182125714Y-123744819D01*
X183030476Y-122744819D02*
X183649523Y-122744819D01*
X183649523Y-122744819D02*
X183316190Y-123125771D01*
X183316190Y-123125771D02*
X183459047Y-123125771D01*
X183459047Y-123125771D02*
X183554285Y-123173390D01*
X183554285Y-123173390D02*
X183601904Y-123221009D01*
X183601904Y-123221009D02*
X183649523Y-123316247D01*
X183649523Y-123316247D02*
X183649523Y-123554342D01*
X183649523Y-123554342D02*
X183601904Y-123649580D01*
X183601904Y-123649580D02*
X183554285Y-123697200D01*
X183554285Y-123697200D02*
X183459047Y-123744819D01*
X183459047Y-123744819D02*
X183173333Y-123744819D01*
X183173333Y-123744819D02*
X183078095Y-123697200D01*
X183078095Y-123697200D02*
X183030476Y-123649580D01*
X184601904Y-123744819D02*
X184030476Y-123744819D01*
X184316190Y-123744819D02*
X184316190Y-122744819D01*
X184316190Y-122744819D02*
X184220952Y-122887676D01*
X184220952Y-122887676D02*
X184125714Y-122982914D01*
X184125714Y-122982914D02*
X184030476Y-123030533D01*
X210154819Y-85361904D02*
X210964342Y-85361904D01*
X210964342Y-85361904D02*
X211059580Y-85314285D01*
X211059580Y-85314285D02*
X211107200Y-85266666D01*
X211107200Y-85266666D02*
X211154819Y-85171428D01*
X211154819Y-85171428D02*
X211154819Y-84980952D01*
X211154819Y-84980952D02*
X211107200Y-84885714D01*
X211107200Y-84885714D02*
X211059580Y-84838095D01*
X211059580Y-84838095D02*
X210964342Y-84790476D01*
X210964342Y-84790476D02*
X210154819Y-84790476D01*
X210154819Y-83885714D02*
X210154819Y-84076190D01*
X210154819Y-84076190D02*
X210202438Y-84171428D01*
X210202438Y-84171428D02*
X210250057Y-84219047D01*
X210250057Y-84219047D02*
X210392914Y-84314285D01*
X210392914Y-84314285D02*
X210583390Y-84361904D01*
X210583390Y-84361904D02*
X210964342Y-84361904D01*
X210964342Y-84361904D02*
X211059580Y-84314285D01*
X211059580Y-84314285D02*
X211107200Y-84266666D01*
X211107200Y-84266666D02*
X211154819Y-84171428D01*
X211154819Y-84171428D02*
X211154819Y-83980952D01*
X211154819Y-83980952D02*
X211107200Y-83885714D01*
X211107200Y-83885714D02*
X211059580Y-83838095D01*
X211059580Y-83838095D02*
X210964342Y-83790476D01*
X210964342Y-83790476D02*
X210726247Y-83790476D01*
X210726247Y-83790476D02*
X210631009Y-83838095D01*
X210631009Y-83838095D02*
X210583390Y-83885714D01*
X210583390Y-83885714D02*
X210535771Y-83980952D01*
X210535771Y-83980952D02*
X210535771Y-84171428D01*
X210535771Y-84171428D02*
X210583390Y-84266666D01*
X210583390Y-84266666D02*
X210631009Y-84314285D01*
X210631009Y-84314285D02*
X210726247Y-84361904D01*
X207176411Y-119462111D02*
X207176411Y-119529455D01*
X207176411Y-119529455D02*
X207109067Y-119664142D01*
X207109067Y-119664142D02*
X207041724Y-119731485D01*
X207041724Y-119731485D02*
X206907037Y-119798829D01*
X206907037Y-119798829D02*
X206772350Y-119798829D01*
X206772350Y-119798829D02*
X206671335Y-119765157D01*
X206671335Y-119765157D02*
X206502976Y-119664142D01*
X206502976Y-119664142D02*
X206401961Y-119563127D01*
X206401961Y-119563127D02*
X206300945Y-119394768D01*
X206300945Y-119394768D02*
X206267274Y-119293753D01*
X206267274Y-119293753D02*
X206267274Y-119159066D01*
X206267274Y-119159066D02*
X206334617Y-119024379D01*
X206334617Y-119024379D02*
X206401961Y-118957035D01*
X206401961Y-118957035D02*
X206536648Y-118889692D01*
X206536648Y-118889692D02*
X206603991Y-118889692D01*
X207142739Y-118216257D02*
X207008052Y-118350944D01*
X207008052Y-118350944D02*
X206974380Y-118451959D01*
X206974380Y-118451959D02*
X206974380Y-118519302D01*
X206974380Y-118519302D02*
X207008052Y-118687661D01*
X207008052Y-118687661D02*
X207109067Y-118856020D01*
X207109067Y-118856020D02*
X207378441Y-119125394D01*
X207378441Y-119125394D02*
X207479457Y-119159066D01*
X207479457Y-119159066D02*
X207546800Y-119159066D01*
X207546800Y-119159066D02*
X207647815Y-119125394D01*
X207647815Y-119125394D02*
X207782502Y-118990707D01*
X207782502Y-118990707D02*
X207816174Y-118889692D01*
X207816174Y-118889692D02*
X207816174Y-118822348D01*
X207816174Y-118822348D02*
X207782502Y-118721333D01*
X207782502Y-118721333D02*
X207614144Y-118552974D01*
X207614144Y-118552974D02*
X207513128Y-118519302D01*
X207513128Y-118519302D02*
X207445785Y-118519302D01*
X207445785Y-118519302D02*
X207344770Y-118552974D01*
X207344770Y-118552974D02*
X207210083Y-118687661D01*
X207210083Y-118687661D02*
X207176411Y-118788676D01*
X207176411Y-118788676D02*
X207176411Y-118856020D01*
X207176411Y-118856020D02*
X207210083Y-118957035D01*
X205636333Y-130410580D02*
X205588714Y-130458200D01*
X205588714Y-130458200D02*
X205445857Y-130505819D01*
X205445857Y-130505819D02*
X205350619Y-130505819D01*
X205350619Y-130505819D02*
X205207762Y-130458200D01*
X205207762Y-130458200D02*
X205112524Y-130362961D01*
X205112524Y-130362961D02*
X205064905Y-130267723D01*
X205064905Y-130267723D02*
X205017286Y-130077247D01*
X205017286Y-130077247D02*
X205017286Y-129934390D01*
X205017286Y-129934390D02*
X205064905Y-129743914D01*
X205064905Y-129743914D02*
X205112524Y-129648676D01*
X205112524Y-129648676D02*
X205207762Y-129553438D01*
X205207762Y-129553438D02*
X205350619Y-129505819D01*
X205350619Y-129505819D02*
X205445857Y-129505819D01*
X205445857Y-129505819D02*
X205588714Y-129553438D01*
X205588714Y-129553438D02*
X205636333Y-129601057D01*
X206112524Y-130505819D02*
X206303000Y-130505819D01*
X206303000Y-130505819D02*
X206398238Y-130458200D01*
X206398238Y-130458200D02*
X206445857Y-130410580D01*
X206445857Y-130410580D02*
X206541095Y-130267723D01*
X206541095Y-130267723D02*
X206588714Y-130077247D01*
X206588714Y-130077247D02*
X206588714Y-129696295D01*
X206588714Y-129696295D02*
X206541095Y-129601057D01*
X206541095Y-129601057D02*
X206493476Y-129553438D01*
X206493476Y-129553438D02*
X206398238Y-129505819D01*
X206398238Y-129505819D02*
X206207762Y-129505819D01*
X206207762Y-129505819D02*
X206112524Y-129553438D01*
X206112524Y-129553438D02*
X206064905Y-129601057D01*
X206064905Y-129601057D02*
X206017286Y-129696295D01*
X206017286Y-129696295D02*
X206017286Y-129934390D01*
X206017286Y-129934390D02*
X206064905Y-130029628D01*
X206064905Y-130029628D02*
X206112524Y-130077247D01*
X206112524Y-130077247D02*
X206207762Y-130124866D01*
X206207762Y-130124866D02*
X206398238Y-130124866D01*
X206398238Y-130124866D02*
X206493476Y-130077247D01*
X206493476Y-130077247D02*
X206541095Y-130029628D01*
X206541095Y-130029628D02*
X206588714Y-129934390D01*
X198687142Y-92554819D02*
X198353809Y-92078628D01*
X198115714Y-92554819D02*
X198115714Y-91554819D01*
X198115714Y-91554819D02*
X198496666Y-91554819D01*
X198496666Y-91554819D02*
X198591904Y-91602438D01*
X198591904Y-91602438D02*
X198639523Y-91650057D01*
X198639523Y-91650057D02*
X198687142Y-91745295D01*
X198687142Y-91745295D02*
X198687142Y-91888152D01*
X198687142Y-91888152D02*
X198639523Y-91983390D01*
X198639523Y-91983390D02*
X198591904Y-92031009D01*
X198591904Y-92031009D02*
X198496666Y-92078628D01*
X198496666Y-92078628D02*
X198115714Y-92078628D01*
X199068095Y-91650057D02*
X199115714Y-91602438D01*
X199115714Y-91602438D02*
X199210952Y-91554819D01*
X199210952Y-91554819D02*
X199449047Y-91554819D01*
X199449047Y-91554819D02*
X199544285Y-91602438D01*
X199544285Y-91602438D02*
X199591904Y-91650057D01*
X199591904Y-91650057D02*
X199639523Y-91745295D01*
X199639523Y-91745295D02*
X199639523Y-91840533D01*
X199639523Y-91840533D02*
X199591904Y-91983390D01*
X199591904Y-91983390D02*
X199020476Y-92554819D01*
X199020476Y-92554819D02*
X199639523Y-92554819D01*
X200258571Y-91554819D02*
X200353809Y-91554819D01*
X200353809Y-91554819D02*
X200449047Y-91602438D01*
X200449047Y-91602438D02*
X200496666Y-91650057D01*
X200496666Y-91650057D02*
X200544285Y-91745295D01*
X200544285Y-91745295D02*
X200591904Y-91935771D01*
X200591904Y-91935771D02*
X200591904Y-92173866D01*
X200591904Y-92173866D02*
X200544285Y-92364342D01*
X200544285Y-92364342D02*
X200496666Y-92459580D01*
X200496666Y-92459580D02*
X200449047Y-92507200D01*
X200449047Y-92507200D02*
X200353809Y-92554819D01*
X200353809Y-92554819D02*
X200258571Y-92554819D01*
X200258571Y-92554819D02*
X200163333Y-92507200D01*
X200163333Y-92507200D02*
X200115714Y-92459580D01*
X200115714Y-92459580D02*
X200068095Y-92364342D01*
X200068095Y-92364342D02*
X200020476Y-92173866D01*
X200020476Y-92173866D02*
X200020476Y-91935771D01*
X200020476Y-91935771D02*
X200068095Y-91745295D01*
X200068095Y-91745295D02*
X200115714Y-91650057D01*
X200115714Y-91650057D02*
X200163333Y-91602438D01*
X200163333Y-91602438D02*
X200258571Y-91554819D01*
X190877142Y-73949580D02*
X190829523Y-73997200D01*
X190829523Y-73997200D02*
X190686666Y-74044819D01*
X190686666Y-74044819D02*
X190591428Y-74044819D01*
X190591428Y-74044819D02*
X190448571Y-73997200D01*
X190448571Y-73997200D02*
X190353333Y-73901961D01*
X190353333Y-73901961D02*
X190305714Y-73806723D01*
X190305714Y-73806723D02*
X190258095Y-73616247D01*
X190258095Y-73616247D02*
X190258095Y-73473390D01*
X190258095Y-73473390D02*
X190305714Y-73282914D01*
X190305714Y-73282914D02*
X190353333Y-73187676D01*
X190353333Y-73187676D02*
X190448571Y-73092438D01*
X190448571Y-73092438D02*
X190591428Y-73044819D01*
X190591428Y-73044819D02*
X190686666Y-73044819D01*
X190686666Y-73044819D02*
X190829523Y-73092438D01*
X190829523Y-73092438D02*
X190877142Y-73140057D01*
X191734285Y-73044819D02*
X191543809Y-73044819D01*
X191543809Y-73044819D02*
X191448571Y-73092438D01*
X191448571Y-73092438D02*
X191400952Y-73140057D01*
X191400952Y-73140057D02*
X191305714Y-73282914D01*
X191305714Y-73282914D02*
X191258095Y-73473390D01*
X191258095Y-73473390D02*
X191258095Y-73854342D01*
X191258095Y-73854342D02*
X191305714Y-73949580D01*
X191305714Y-73949580D02*
X191353333Y-73997200D01*
X191353333Y-73997200D02*
X191448571Y-74044819D01*
X191448571Y-74044819D02*
X191639047Y-74044819D01*
X191639047Y-74044819D02*
X191734285Y-73997200D01*
X191734285Y-73997200D02*
X191781904Y-73949580D01*
X191781904Y-73949580D02*
X191829523Y-73854342D01*
X191829523Y-73854342D02*
X191829523Y-73616247D01*
X191829523Y-73616247D02*
X191781904Y-73521009D01*
X191781904Y-73521009D02*
X191734285Y-73473390D01*
X191734285Y-73473390D02*
X191639047Y-73425771D01*
X191639047Y-73425771D02*
X191448571Y-73425771D01*
X191448571Y-73425771D02*
X191353333Y-73473390D01*
X191353333Y-73473390D02*
X191305714Y-73521009D01*
X191305714Y-73521009D02*
X191258095Y-73616247D01*
X192686666Y-73044819D02*
X192496190Y-73044819D01*
X192496190Y-73044819D02*
X192400952Y-73092438D01*
X192400952Y-73092438D02*
X192353333Y-73140057D01*
X192353333Y-73140057D02*
X192258095Y-73282914D01*
X192258095Y-73282914D02*
X192210476Y-73473390D01*
X192210476Y-73473390D02*
X192210476Y-73854342D01*
X192210476Y-73854342D02*
X192258095Y-73949580D01*
X192258095Y-73949580D02*
X192305714Y-73997200D01*
X192305714Y-73997200D02*
X192400952Y-74044819D01*
X192400952Y-74044819D02*
X192591428Y-74044819D01*
X192591428Y-74044819D02*
X192686666Y-73997200D01*
X192686666Y-73997200D02*
X192734285Y-73949580D01*
X192734285Y-73949580D02*
X192781904Y-73854342D01*
X192781904Y-73854342D02*
X192781904Y-73616247D01*
X192781904Y-73616247D02*
X192734285Y-73521009D01*
X192734285Y-73521009D02*
X192686666Y-73473390D01*
X192686666Y-73473390D02*
X192591428Y-73425771D01*
X192591428Y-73425771D02*
X192400952Y-73425771D01*
X192400952Y-73425771D02*
X192305714Y-73473390D01*
X192305714Y-73473390D02*
X192258095Y-73521009D01*
X192258095Y-73521009D02*
X192210476Y-73616247D01*
X215968342Y-137838819D02*
X215635009Y-137362628D01*
X215396914Y-137838819D02*
X215396914Y-136838819D01*
X215396914Y-136838819D02*
X215777866Y-136838819D01*
X215777866Y-136838819D02*
X215873104Y-136886438D01*
X215873104Y-136886438D02*
X215920723Y-136934057D01*
X215920723Y-136934057D02*
X215968342Y-137029295D01*
X215968342Y-137029295D02*
X215968342Y-137172152D01*
X215968342Y-137172152D02*
X215920723Y-137267390D01*
X215920723Y-137267390D02*
X215873104Y-137315009D01*
X215873104Y-137315009D02*
X215777866Y-137362628D01*
X215777866Y-137362628D02*
X215396914Y-137362628D01*
X216920723Y-137838819D02*
X216349295Y-137838819D01*
X216635009Y-137838819D02*
X216635009Y-136838819D01*
X216635009Y-136838819D02*
X216539771Y-136981676D01*
X216539771Y-136981676D02*
X216444533Y-137076914D01*
X216444533Y-137076914D02*
X216349295Y-137124533D01*
X217301676Y-136934057D02*
X217349295Y-136886438D01*
X217349295Y-136886438D02*
X217444533Y-136838819D01*
X217444533Y-136838819D02*
X217682628Y-136838819D01*
X217682628Y-136838819D02*
X217777866Y-136886438D01*
X217777866Y-136886438D02*
X217825485Y-136934057D01*
X217825485Y-136934057D02*
X217873104Y-137029295D01*
X217873104Y-137029295D02*
X217873104Y-137124533D01*
X217873104Y-137124533D02*
X217825485Y-137267390D01*
X217825485Y-137267390D02*
X217254057Y-137838819D01*
X217254057Y-137838819D02*
X217873104Y-137838819D01*
X182125714Y-99744819D02*
X182125714Y-98744819D01*
X182125714Y-98744819D02*
X182363809Y-98744819D01*
X182363809Y-98744819D02*
X182506666Y-98792438D01*
X182506666Y-98792438D02*
X182601904Y-98887676D01*
X182601904Y-98887676D02*
X182649523Y-98982914D01*
X182649523Y-98982914D02*
X182697142Y-99173390D01*
X182697142Y-99173390D02*
X182697142Y-99316247D01*
X182697142Y-99316247D02*
X182649523Y-99506723D01*
X182649523Y-99506723D02*
X182601904Y-99601961D01*
X182601904Y-99601961D02*
X182506666Y-99697200D01*
X182506666Y-99697200D02*
X182363809Y-99744819D01*
X182363809Y-99744819D02*
X182125714Y-99744819D01*
X183078095Y-98840057D02*
X183125714Y-98792438D01*
X183125714Y-98792438D02*
X183220952Y-98744819D01*
X183220952Y-98744819D02*
X183459047Y-98744819D01*
X183459047Y-98744819D02*
X183554285Y-98792438D01*
X183554285Y-98792438D02*
X183601904Y-98840057D01*
X183601904Y-98840057D02*
X183649523Y-98935295D01*
X183649523Y-98935295D02*
X183649523Y-99030533D01*
X183649523Y-99030533D02*
X183601904Y-99173390D01*
X183601904Y-99173390D02*
X183030476Y-99744819D01*
X183030476Y-99744819D02*
X183649523Y-99744819D01*
X184554285Y-98744819D02*
X184078095Y-98744819D01*
X184078095Y-98744819D02*
X184030476Y-99221009D01*
X184030476Y-99221009D02*
X184078095Y-99173390D01*
X184078095Y-99173390D02*
X184173333Y-99125771D01*
X184173333Y-99125771D02*
X184411428Y-99125771D01*
X184411428Y-99125771D02*
X184506666Y-99173390D01*
X184506666Y-99173390D02*
X184554285Y-99221009D01*
X184554285Y-99221009D02*
X184601904Y-99316247D01*
X184601904Y-99316247D02*
X184601904Y-99554342D01*
X184601904Y-99554342D02*
X184554285Y-99649580D01*
X184554285Y-99649580D02*
X184506666Y-99697200D01*
X184506666Y-99697200D02*
X184411428Y-99744819D01*
X184411428Y-99744819D02*
X184173333Y-99744819D01*
X184173333Y-99744819D02*
X184078095Y-99697200D01*
X184078095Y-99697200D02*
X184030476Y-99649580D01*
X209404819Y-89214285D02*
X208404819Y-89214285D01*
X208404819Y-89214285D02*
X208404819Y-88976190D01*
X208404819Y-88976190D02*
X208452438Y-88833333D01*
X208452438Y-88833333D02*
X208547676Y-88738095D01*
X208547676Y-88738095D02*
X208642914Y-88690476D01*
X208642914Y-88690476D02*
X208833390Y-88642857D01*
X208833390Y-88642857D02*
X208976247Y-88642857D01*
X208976247Y-88642857D02*
X209166723Y-88690476D01*
X209166723Y-88690476D02*
X209261961Y-88738095D01*
X209261961Y-88738095D02*
X209357200Y-88833333D01*
X209357200Y-88833333D02*
X209404819Y-88976190D01*
X209404819Y-88976190D02*
X209404819Y-89214285D01*
X209404819Y-87690476D02*
X209404819Y-88261904D01*
X209404819Y-87976190D02*
X208404819Y-87976190D01*
X208404819Y-87976190D02*
X208547676Y-88071428D01*
X208547676Y-88071428D02*
X208642914Y-88166666D01*
X208642914Y-88166666D02*
X208690533Y-88261904D01*
X208404819Y-87357142D02*
X208404819Y-86738095D01*
X208404819Y-86738095D02*
X208785771Y-87071428D01*
X208785771Y-87071428D02*
X208785771Y-86928571D01*
X208785771Y-86928571D02*
X208833390Y-86833333D01*
X208833390Y-86833333D02*
X208881009Y-86785714D01*
X208881009Y-86785714D02*
X208976247Y-86738095D01*
X208976247Y-86738095D02*
X209214342Y-86738095D01*
X209214342Y-86738095D02*
X209309580Y-86785714D01*
X209309580Y-86785714D02*
X209357200Y-86833333D01*
X209357200Y-86833333D02*
X209404819Y-86928571D01*
X209404819Y-86928571D02*
X209404819Y-87214285D01*
X209404819Y-87214285D02*
X209357200Y-87309523D01*
X209357200Y-87309523D02*
X209309580Y-87357142D01*
X218054819Y-87414285D02*
X217054819Y-87414285D01*
X217054819Y-87414285D02*
X217054819Y-87176190D01*
X217054819Y-87176190D02*
X217102438Y-87033333D01*
X217102438Y-87033333D02*
X217197676Y-86938095D01*
X217197676Y-86938095D02*
X217292914Y-86890476D01*
X217292914Y-86890476D02*
X217483390Y-86842857D01*
X217483390Y-86842857D02*
X217626247Y-86842857D01*
X217626247Y-86842857D02*
X217816723Y-86890476D01*
X217816723Y-86890476D02*
X217911961Y-86938095D01*
X217911961Y-86938095D02*
X218007200Y-87033333D01*
X218007200Y-87033333D02*
X218054819Y-87176190D01*
X218054819Y-87176190D02*
X218054819Y-87414285D01*
X218054819Y-85890476D02*
X218054819Y-86461904D01*
X218054819Y-86176190D02*
X217054819Y-86176190D01*
X217054819Y-86176190D02*
X217197676Y-86271428D01*
X217197676Y-86271428D02*
X217292914Y-86366666D01*
X217292914Y-86366666D02*
X217340533Y-86461904D01*
X217054819Y-85557142D02*
X217054819Y-84890476D01*
X217054819Y-84890476D02*
X218054819Y-85319047D01*
X200113825Y-118057035D02*
X200214840Y-117484616D01*
X199709764Y-117652974D02*
X200416871Y-116945868D01*
X200416871Y-116945868D02*
X200686245Y-117215242D01*
X200686245Y-117215242D02*
X200719917Y-117316257D01*
X200719917Y-117316257D02*
X200719917Y-117383600D01*
X200719917Y-117383600D02*
X200686245Y-117484616D01*
X200686245Y-117484616D02*
X200585230Y-117585631D01*
X200585230Y-117585631D02*
X200484214Y-117619303D01*
X200484214Y-117619303D02*
X200416871Y-117619303D01*
X200416871Y-117619303D02*
X200315856Y-117585631D01*
X200315856Y-117585631D02*
X200046482Y-117316257D01*
X200787260Y-118730470D02*
X200383199Y-118326409D01*
X200585230Y-118528440D02*
X201292336Y-117821333D01*
X201292336Y-117821333D02*
X201123978Y-117855005D01*
X201123978Y-117855005D02*
X200989291Y-117855005D01*
X200989291Y-117855005D02*
X200888275Y-117821333D01*
X201595382Y-118730471D02*
X201561711Y-118629455D01*
X201561711Y-118629455D02*
X201561711Y-118562112D01*
X201561711Y-118562112D02*
X201595382Y-118461097D01*
X201595382Y-118461097D02*
X201629054Y-118427425D01*
X201629054Y-118427425D02*
X201730069Y-118393753D01*
X201730069Y-118393753D02*
X201797413Y-118393753D01*
X201797413Y-118393753D02*
X201898428Y-118427425D01*
X201898428Y-118427425D02*
X202033115Y-118562112D01*
X202033115Y-118562112D02*
X202066787Y-118663127D01*
X202066787Y-118663127D02*
X202066787Y-118730471D01*
X202066787Y-118730471D02*
X202033115Y-118831486D01*
X202033115Y-118831486D02*
X201999443Y-118865158D01*
X201999443Y-118865158D02*
X201898428Y-118898829D01*
X201898428Y-118898829D02*
X201831085Y-118898829D01*
X201831085Y-118898829D02*
X201730069Y-118865158D01*
X201730069Y-118865158D02*
X201595382Y-118730471D01*
X201595382Y-118730471D02*
X201494367Y-118696799D01*
X201494367Y-118696799D02*
X201427024Y-118696799D01*
X201427024Y-118696799D02*
X201326008Y-118730471D01*
X201326008Y-118730471D02*
X201191321Y-118865158D01*
X201191321Y-118865158D02*
X201157650Y-118966173D01*
X201157650Y-118966173D02*
X201157650Y-119033516D01*
X201157650Y-119033516D02*
X201191321Y-119134532D01*
X201191321Y-119134532D02*
X201326008Y-119269219D01*
X201326008Y-119269219D02*
X201427024Y-119302890D01*
X201427024Y-119302890D02*
X201494367Y-119302890D01*
X201494367Y-119302890D02*
X201595382Y-119269219D01*
X201595382Y-119269219D02*
X201730069Y-119134532D01*
X201730069Y-119134532D02*
X201763741Y-119033516D01*
X201763741Y-119033516D02*
X201763741Y-118966173D01*
X201763741Y-118966173D02*
X201730069Y-118865158D01*
X222994819Y-58753333D02*
X223709104Y-58753333D01*
X223709104Y-58753333D02*
X223851961Y-58800952D01*
X223851961Y-58800952D02*
X223947200Y-58896190D01*
X223947200Y-58896190D02*
X223994819Y-59039047D01*
X223994819Y-59039047D02*
X223994819Y-59134285D01*
X223994819Y-57753333D02*
X223994819Y-58324761D01*
X223994819Y-58039047D02*
X222994819Y-58039047D01*
X222994819Y-58039047D02*
X223137676Y-58134285D01*
X223137676Y-58134285D02*
X223232914Y-58229523D01*
X223232914Y-58229523D02*
X223280533Y-58324761D01*
X211492695Y-116094619D02*
X211492695Y-116904142D01*
X211492695Y-116904142D02*
X211540314Y-116999380D01*
X211540314Y-116999380D02*
X211587933Y-117047000D01*
X211587933Y-117047000D02*
X211683171Y-117094619D01*
X211683171Y-117094619D02*
X211873647Y-117094619D01*
X211873647Y-117094619D02*
X211968885Y-117047000D01*
X211968885Y-117047000D02*
X212016504Y-116999380D01*
X212016504Y-116999380D02*
X212064123Y-116904142D01*
X212064123Y-116904142D02*
X212064123Y-116094619D01*
X212445076Y-116094619D02*
X213064123Y-116094619D01*
X213064123Y-116094619D02*
X212730790Y-116475571D01*
X212730790Y-116475571D02*
X212873647Y-116475571D01*
X212873647Y-116475571D02*
X212968885Y-116523190D01*
X212968885Y-116523190D02*
X213016504Y-116570809D01*
X213016504Y-116570809D02*
X213064123Y-116666047D01*
X213064123Y-116666047D02*
X213064123Y-116904142D01*
X213064123Y-116904142D02*
X213016504Y-116999380D01*
X213016504Y-116999380D02*
X212968885Y-117047000D01*
X212968885Y-117047000D02*
X212873647Y-117094619D01*
X212873647Y-117094619D02*
X212587933Y-117094619D01*
X212587933Y-117094619D02*
X212492695Y-117047000D01*
X212492695Y-117047000D02*
X212445076Y-116999380D01*
X204519580Y-87992857D02*
X204567200Y-88040476D01*
X204567200Y-88040476D02*
X204614819Y-88183333D01*
X204614819Y-88183333D02*
X204614819Y-88278571D01*
X204614819Y-88278571D02*
X204567200Y-88421428D01*
X204567200Y-88421428D02*
X204471961Y-88516666D01*
X204471961Y-88516666D02*
X204376723Y-88564285D01*
X204376723Y-88564285D02*
X204186247Y-88611904D01*
X204186247Y-88611904D02*
X204043390Y-88611904D01*
X204043390Y-88611904D02*
X203852914Y-88564285D01*
X203852914Y-88564285D02*
X203757676Y-88516666D01*
X203757676Y-88516666D02*
X203662438Y-88421428D01*
X203662438Y-88421428D02*
X203614819Y-88278571D01*
X203614819Y-88278571D02*
X203614819Y-88183333D01*
X203614819Y-88183333D02*
X203662438Y-88040476D01*
X203662438Y-88040476D02*
X203710057Y-87992857D01*
X204614819Y-87040476D02*
X204614819Y-87611904D01*
X204614819Y-87326190D02*
X203614819Y-87326190D01*
X203614819Y-87326190D02*
X203757676Y-87421428D01*
X203757676Y-87421428D02*
X203852914Y-87516666D01*
X203852914Y-87516666D02*
X203900533Y-87611904D01*
X204614819Y-86564285D02*
X204614819Y-86373809D01*
X204614819Y-86373809D02*
X204567200Y-86278571D01*
X204567200Y-86278571D02*
X204519580Y-86230952D01*
X204519580Y-86230952D02*
X204376723Y-86135714D01*
X204376723Y-86135714D02*
X204186247Y-86088095D01*
X204186247Y-86088095D02*
X203805295Y-86088095D01*
X203805295Y-86088095D02*
X203710057Y-86135714D01*
X203710057Y-86135714D02*
X203662438Y-86183333D01*
X203662438Y-86183333D02*
X203614819Y-86278571D01*
X203614819Y-86278571D02*
X203614819Y-86469047D01*
X203614819Y-86469047D02*
X203662438Y-86564285D01*
X203662438Y-86564285D02*
X203710057Y-86611904D01*
X203710057Y-86611904D02*
X203805295Y-86659523D01*
X203805295Y-86659523D02*
X204043390Y-86659523D01*
X204043390Y-86659523D02*
X204138628Y-86611904D01*
X204138628Y-86611904D02*
X204186247Y-86564285D01*
X204186247Y-86564285D02*
X204233866Y-86469047D01*
X204233866Y-86469047D02*
X204233866Y-86278571D01*
X204233866Y-86278571D02*
X204186247Y-86183333D01*
X204186247Y-86183333D02*
X204138628Y-86135714D01*
X204138628Y-86135714D02*
X204043390Y-86088095D01*
X178088214Y-74984819D02*
X178088214Y-73984819D01*
X178088214Y-73984819D02*
X178326309Y-73984819D01*
X178326309Y-73984819D02*
X178469166Y-74032438D01*
X178469166Y-74032438D02*
X178564404Y-74127676D01*
X178564404Y-74127676D02*
X178612023Y-74222914D01*
X178612023Y-74222914D02*
X178659642Y-74413390D01*
X178659642Y-74413390D02*
X178659642Y-74556247D01*
X178659642Y-74556247D02*
X178612023Y-74746723D01*
X178612023Y-74746723D02*
X178564404Y-74841961D01*
X178564404Y-74841961D02*
X178469166Y-74937200D01*
X178469166Y-74937200D02*
X178326309Y-74984819D01*
X178326309Y-74984819D02*
X178088214Y-74984819D01*
X178992976Y-73984819D02*
X179612023Y-73984819D01*
X179612023Y-73984819D02*
X179278690Y-74365771D01*
X179278690Y-74365771D02*
X179421547Y-74365771D01*
X179421547Y-74365771D02*
X179516785Y-74413390D01*
X179516785Y-74413390D02*
X179564404Y-74461009D01*
X179564404Y-74461009D02*
X179612023Y-74556247D01*
X179612023Y-74556247D02*
X179612023Y-74794342D01*
X179612023Y-74794342D02*
X179564404Y-74889580D01*
X179564404Y-74889580D02*
X179516785Y-74937200D01*
X179516785Y-74937200D02*
X179421547Y-74984819D01*
X179421547Y-74984819D02*
X179135833Y-74984819D01*
X179135833Y-74984819D02*
X179040595Y-74937200D01*
X179040595Y-74937200D02*
X178992976Y-74889580D01*
X180516785Y-73984819D02*
X180040595Y-73984819D01*
X180040595Y-73984819D02*
X179992976Y-74461009D01*
X179992976Y-74461009D02*
X180040595Y-74413390D01*
X180040595Y-74413390D02*
X180135833Y-74365771D01*
X180135833Y-74365771D02*
X180373928Y-74365771D01*
X180373928Y-74365771D02*
X180469166Y-74413390D01*
X180469166Y-74413390D02*
X180516785Y-74461009D01*
X180516785Y-74461009D02*
X180564404Y-74556247D01*
X180564404Y-74556247D02*
X180564404Y-74794342D01*
X180564404Y-74794342D02*
X180516785Y-74889580D01*
X180516785Y-74889580D02*
X180469166Y-74937200D01*
X180469166Y-74937200D02*
X180373928Y-74984819D01*
X180373928Y-74984819D02*
X180135833Y-74984819D01*
X180135833Y-74984819D02*
X180040595Y-74937200D01*
X180040595Y-74937200D02*
X179992976Y-74889580D01*
X182125714Y-91744819D02*
X182125714Y-90744819D01*
X182125714Y-90744819D02*
X182363809Y-90744819D01*
X182363809Y-90744819D02*
X182506666Y-90792438D01*
X182506666Y-90792438D02*
X182601904Y-90887676D01*
X182601904Y-90887676D02*
X182649523Y-90982914D01*
X182649523Y-90982914D02*
X182697142Y-91173390D01*
X182697142Y-91173390D02*
X182697142Y-91316247D01*
X182697142Y-91316247D02*
X182649523Y-91506723D01*
X182649523Y-91506723D02*
X182601904Y-91601961D01*
X182601904Y-91601961D02*
X182506666Y-91697200D01*
X182506666Y-91697200D02*
X182363809Y-91744819D01*
X182363809Y-91744819D02*
X182125714Y-91744819D01*
X183078095Y-90840057D02*
X183125714Y-90792438D01*
X183125714Y-90792438D02*
X183220952Y-90744819D01*
X183220952Y-90744819D02*
X183459047Y-90744819D01*
X183459047Y-90744819D02*
X183554285Y-90792438D01*
X183554285Y-90792438D02*
X183601904Y-90840057D01*
X183601904Y-90840057D02*
X183649523Y-90935295D01*
X183649523Y-90935295D02*
X183649523Y-91030533D01*
X183649523Y-91030533D02*
X183601904Y-91173390D01*
X183601904Y-91173390D02*
X183030476Y-91744819D01*
X183030476Y-91744819D02*
X183649523Y-91744819D01*
X183982857Y-90744819D02*
X184601904Y-90744819D01*
X184601904Y-90744819D02*
X184268571Y-91125771D01*
X184268571Y-91125771D02*
X184411428Y-91125771D01*
X184411428Y-91125771D02*
X184506666Y-91173390D01*
X184506666Y-91173390D02*
X184554285Y-91221009D01*
X184554285Y-91221009D02*
X184601904Y-91316247D01*
X184601904Y-91316247D02*
X184601904Y-91554342D01*
X184601904Y-91554342D02*
X184554285Y-91649580D01*
X184554285Y-91649580D02*
X184506666Y-91697200D01*
X184506666Y-91697200D02*
X184411428Y-91744819D01*
X184411428Y-91744819D02*
X184125714Y-91744819D01*
X184125714Y-91744819D02*
X184030476Y-91697200D01*
X184030476Y-91697200D02*
X183982857Y-91649580D01*
X192229580Y-88222857D02*
X192277200Y-88270476D01*
X192277200Y-88270476D02*
X192324819Y-88413333D01*
X192324819Y-88413333D02*
X192324819Y-88508571D01*
X192324819Y-88508571D02*
X192277200Y-88651428D01*
X192277200Y-88651428D02*
X192181961Y-88746666D01*
X192181961Y-88746666D02*
X192086723Y-88794285D01*
X192086723Y-88794285D02*
X191896247Y-88841904D01*
X191896247Y-88841904D02*
X191753390Y-88841904D01*
X191753390Y-88841904D02*
X191562914Y-88794285D01*
X191562914Y-88794285D02*
X191467676Y-88746666D01*
X191467676Y-88746666D02*
X191372438Y-88651428D01*
X191372438Y-88651428D02*
X191324819Y-88508571D01*
X191324819Y-88508571D02*
X191324819Y-88413333D01*
X191324819Y-88413333D02*
X191372438Y-88270476D01*
X191372438Y-88270476D02*
X191420057Y-88222857D01*
X191324819Y-87318095D02*
X191324819Y-87794285D01*
X191324819Y-87794285D02*
X191801009Y-87841904D01*
X191801009Y-87841904D02*
X191753390Y-87794285D01*
X191753390Y-87794285D02*
X191705771Y-87699047D01*
X191705771Y-87699047D02*
X191705771Y-87460952D01*
X191705771Y-87460952D02*
X191753390Y-87365714D01*
X191753390Y-87365714D02*
X191801009Y-87318095D01*
X191801009Y-87318095D02*
X191896247Y-87270476D01*
X191896247Y-87270476D02*
X192134342Y-87270476D01*
X192134342Y-87270476D02*
X192229580Y-87318095D01*
X192229580Y-87318095D02*
X192277200Y-87365714D01*
X192277200Y-87365714D02*
X192324819Y-87460952D01*
X192324819Y-87460952D02*
X192324819Y-87699047D01*
X192324819Y-87699047D02*
X192277200Y-87794285D01*
X192277200Y-87794285D02*
X192229580Y-87841904D01*
X192324819Y-86318095D02*
X192324819Y-86889523D01*
X192324819Y-86603809D02*
X191324819Y-86603809D01*
X191324819Y-86603809D02*
X191467676Y-86699047D01*
X191467676Y-86699047D02*
X191562914Y-86794285D01*
X191562914Y-86794285D02*
X191610533Y-86889523D01*
X208033333Y-113454819D02*
X207700000Y-112978628D01*
X207461905Y-113454819D02*
X207461905Y-112454819D01*
X207461905Y-112454819D02*
X207842857Y-112454819D01*
X207842857Y-112454819D02*
X207938095Y-112502438D01*
X207938095Y-112502438D02*
X207985714Y-112550057D01*
X207985714Y-112550057D02*
X208033333Y-112645295D01*
X208033333Y-112645295D02*
X208033333Y-112788152D01*
X208033333Y-112788152D02*
X207985714Y-112883390D01*
X207985714Y-112883390D02*
X207938095Y-112931009D01*
X207938095Y-112931009D02*
X207842857Y-112978628D01*
X207842857Y-112978628D02*
X207461905Y-112978628D01*
X208985714Y-113454819D02*
X208414286Y-113454819D01*
X208700000Y-113454819D02*
X208700000Y-112454819D01*
X208700000Y-112454819D02*
X208604762Y-112597676D01*
X208604762Y-112597676D02*
X208509524Y-112692914D01*
X208509524Y-112692914D02*
X208414286Y-112740533D01*
X194007142Y-81259580D02*
X193959523Y-81307200D01*
X193959523Y-81307200D02*
X193816666Y-81354819D01*
X193816666Y-81354819D02*
X193721428Y-81354819D01*
X193721428Y-81354819D02*
X193578571Y-81307200D01*
X193578571Y-81307200D02*
X193483333Y-81211961D01*
X193483333Y-81211961D02*
X193435714Y-81116723D01*
X193435714Y-81116723D02*
X193388095Y-80926247D01*
X193388095Y-80926247D02*
X193388095Y-80783390D01*
X193388095Y-80783390D02*
X193435714Y-80592914D01*
X193435714Y-80592914D02*
X193483333Y-80497676D01*
X193483333Y-80497676D02*
X193578571Y-80402438D01*
X193578571Y-80402438D02*
X193721428Y-80354819D01*
X193721428Y-80354819D02*
X193816666Y-80354819D01*
X193816666Y-80354819D02*
X193959523Y-80402438D01*
X193959523Y-80402438D02*
X194007142Y-80450057D01*
X194864285Y-80354819D02*
X194673809Y-80354819D01*
X194673809Y-80354819D02*
X194578571Y-80402438D01*
X194578571Y-80402438D02*
X194530952Y-80450057D01*
X194530952Y-80450057D02*
X194435714Y-80592914D01*
X194435714Y-80592914D02*
X194388095Y-80783390D01*
X194388095Y-80783390D02*
X194388095Y-81164342D01*
X194388095Y-81164342D02*
X194435714Y-81259580D01*
X194435714Y-81259580D02*
X194483333Y-81307200D01*
X194483333Y-81307200D02*
X194578571Y-81354819D01*
X194578571Y-81354819D02*
X194769047Y-81354819D01*
X194769047Y-81354819D02*
X194864285Y-81307200D01*
X194864285Y-81307200D02*
X194911904Y-81259580D01*
X194911904Y-81259580D02*
X194959523Y-81164342D01*
X194959523Y-81164342D02*
X194959523Y-80926247D01*
X194959523Y-80926247D02*
X194911904Y-80831009D01*
X194911904Y-80831009D02*
X194864285Y-80783390D01*
X194864285Y-80783390D02*
X194769047Y-80735771D01*
X194769047Y-80735771D02*
X194578571Y-80735771D01*
X194578571Y-80735771D02*
X194483333Y-80783390D01*
X194483333Y-80783390D02*
X194435714Y-80831009D01*
X194435714Y-80831009D02*
X194388095Y-80926247D01*
X195816666Y-80688152D02*
X195816666Y-81354819D01*
X195578571Y-80307200D02*
X195340476Y-81021485D01*
X195340476Y-81021485D02*
X195959523Y-81021485D01*
X217421009Y-115213333D02*
X217421009Y-115546666D01*
X217944819Y-115546666D02*
X216944819Y-115546666D01*
X216944819Y-115546666D02*
X216944819Y-115070476D01*
X217421009Y-114356190D02*
X217468628Y-114213333D01*
X217468628Y-114213333D02*
X217516247Y-114165714D01*
X217516247Y-114165714D02*
X217611485Y-114118095D01*
X217611485Y-114118095D02*
X217754342Y-114118095D01*
X217754342Y-114118095D02*
X217849580Y-114165714D01*
X217849580Y-114165714D02*
X217897200Y-114213333D01*
X217897200Y-114213333D02*
X217944819Y-114308571D01*
X217944819Y-114308571D02*
X217944819Y-114689523D01*
X217944819Y-114689523D02*
X216944819Y-114689523D01*
X216944819Y-114689523D02*
X216944819Y-114356190D01*
X216944819Y-114356190D02*
X216992438Y-114260952D01*
X216992438Y-114260952D02*
X217040057Y-114213333D01*
X217040057Y-114213333D02*
X217135295Y-114165714D01*
X217135295Y-114165714D02*
X217230533Y-114165714D01*
X217230533Y-114165714D02*
X217325771Y-114213333D01*
X217325771Y-114213333D02*
X217373390Y-114260952D01*
X217373390Y-114260952D02*
X217421009Y-114356190D01*
X217421009Y-114356190D02*
X217421009Y-114689523D01*
X217040057Y-113737142D02*
X216992438Y-113689523D01*
X216992438Y-113689523D02*
X216944819Y-113594285D01*
X216944819Y-113594285D02*
X216944819Y-113356190D01*
X216944819Y-113356190D02*
X216992438Y-113260952D01*
X216992438Y-113260952D02*
X217040057Y-113213333D01*
X217040057Y-113213333D02*
X217135295Y-113165714D01*
X217135295Y-113165714D02*
X217230533Y-113165714D01*
X217230533Y-113165714D02*
X217373390Y-113213333D01*
X217373390Y-113213333D02*
X217944819Y-113784761D01*
X217944819Y-113784761D02*
X217944819Y-113165714D01*
X190857142Y-75449580D02*
X190809523Y-75497200D01*
X190809523Y-75497200D02*
X190666666Y-75544819D01*
X190666666Y-75544819D02*
X190571428Y-75544819D01*
X190571428Y-75544819D02*
X190428571Y-75497200D01*
X190428571Y-75497200D02*
X190333333Y-75401961D01*
X190333333Y-75401961D02*
X190285714Y-75306723D01*
X190285714Y-75306723D02*
X190238095Y-75116247D01*
X190238095Y-75116247D02*
X190238095Y-74973390D01*
X190238095Y-74973390D02*
X190285714Y-74782914D01*
X190285714Y-74782914D02*
X190333333Y-74687676D01*
X190333333Y-74687676D02*
X190428571Y-74592438D01*
X190428571Y-74592438D02*
X190571428Y-74544819D01*
X190571428Y-74544819D02*
X190666666Y-74544819D01*
X190666666Y-74544819D02*
X190809523Y-74592438D01*
X190809523Y-74592438D02*
X190857142Y-74640057D01*
X191714285Y-74544819D02*
X191523809Y-74544819D01*
X191523809Y-74544819D02*
X191428571Y-74592438D01*
X191428571Y-74592438D02*
X191380952Y-74640057D01*
X191380952Y-74640057D02*
X191285714Y-74782914D01*
X191285714Y-74782914D02*
X191238095Y-74973390D01*
X191238095Y-74973390D02*
X191238095Y-75354342D01*
X191238095Y-75354342D02*
X191285714Y-75449580D01*
X191285714Y-75449580D02*
X191333333Y-75497200D01*
X191333333Y-75497200D02*
X191428571Y-75544819D01*
X191428571Y-75544819D02*
X191619047Y-75544819D01*
X191619047Y-75544819D02*
X191714285Y-75497200D01*
X191714285Y-75497200D02*
X191761904Y-75449580D01*
X191761904Y-75449580D02*
X191809523Y-75354342D01*
X191809523Y-75354342D02*
X191809523Y-75116247D01*
X191809523Y-75116247D02*
X191761904Y-75021009D01*
X191761904Y-75021009D02*
X191714285Y-74973390D01*
X191714285Y-74973390D02*
X191619047Y-74925771D01*
X191619047Y-74925771D02*
X191428571Y-74925771D01*
X191428571Y-74925771D02*
X191333333Y-74973390D01*
X191333333Y-74973390D02*
X191285714Y-75021009D01*
X191285714Y-75021009D02*
X191238095Y-75116247D01*
X192142857Y-74544819D02*
X192761904Y-74544819D01*
X192761904Y-74544819D02*
X192428571Y-74925771D01*
X192428571Y-74925771D02*
X192571428Y-74925771D01*
X192571428Y-74925771D02*
X192666666Y-74973390D01*
X192666666Y-74973390D02*
X192714285Y-75021009D01*
X192714285Y-75021009D02*
X192761904Y-75116247D01*
X192761904Y-75116247D02*
X192761904Y-75354342D01*
X192761904Y-75354342D02*
X192714285Y-75449580D01*
X192714285Y-75449580D02*
X192666666Y-75497200D01*
X192666666Y-75497200D02*
X192571428Y-75544819D01*
X192571428Y-75544819D02*
X192285714Y-75544819D01*
X192285714Y-75544819D02*
X192190476Y-75497200D01*
X192190476Y-75497200D02*
X192142857Y-75449580D01*
X200497142Y-138194819D02*
X200163809Y-137718628D01*
X199925714Y-138194819D02*
X199925714Y-137194819D01*
X199925714Y-137194819D02*
X200306666Y-137194819D01*
X200306666Y-137194819D02*
X200401904Y-137242438D01*
X200401904Y-137242438D02*
X200449523Y-137290057D01*
X200449523Y-137290057D02*
X200497142Y-137385295D01*
X200497142Y-137385295D02*
X200497142Y-137528152D01*
X200497142Y-137528152D02*
X200449523Y-137623390D01*
X200449523Y-137623390D02*
X200401904Y-137671009D01*
X200401904Y-137671009D02*
X200306666Y-137718628D01*
X200306666Y-137718628D02*
X199925714Y-137718628D01*
X201449523Y-138194819D02*
X200878095Y-138194819D01*
X201163809Y-138194819D02*
X201163809Y-137194819D01*
X201163809Y-137194819D02*
X201068571Y-137337676D01*
X201068571Y-137337676D02*
X200973333Y-137432914D01*
X200973333Y-137432914D02*
X200878095Y-137480533D01*
X202401904Y-138194819D02*
X201830476Y-138194819D01*
X202116190Y-138194819D02*
X202116190Y-137194819D01*
X202116190Y-137194819D02*
X202020952Y-137337676D01*
X202020952Y-137337676D02*
X201925714Y-137432914D01*
X201925714Y-137432914D02*
X201830476Y-137480533D01*
X206764641Y-80949580D02*
X206717022Y-80997200D01*
X206717022Y-80997200D02*
X206574165Y-81044819D01*
X206574165Y-81044819D02*
X206478927Y-81044819D01*
X206478927Y-81044819D02*
X206336070Y-80997200D01*
X206336070Y-80997200D02*
X206240832Y-80901961D01*
X206240832Y-80901961D02*
X206193213Y-80806723D01*
X206193213Y-80806723D02*
X206145594Y-80616247D01*
X206145594Y-80616247D02*
X206145594Y-80473390D01*
X206145594Y-80473390D02*
X206193213Y-80282914D01*
X206193213Y-80282914D02*
X206240832Y-80187676D01*
X206240832Y-80187676D02*
X206336070Y-80092438D01*
X206336070Y-80092438D02*
X206478927Y-80044819D01*
X206478927Y-80044819D02*
X206574165Y-80044819D01*
X206574165Y-80044819D02*
X206717022Y-80092438D01*
X206717022Y-80092438D02*
X206764641Y-80140057D01*
X207669403Y-80044819D02*
X207193213Y-80044819D01*
X207193213Y-80044819D02*
X207145594Y-80521009D01*
X207145594Y-80521009D02*
X207193213Y-80473390D01*
X207193213Y-80473390D02*
X207288451Y-80425771D01*
X207288451Y-80425771D02*
X207526546Y-80425771D01*
X207526546Y-80425771D02*
X207621784Y-80473390D01*
X207621784Y-80473390D02*
X207669403Y-80521009D01*
X207669403Y-80521009D02*
X207717022Y-80616247D01*
X207717022Y-80616247D02*
X207717022Y-80854342D01*
X207717022Y-80854342D02*
X207669403Y-80949580D01*
X207669403Y-80949580D02*
X207621784Y-80997200D01*
X207621784Y-80997200D02*
X207526546Y-81044819D01*
X207526546Y-81044819D02*
X207288451Y-81044819D01*
X207288451Y-81044819D02*
X207193213Y-80997200D01*
X207193213Y-80997200D02*
X207145594Y-80949580D01*
X208193213Y-81044819D02*
X208383689Y-81044819D01*
X208383689Y-81044819D02*
X208478927Y-80997200D01*
X208478927Y-80997200D02*
X208526546Y-80949580D01*
X208526546Y-80949580D02*
X208621784Y-80806723D01*
X208621784Y-80806723D02*
X208669403Y-80616247D01*
X208669403Y-80616247D02*
X208669403Y-80235295D01*
X208669403Y-80235295D02*
X208621784Y-80140057D01*
X208621784Y-80140057D02*
X208574165Y-80092438D01*
X208574165Y-80092438D02*
X208478927Y-80044819D01*
X208478927Y-80044819D02*
X208288451Y-80044819D01*
X208288451Y-80044819D02*
X208193213Y-80092438D01*
X208193213Y-80092438D02*
X208145594Y-80140057D01*
X208145594Y-80140057D02*
X208097975Y-80235295D01*
X208097975Y-80235295D02*
X208097975Y-80473390D01*
X208097975Y-80473390D02*
X208145594Y-80568628D01*
X208145594Y-80568628D02*
X208193213Y-80616247D01*
X208193213Y-80616247D02*
X208288451Y-80663866D01*
X208288451Y-80663866D02*
X208478927Y-80663866D01*
X208478927Y-80663866D02*
X208574165Y-80616247D01*
X208574165Y-80616247D02*
X208621784Y-80568628D01*
X208621784Y-80568628D02*
X208669403Y-80473390D01*
X207294819Y-125378094D02*
X206294819Y-125378094D01*
X206294819Y-125378094D02*
X206294819Y-125139999D01*
X206294819Y-125139999D02*
X206342438Y-124997142D01*
X206342438Y-124997142D02*
X206437676Y-124901904D01*
X206437676Y-124901904D02*
X206532914Y-124854285D01*
X206532914Y-124854285D02*
X206723390Y-124806666D01*
X206723390Y-124806666D02*
X206866247Y-124806666D01*
X206866247Y-124806666D02*
X207056723Y-124854285D01*
X207056723Y-124854285D02*
X207151961Y-124901904D01*
X207151961Y-124901904D02*
X207247200Y-124997142D01*
X207247200Y-124997142D02*
X207294819Y-125139999D01*
X207294819Y-125139999D02*
X207294819Y-125378094D01*
X207294819Y-123854285D02*
X207294819Y-124425713D01*
X207294819Y-124139999D02*
X206294819Y-124139999D01*
X206294819Y-124139999D02*
X206437676Y-124235237D01*
X206437676Y-124235237D02*
X206532914Y-124330475D01*
X206532914Y-124330475D02*
X206580533Y-124425713D01*
X210647142Y-109239580D02*
X210599523Y-109287200D01*
X210599523Y-109287200D02*
X210456666Y-109334819D01*
X210456666Y-109334819D02*
X210361428Y-109334819D01*
X210361428Y-109334819D02*
X210218571Y-109287200D01*
X210218571Y-109287200D02*
X210123333Y-109191961D01*
X210123333Y-109191961D02*
X210075714Y-109096723D01*
X210075714Y-109096723D02*
X210028095Y-108906247D01*
X210028095Y-108906247D02*
X210028095Y-108763390D01*
X210028095Y-108763390D02*
X210075714Y-108572914D01*
X210075714Y-108572914D02*
X210123333Y-108477676D01*
X210123333Y-108477676D02*
X210218571Y-108382438D01*
X210218571Y-108382438D02*
X210361428Y-108334819D01*
X210361428Y-108334819D02*
X210456666Y-108334819D01*
X210456666Y-108334819D02*
X210599523Y-108382438D01*
X210599523Y-108382438D02*
X210647142Y-108430057D01*
X211551904Y-108334819D02*
X211075714Y-108334819D01*
X211075714Y-108334819D02*
X211028095Y-108811009D01*
X211028095Y-108811009D02*
X211075714Y-108763390D01*
X211075714Y-108763390D02*
X211170952Y-108715771D01*
X211170952Y-108715771D02*
X211409047Y-108715771D01*
X211409047Y-108715771D02*
X211504285Y-108763390D01*
X211504285Y-108763390D02*
X211551904Y-108811009D01*
X211551904Y-108811009D02*
X211599523Y-108906247D01*
X211599523Y-108906247D02*
X211599523Y-109144342D01*
X211599523Y-109144342D02*
X211551904Y-109239580D01*
X211551904Y-109239580D02*
X211504285Y-109287200D01*
X211504285Y-109287200D02*
X211409047Y-109334819D01*
X211409047Y-109334819D02*
X211170952Y-109334819D01*
X211170952Y-109334819D02*
X211075714Y-109287200D01*
X211075714Y-109287200D02*
X211028095Y-109239580D01*
X212504285Y-108334819D02*
X212028095Y-108334819D01*
X212028095Y-108334819D02*
X211980476Y-108811009D01*
X211980476Y-108811009D02*
X212028095Y-108763390D01*
X212028095Y-108763390D02*
X212123333Y-108715771D01*
X212123333Y-108715771D02*
X212361428Y-108715771D01*
X212361428Y-108715771D02*
X212456666Y-108763390D01*
X212456666Y-108763390D02*
X212504285Y-108811009D01*
X212504285Y-108811009D02*
X212551904Y-108906247D01*
X212551904Y-108906247D02*
X212551904Y-109144342D01*
X212551904Y-109144342D02*
X212504285Y-109239580D01*
X212504285Y-109239580D02*
X212456666Y-109287200D01*
X212456666Y-109287200D02*
X212361428Y-109334819D01*
X212361428Y-109334819D02*
X212123333Y-109334819D01*
X212123333Y-109334819D02*
X212028095Y-109287200D01*
X212028095Y-109287200D02*
X211980476Y-109239580D01*
X205642742Y-91523180D02*
X205595123Y-91570800D01*
X205595123Y-91570800D02*
X205452266Y-91618419D01*
X205452266Y-91618419D02*
X205357028Y-91618419D01*
X205357028Y-91618419D02*
X205214171Y-91570800D01*
X205214171Y-91570800D02*
X205118933Y-91475561D01*
X205118933Y-91475561D02*
X205071314Y-91380323D01*
X205071314Y-91380323D02*
X205023695Y-91189847D01*
X205023695Y-91189847D02*
X205023695Y-91046990D01*
X205023695Y-91046990D02*
X205071314Y-90856514D01*
X205071314Y-90856514D02*
X205118933Y-90761276D01*
X205118933Y-90761276D02*
X205214171Y-90666038D01*
X205214171Y-90666038D02*
X205357028Y-90618419D01*
X205357028Y-90618419D02*
X205452266Y-90618419D01*
X205452266Y-90618419D02*
X205595123Y-90666038D01*
X205595123Y-90666038D02*
X205642742Y-90713657D01*
X206499885Y-90951752D02*
X206499885Y-91618419D01*
X206261790Y-90570800D02*
X206023695Y-91285085D01*
X206023695Y-91285085D02*
X206642742Y-91285085D01*
X207071314Y-91618419D02*
X207261790Y-91618419D01*
X207261790Y-91618419D02*
X207357028Y-91570800D01*
X207357028Y-91570800D02*
X207404647Y-91523180D01*
X207404647Y-91523180D02*
X207499885Y-91380323D01*
X207499885Y-91380323D02*
X207547504Y-91189847D01*
X207547504Y-91189847D02*
X207547504Y-90808895D01*
X207547504Y-90808895D02*
X207499885Y-90713657D01*
X207499885Y-90713657D02*
X207452266Y-90666038D01*
X207452266Y-90666038D02*
X207357028Y-90618419D01*
X207357028Y-90618419D02*
X207166552Y-90618419D01*
X207166552Y-90618419D02*
X207071314Y-90666038D01*
X207071314Y-90666038D02*
X207023695Y-90713657D01*
X207023695Y-90713657D02*
X206976076Y-90808895D01*
X206976076Y-90808895D02*
X206976076Y-91046990D01*
X206976076Y-91046990D02*
X207023695Y-91142228D01*
X207023695Y-91142228D02*
X207071314Y-91189847D01*
X207071314Y-91189847D02*
X207166552Y-91237466D01*
X207166552Y-91237466D02*
X207357028Y-91237466D01*
X207357028Y-91237466D02*
X207452266Y-91189847D01*
X207452266Y-91189847D02*
X207499885Y-91142228D01*
X207499885Y-91142228D02*
X207547504Y-91046990D01*
X203397694Y-116830829D02*
X203397694Y-116898173D01*
X203397694Y-116898173D02*
X203330350Y-117032860D01*
X203330350Y-117032860D02*
X203263007Y-117100203D01*
X203263007Y-117100203D02*
X203128320Y-117167547D01*
X203128320Y-117167547D02*
X202993633Y-117167547D01*
X202993633Y-117167547D02*
X202892618Y-117133875D01*
X202892618Y-117133875D02*
X202724259Y-117032860D01*
X202724259Y-117032860D02*
X202623244Y-116931845D01*
X202623244Y-116931845D02*
X202522228Y-116763486D01*
X202522228Y-116763486D02*
X202488557Y-116662471D01*
X202488557Y-116662471D02*
X202488557Y-116527784D01*
X202488557Y-116527784D02*
X202555900Y-116393097D01*
X202555900Y-116393097D02*
X202623244Y-116325753D01*
X202623244Y-116325753D02*
X202757931Y-116258410D01*
X202757931Y-116258410D02*
X202825274Y-116258410D01*
X203465037Y-116090051D02*
X203364022Y-116123723D01*
X203364022Y-116123723D02*
X203296679Y-116123723D01*
X203296679Y-116123723D02*
X203195663Y-116090051D01*
X203195663Y-116090051D02*
X203161992Y-116056379D01*
X203161992Y-116056379D02*
X203128320Y-115955364D01*
X203128320Y-115955364D02*
X203128320Y-115888020D01*
X203128320Y-115888020D02*
X203161992Y-115787005D01*
X203161992Y-115787005D02*
X203296679Y-115652318D01*
X203296679Y-115652318D02*
X203397694Y-115618646D01*
X203397694Y-115618646D02*
X203465037Y-115618646D01*
X203465037Y-115618646D02*
X203566053Y-115652318D01*
X203566053Y-115652318D02*
X203599724Y-115685990D01*
X203599724Y-115685990D02*
X203633396Y-115787005D01*
X203633396Y-115787005D02*
X203633396Y-115854349D01*
X203633396Y-115854349D02*
X203599724Y-115955364D01*
X203599724Y-115955364D02*
X203465037Y-116090051D01*
X203465037Y-116090051D02*
X203431366Y-116191066D01*
X203431366Y-116191066D02*
X203431366Y-116258410D01*
X203431366Y-116258410D02*
X203465037Y-116359425D01*
X203465037Y-116359425D02*
X203599724Y-116494112D01*
X203599724Y-116494112D02*
X203700740Y-116527784D01*
X203700740Y-116527784D02*
X203768083Y-116527784D01*
X203768083Y-116527784D02*
X203869098Y-116494112D01*
X203869098Y-116494112D02*
X204003785Y-116359425D01*
X204003785Y-116359425D02*
X204037457Y-116258410D01*
X204037457Y-116258410D02*
X204037457Y-116191066D01*
X204037457Y-116191066D02*
X204003785Y-116090051D01*
X204003785Y-116090051D02*
X203869098Y-115955364D01*
X203869098Y-115955364D02*
X203768083Y-115921692D01*
X203768083Y-115921692D02*
X203700740Y-115921692D01*
X203700740Y-115921692D02*
X203599724Y-115955364D01*
X192529695Y-142520819D02*
X192529695Y-143330342D01*
X192529695Y-143330342D02*
X192577314Y-143425580D01*
X192577314Y-143425580D02*
X192624933Y-143473200D01*
X192624933Y-143473200D02*
X192720171Y-143520819D01*
X192720171Y-143520819D02*
X192910647Y-143520819D01*
X192910647Y-143520819D02*
X193005885Y-143473200D01*
X193005885Y-143473200D02*
X193053504Y-143425580D01*
X193053504Y-143425580D02*
X193101123Y-143330342D01*
X193101123Y-143330342D02*
X193101123Y-142520819D01*
X194053504Y-142520819D02*
X193577314Y-142520819D01*
X193577314Y-142520819D02*
X193529695Y-142997009D01*
X193529695Y-142997009D02*
X193577314Y-142949390D01*
X193577314Y-142949390D02*
X193672552Y-142901771D01*
X193672552Y-142901771D02*
X193910647Y-142901771D01*
X193910647Y-142901771D02*
X194005885Y-142949390D01*
X194005885Y-142949390D02*
X194053504Y-142997009D01*
X194053504Y-142997009D02*
X194101123Y-143092247D01*
X194101123Y-143092247D02*
X194101123Y-143330342D01*
X194101123Y-143330342D02*
X194053504Y-143425580D01*
X194053504Y-143425580D02*
X194005885Y-143473200D01*
X194005885Y-143473200D02*
X193910647Y-143520819D01*
X193910647Y-143520819D02*
X193672552Y-143520819D01*
X193672552Y-143520819D02*
X193577314Y-143473200D01*
X193577314Y-143473200D02*
X193529695Y-143425580D01*
X208444819Y-127928094D02*
X207444819Y-127928094D01*
X207444819Y-127928094D02*
X207444819Y-127689999D01*
X207444819Y-127689999D02*
X207492438Y-127547142D01*
X207492438Y-127547142D02*
X207587676Y-127451904D01*
X207587676Y-127451904D02*
X207682914Y-127404285D01*
X207682914Y-127404285D02*
X207873390Y-127356666D01*
X207873390Y-127356666D02*
X208016247Y-127356666D01*
X208016247Y-127356666D02*
X208206723Y-127404285D01*
X208206723Y-127404285D02*
X208301961Y-127451904D01*
X208301961Y-127451904D02*
X208397200Y-127547142D01*
X208397200Y-127547142D02*
X208444819Y-127689999D01*
X208444819Y-127689999D02*
X208444819Y-127928094D01*
X207540057Y-126975713D02*
X207492438Y-126928094D01*
X207492438Y-126928094D02*
X207444819Y-126832856D01*
X207444819Y-126832856D02*
X207444819Y-126594761D01*
X207444819Y-126594761D02*
X207492438Y-126499523D01*
X207492438Y-126499523D02*
X207540057Y-126451904D01*
X207540057Y-126451904D02*
X207635295Y-126404285D01*
X207635295Y-126404285D02*
X207730533Y-126404285D01*
X207730533Y-126404285D02*
X207873390Y-126451904D01*
X207873390Y-126451904D02*
X208444819Y-127023332D01*
X208444819Y-127023332D02*
X208444819Y-126404285D01*
X201276409Y-86621028D02*
X201276409Y-87097219D01*
X200943076Y-86097219D02*
X201276409Y-86621028D01*
X201276409Y-86621028D02*
X201609742Y-86097219D01*
X202466885Y-87097219D02*
X201895457Y-87097219D01*
X202181171Y-87097219D02*
X202181171Y-86097219D01*
X202181171Y-86097219D02*
X202085933Y-86240076D01*
X202085933Y-86240076D02*
X201990695Y-86335314D01*
X201990695Y-86335314D02*
X201895457Y-86382933D01*
X206460530Y-115278066D02*
X206123812Y-115614784D01*
X206595217Y-114671975D02*
X206460530Y-115278066D01*
X206460530Y-115278066D02*
X207066621Y-115143379D01*
X207201308Y-115412753D02*
X207268652Y-115412753D01*
X207268652Y-115412753D02*
X207369667Y-115446425D01*
X207369667Y-115446425D02*
X207538026Y-115614784D01*
X207538026Y-115614784D02*
X207571698Y-115715799D01*
X207571698Y-115715799D02*
X207571698Y-115783142D01*
X207571698Y-115783142D02*
X207538026Y-115884158D01*
X207538026Y-115884158D02*
X207470682Y-115951501D01*
X207470682Y-115951501D02*
X207335995Y-116018845D01*
X207335995Y-116018845D02*
X206527873Y-116018845D01*
X206527873Y-116018845D02*
X206965606Y-116456577D01*
X208038201Y-115642096D02*
X208139216Y-115069677D01*
X207634140Y-115238035D02*
X208341247Y-114530929D01*
X208341247Y-114530929D02*
X208610621Y-114800303D01*
X208610621Y-114800303D02*
X208644293Y-114901318D01*
X208644293Y-114901318D02*
X208644293Y-114968661D01*
X208644293Y-114968661D02*
X208610621Y-115069677D01*
X208610621Y-115069677D02*
X208509606Y-115170692D01*
X208509606Y-115170692D02*
X208408590Y-115204364D01*
X208408590Y-115204364D02*
X208341247Y-115204364D01*
X208341247Y-115204364D02*
X208240232Y-115170692D01*
X208240232Y-115170692D02*
X207970858Y-114901318D01*
X208947338Y-115271707D02*
X209014682Y-115271707D01*
X209014682Y-115271707D02*
X209115697Y-115305379D01*
X209115697Y-115305379D02*
X209284056Y-115473738D01*
X209284056Y-115473738D02*
X209317728Y-115574753D01*
X209317728Y-115574753D02*
X209317728Y-115642096D01*
X209317728Y-115642096D02*
X209284056Y-115743112D01*
X209284056Y-115743112D02*
X209216712Y-115810455D01*
X209216712Y-115810455D02*
X209082025Y-115877799D01*
X209082025Y-115877799D02*
X208273903Y-115877799D01*
X208273903Y-115877799D02*
X208711636Y-116315531D01*
X190121258Y-119617369D02*
X189548838Y-119516353D01*
X189717197Y-120021430D02*
X189010090Y-119314323D01*
X189010090Y-119314323D02*
X189279464Y-119044949D01*
X189279464Y-119044949D02*
X189380479Y-119011277D01*
X189380479Y-119011277D02*
X189447823Y-119011277D01*
X189447823Y-119011277D02*
X189548838Y-119044949D01*
X189548838Y-119044949D02*
X189649853Y-119145964D01*
X189649853Y-119145964D02*
X189683525Y-119246979D01*
X189683525Y-119246979D02*
X189683525Y-119314323D01*
X189683525Y-119314323D02*
X189649853Y-119415338D01*
X189649853Y-119415338D02*
X189380479Y-119684712D01*
X190424303Y-119314323D02*
X189717197Y-118607216D01*
X189717197Y-118607216D02*
X190828365Y-118910262D01*
X190828365Y-118910262D02*
X190121258Y-118203155D01*
X190491647Y-117967453D02*
X190491647Y-117900109D01*
X190491647Y-117900109D02*
X190525319Y-117799094D01*
X190525319Y-117799094D02*
X190693677Y-117630735D01*
X190693677Y-117630735D02*
X190794693Y-117597063D01*
X190794693Y-117597063D02*
X190862036Y-117597063D01*
X190862036Y-117597063D02*
X190963051Y-117630735D01*
X190963051Y-117630735D02*
X191030395Y-117698079D01*
X191030395Y-117698079D02*
X191097738Y-117832766D01*
X191097738Y-117832766D02*
X191097738Y-118640888D01*
X191097738Y-118640888D02*
X191535471Y-118203155D01*
X197294095Y-131156819D02*
X197294095Y-131966342D01*
X197294095Y-131966342D02*
X197341714Y-132061580D01*
X197341714Y-132061580D02*
X197389333Y-132109200D01*
X197389333Y-132109200D02*
X197484571Y-132156819D01*
X197484571Y-132156819D02*
X197675047Y-132156819D01*
X197675047Y-132156819D02*
X197770285Y-132109200D01*
X197770285Y-132109200D02*
X197817904Y-132061580D01*
X197817904Y-132061580D02*
X197865523Y-131966342D01*
X197865523Y-131966342D02*
X197865523Y-131156819D01*
X198770285Y-131490152D02*
X198770285Y-132156819D01*
X198532190Y-131109200D02*
X198294095Y-131823485D01*
X198294095Y-131823485D02*
X198913142Y-131823485D01*
X199557142Y-85059580D02*
X199509523Y-85107200D01*
X199509523Y-85107200D02*
X199366666Y-85154819D01*
X199366666Y-85154819D02*
X199271428Y-85154819D01*
X199271428Y-85154819D02*
X199128571Y-85107200D01*
X199128571Y-85107200D02*
X199033333Y-85011961D01*
X199033333Y-85011961D02*
X198985714Y-84916723D01*
X198985714Y-84916723D02*
X198938095Y-84726247D01*
X198938095Y-84726247D02*
X198938095Y-84583390D01*
X198938095Y-84583390D02*
X198985714Y-84392914D01*
X198985714Y-84392914D02*
X199033333Y-84297676D01*
X199033333Y-84297676D02*
X199128571Y-84202438D01*
X199128571Y-84202438D02*
X199271428Y-84154819D01*
X199271428Y-84154819D02*
X199366666Y-84154819D01*
X199366666Y-84154819D02*
X199509523Y-84202438D01*
X199509523Y-84202438D02*
X199557142Y-84250057D01*
X200414285Y-84154819D02*
X200223809Y-84154819D01*
X200223809Y-84154819D02*
X200128571Y-84202438D01*
X200128571Y-84202438D02*
X200080952Y-84250057D01*
X200080952Y-84250057D02*
X199985714Y-84392914D01*
X199985714Y-84392914D02*
X199938095Y-84583390D01*
X199938095Y-84583390D02*
X199938095Y-84964342D01*
X199938095Y-84964342D02*
X199985714Y-85059580D01*
X199985714Y-85059580D02*
X200033333Y-85107200D01*
X200033333Y-85107200D02*
X200128571Y-85154819D01*
X200128571Y-85154819D02*
X200319047Y-85154819D01*
X200319047Y-85154819D02*
X200414285Y-85107200D01*
X200414285Y-85107200D02*
X200461904Y-85059580D01*
X200461904Y-85059580D02*
X200509523Y-84964342D01*
X200509523Y-84964342D02*
X200509523Y-84726247D01*
X200509523Y-84726247D02*
X200461904Y-84631009D01*
X200461904Y-84631009D02*
X200414285Y-84583390D01*
X200414285Y-84583390D02*
X200319047Y-84535771D01*
X200319047Y-84535771D02*
X200128571Y-84535771D01*
X200128571Y-84535771D02*
X200033333Y-84583390D01*
X200033333Y-84583390D02*
X199985714Y-84631009D01*
X199985714Y-84631009D02*
X199938095Y-84726247D01*
X200890476Y-84250057D02*
X200938095Y-84202438D01*
X200938095Y-84202438D02*
X201033333Y-84154819D01*
X201033333Y-84154819D02*
X201271428Y-84154819D01*
X201271428Y-84154819D02*
X201366666Y-84202438D01*
X201366666Y-84202438D02*
X201414285Y-84250057D01*
X201414285Y-84250057D02*
X201461904Y-84345295D01*
X201461904Y-84345295D02*
X201461904Y-84440533D01*
X201461904Y-84440533D02*
X201414285Y-84583390D01*
X201414285Y-84583390D02*
X200842857Y-85154819D01*
X200842857Y-85154819D02*
X201461904Y-85154819D01*
X201604142Y-129997819D02*
X201270809Y-129521628D01*
X201032714Y-129997819D02*
X201032714Y-128997819D01*
X201032714Y-128997819D02*
X201413666Y-128997819D01*
X201413666Y-128997819D02*
X201508904Y-129045438D01*
X201508904Y-129045438D02*
X201556523Y-129093057D01*
X201556523Y-129093057D02*
X201604142Y-129188295D01*
X201604142Y-129188295D02*
X201604142Y-129331152D01*
X201604142Y-129331152D02*
X201556523Y-129426390D01*
X201556523Y-129426390D02*
X201508904Y-129474009D01*
X201508904Y-129474009D02*
X201413666Y-129521628D01*
X201413666Y-129521628D02*
X201032714Y-129521628D01*
X202556523Y-129997819D02*
X201985095Y-129997819D01*
X202270809Y-129997819D02*
X202270809Y-128997819D01*
X202270809Y-128997819D02*
X202175571Y-129140676D01*
X202175571Y-129140676D02*
X202080333Y-129235914D01*
X202080333Y-129235914D02*
X201985095Y-129283533D01*
X203175571Y-128997819D02*
X203270809Y-128997819D01*
X203270809Y-128997819D02*
X203366047Y-129045438D01*
X203366047Y-129045438D02*
X203413666Y-129093057D01*
X203413666Y-129093057D02*
X203461285Y-129188295D01*
X203461285Y-129188295D02*
X203508904Y-129378771D01*
X203508904Y-129378771D02*
X203508904Y-129616866D01*
X203508904Y-129616866D02*
X203461285Y-129807342D01*
X203461285Y-129807342D02*
X203413666Y-129902580D01*
X203413666Y-129902580D02*
X203366047Y-129950200D01*
X203366047Y-129950200D02*
X203270809Y-129997819D01*
X203270809Y-129997819D02*
X203175571Y-129997819D01*
X203175571Y-129997819D02*
X203080333Y-129950200D01*
X203080333Y-129950200D02*
X203032714Y-129902580D01*
X203032714Y-129902580D02*
X202985095Y-129807342D01*
X202985095Y-129807342D02*
X202937476Y-129616866D01*
X202937476Y-129616866D02*
X202937476Y-129378771D01*
X202937476Y-129378771D02*
X202985095Y-129188295D01*
X202985095Y-129188295D02*
X203032714Y-129093057D01*
X203032714Y-129093057D02*
X203080333Y-129045438D01*
X203080333Y-129045438D02*
X203175571Y-128997819D01*
X209845580Y-91654057D02*
X209893200Y-91701676D01*
X209893200Y-91701676D02*
X209940819Y-91844533D01*
X209940819Y-91844533D02*
X209940819Y-91939771D01*
X209940819Y-91939771D02*
X209893200Y-92082628D01*
X209893200Y-92082628D02*
X209797961Y-92177866D01*
X209797961Y-92177866D02*
X209702723Y-92225485D01*
X209702723Y-92225485D02*
X209512247Y-92273104D01*
X209512247Y-92273104D02*
X209369390Y-92273104D01*
X209369390Y-92273104D02*
X209178914Y-92225485D01*
X209178914Y-92225485D02*
X209083676Y-92177866D01*
X209083676Y-92177866D02*
X208988438Y-92082628D01*
X208988438Y-92082628D02*
X208940819Y-91939771D01*
X208940819Y-91939771D02*
X208940819Y-91844533D01*
X208940819Y-91844533D02*
X208988438Y-91701676D01*
X208988438Y-91701676D02*
X209036057Y-91654057D01*
X208940819Y-90749295D02*
X208940819Y-91225485D01*
X208940819Y-91225485D02*
X209417009Y-91273104D01*
X209417009Y-91273104D02*
X209369390Y-91225485D01*
X209369390Y-91225485D02*
X209321771Y-91130247D01*
X209321771Y-91130247D02*
X209321771Y-90892152D01*
X209321771Y-90892152D02*
X209369390Y-90796914D01*
X209369390Y-90796914D02*
X209417009Y-90749295D01*
X209417009Y-90749295D02*
X209512247Y-90701676D01*
X209512247Y-90701676D02*
X209750342Y-90701676D01*
X209750342Y-90701676D02*
X209845580Y-90749295D01*
X209845580Y-90749295D02*
X209893200Y-90796914D01*
X209893200Y-90796914D02*
X209940819Y-90892152D01*
X209940819Y-90892152D02*
X209940819Y-91130247D01*
X209940819Y-91130247D02*
X209893200Y-91225485D01*
X209893200Y-91225485D02*
X209845580Y-91273104D01*
X208940819Y-90082628D02*
X208940819Y-89987390D01*
X208940819Y-89987390D02*
X208988438Y-89892152D01*
X208988438Y-89892152D02*
X209036057Y-89844533D01*
X209036057Y-89844533D02*
X209131295Y-89796914D01*
X209131295Y-89796914D02*
X209321771Y-89749295D01*
X209321771Y-89749295D02*
X209559866Y-89749295D01*
X209559866Y-89749295D02*
X209750342Y-89796914D01*
X209750342Y-89796914D02*
X209845580Y-89844533D01*
X209845580Y-89844533D02*
X209893200Y-89892152D01*
X209893200Y-89892152D02*
X209940819Y-89987390D01*
X209940819Y-89987390D02*
X209940819Y-90082628D01*
X209940819Y-90082628D02*
X209893200Y-90177866D01*
X209893200Y-90177866D02*
X209845580Y-90225485D01*
X209845580Y-90225485D02*
X209750342Y-90273104D01*
X209750342Y-90273104D02*
X209559866Y-90320723D01*
X209559866Y-90320723D02*
X209321771Y-90320723D01*
X209321771Y-90320723D02*
X209131295Y-90273104D01*
X209131295Y-90273104D02*
X209036057Y-90225485D01*
X209036057Y-90225485D02*
X208988438Y-90177866D01*
X208988438Y-90177866D02*
X208940819Y-90082628D01*
X213249523Y-129844819D02*
X212916190Y-129368628D01*
X212678095Y-129844819D02*
X212678095Y-128844819D01*
X212678095Y-128844819D02*
X213059047Y-128844819D01*
X213059047Y-128844819D02*
X213154285Y-128892438D01*
X213154285Y-128892438D02*
X213201904Y-128940057D01*
X213201904Y-128940057D02*
X213249523Y-129035295D01*
X213249523Y-129035295D02*
X213249523Y-129178152D01*
X213249523Y-129178152D02*
X213201904Y-129273390D01*
X213201904Y-129273390D02*
X213154285Y-129321009D01*
X213154285Y-129321009D02*
X213059047Y-129368628D01*
X213059047Y-129368628D02*
X212678095Y-129368628D01*
X213678095Y-129844819D02*
X213678095Y-128844819D01*
X213678095Y-128844819D02*
X214249523Y-129844819D01*
X214249523Y-129844819D02*
X214249523Y-128844819D01*
X215249523Y-129844819D02*
X214678095Y-129844819D01*
X214963809Y-129844819D02*
X214963809Y-128844819D01*
X214963809Y-128844819D02*
X214868571Y-128987676D01*
X214868571Y-128987676D02*
X214773333Y-129082914D01*
X214773333Y-129082914D02*
X214678095Y-129130533D01*
X199667333Y-136379580D02*
X199619714Y-136427200D01*
X199619714Y-136427200D02*
X199476857Y-136474819D01*
X199476857Y-136474819D02*
X199381619Y-136474819D01*
X199381619Y-136474819D02*
X199238762Y-136427200D01*
X199238762Y-136427200D02*
X199143524Y-136331961D01*
X199143524Y-136331961D02*
X199095905Y-136236723D01*
X199095905Y-136236723D02*
X199048286Y-136046247D01*
X199048286Y-136046247D02*
X199048286Y-135903390D01*
X199048286Y-135903390D02*
X199095905Y-135712914D01*
X199095905Y-135712914D02*
X199143524Y-135617676D01*
X199143524Y-135617676D02*
X199238762Y-135522438D01*
X199238762Y-135522438D02*
X199381619Y-135474819D01*
X199381619Y-135474819D02*
X199476857Y-135474819D01*
X199476857Y-135474819D02*
X199619714Y-135522438D01*
X199619714Y-135522438D02*
X199667333Y-135570057D01*
X200524476Y-135808152D02*
X200524476Y-136474819D01*
X200286381Y-135427200D02*
X200048286Y-136141485D01*
X200048286Y-136141485D02*
X200667333Y-136141485D01*
D12*
X204073381Y-142690318D02*
X204799095Y-142690318D01*
X204436238Y-143960318D02*
X204436238Y-142690318D01*
X205887667Y-143960318D02*
X205161952Y-143960318D01*
X205524809Y-143960318D02*
X205524809Y-142690318D01*
X205524809Y-142690318D02*
X205403857Y-142871746D01*
X205403857Y-142871746D02*
X205282905Y-142992699D01*
X205282905Y-142992699D02*
X205161952Y-143053175D01*
D11*
X200601819Y-131360666D02*
X200125628Y-131693999D01*
X200601819Y-131932094D02*
X199601819Y-131932094D01*
X199601819Y-131932094D02*
X199601819Y-131551142D01*
X199601819Y-131551142D02*
X199649438Y-131455904D01*
X199649438Y-131455904D02*
X199697057Y-131408285D01*
X199697057Y-131408285D02*
X199792295Y-131360666D01*
X199792295Y-131360666D02*
X199935152Y-131360666D01*
X199935152Y-131360666D02*
X200030390Y-131408285D01*
X200030390Y-131408285D02*
X200078009Y-131455904D01*
X200078009Y-131455904D02*
X200125628Y-131551142D01*
X200125628Y-131551142D02*
X200125628Y-131932094D01*
X199601819Y-130455904D02*
X199601819Y-130932094D01*
X199601819Y-130932094D02*
X200078009Y-130979713D01*
X200078009Y-130979713D02*
X200030390Y-130932094D01*
X200030390Y-130932094D02*
X199982771Y-130836856D01*
X199982771Y-130836856D02*
X199982771Y-130598761D01*
X199982771Y-130598761D02*
X200030390Y-130503523D01*
X200030390Y-130503523D02*
X200078009Y-130455904D01*
X200078009Y-130455904D02*
X200173247Y-130408285D01*
X200173247Y-130408285D02*
X200411342Y-130408285D01*
X200411342Y-130408285D02*
X200506580Y-130455904D01*
X200506580Y-130455904D02*
X200554200Y-130503523D01*
X200554200Y-130503523D02*
X200601819Y-130598761D01*
X200601819Y-130598761D02*
X200601819Y-130836856D01*
X200601819Y-130836856D02*
X200554200Y-130932094D01*
X200554200Y-130932094D02*
X200506580Y-130979713D01*
X189204142Y-138692819D02*
X188870809Y-138216628D01*
X188632714Y-138692819D02*
X188632714Y-137692819D01*
X188632714Y-137692819D02*
X189013666Y-137692819D01*
X189013666Y-137692819D02*
X189108904Y-137740438D01*
X189108904Y-137740438D02*
X189156523Y-137788057D01*
X189156523Y-137788057D02*
X189204142Y-137883295D01*
X189204142Y-137883295D02*
X189204142Y-138026152D01*
X189204142Y-138026152D02*
X189156523Y-138121390D01*
X189156523Y-138121390D02*
X189108904Y-138169009D01*
X189108904Y-138169009D02*
X189013666Y-138216628D01*
X189013666Y-138216628D02*
X188632714Y-138216628D01*
X190156523Y-138692819D02*
X189585095Y-138692819D01*
X189870809Y-138692819D02*
X189870809Y-137692819D01*
X189870809Y-137692819D02*
X189775571Y-137835676D01*
X189775571Y-137835676D02*
X189680333Y-137930914D01*
X189680333Y-137930914D02*
X189585095Y-137978533D01*
X190489857Y-137692819D02*
X191156523Y-137692819D01*
X191156523Y-137692819D02*
X190727952Y-138692819D01*
X182125714Y-119744819D02*
X182125714Y-118744819D01*
X182125714Y-118744819D02*
X182363809Y-118744819D01*
X182363809Y-118744819D02*
X182506666Y-118792438D01*
X182506666Y-118792438D02*
X182601904Y-118887676D01*
X182601904Y-118887676D02*
X182649523Y-118982914D01*
X182649523Y-118982914D02*
X182697142Y-119173390D01*
X182697142Y-119173390D02*
X182697142Y-119316247D01*
X182697142Y-119316247D02*
X182649523Y-119506723D01*
X182649523Y-119506723D02*
X182601904Y-119601961D01*
X182601904Y-119601961D02*
X182506666Y-119697200D01*
X182506666Y-119697200D02*
X182363809Y-119744819D01*
X182363809Y-119744819D02*
X182125714Y-119744819D01*
X183030476Y-118744819D02*
X183649523Y-118744819D01*
X183649523Y-118744819D02*
X183316190Y-119125771D01*
X183316190Y-119125771D02*
X183459047Y-119125771D01*
X183459047Y-119125771D02*
X183554285Y-119173390D01*
X183554285Y-119173390D02*
X183601904Y-119221009D01*
X183601904Y-119221009D02*
X183649523Y-119316247D01*
X183649523Y-119316247D02*
X183649523Y-119554342D01*
X183649523Y-119554342D02*
X183601904Y-119649580D01*
X183601904Y-119649580D02*
X183554285Y-119697200D01*
X183554285Y-119697200D02*
X183459047Y-119744819D01*
X183459047Y-119744819D02*
X183173333Y-119744819D01*
X183173333Y-119744819D02*
X183078095Y-119697200D01*
X183078095Y-119697200D02*
X183030476Y-119649580D01*
X184268571Y-118744819D02*
X184363809Y-118744819D01*
X184363809Y-118744819D02*
X184459047Y-118792438D01*
X184459047Y-118792438D02*
X184506666Y-118840057D01*
X184506666Y-118840057D02*
X184554285Y-118935295D01*
X184554285Y-118935295D02*
X184601904Y-119125771D01*
X184601904Y-119125771D02*
X184601904Y-119363866D01*
X184601904Y-119363866D02*
X184554285Y-119554342D01*
X184554285Y-119554342D02*
X184506666Y-119649580D01*
X184506666Y-119649580D02*
X184459047Y-119697200D01*
X184459047Y-119697200D02*
X184363809Y-119744819D01*
X184363809Y-119744819D02*
X184268571Y-119744819D01*
X184268571Y-119744819D02*
X184173333Y-119697200D01*
X184173333Y-119697200D02*
X184125714Y-119649580D01*
X184125714Y-119649580D02*
X184078095Y-119554342D01*
X184078095Y-119554342D02*
X184030476Y-119363866D01*
X184030476Y-119363866D02*
X184030476Y-119125771D01*
X184030476Y-119125771D02*
X184078095Y-118935295D01*
X184078095Y-118935295D02*
X184125714Y-118840057D01*
X184125714Y-118840057D02*
X184173333Y-118792438D01*
X184173333Y-118792438D02*
X184268571Y-118744819D01*
X182125714Y-131744819D02*
X182125714Y-130744819D01*
X182125714Y-130744819D02*
X182363809Y-130744819D01*
X182363809Y-130744819D02*
X182506666Y-130792438D01*
X182506666Y-130792438D02*
X182601904Y-130887676D01*
X182601904Y-130887676D02*
X182649523Y-130982914D01*
X182649523Y-130982914D02*
X182697142Y-131173390D01*
X182697142Y-131173390D02*
X182697142Y-131316247D01*
X182697142Y-131316247D02*
X182649523Y-131506723D01*
X182649523Y-131506723D02*
X182601904Y-131601961D01*
X182601904Y-131601961D02*
X182506666Y-131697200D01*
X182506666Y-131697200D02*
X182363809Y-131744819D01*
X182363809Y-131744819D02*
X182125714Y-131744819D01*
X183030476Y-130744819D02*
X183649523Y-130744819D01*
X183649523Y-130744819D02*
X183316190Y-131125771D01*
X183316190Y-131125771D02*
X183459047Y-131125771D01*
X183459047Y-131125771D02*
X183554285Y-131173390D01*
X183554285Y-131173390D02*
X183601904Y-131221009D01*
X183601904Y-131221009D02*
X183649523Y-131316247D01*
X183649523Y-131316247D02*
X183649523Y-131554342D01*
X183649523Y-131554342D02*
X183601904Y-131649580D01*
X183601904Y-131649580D02*
X183554285Y-131697200D01*
X183554285Y-131697200D02*
X183459047Y-131744819D01*
X183459047Y-131744819D02*
X183173333Y-131744819D01*
X183173333Y-131744819D02*
X183078095Y-131697200D01*
X183078095Y-131697200D02*
X183030476Y-131649580D01*
X183982857Y-130744819D02*
X184601904Y-130744819D01*
X184601904Y-130744819D02*
X184268571Y-131125771D01*
X184268571Y-131125771D02*
X184411428Y-131125771D01*
X184411428Y-131125771D02*
X184506666Y-131173390D01*
X184506666Y-131173390D02*
X184554285Y-131221009D01*
X184554285Y-131221009D02*
X184601904Y-131316247D01*
X184601904Y-131316247D02*
X184601904Y-131554342D01*
X184601904Y-131554342D02*
X184554285Y-131649580D01*
X184554285Y-131649580D02*
X184506666Y-131697200D01*
X184506666Y-131697200D02*
X184411428Y-131744819D01*
X184411428Y-131744819D02*
X184125714Y-131744819D01*
X184125714Y-131744819D02*
X184030476Y-131697200D01*
X184030476Y-131697200D02*
X183982857Y-131649580D01*
X215997142Y-143694819D02*
X215663809Y-143218628D01*
X215425714Y-143694819D02*
X215425714Y-142694819D01*
X215425714Y-142694819D02*
X215806666Y-142694819D01*
X215806666Y-142694819D02*
X215901904Y-142742438D01*
X215901904Y-142742438D02*
X215949523Y-142790057D01*
X215949523Y-142790057D02*
X215997142Y-142885295D01*
X215997142Y-142885295D02*
X215997142Y-143028152D01*
X215997142Y-143028152D02*
X215949523Y-143123390D01*
X215949523Y-143123390D02*
X215901904Y-143171009D01*
X215901904Y-143171009D02*
X215806666Y-143218628D01*
X215806666Y-143218628D02*
X215425714Y-143218628D01*
X216949523Y-143694819D02*
X216378095Y-143694819D01*
X216663809Y-143694819D02*
X216663809Y-142694819D01*
X216663809Y-142694819D02*
X216568571Y-142837676D01*
X216568571Y-142837676D02*
X216473333Y-142932914D01*
X216473333Y-142932914D02*
X216378095Y-142980533D01*
X217282857Y-142694819D02*
X217901904Y-142694819D01*
X217901904Y-142694819D02*
X217568571Y-143075771D01*
X217568571Y-143075771D02*
X217711428Y-143075771D01*
X217711428Y-143075771D02*
X217806666Y-143123390D01*
X217806666Y-143123390D02*
X217854285Y-143171009D01*
X217854285Y-143171009D02*
X217901904Y-143266247D01*
X217901904Y-143266247D02*
X217901904Y-143504342D01*
X217901904Y-143504342D02*
X217854285Y-143599580D01*
X217854285Y-143599580D02*
X217806666Y-143647200D01*
X217806666Y-143647200D02*
X217711428Y-143694819D01*
X217711428Y-143694819D02*
X217425714Y-143694819D01*
X217425714Y-143694819D02*
X217330476Y-143647200D01*
X217330476Y-143647200D02*
X217282857Y-143599580D01*
X201584642Y-143529580D02*
X201537023Y-143577200D01*
X201537023Y-143577200D02*
X201394166Y-143624819D01*
X201394166Y-143624819D02*
X201298928Y-143624819D01*
X201298928Y-143624819D02*
X201156071Y-143577200D01*
X201156071Y-143577200D02*
X201060833Y-143481961D01*
X201060833Y-143481961D02*
X201013214Y-143386723D01*
X201013214Y-143386723D02*
X200965595Y-143196247D01*
X200965595Y-143196247D02*
X200965595Y-143053390D01*
X200965595Y-143053390D02*
X201013214Y-142862914D01*
X201013214Y-142862914D02*
X201060833Y-142767676D01*
X201060833Y-142767676D02*
X201156071Y-142672438D01*
X201156071Y-142672438D02*
X201298928Y-142624819D01*
X201298928Y-142624819D02*
X201394166Y-142624819D01*
X201394166Y-142624819D02*
X201537023Y-142672438D01*
X201537023Y-142672438D02*
X201584642Y-142720057D01*
X201917976Y-142624819D02*
X202584642Y-142624819D01*
X202584642Y-142624819D02*
X202156071Y-143624819D01*
X203394166Y-142958152D02*
X203394166Y-143624819D01*
X203156071Y-142577200D02*
X202917976Y-143291485D01*
X202917976Y-143291485D02*
X203537023Y-143291485D01*
X182125714Y-103744819D02*
X182125714Y-102744819D01*
X182125714Y-102744819D02*
X182363809Y-102744819D01*
X182363809Y-102744819D02*
X182506666Y-102792438D01*
X182506666Y-102792438D02*
X182601904Y-102887676D01*
X182601904Y-102887676D02*
X182649523Y-102982914D01*
X182649523Y-102982914D02*
X182697142Y-103173390D01*
X182697142Y-103173390D02*
X182697142Y-103316247D01*
X182697142Y-103316247D02*
X182649523Y-103506723D01*
X182649523Y-103506723D02*
X182601904Y-103601961D01*
X182601904Y-103601961D02*
X182506666Y-103697200D01*
X182506666Y-103697200D02*
X182363809Y-103744819D01*
X182363809Y-103744819D02*
X182125714Y-103744819D01*
X183078095Y-102840057D02*
X183125714Y-102792438D01*
X183125714Y-102792438D02*
X183220952Y-102744819D01*
X183220952Y-102744819D02*
X183459047Y-102744819D01*
X183459047Y-102744819D02*
X183554285Y-102792438D01*
X183554285Y-102792438D02*
X183601904Y-102840057D01*
X183601904Y-102840057D02*
X183649523Y-102935295D01*
X183649523Y-102935295D02*
X183649523Y-103030533D01*
X183649523Y-103030533D02*
X183601904Y-103173390D01*
X183601904Y-103173390D02*
X183030476Y-103744819D01*
X183030476Y-103744819D02*
X183649523Y-103744819D01*
X184506666Y-102744819D02*
X184316190Y-102744819D01*
X184316190Y-102744819D02*
X184220952Y-102792438D01*
X184220952Y-102792438D02*
X184173333Y-102840057D01*
X184173333Y-102840057D02*
X184078095Y-102982914D01*
X184078095Y-102982914D02*
X184030476Y-103173390D01*
X184030476Y-103173390D02*
X184030476Y-103554342D01*
X184030476Y-103554342D02*
X184078095Y-103649580D01*
X184078095Y-103649580D02*
X184125714Y-103697200D01*
X184125714Y-103697200D02*
X184220952Y-103744819D01*
X184220952Y-103744819D02*
X184411428Y-103744819D01*
X184411428Y-103744819D02*
X184506666Y-103697200D01*
X184506666Y-103697200D02*
X184554285Y-103649580D01*
X184554285Y-103649580D02*
X184601904Y-103554342D01*
X184601904Y-103554342D02*
X184601904Y-103316247D01*
X184601904Y-103316247D02*
X184554285Y-103221009D01*
X184554285Y-103221009D02*
X184506666Y-103173390D01*
X184506666Y-103173390D02*
X184411428Y-103125771D01*
X184411428Y-103125771D02*
X184220952Y-103125771D01*
X184220952Y-103125771D02*
X184125714Y-103173390D01*
X184125714Y-103173390D02*
X184078095Y-103221009D01*
X184078095Y-103221009D02*
X184030476Y-103316247D01*
X191906333Y-138349580D02*
X191858714Y-138397200D01*
X191858714Y-138397200D02*
X191715857Y-138444819D01*
X191715857Y-138444819D02*
X191620619Y-138444819D01*
X191620619Y-138444819D02*
X191477762Y-138397200D01*
X191477762Y-138397200D02*
X191382524Y-138301961D01*
X191382524Y-138301961D02*
X191334905Y-138206723D01*
X191334905Y-138206723D02*
X191287286Y-138016247D01*
X191287286Y-138016247D02*
X191287286Y-137873390D01*
X191287286Y-137873390D02*
X191334905Y-137682914D01*
X191334905Y-137682914D02*
X191382524Y-137587676D01*
X191382524Y-137587676D02*
X191477762Y-137492438D01*
X191477762Y-137492438D02*
X191620619Y-137444819D01*
X191620619Y-137444819D02*
X191715857Y-137444819D01*
X191715857Y-137444819D02*
X191858714Y-137492438D01*
X191858714Y-137492438D02*
X191906333Y-137540057D01*
X192287286Y-137540057D02*
X192334905Y-137492438D01*
X192334905Y-137492438D02*
X192430143Y-137444819D01*
X192430143Y-137444819D02*
X192668238Y-137444819D01*
X192668238Y-137444819D02*
X192763476Y-137492438D01*
X192763476Y-137492438D02*
X192811095Y-137540057D01*
X192811095Y-137540057D02*
X192858714Y-137635295D01*
X192858714Y-137635295D02*
X192858714Y-137730533D01*
X192858714Y-137730533D02*
X192811095Y-137873390D01*
X192811095Y-137873390D02*
X192239667Y-138444819D01*
X192239667Y-138444819D02*
X192858714Y-138444819D01*
D12*
X210470237Y-107924318D02*
X210470237Y-106654318D01*
X211800714Y-107803365D02*
X211740238Y-107863842D01*
X211740238Y-107863842D02*
X211558809Y-107924318D01*
X211558809Y-107924318D02*
X211437857Y-107924318D01*
X211437857Y-107924318D02*
X211256428Y-107863842D01*
X211256428Y-107863842D02*
X211135476Y-107742889D01*
X211135476Y-107742889D02*
X211074999Y-107621937D01*
X211074999Y-107621937D02*
X211014523Y-107380032D01*
X211014523Y-107380032D02*
X211014523Y-107198603D01*
X211014523Y-107198603D02*
X211074999Y-106956699D01*
X211074999Y-106956699D02*
X211135476Y-106835746D01*
X211135476Y-106835746D02*
X211256428Y-106714794D01*
X211256428Y-106714794D02*
X211437857Y-106654318D01*
X211437857Y-106654318D02*
X211558809Y-106654318D01*
X211558809Y-106654318D02*
X211740238Y-106714794D01*
X211740238Y-106714794D02*
X211800714Y-106775270D01*
X213010238Y-107924318D02*
X212284523Y-107924318D01*
X212647380Y-107924318D02*
X212647380Y-106654318D01*
X212647380Y-106654318D02*
X212526428Y-106835746D01*
X212526428Y-106835746D02*
X212405476Y-106956699D01*
X212405476Y-106956699D02*
X212284523Y-107017175D01*
D11*
X190809580Y-96892857D02*
X190857200Y-96940476D01*
X190857200Y-96940476D02*
X190904819Y-97083333D01*
X190904819Y-97083333D02*
X190904819Y-97178571D01*
X190904819Y-97178571D02*
X190857200Y-97321428D01*
X190857200Y-97321428D02*
X190761961Y-97416666D01*
X190761961Y-97416666D02*
X190666723Y-97464285D01*
X190666723Y-97464285D02*
X190476247Y-97511904D01*
X190476247Y-97511904D02*
X190333390Y-97511904D01*
X190333390Y-97511904D02*
X190142914Y-97464285D01*
X190142914Y-97464285D02*
X190047676Y-97416666D01*
X190047676Y-97416666D02*
X189952438Y-97321428D01*
X189952438Y-97321428D02*
X189904819Y-97178571D01*
X189904819Y-97178571D02*
X189904819Y-97083333D01*
X189904819Y-97083333D02*
X189952438Y-96940476D01*
X189952438Y-96940476D02*
X190000057Y-96892857D01*
X190000057Y-96511904D02*
X189952438Y-96464285D01*
X189952438Y-96464285D02*
X189904819Y-96369047D01*
X189904819Y-96369047D02*
X189904819Y-96130952D01*
X189904819Y-96130952D02*
X189952438Y-96035714D01*
X189952438Y-96035714D02*
X190000057Y-95988095D01*
X190000057Y-95988095D02*
X190095295Y-95940476D01*
X190095295Y-95940476D02*
X190190533Y-95940476D01*
X190190533Y-95940476D02*
X190333390Y-95988095D01*
X190333390Y-95988095D02*
X190904819Y-96559523D01*
X190904819Y-96559523D02*
X190904819Y-95940476D01*
X190904819Y-95464285D02*
X190904819Y-95273809D01*
X190904819Y-95273809D02*
X190857200Y-95178571D01*
X190857200Y-95178571D02*
X190809580Y-95130952D01*
X190809580Y-95130952D02*
X190666723Y-95035714D01*
X190666723Y-95035714D02*
X190476247Y-94988095D01*
X190476247Y-94988095D02*
X190095295Y-94988095D01*
X190095295Y-94988095D02*
X190000057Y-95035714D01*
X190000057Y-95035714D02*
X189952438Y-95083333D01*
X189952438Y-95083333D02*
X189904819Y-95178571D01*
X189904819Y-95178571D02*
X189904819Y-95369047D01*
X189904819Y-95369047D02*
X189952438Y-95464285D01*
X189952438Y-95464285D02*
X190000057Y-95511904D01*
X190000057Y-95511904D02*
X190095295Y-95559523D01*
X190095295Y-95559523D02*
X190333390Y-95559523D01*
X190333390Y-95559523D02*
X190428628Y-95511904D01*
X190428628Y-95511904D02*
X190476247Y-95464285D01*
X190476247Y-95464285D02*
X190523866Y-95369047D01*
X190523866Y-95369047D02*
X190523866Y-95178571D01*
X190523866Y-95178571D02*
X190476247Y-95083333D01*
X190476247Y-95083333D02*
X190428628Y-95035714D01*
X190428628Y-95035714D02*
X190333390Y-94988095D01*
X182125714Y-111794819D02*
X182125714Y-110794819D01*
X182125714Y-110794819D02*
X182363809Y-110794819D01*
X182363809Y-110794819D02*
X182506666Y-110842438D01*
X182506666Y-110842438D02*
X182601904Y-110937676D01*
X182601904Y-110937676D02*
X182649523Y-111032914D01*
X182649523Y-111032914D02*
X182697142Y-111223390D01*
X182697142Y-111223390D02*
X182697142Y-111366247D01*
X182697142Y-111366247D02*
X182649523Y-111556723D01*
X182649523Y-111556723D02*
X182601904Y-111651961D01*
X182601904Y-111651961D02*
X182506666Y-111747200D01*
X182506666Y-111747200D02*
X182363809Y-111794819D01*
X182363809Y-111794819D02*
X182125714Y-111794819D01*
X183078095Y-110890057D02*
X183125714Y-110842438D01*
X183125714Y-110842438D02*
X183220952Y-110794819D01*
X183220952Y-110794819D02*
X183459047Y-110794819D01*
X183459047Y-110794819D02*
X183554285Y-110842438D01*
X183554285Y-110842438D02*
X183601904Y-110890057D01*
X183601904Y-110890057D02*
X183649523Y-110985295D01*
X183649523Y-110985295D02*
X183649523Y-111080533D01*
X183649523Y-111080533D02*
X183601904Y-111223390D01*
X183601904Y-111223390D02*
X183030476Y-111794819D01*
X183030476Y-111794819D02*
X183649523Y-111794819D01*
X184220952Y-111223390D02*
X184125714Y-111175771D01*
X184125714Y-111175771D02*
X184078095Y-111128152D01*
X184078095Y-111128152D02*
X184030476Y-111032914D01*
X184030476Y-111032914D02*
X184030476Y-110985295D01*
X184030476Y-110985295D02*
X184078095Y-110890057D01*
X184078095Y-110890057D02*
X184125714Y-110842438D01*
X184125714Y-110842438D02*
X184220952Y-110794819D01*
X184220952Y-110794819D02*
X184411428Y-110794819D01*
X184411428Y-110794819D02*
X184506666Y-110842438D01*
X184506666Y-110842438D02*
X184554285Y-110890057D01*
X184554285Y-110890057D02*
X184601904Y-110985295D01*
X184601904Y-110985295D02*
X184601904Y-111032914D01*
X184601904Y-111032914D02*
X184554285Y-111128152D01*
X184554285Y-111128152D02*
X184506666Y-111175771D01*
X184506666Y-111175771D02*
X184411428Y-111223390D01*
X184411428Y-111223390D02*
X184220952Y-111223390D01*
X184220952Y-111223390D02*
X184125714Y-111271009D01*
X184125714Y-111271009D02*
X184078095Y-111318628D01*
X184078095Y-111318628D02*
X184030476Y-111413866D01*
X184030476Y-111413866D02*
X184030476Y-111604342D01*
X184030476Y-111604342D02*
X184078095Y-111699580D01*
X184078095Y-111699580D02*
X184125714Y-111747200D01*
X184125714Y-111747200D02*
X184220952Y-111794819D01*
X184220952Y-111794819D02*
X184411428Y-111794819D01*
X184411428Y-111794819D02*
X184506666Y-111747200D01*
X184506666Y-111747200D02*
X184554285Y-111699580D01*
X184554285Y-111699580D02*
X184601904Y-111604342D01*
X184601904Y-111604342D02*
X184601904Y-111413866D01*
X184601904Y-111413866D02*
X184554285Y-111318628D01*
X184554285Y-111318628D02*
X184506666Y-111271009D01*
X184506666Y-111271009D02*
X184411428Y-111223390D01*
X207367142Y-76229580D02*
X207319523Y-76277200D01*
X207319523Y-76277200D02*
X207176666Y-76324819D01*
X207176666Y-76324819D02*
X207081428Y-76324819D01*
X207081428Y-76324819D02*
X206938571Y-76277200D01*
X206938571Y-76277200D02*
X206843333Y-76181961D01*
X206843333Y-76181961D02*
X206795714Y-76086723D01*
X206795714Y-76086723D02*
X206748095Y-75896247D01*
X206748095Y-75896247D02*
X206748095Y-75753390D01*
X206748095Y-75753390D02*
X206795714Y-75562914D01*
X206795714Y-75562914D02*
X206843333Y-75467676D01*
X206843333Y-75467676D02*
X206938571Y-75372438D01*
X206938571Y-75372438D02*
X207081428Y-75324819D01*
X207081428Y-75324819D02*
X207176666Y-75324819D01*
X207176666Y-75324819D02*
X207319523Y-75372438D01*
X207319523Y-75372438D02*
X207367142Y-75420057D01*
X208224285Y-75324819D02*
X208033809Y-75324819D01*
X208033809Y-75324819D02*
X207938571Y-75372438D01*
X207938571Y-75372438D02*
X207890952Y-75420057D01*
X207890952Y-75420057D02*
X207795714Y-75562914D01*
X207795714Y-75562914D02*
X207748095Y-75753390D01*
X207748095Y-75753390D02*
X207748095Y-76134342D01*
X207748095Y-76134342D02*
X207795714Y-76229580D01*
X207795714Y-76229580D02*
X207843333Y-76277200D01*
X207843333Y-76277200D02*
X207938571Y-76324819D01*
X207938571Y-76324819D02*
X208129047Y-76324819D01*
X208129047Y-76324819D02*
X208224285Y-76277200D01*
X208224285Y-76277200D02*
X208271904Y-76229580D01*
X208271904Y-76229580D02*
X208319523Y-76134342D01*
X208319523Y-76134342D02*
X208319523Y-75896247D01*
X208319523Y-75896247D02*
X208271904Y-75801009D01*
X208271904Y-75801009D02*
X208224285Y-75753390D01*
X208224285Y-75753390D02*
X208129047Y-75705771D01*
X208129047Y-75705771D02*
X207938571Y-75705771D01*
X207938571Y-75705771D02*
X207843333Y-75753390D01*
X207843333Y-75753390D02*
X207795714Y-75801009D01*
X207795714Y-75801009D02*
X207748095Y-75896247D01*
X208938571Y-75324819D02*
X209033809Y-75324819D01*
X209033809Y-75324819D02*
X209129047Y-75372438D01*
X209129047Y-75372438D02*
X209176666Y-75420057D01*
X209176666Y-75420057D02*
X209224285Y-75515295D01*
X209224285Y-75515295D02*
X209271904Y-75705771D01*
X209271904Y-75705771D02*
X209271904Y-75943866D01*
X209271904Y-75943866D02*
X209224285Y-76134342D01*
X209224285Y-76134342D02*
X209176666Y-76229580D01*
X209176666Y-76229580D02*
X209129047Y-76277200D01*
X209129047Y-76277200D02*
X209033809Y-76324819D01*
X209033809Y-76324819D02*
X208938571Y-76324819D01*
X208938571Y-76324819D02*
X208843333Y-76277200D01*
X208843333Y-76277200D02*
X208795714Y-76229580D01*
X208795714Y-76229580D02*
X208748095Y-76134342D01*
X208748095Y-76134342D02*
X208700476Y-75943866D01*
X208700476Y-75943866D02*
X208700476Y-75705771D01*
X208700476Y-75705771D02*
X208748095Y-75515295D01*
X208748095Y-75515295D02*
X208795714Y-75420057D01*
X208795714Y-75420057D02*
X208843333Y-75372438D01*
X208843333Y-75372438D02*
X208938571Y-75324819D01*
X201878628Y-75496190D02*
X202354819Y-75496190D01*
X201354819Y-75829523D02*
X201878628Y-75496190D01*
X201878628Y-75496190D02*
X201354819Y-75162857D01*
X201354819Y-74924761D02*
X201354819Y-74305714D01*
X201354819Y-74305714D02*
X201735771Y-74639047D01*
X201735771Y-74639047D02*
X201735771Y-74496190D01*
X201735771Y-74496190D02*
X201783390Y-74400952D01*
X201783390Y-74400952D02*
X201831009Y-74353333D01*
X201831009Y-74353333D02*
X201926247Y-74305714D01*
X201926247Y-74305714D02*
X202164342Y-74305714D01*
X202164342Y-74305714D02*
X202259580Y-74353333D01*
X202259580Y-74353333D02*
X202307200Y-74400952D01*
X202307200Y-74400952D02*
X202354819Y-74496190D01*
X202354819Y-74496190D02*
X202354819Y-74781904D01*
X202354819Y-74781904D02*
X202307200Y-74877142D01*
X202307200Y-74877142D02*
X202259580Y-74924761D01*
X191505693Y-128219830D02*
X191505693Y-128287174D01*
X191505693Y-128287174D02*
X191438349Y-128421861D01*
X191438349Y-128421861D02*
X191371006Y-128489204D01*
X191371006Y-128489204D02*
X191236319Y-128556548D01*
X191236319Y-128556548D02*
X191101632Y-128556548D01*
X191101632Y-128556548D02*
X191000617Y-128522876D01*
X191000617Y-128522876D02*
X190832258Y-128421861D01*
X190832258Y-128421861D02*
X190731243Y-128320846D01*
X190731243Y-128320846D02*
X190630227Y-128152487D01*
X190630227Y-128152487D02*
X190596556Y-128051472D01*
X190596556Y-128051472D02*
X190596556Y-127916785D01*
X190596556Y-127916785D02*
X190663899Y-127782098D01*
X190663899Y-127782098D02*
X190731243Y-127714754D01*
X190731243Y-127714754D02*
X190865930Y-127647411D01*
X190865930Y-127647411D02*
X190933273Y-127647411D01*
X192246471Y-127613739D02*
X191842410Y-128017800D01*
X192044441Y-127815769D02*
X191337334Y-127108663D01*
X191337334Y-127108663D02*
X191371006Y-127277021D01*
X191371006Y-127277021D02*
X191371006Y-127411708D01*
X191371006Y-127411708D02*
X191337334Y-127512724D01*
X191876082Y-126704601D02*
X191876082Y-126637258D01*
X191876082Y-126637258D02*
X191909754Y-126536243D01*
X191909754Y-126536243D02*
X192078113Y-126367884D01*
X192078113Y-126367884D02*
X192179128Y-126334212D01*
X192179128Y-126334212D02*
X192246472Y-126334212D01*
X192246472Y-126334212D02*
X192347487Y-126367884D01*
X192347487Y-126367884D02*
X192414830Y-126435227D01*
X192414830Y-126435227D02*
X192482174Y-126569914D01*
X192482174Y-126569914D02*
X192482174Y-127378036D01*
X192482174Y-127378036D02*
X192919907Y-126940304D01*
X215555533Y-133172819D02*
X215222200Y-132696628D01*
X214984105Y-133172819D02*
X214984105Y-132172819D01*
X214984105Y-132172819D02*
X215365057Y-132172819D01*
X215365057Y-132172819D02*
X215460295Y-132220438D01*
X215460295Y-132220438D02*
X215507914Y-132268057D01*
X215507914Y-132268057D02*
X215555533Y-132363295D01*
X215555533Y-132363295D02*
X215555533Y-132506152D01*
X215555533Y-132506152D02*
X215507914Y-132601390D01*
X215507914Y-132601390D02*
X215460295Y-132649009D01*
X215460295Y-132649009D02*
X215365057Y-132696628D01*
X215365057Y-132696628D02*
X214984105Y-132696628D01*
X215888867Y-132172819D02*
X216555533Y-132172819D01*
X216555533Y-132172819D02*
X216126962Y-133172819D01*
X182125714Y-115744819D02*
X182125714Y-114744819D01*
X182125714Y-114744819D02*
X182363809Y-114744819D01*
X182363809Y-114744819D02*
X182506666Y-114792438D01*
X182506666Y-114792438D02*
X182601904Y-114887676D01*
X182601904Y-114887676D02*
X182649523Y-114982914D01*
X182649523Y-114982914D02*
X182697142Y-115173390D01*
X182697142Y-115173390D02*
X182697142Y-115316247D01*
X182697142Y-115316247D02*
X182649523Y-115506723D01*
X182649523Y-115506723D02*
X182601904Y-115601961D01*
X182601904Y-115601961D02*
X182506666Y-115697200D01*
X182506666Y-115697200D02*
X182363809Y-115744819D01*
X182363809Y-115744819D02*
X182125714Y-115744819D01*
X183078095Y-114840057D02*
X183125714Y-114792438D01*
X183125714Y-114792438D02*
X183220952Y-114744819D01*
X183220952Y-114744819D02*
X183459047Y-114744819D01*
X183459047Y-114744819D02*
X183554285Y-114792438D01*
X183554285Y-114792438D02*
X183601904Y-114840057D01*
X183601904Y-114840057D02*
X183649523Y-114935295D01*
X183649523Y-114935295D02*
X183649523Y-115030533D01*
X183649523Y-115030533D02*
X183601904Y-115173390D01*
X183601904Y-115173390D02*
X183030476Y-115744819D01*
X183030476Y-115744819D02*
X183649523Y-115744819D01*
X184125714Y-115744819D02*
X184316190Y-115744819D01*
X184316190Y-115744819D02*
X184411428Y-115697200D01*
X184411428Y-115697200D02*
X184459047Y-115649580D01*
X184459047Y-115649580D02*
X184554285Y-115506723D01*
X184554285Y-115506723D02*
X184601904Y-115316247D01*
X184601904Y-115316247D02*
X184601904Y-114935295D01*
X184601904Y-114935295D02*
X184554285Y-114840057D01*
X184554285Y-114840057D02*
X184506666Y-114792438D01*
X184506666Y-114792438D02*
X184411428Y-114744819D01*
X184411428Y-114744819D02*
X184220952Y-114744819D01*
X184220952Y-114744819D02*
X184125714Y-114792438D01*
X184125714Y-114792438D02*
X184078095Y-114840057D01*
X184078095Y-114840057D02*
X184030476Y-114935295D01*
X184030476Y-114935295D02*
X184030476Y-115173390D01*
X184030476Y-115173390D02*
X184078095Y-115268628D01*
X184078095Y-115268628D02*
X184125714Y-115316247D01*
X184125714Y-115316247D02*
X184220952Y-115363866D01*
X184220952Y-115363866D02*
X184411428Y-115363866D01*
X184411428Y-115363866D02*
X184506666Y-115316247D01*
X184506666Y-115316247D02*
X184554285Y-115268628D01*
X184554285Y-115268628D02*
X184601904Y-115173390D01*
X209352819Y-85224857D02*
X208876628Y-85558190D01*
X209352819Y-85796285D02*
X208352819Y-85796285D01*
X208352819Y-85796285D02*
X208352819Y-85415333D01*
X208352819Y-85415333D02*
X208400438Y-85320095D01*
X208400438Y-85320095D02*
X208448057Y-85272476D01*
X208448057Y-85272476D02*
X208543295Y-85224857D01*
X208543295Y-85224857D02*
X208686152Y-85224857D01*
X208686152Y-85224857D02*
X208781390Y-85272476D01*
X208781390Y-85272476D02*
X208829009Y-85320095D01*
X208829009Y-85320095D02*
X208876628Y-85415333D01*
X208876628Y-85415333D02*
X208876628Y-85796285D01*
X208781390Y-84653428D02*
X208733771Y-84748666D01*
X208733771Y-84748666D02*
X208686152Y-84796285D01*
X208686152Y-84796285D02*
X208590914Y-84843904D01*
X208590914Y-84843904D02*
X208543295Y-84843904D01*
X208543295Y-84843904D02*
X208448057Y-84796285D01*
X208448057Y-84796285D02*
X208400438Y-84748666D01*
X208400438Y-84748666D02*
X208352819Y-84653428D01*
X208352819Y-84653428D02*
X208352819Y-84462952D01*
X208352819Y-84462952D02*
X208400438Y-84367714D01*
X208400438Y-84367714D02*
X208448057Y-84320095D01*
X208448057Y-84320095D02*
X208543295Y-84272476D01*
X208543295Y-84272476D02*
X208590914Y-84272476D01*
X208590914Y-84272476D02*
X208686152Y-84320095D01*
X208686152Y-84320095D02*
X208733771Y-84367714D01*
X208733771Y-84367714D02*
X208781390Y-84462952D01*
X208781390Y-84462952D02*
X208781390Y-84653428D01*
X208781390Y-84653428D02*
X208829009Y-84748666D01*
X208829009Y-84748666D02*
X208876628Y-84796285D01*
X208876628Y-84796285D02*
X208971866Y-84843904D01*
X208971866Y-84843904D02*
X209162342Y-84843904D01*
X209162342Y-84843904D02*
X209257580Y-84796285D01*
X209257580Y-84796285D02*
X209305200Y-84748666D01*
X209305200Y-84748666D02*
X209352819Y-84653428D01*
X209352819Y-84653428D02*
X209352819Y-84462952D01*
X209352819Y-84462952D02*
X209305200Y-84367714D01*
X209305200Y-84367714D02*
X209257580Y-84320095D01*
X209257580Y-84320095D02*
X209162342Y-84272476D01*
X209162342Y-84272476D02*
X208971866Y-84272476D01*
X208971866Y-84272476D02*
X208876628Y-84320095D01*
X208876628Y-84320095D02*
X208829009Y-84367714D01*
X208829009Y-84367714D02*
X208781390Y-84462952D01*
X208352819Y-83939142D02*
X208352819Y-83272476D01*
X208352819Y-83272476D02*
X209352819Y-83701047D01*
X197996333Y-143544819D02*
X197663000Y-143068628D01*
X197424905Y-143544819D02*
X197424905Y-142544819D01*
X197424905Y-142544819D02*
X197805857Y-142544819D01*
X197805857Y-142544819D02*
X197901095Y-142592438D01*
X197901095Y-142592438D02*
X197948714Y-142640057D01*
X197948714Y-142640057D02*
X197996333Y-142735295D01*
X197996333Y-142735295D02*
X197996333Y-142878152D01*
X197996333Y-142878152D02*
X197948714Y-142973390D01*
X197948714Y-142973390D02*
X197901095Y-143021009D01*
X197901095Y-143021009D02*
X197805857Y-143068628D01*
X197805857Y-143068628D02*
X197424905Y-143068628D01*
X198472524Y-143544819D02*
X198663000Y-143544819D01*
X198663000Y-143544819D02*
X198758238Y-143497200D01*
X198758238Y-143497200D02*
X198805857Y-143449580D01*
X198805857Y-143449580D02*
X198901095Y-143306723D01*
X198901095Y-143306723D02*
X198948714Y-143116247D01*
X198948714Y-143116247D02*
X198948714Y-142735295D01*
X198948714Y-142735295D02*
X198901095Y-142640057D01*
X198901095Y-142640057D02*
X198853476Y-142592438D01*
X198853476Y-142592438D02*
X198758238Y-142544819D01*
X198758238Y-142544819D02*
X198567762Y-142544819D01*
X198567762Y-142544819D02*
X198472524Y-142592438D01*
X198472524Y-142592438D02*
X198424905Y-142640057D01*
X198424905Y-142640057D02*
X198377286Y-142735295D01*
X198377286Y-142735295D02*
X198377286Y-142973390D01*
X198377286Y-142973390D02*
X198424905Y-143068628D01*
X198424905Y-143068628D02*
X198472524Y-143116247D01*
X198472524Y-143116247D02*
X198567762Y-143163866D01*
X198567762Y-143163866D02*
X198758238Y-143163866D01*
X198758238Y-143163866D02*
X198853476Y-143116247D01*
X198853476Y-143116247D02*
X198901095Y-143068628D01*
X198901095Y-143068628D02*
X198948714Y-142973390D01*
X190999694Y-115408830D02*
X190999694Y-115476174D01*
X190999694Y-115476174D02*
X190932350Y-115610861D01*
X190932350Y-115610861D02*
X190865007Y-115678204D01*
X190865007Y-115678204D02*
X190730320Y-115745548D01*
X190730320Y-115745548D02*
X190595633Y-115745548D01*
X190595633Y-115745548D02*
X190494618Y-115711876D01*
X190494618Y-115711876D02*
X190326259Y-115610861D01*
X190326259Y-115610861D02*
X190225244Y-115509846D01*
X190225244Y-115509846D02*
X190124228Y-115341487D01*
X190124228Y-115341487D02*
X190090557Y-115240472D01*
X190090557Y-115240472D02*
X190090557Y-115105785D01*
X190090557Y-115105785D02*
X190157900Y-114971098D01*
X190157900Y-114971098D02*
X190225244Y-114903754D01*
X190225244Y-114903754D02*
X190359931Y-114836411D01*
X190359931Y-114836411D02*
X190427274Y-114836411D01*
X191740472Y-114802739D02*
X191336411Y-115206800D01*
X191538442Y-115004769D02*
X190831335Y-114297663D01*
X190831335Y-114297663D02*
X190865007Y-114466021D01*
X190865007Y-114466021D02*
X190865007Y-114600708D01*
X190865007Y-114600708D02*
X190831335Y-114701724D01*
X191740473Y-113994617D02*
X191639457Y-114028288D01*
X191639457Y-114028288D02*
X191572114Y-114028288D01*
X191572114Y-114028288D02*
X191471099Y-113994617D01*
X191471099Y-113994617D02*
X191437427Y-113960945D01*
X191437427Y-113960945D02*
X191403755Y-113859930D01*
X191403755Y-113859930D02*
X191403755Y-113792586D01*
X191403755Y-113792586D02*
X191437427Y-113691571D01*
X191437427Y-113691571D02*
X191572114Y-113556884D01*
X191572114Y-113556884D02*
X191673129Y-113523212D01*
X191673129Y-113523212D02*
X191740473Y-113523212D01*
X191740473Y-113523212D02*
X191841488Y-113556884D01*
X191841488Y-113556884D02*
X191875160Y-113590556D01*
X191875160Y-113590556D02*
X191908831Y-113691571D01*
X191908831Y-113691571D02*
X191908831Y-113758914D01*
X191908831Y-113758914D02*
X191875160Y-113859930D01*
X191875160Y-113859930D02*
X191740473Y-113994617D01*
X191740473Y-113994617D02*
X191706801Y-114095632D01*
X191706801Y-114095632D02*
X191706801Y-114162975D01*
X191706801Y-114162975D02*
X191740473Y-114263991D01*
X191740473Y-114263991D02*
X191875160Y-114398678D01*
X191875160Y-114398678D02*
X191976175Y-114432349D01*
X191976175Y-114432349D02*
X192043518Y-114432349D01*
X192043518Y-114432349D02*
X192144534Y-114398678D01*
X192144534Y-114398678D02*
X192279221Y-114263991D01*
X192279221Y-114263991D02*
X192312892Y-114162975D01*
X192312892Y-114162975D02*
X192312892Y-114095632D01*
X192312892Y-114095632D02*
X192279221Y-113994617D01*
X192279221Y-113994617D02*
X192144534Y-113859930D01*
X192144534Y-113859930D02*
X192043518Y-113826258D01*
X192043518Y-113826258D02*
X191976175Y-113826258D01*
X191976175Y-113826258D02*
X191875160Y-113859930D01*
X193427142Y-91119580D02*
X193379523Y-91167200D01*
X193379523Y-91167200D02*
X193236666Y-91214819D01*
X193236666Y-91214819D02*
X193141428Y-91214819D01*
X193141428Y-91214819D02*
X192998571Y-91167200D01*
X192998571Y-91167200D02*
X192903333Y-91071961D01*
X192903333Y-91071961D02*
X192855714Y-90976723D01*
X192855714Y-90976723D02*
X192808095Y-90786247D01*
X192808095Y-90786247D02*
X192808095Y-90643390D01*
X192808095Y-90643390D02*
X192855714Y-90452914D01*
X192855714Y-90452914D02*
X192903333Y-90357676D01*
X192903333Y-90357676D02*
X192998571Y-90262438D01*
X192998571Y-90262438D02*
X193141428Y-90214819D01*
X193141428Y-90214819D02*
X193236666Y-90214819D01*
X193236666Y-90214819D02*
X193379523Y-90262438D01*
X193379523Y-90262438D02*
X193427142Y-90310057D01*
X194331904Y-90214819D02*
X193855714Y-90214819D01*
X193855714Y-90214819D02*
X193808095Y-90691009D01*
X193808095Y-90691009D02*
X193855714Y-90643390D01*
X193855714Y-90643390D02*
X193950952Y-90595771D01*
X193950952Y-90595771D02*
X194189047Y-90595771D01*
X194189047Y-90595771D02*
X194284285Y-90643390D01*
X194284285Y-90643390D02*
X194331904Y-90691009D01*
X194331904Y-90691009D02*
X194379523Y-90786247D01*
X194379523Y-90786247D02*
X194379523Y-91024342D01*
X194379523Y-91024342D02*
X194331904Y-91119580D01*
X194331904Y-91119580D02*
X194284285Y-91167200D01*
X194284285Y-91167200D02*
X194189047Y-91214819D01*
X194189047Y-91214819D02*
X193950952Y-91214819D01*
X193950952Y-91214819D02*
X193855714Y-91167200D01*
X193855714Y-91167200D02*
X193808095Y-91119580D01*
X194950952Y-90643390D02*
X194855714Y-90595771D01*
X194855714Y-90595771D02*
X194808095Y-90548152D01*
X194808095Y-90548152D02*
X194760476Y-90452914D01*
X194760476Y-90452914D02*
X194760476Y-90405295D01*
X194760476Y-90405295D02*
X194808095Y-90310057D01*
X194808095Y-90310057D02*
X194855714Y-90262438D01*
X194855714Y-90262438D02*
X194950952Y-90214819D01*
X194950952Y-90214819D02*
X195141428Y-90214819D01*
X195141428Y-90214819D02*
X195236666Y-90262438D01*
X195236666Y-90262438D02*
X195284285Y-90310057D01*
X195284285Y-90310057D02*
X195331904Y-90405295D01*
X195331904Y-90405295D02*
X195331904Y-90452914D01*
X195331904Y-90452914D02*
X195284285Y-90548152D01*
X195284285Y-90548152D02*
X195236666Y-90595771D01*
X195236666Y-90595771D02*
X195141428Y-90643390D01*
X195141428Y-90643390D02*
X194950952Y-90643390D01*
X194950952Y-90643390D02*
X194855714Y-90691009D01*
X194855714Y-90691009D02*
X194808095Y-90738628D01*
X194808095Y-90738628D02*
X194760476Y-90833866D01*
X194760476Y-90833866D02*
X194760476Y-91024342D01*
X194760476Y-91024342D02*
X194808095Y-91119580D01*
X194808095Y-91119580D02*
X194855714Y-91167200D01*
X194855714Y-91167200D02*
X194950952Y-91214819D01*
X194950952Y-91214819D02*
X195141428Y-91214819D01*
X195141428Y-91214819D02*
X195236666Y-91167200D01*
X195236666Y-91167200D02*
X195284285Y-91119580D01*
X195284285Y-91119580D02*
X195331904Y-91024342D01*
X195331904Y-91024342D02*
X195331904Y-90833866D01*
X195331904Y-90833866D02*
X195284285Y-90738628D01*
X195284285Y-90738628D02*
X195236666Y-90691009D01*
X195236666Y-90691009D02*
X195141428Y-90643390D01*
X182125714Y-83744819D02*
X182125714Y-82744819D01*
X182125714Y-82744819D02*
X182363809Y-82744819D01*
X182363809Y-82744819D02*
X182506666Y-82792438D01*
X182506666Y-82792438D02*
X182601904Y-82887676D01*
X182601904Y-82887676D02*
X182649523Y-82982914D01*
X182649523Y-82982914D02*
X182697142Y-83173390D01*
X182697142Y-83173390D02*
X182697142Y-83316247D01*
X182697142Y-83316247D02*
X182649523Y-83506723D01*
X182649523Y-83506723D02*
X182601904Y-83601961D01*
X182601904Y-83601961D02*
X182506666Y-83697200D01*
X182506666Y-83697200D02*
X182363809Y-83744819D01*
X182363809Y-83744819D02*
X182125714Y-83744819D01*
X183078095Y-82840057D02*
X183125714Y-82792438D01*
X183125714Y-82792438D02*
X183220952Y-82744819D01*
X183220952Y-82744819D02*
X183459047Y-82744819D01*
X183459047Y-82744819D02*
X183554285Y-82792438D01*
X183554285Y-82792438D02*
X183601904Y-82840057D01*
X183601904Y-82840057D02*
X183649523Y-82935295D01*
X183649523Y-82935295D02*
X183649523Y-83030533D01*
X183649523Y-83030533D02*
X183601904Y-83173390D01*
X183601904Y-83173390D02*
X183030476Y-83744819D01*
X183030476Y-83744819D02*
X183649523Y-83744819D01*
X184601904Y-83744819D02*
X184030476Y-83744819D01*
X184316190Y-83744819D02*
X184316190Y-82744819D01*
X184316190Y-82744819D02*
X184220952Y-82887676D01*
X184220952Y-82887676D02*
X184125714Y-82982914D01*
X184125714Y-82982914D02*
X184030476Y-83030533D01*
X192460142Y-132156819D02*
X192126809Y-131680628D01*
X191888714Y-132156819D02*
X191888714Y-131156819D01*
X191888714Y-131156819D02*
X192269666Y-131156819D01*
X192269666Y-131156819D02*
X192364904Y-131204438D01*
X192364904Y-131204438D02*
X192412523Y-131252057D01*
X192412523Y-131252057D02*
X192460142Y-131347295D01*
X192460142Y-131347295D02*
X192460142Y-131490152D01*
X192460142Y-131490152D02*
X192412523Y-131585390D01*
X192412523Y-131585390D02*
X192364904Y-131633009D01*
X192364904Y-131633009D02*
X192269666Y-131680628D01*
X192269666Y-131680628D02*
X191888714Y-131680628D01*
X193412523Y-132156819D02*
X192841095Y-132156819D01*
X193126809Y-132156819D02*
X193126809Y-131156819D01*
X193126809Y-131156819D02*
X193031571Y-131299676D01*
X193031571Y-131299676D02*
X192936333Y-131394914D01*
X192936333Y-131394914D02*
X192841095Y-131442533D01*
X194269666Y-131490152D02*
X194269666Y-132156819D01*
X194031571Y-131109200D02*
X193793476Y-131823485D01*
X193793476Y-131823485D02*
X194412523Y-131823485D01*
X198040153Y-113083365D02*
X198141169Y-112510945D01*
X197636092Y-112679304D02*
X198343199Y-111972197D01*
X198343199Y-111972197D02*
X198612573Y-112241571D01*
X198612573Y-112241571D02*
X198646245Y-112342586D01*
X198646245Y-112342586D02*
X198646245Y-112409930D01*
X198646245Y-112409930D02*
X198612573Y-112510945D01*
X198612573Y-112510945D02*
X198511558Y-112611960D01*
X198511558Y-112611960D02*
X198410543Y-112645632D01*
X198410543Y-112645632D02*
X198343199Y-112645632D01*
X198343199Y-112645632D02*
X198242184Y-112611960D01*
X198242184Y-112611960D02*
X197972810Y-112342586D01*
X198343199Y-113386410D02*
X199050306Y-112679304D01*
X199050306Y-112679304D02*
X198747260Y-113790472D01*
X198747260Y-113790472D02*
X199454367Y-113083365D01*
X199723741Y-113352739D02*
X200161474Y-113790471D01*
X200161474Y-113790471D02*
X199656398Y-113824143D01*
X199656398Y-113824143D02*
X199757413Y-113925158D01*
X199757413Y-113925158D02*
X199791085Y-114026174D01*
X199791085Y-114026174D02*
X199791085Y-114093517D01*
X199791085Y-114093517D02*
X199757413Y-114194533D01*
X199757413Y-114194533D02*
X199589054Y-114362891D01*
X199589054Y-114362891D02*
X199488039Y-114396563D01*
X199488039Y-114396563D02*
X199420695Y-114396563D01*
X199420695Y-114396563D02*
X199319680Y-114362891D01*
X199319680Y-114362891D02*
X199117649Y-114160861D01*
X199117649Y-114160861D02*
X199083978Y-114059845D01*
X199083978Y-114059845D02*
X199083978Y-113992502D01*
X182125714Y-127744819D02*
X182125714Y-126744819D01*
X182125714Y-126744819D02*
X182363809Y-126744819D01*
X182363809Y-126744819D02*
X182506666Y-126792438D01*
X182506666Y-126792438D02*
X182601904Y-126887676D01*
X182601904Y-126887676D02*
X182649523Y-126982914D01*
X182649523Y-126982914D02*
X182697142Y-127173390D01*
X182697142Y-127173390D02*
X182697142Y-127316247D01*
X182697142Y-127316247D02*
X182649523Y-127506723D01*
X182649523Y-127506723D02*
X182601904Y-127601961D01*
X182601904Y-127601961D02*
X182506666Y-127697200D01*
X182506666Y-127697200D02*
X182363809Y-127744819D01*
X182363809Y-127744819D02*
X182125714Y-127744819D01*
X183030476Y-126744819D02*
X183649523Y-126744819D01*
X183649523Y-126744819D02*
X183316190Y-127125771D01*
X183316190Y-127125771D02*
X183459047Y-127125771D01*
X183459047Y-127125771D02*
X183554285Y-127173390D01*
X183554285Y-127173390D02*
X183601904Y-127221009D01*
X183601904Y-127221009D02*
X183649523Y-127316247D01*
X183649523Y-127316247D02*
X183649523Y-127554342D01*
X183649523Y-127554342D02*
X183601904Y-127649580D01*
X183601904Y-127649580D02*
X183554285Y-127697200D01*
X183554285Y-127697200D02*
X183459047Y-127744819D01*
X183459047Y-127744819D02*
X183173333Y-127744819D01*
X183173333Y-127744819D02*
X183078095Y-127697200D01*
X183078095Y-127697200D02*
X183030476Y-127649580D01*
X184030476Y-126840057D02*
X184078095Y-126792438D01*
X184078095Y-126792438D02*
X184173333Y-126744819D01*
X184173333Y-126744819D02*
X184411428Y-126744819D01*
X184411428Y-126744819D02*
X184506666Y-126792438D01*
X184506666Y-126792438D02*
X184554285Y-126840057D01*
X184554285Y-126840057D02*
X184601904Y-126935295D01*
X184601904Y-126935295D02*
X184601904Y-127030533D01*
X184601904Y-127030533D02*
X184554285Y-127173390D01*
X184554285Y-127173390D02*
X183982857Y-127744819D01*
X183982857Y-127744819D02*
X184601904Y-127744819D01*
X182125714Y-95744819D02*
X182125714Y-94744819D01*
X182125714Y-94744819D02*
X182363809Y-94744819D01*
X182363809Y-94744819D02*
X182506666Y-94792438D01*
X182506666Y-94792438D02*
X182601904Y-94887676D01*
X182601904Y-94887676D02*
X182649523Y-94982914D01*
X182649523Y-94982914D02*
X182697142Y-95173390D01*
X182697142Y-95173390D02*
X182697142Y-95316247D01*
X182697142Y-95316247D02*
X182649523Y-95506723D01*
X182649523Y-95506723D02*
X182601904Y-95601961D01*
X182601904Y-95601961D02*
X182506666Y-95697200D01*
X182506666Y-95697200D02*
X182363809Y-95744819D01*
X182363809Y-95744819D02*
X182125714Y-95744819D01*
X183078095Y-94840057D02*
X183125714Y-94792438D01*
X183125714Y-94792438D02*
X183220952Y-94744819D01*
X183220952Y-94744819D02*
X183459047Y-94744819D01*
X183459047Y-94744819D02*
X183554285Y-94792438D01*
X183554285Y-94792438D02*
X183601904Y-94840057D01*
X183601904Y-94840057D02*
X183649523Y-94935295D01*
X183649523Y-94935295D02*
X183649523Y-95030533D01*
X183649523Y-95030533D02*
X183601904Y-95173390D01*
X183601904Y-95173390D02*
X183030476Y-95744819D01*
X183030476Y-95744819D02*
X183649523Y-95744819D01*
X184506666Y-95078152D02*
X184506666Y-95744819D01*
X184268571Y-94697200D02*
X184030476Y-95411485D01*
X184030476Y-95411485D02*
X184649523Y-95411485D01*
X205857142Y-112059580D02*
X205809523Y-112107200D01*
X205809523Y-112107200D02*
X205666666Y-112154819D01*
X205666666Y-112154819D02*
X205571428Y-112154819D01*
X205571428Y-112154819D02*
X205428571Y-112107200D01*
X205428571Y-112107200D02*
X205333333Y-112011961D01*
X205333333Y-112011961D02*
X205285714Y-111916723D01*
X205285714Y-111916723D02*
X205238095Y-111726247D01*
X205238095Y-111726247D02*
X205238095Y-111583390D01*
X205238095Y-111583390D02*
X205285714Y-111392914D01*
X205285714Y-111392914D02*
X205333333Y-111297676D01*
X205333333Y-111297676D02*
X205428571Y-111202438D01*
X205428571Y-111202438D02*
X205571428Y-111154819D01*
X205571428Y-111154819D02*
X205666666Y-111154819D01*
X205666666Y-111154819D02*
X205809523Y-111202438D01*
X205809523Y-111202438D02*
X205857142Y-111250057D01*
X206761904Y-111154819D02*
X206285714Y-111154819D01*
X206285714Y-111154819D02*
X206238095Y-111631009D01*
X206238095Y-111631009D02*
X206285714Y-111583390D01*
X206285714Y-111583390D02*
X206380952Y-111535771D01*
X206380952Y-111535771D02*
X206619047Y-111535771D01*
X206619047Y-111535771D02*
X206714285Y-111583390D01*
X206714285Y-111583390D02*
X206761904Y-111631009D01*
X206761904Y-111631009D02*
X206809523Y-111726247D01*
X206809523Y-111726247D02*
X206809523Y-111964342D01*
X206809523Y-111964342D02*
X206761904Y-112059580D01*
X206761904Y-112059580D02*
X206714285Y-112107200D01*
X206714285Y-112107200D02*
X206619047Y-112154819D01*
X206619047Y-112154819D02*
X206380952Y-112154819D01*
X206380952Y-112154819D02*
X206285714Y-112107200D01*
X206285714Y-112107200D02*
X206238095Y-112059580D01*
X207666666Y-111488152D02*
X207666666Y-112154819D01*
X207428571Y-111107200D02*
X207190476Y-111821485D01*
X207190476Y-111821485D02*
X207809523Y-111821485D01*
X215785714Y-78654819D02*
X215785714Y-77654819D01*
X215785714Y-77654819D02*
X216023809Y-77654819D01*
X216023809Y-77654819D02*
X216166666Y-77702438D01*
X216166666Y-77702438D02*
X216261904Y-77797676D01*
X216261904Y-77797676D02*
X216309523Y-77892914D01*
X216309523Y-77892914D02*
X216357142Y-78083390D01*
X216357142Y-78083390D02*
X216357142Y-78226247D01*
X216357142Y-78226247D02*
X216309523Y-78416723D01*
X216309523Y-78416723D02*
X216261904Y-78511961D01*
X216261904Y-78511961D02*
X216166666Y-78607200D01*
X216166666Y-78607200D02*
X216023809Y-78654819D01*
X216023809Y-78654819D02*
X215785714Y-78654819D01*
X217309523Y-78654819D02*
X216738095Y-78654819D01*
X217023809Y-78654819D02*
X217023809Y-77654819D01*
X217023809Y-77654819D02*
X216928571Y-77797676D01*
X216928571Y-77797676D02*
X216833333Y-77892914D01*
X216833333Y-77892914D02*
X216738095Y-77940533D01*
X218166666Y-77654819D02*
X217976190Y-77654819D01*
X217976190Y-77654819D02*
X217880952Y-77702438D01*
X217880952Y-77702438D02*
X217833333Y-77750057D01*
X217833333Y-77750057D02*
X217738095Y-77892914D01*
X217738095Y-77892914D02*
X217690476Y-78083390D01*
X217690476Y-78083390D02*
X217690476Y-78464342D01*
X217690476Y-78464342D02*
X217738095Y-78559580D01*
X217738095Y-78559580D02*
X217785714Y-78607200D01*
X217785714Y-78607200D02*
X217880952Y-78654819D01*
X217880952Y-78654819D02*
X218071428Y-78654819D01*
X218071428Y-78654819D02*
X218166666Y-78607200D01*
X218166666Y-78607200D02*
X218214285Y-78559580D01*
X218214285Y-78559580D02*
X218261904Y-78464342D01*
X218261904Y-78464342D02*
X218261904Y-78226247D01*
X218261904Y-78226247D02*
X218214285Y-78131009D01*
X218214285Y-78131009D02*
X218166666Y-78083390D01*
X218166666Y-78083390D02*
X218071428Y-78035771D01*
X218071428Y-78035771D02*
X217880952Y-78035771D01*
X217880952Y-78035771D02*
X217785714Y-78083390D01*
X217785714Y-78083390D02*
X217738095Y-78131009D01*
X217738095Y-78131009D02*
X217690476Y-78226247D01*
X218104819Y-100492857D02*
X217628628Y-100826190D01*
X218104819Y-101064285D02*
X217104819Y-101064285D01*
X217104819Y-101064285D02*
X217104819Y-100683333D01*
X217104819Y-100683333D02*
X217152438Y-100588095D01*
X217152438Y-100588095D02*
X217200057Y-100540476D01*
X217200057Y-100540476D02*
X217295295Y-100492857D01*
X217295295Y-100492857D02*
X217438152Y-100492857D01*
X217438152Y-100492857D02*
X217533390Y-100540476D01*
X217533390Y-100540476D02*
X217581009Y-100588095D01*
X217581009Y-100588095D02*
X217628628Y-100683333D01*
X217628628Y-100683333D02*
X217628628Y-101064285D01*
X217533390Y-99921428D02*
X217485771Y-100016666D01*
X217485771Y-100016666D02*
X217438152Y-100064285D01*
X217438152Y-100064285D02*
X217342914Y-100111904D01*
X217342914Y-100111904D02*
X217295295Y-100111904D01*
X217295295Y-100111904D02*
X217200057Y-100064285D01*
X217200057Y-100064285D02*
X217152438Y-100016666D01*
X217152438Y-100016666D02*
X217104819Y-99921428D01*
X217104819Y-99921428D02*
X217104819Y-99730952D01*
X217104819Y-99730952D02*
X217152438Y-99635714D01*
X217152438Y-99635714D02*
X217200057Y-99588095D01*
X217200057Y-99588095D02*
X217295295Y-99540476D01*
X217295295Y-99540476D02*
X217342914Y-99540476D01*
X217342914Y-99540476D02*
X217438152Y-99588095D01*
X217438152Y-99588095D02*
X217485771Y-99635714D01*
X217485771Y-99635714D02*
X217533390Y-99730952D01*
X217533390Y-99730952D02*
X217533390Y-99921428D01*
X217533390Y-99921428D02*
X217581009Y-100016666D01*
X217581009Y-100016666D02*
X217628628Y-100064285D01*
X217628628Y-100064285D02*
X217723866Y-100111904D01*
X217723866Y-100111904D02*
X217914342Y-100111904D01*
X217914342Y-100111904D02*
X218009580Y-100064285D01*
X218009580Y-100064285D02*
X218057200Y-100016666D01*
X218057200Y-100016666D02*
X218104819Y-99921428D01*
X218104819Y-99921428D02*
X218104819Y-99730952D01*
X218104819Y-99730952D02*
X218057200Y-99635714D01*
X218057200Y-99635714D02*
X218009580Y-99588095D01*
X218009580Y-99588095D02*
X217914342Y-99540476D01*
X217914342Y-99540476D02*
X217723866Y-99540476D01*
X217723866Y-99540476D02*
X217628628Y-99588095D01*
X217628628Y-99588095D02*
X217581009Y-99635714D01*
X217581009Y-99635714D02*
X217533390Y-99730952D01*
X218104819Y-99064285D02*
X218104819Y-98873809D01*
X218104819Y-98873809D02*
X218057200Y-98778571D01*
X218057200Y-98778571D02*
X218009580Y-98730952D01*
X218009580Y-98730952D02*
X217866723Y-98635714D01*
X217866723Y-98635714D02*
X217676247Y-98588095D01*
X217676247Y-98588095D02*
X217295295Y-98588095D01*
X217295295Y-98588095D02*
X217200057Y-98635714D01*
X217200057Y-98635714D02*
X217152438Y-98683333D01*
X217152438Y-98683333D02*
X217104819Y-98778571D01*
X217104819Y-98778571D02*
X217104819Y-98969047D01*
X217104819Y-98969047D02*
X217152438Y-99064285D01*
X217152438Y-99064285D02*
X217200057Y-99111904D01*
X217200057Y-99111904D02*
X217295295Y-99159523D01*
X217295295Y-99159523D02*
X217533390Y-99159523D01*
X217533390Y-99159523D02*
X217628628Y-99111904D01*
X217628628Y-99111904D02*
X217676247Y-99064285D01*
X217676247Y-99064285D02*
X217723866Y-98969047D01*
X217723866Y-98969047D02*
X217723866Y-98778571D01*
X217723866Y-98778571D02*
X217676247Y-98683333D01*
X217676247Y-98683333D02*
X217628628Y-98635714D01*
X217628628Y-98635714D02*
X217533390Y-98588095D01*
X218104819Y-97492857D02*
X217628628Y-97826190D01*
X218104819Y-98064285D02*
X217104819Y-98064285D01*
X217104819Y-98064285D02*
X217104819Y-97683333D01*
X217104819Y-97683333D02*
X217152438Y-97588095D01*
X217152438Y-97588095D02*
X217200057Y-97540476D01*
X217200057Y-97540476D02*
X217295295Y-97492857D01*
X217295295Y-97492857D02*
X217438152Y-97492857D01*
X217438152Y-97492857D02*
X217533390Y-97540476D01*
X217533390Y-97540476D02*
X217581009Y-97588095D01*
X217581009Y-97588095D02*
X217628628Y-97683333D01*
X217628628Y-97683333D02*
X217628628Y-98064285D01*
X217200057Y-97111904D02*
X217152438Y-97064285D01*
X217152438Y-97064285D02*
X217104819Y-96969047D01*
X217104819Y-96969047D02*
X217104819Y-96730952D01*
X217104819Y-96730952D02*
X217152438Y-96635714D01*
X217152438Y-96635714D02*
X217200057Y-96588095D01*
X217200057Y-96588095D02*
X217295295Y-96540476D01*
X217295295Y-96540476D02*
X217390533Y-96540476D01*
X217390533Y-96540476D02*
X217533390Y-96588095D01*
X217533390Y-96588095D02*
X218104819Y-97159523D01*
X218104819Y-97159523D02*
X218104819Y-96540476D01*
X218104819Y-95588095D02*
X218104819Y-96159523D01*
X218104819Y-95873809D02*
X217104819Y-95873809D01*
X217104819Y-95873809D02*
X217247676Y-95969047D01*
X217247676Y-95969047D02*
X217342914Y-96064285D01*
X217342914Y-96064285D02*
X217390533Y-96159523D01*
X182125714Y-107744819D02*
X182125714Y-106744819D01*
X182125714Y-106744819D02*
X182363809Y-106744819D01*
X182363809Y-106744819D02*
X182506666Y-106792438D01*
X182506666Y-106792438D02*
X182601904Y-106887676D01*
X182601904Y-106887676D02*
X182649523Y-106982914D01*
X182649523Y-106982914D02*
X182697142Y-107173390D01*
X182697142Y-107173390D02*
X182697142Y-107316247D01*
X182697142Y-107316247D02*
X182649523Y-107506723D01*
X182649523Y-107506723D02*
X182601904Y-107601961D01*
X182601904Y-107601961D02*
X182506666Y-107697200D01*
X182506666Y-107697200D02*
X182363809Y-107744819D01*
X182363809Y-107744819D02*
X182125714Y-107744819D01*
X183078095Y-106840057D02*
X183125714Y-106792438D01*
X183125714Y-106792438D02*
X183220952Y-106744819D01*
X183220952Y-106744819D02*
X183459047Y-106744819D01*
X183459047Y-106744819D02*
X183554285Y-106792438D01*
X183554285Y-106792438D02*
X183601904Y-106840057D01*
X183601904Y-106840057D02*
X183649523Y-106935295D01*
X183649523Y-106935295D02*
X183649523Y-107030533D01*
X183649523Y-107030533D02*
X183601904Y-107173390D01*
X183601904Y-107173390D02*
X183030476Y-107744819D01*
X183030476Y-107744819D02*
X183649523Y-107744819D01*
X183982857Y-106744819D02*
X184649523Y-106744819D01*
X184649523Y-106744819D02*
X184220952Y-107744819D01*
X201597142Y-140749580D02*
X201549523Y-140797200D01*
X201549523Y-140797200D02*
X201406666Y-140844819D01*
X201406666Y-140844819D02*
X201311428Y-140844819D01*
X201311428Y-140844819D02*
X201168571Y-140797200D01*
X201168571Y-140797200D02*
X201073333Y-140701961D01*
X201073333Y-140701961D02*
X201025714Y-140606723D01*
X201025714Y-140606723D02*
X200978095Y-140416247D01*
X200978095Y-140416247D02*
X200978095Y-140273390D01*
X200978095Y-140273390D02*
X201025714Y-140082914D01*
X201025714Y-140082914D02*
X201073333Y-139987676D01*
X201073333Y-139987676D02*
X201168571Y-139892438D01*
X201168571Y-139892438D02*
X201311428Y-139844819D01*
X201311428Y-139844819D02*
X201406666Y-139844819D01*
X201406666Y-139844819D02*
X201549523Y-139892438D01*
X201549523Y-139892438D02*
X201597142Y-139940057D01*
X201930476Y-139844819D02*
X202597142Y-139844819D01*
X202597142Y-139844819D02*
X202168571Y-140844819D01*
X202882857Y-139844819D02*
X203501904Y-139844819D01*
X203501904Y-139844819D02*
X203168571Y-140225771D01*
X203168571Y-140225771D02*
X203311428Y-140225771D01*
X203311428Y-140225771D02*
X203406666Y-140273390D01*
X203406666Y-140273390D02*
X203454285Y-140321009D01*
X203454285Y-140321009D02*
X203501904Y-140416247D01*
X203501904Y-140416247D02*
X203501904Y-140654342D01*
X203501904Y-140654342D02*
X203454285Y-140749580D01*
X203454285Y-140749580D02*
X203406666Y-140797200D01*
X203406666Y-140797200D02*
X203311428Y-140844819D01*
X203311428Y-140844819D02*
X203025714Y-140844819D01*
X203025714Y-140844819D02*
X202930476Y-140797200D01*
X202930476Y-140797200D02*
X202882857Y-140749580D01*
X207893808Y-78138628D02*
X207893808Y-78614819D01*
X207560475Y-77614819D02*
X207893808Y-78138628D01*
X207893808Y-78138628D02*
X208227141Y-77614819D01*
X208989046Y-77948152D02*
X208989046Y-78614819D01*
X208750951Y-77567200D02*
X208512856Y-78281485D01*
X208512856Y-78281485D02*
X209131903Y-78281485D01*
X213544819Y-128128094D02*
X212544819Y-128128094D01*
X212544819Y-128128094D02*
X212544819Y-127889999D01*
X212544819Y-127889999D02*
X212592438Y-127747142D01*
X212592438Y-127747142D02*
X212687676Y-127651904D01*
X212687676Y-127651904D02*
X212782914Y-127604285D01*
X212782914Y-127604285D02*
X212973390Y-127556666D01*
X212973390Y-127556666D02*
X213116247Y-127556666D01*
X213116247Y-127556666D02*
X213306723Y-127604285D01*
X213306723Y-127604285D02*
X213401961Y-127651904D01*
X213401961Y-127651904D02*
X213497200Y-127747142D01*
X213497200Y-127747142D02*
X213544819Y-127889999D01*
X213544819Y-127889999D02*
X213544819Y-128128094D01*
X212878152Y-126699523D02*
X213544819Y-126699523D01*
X212497200Y-126937618D02*
X213211485Y-127175713D01*
X213211485Y-127175713D02*
X213211485Y-126556666D01*
X220635533Y-144707780D02*
X220587914Y-144755400D01*
X220587914Y-144755400D02*
X220445057Y-144803019D01*
X220445057Y-144803019D02*
X220349819Y-144803019D01*
X220349819Y-144803019D02*
X220206962Y-144755400D01*
X220206962Y-144755400D02*
X220111724Y-144660161D01*
X220111724Y-144660161D02*
X220064105Y-144564923D01*
X220064105Y-144564923D02*
X220016486Y-144374447D01*
X220016486Y-144374447D02*
X220016486Y-144231590D01*
X220016486Y-144231590D02*
X220064105Y-144041114D01*
X220064105Y-144041114D02*
X220111724Y-143945876D01*
X220111724Y-143945876D02*
X220206962Y-143850638D01*
X220206962Y-143850638D02*
X220349819Y-143803019D01*
X220349819Y-143803019D02*
X220445057Y-143803019D01*
X220445057Y-143803019D02*
X220587914Y-143850638D01*
X220587914Y-143850638D02*
X220635533Y-143898257D01*
X221540295Y-143803019D02*
X221064105Y-143803019D01*
X221064105Y-143803019D02*
X221016486Y-144279209D01*
X221016486Y-144279209D02*
X221064105Y-144231590D01*
X221064105Y-144231590D02*
X221159343Y-144183971D01*
X221159343Y-144183971D02*
X221397438Y-144183971D01*
X221397438Y-144183971D02*
X221492676Y-144231590D01*
X221492676Y-144231590D02*
X221540295Y-144279209D01*
X221540295Y-144279209D02*
X221587914Y-144374447D01*
X221587914Y-144374447D02*
X221587914Y-144612542D01*
X221587914Y-144612542D02*
X221540295Y-144707780D01*
X221540295Y-144707780D02*
X221492676Y-144755400D01*
X221492676Y-144755400D02*
X221397438Y-144803019D01*
X221397438Y-144803019D02*
X221159343Y-144803019D01*
X221159343Y-144803019D02*
X221064105Y-144755400D01*
X221064105Y-144755400D02*
X221016486Y-144707780D01*
X190347142Y-143417219D02*
X190013809Y-142941028D01*
X189775714Y-143417219D02*
X189775714Y-142417219D01*
X189775714Y-142417219D02*
X190156666Y-142417219D01*
X190156666Y-142417219D02*
X190251904Y-142464838D01*
X190251904Y-142464838D02*
X190299523Y-142512457D01*
X190299523Y-142512457D02*
X190347142Y-142607695D01*
X190347142Y-142607695D02*
X190347142Y-142750552D01*
X190347142Y-142750552D02*
X190299523Y-142845790D01*
X190299523Y-142845790D02*
X190251904Y-142893409D01*
X190251904Y-142893409D02*
X190156666Y-142941028D01*
X190156666Y-142941028D02*
X189775714Y-142941028D01*
X191299523Y-143417219D02*
X190728095Y-143417219D01*
X191013809Y-143417219D02*
X191013809Y-142417219D01*
X191013809Y-142417219D02*
X190918571Y-142560076D01*
X190918571Y-142560076D02*
X190823333Y-142655314D01*
X190823333Y-142655314D02*
X190728095Y-142702933D01*
X192156666Y-142417219D02*
X191966190Y-142417219D01*
X191966190Y-142417219D02*
X191870952Y-142464838D01*
X191870952Y-142464838D02*
X191823333Y-142512457D01*
X191823333Y-142512457D02*
X191728095Y-142655314D01*
X191728095Y-142655314D02*
X191680476Y-142845790D01*
X191680476Y-142845790D02*
X191680476Y-143226742D01*
X191680476Y-143226742D02*
X191728095Y-143321980D01*
X191728095Y-143321980D02*
X191775714Y-143369600D01*
X191775714Y-143369600D02*
X191870952Y-143417219D01*
X191870952Y-143417219D02*
X192061428Y-143417219D01*
X192061428Y-143417219D02*
X192156666Y-143369600D01*
X192156666Y-143369600D02*
X192204285Y-143321980D01*
X192204285Y-143321980D02*
X192251904Y-143226742D01*
X192251904Y-143226742D02*
X192251904Y-142988647D01*
X192251904Y-142988647D02*
X192204285Y-142893409D01*
X192204285Y-142893409D02*
X192156666Y-142845790D01*
X192156666Y-142845790D02*
X192061428Y-142798171D01*
X192061428Y-142798171D02*
X191870952Y-142798171D01*
X191870952Y-142798171D02*
X191775714Y-142845790D01*
X191775714Y-142845790D02*
X191728095Y-142893409D01*
X191728095Y-142893409D02*
X191680476Y-142988647D01*
X214524819Y-107916666D02*
X214048628Y-108249999D01*
X214524819Y-108488094D02*
X213524819Y-108488094D01*
X213524819Y-108488094D02*
X213524819Y-108107142D01*
X213524819Y-108107142D02*
X213572438Y-108011904D01*
X213572438Y-108011904D02*
X213620057Y-107964285D01*
X213620057Y-107964285D02*
X213715295Y-107916666D01*
X213715295Y-107916666D02*
X213858152Y-107916666D01*
X213858152Y-107916666D02*
X213953390Y-107964285D01*
X213953390Y-107964285D02*
X214001009Y-108011904D01*
X214001009Y-108011904D02*
X214048628Y-108107142D01*
X214048628Y-108107142D02*
X214048628Y-108488094D01*
X213524819Y-107583332D02*
X213524819Y-106964285D01*
X213524819Y-106964285D02*
X213905771Y-107297618D01*
X213905771Y-107297618D02*
X213905771Y-107154761D01*
X213905771Y-107154761D02*
X213953390Y-107059523D01*
X213953390Y-107059523D02*
X214001009Y-107011904D01*
X214001009Y-107011904D02*
X214096247Y-106964285D01*
X214096247Y-106964285D02*
X214334342Y-106964285D01*
X214334342Y-106964285D02*
X214429580Y-107011904D01*
X214429580Y-107011904D02*
X214477200Y-107059523D01*
X214477200Y-107059523D02*
X214524819Y-107154761D01*
X214524819Y-107154761D02*
X214524819Y-107440475D01*
X214524819Y-107440475D02*
X214477200Y-107535713D01*
X214477200Y-107535713D02*
X214429580Y-107583332D01*
X194460333Y-136887580D02*
X194412714Y-136935200D01*
X194412714Y-136935200D02*
X194269857Y-136982819D01*
X194269857Y-136982819D02*
X194174619Y-136982819D01*
X194174619Y-136982819D02*
X194031762Y-136935200D01*
X194031762Y-136935200D02*
X193936524Y-136839961D01*
X193936524Y-136839961D02*
X193888905Y-136744723D01*
X193888905Y-136744723D02*
X193841286Y-136554247D01*
X193841286Y-136554247D02*
X193841286Y-136411390D01*
X193841286Y-136411390D02*
X193888905Y-136220914D01*
X193888905Y-136220914D02*
X193936524Y-136125676D01*
X193936524Y-136125676D02*
X194031762Y-136030438D01*
X194031762Y-136030438D02*
X194174619Y-135982819D01*
X194174619Y-135982819D02*
X194269857Y-135982819D01*
X194269857Y-135982819D02*
X194412714Y-136030438D01*
X194412714Y-136030438D02*
X194460333Y-136078057D01*
X195412714Y-136982819D02*
X194841286Y-136982819D01*
X195127000Y-136982819D02*
X195127000Y-135982819D01*
X195127000Y-135982819D02*
X195031762Y-136125676D01*
X195031762Y-136125676D02*
X194936524Y-136220914D01*
X194936524Y-136220914D02*
X194841286Y-136268533D01*
X216608819Y-120245094D02*
X215608819Y-120245094D01*
X215608819Y-120245094D02*
X215608819Y-120006999D01*
X215608819Y-120006999D02*
X215656438Y-119864142D01*
X215656438Y-119864142D02*
X215751676Y-119768904D01*
X215751676Y-119768904D02*
X215846914Y-119721285D01*
X215846914Y-119721285D02*
X216037390Y-119673666D01*
X216037390Y-119673666D02*
X216180247Y-119673666D01*
X216180247Y-119673666D02*
X216370723Y-119721285D01*
X216370723Y-119721285D02*
X216465961Y-119768904D01*
X216465961Y-119768904D02*
X216561200Y-119864142D01*
X216561200Y-119864142D02*
X216608819Y-120006999D01*
X216608819Y-120006999D02*
X216608819Y-120245094D01*
X215608819Y-119340332D02*
X215608819Y-118721285D01*
X215608819Y-118721285D02*
X215989771Y-119054618D01*
X215989771Y-119054618D02*
X215989771Y-118911761D01*
X215989771Y-118911761D02*
X216037390Y-118816523D01*
X216037390Y-118816523D02*
X216085009Y-118768904D01*
X216085009Y-118768904D02*
X216180247Y-118721285D01*
X216180247Y-118721285D02*
X216418342Y-118721285D01*
X216418342Y-118721285D02*
X216513580Y-118768904D01*
X216513580Y-118768904D02*
X216561200Y-118816523D01*
X216561200Y-118816523D02*
X216608819Y-118911761D01*
X216608819Y-118911761D02*
X216608819Y-119197475D01*
X216608819Y-119197475D02*
X216561200Y-119292713D01*
X216561200Y-119292713D02*
X216513580Y-119340332D01*
X182125714Y-79744819D02*
X182125714Y-78744819D01*
X182125714Y-78744819D02*
X182363809Y-78744819D01*
X182363809Y-78744819D02*
X182506666Y-78792438D01*
X182506666Y-78792438D02*
X182601904Y-78887676D01*
X182601904Y-78887676D02*
X182649523Y-78982914D01*
X182649523Y-78982914D02*
X182697142Y-79173390D01*
X182697142Y-79173390D02*
X182697142Y-79316247D01*
X182697142Y-79316247D02*
X182649523Y-79506723D01*
X182649523Y-79506723D02*
X182601904Y-79601961D01*
X182601904Y-79601961D02*
X182506666Y-79697200D01*
X182506666Y-79697200D02*
X182363809Y-79744819D01*
X182363809Y-79744819D02*
X182125714Y-79744819D01*
X183078095Y-78840057D02*
X183125714Y-78792438D01*
X183125714Y-78792438D02*
X183220952Y-78744819D01*
X183220952Y-78744819D02*
X183459047Y-78744819D01*
X183459047Y-78744819D02*
X183554285Y-78792438D01*
X183554285Y-78792438D02*
X183601904Y-78840057D01*
X183601904Y-78840057D02*
X183649523Y-78935295D01*
X183649523Y-78935295D02*
X183649523Y-79030533D01*
X183649523Y-79030533D02*
X183601904Y-79173390D01*
X183601904Y-79173390D02*
X183030476Y-79744819D01*
X183030476Y-79744819D02*
X183649523Y-79744819D01*
X184268571Y-78744819D02*
X184363809Y-78744819D01*
X184363809Y-78744819D02*
X184459047Y-78792438D01*
X184459047Y-78792438D02*
X184506666Y-78840057D01*
X184506666Y-78840057D02*
X184554285Y-78935295D01*
X184554285Y-78935295D02*
X184601904Y-79125771D01*
X184601904Y-79125771D02*
X184601904Y-79363866D01*
X184601904Y-79363866D02*
X184554285Y-79554342D01*
X184554285Y-79554342D02*
X184506666Y-79649580D01*
X184506666Y-79649580D02*
X184459047Y-79697200D01*
X184459047Y-79697200D02*
X184363809Y-79744819D01*
X184363809Y-79744819D02*
X184268571Y-79744819D01*
X184268571Y-79744819D02*
X184173333Y-79697200D01*
X184173333Y-79697200D02*
X184125714Y-79649580D01*
X184125714Y-79649580D02*
X184078095Y-79554342D01*
X184078095Y-79554342D02*
X184030476Y-79363866D01*
X184030476Y-79363866D02*
X184030476Y-79125771D01*
X184030476Y-79125771D02*
X184078095Y-78935295D01*
X184078095Y-78935295D02*
X184125714Y-78840057D01*
X184125714Y-78840057D02*
X184173333Y-78792438D01*
X184173333Y-78792438D02*
X184268571Y-78744819D01*
X199842980Y-87113357D02*
X199890600Y-87160976D01*
X199890600Y-87160976D02*
X199938219Y-87303833D01*
X199938219Y-87303833D02*
X199938219Y-87399071D01*
X199938219Y-87399071D02*
X199890600Y-87541928D01*
X199890600Y-87541928D02*
X199795361Y-87637166D01*
X199795361Y-87637166D02*
X199700123Y-87684785D01*
X199700123Y-87684785D02*
X199509647Y-87732404D01*
X199509647Y-87732404D02*
X199366790Y-87732404D01*
X199366790Y-87732404D02*
X199176314Y-87684785D01*
X199176314Y-87684785D02*
X199081076Y-87637166D01*
X199081076Y-87637166D02*
X198985838Y-87541928D01*
X198985838Y-87541928D02*
X198938219Y-87399071D01*
X198938219Y-87399071D02*
X198938219Y-87303833D01*
X198938219Y-87303833D02*
X198985838Y-87160976D01*
X198985838Y-87160976D02*
X199033457Y-87113357D01*
X199033457Y-86732404D02*
X198985838Y-86684785D01*
X198985838Y-86684785D02*
X198938219Y-86589547D01*
X198938219Y-86589547D02*
X198938219Y-86351452D01*
X198938219Y-86351452D02*
X198985838Y-86256214D01*
X198985838Y-86256214D02*
X199033457Y-86208595D01*
X199033457Y-86208595D02*
X199128695Y-86160976D01*
X199128695Y-86160976D02*
X199223933Y-86160976D01*
X199223933Y-86160976D02*
X199366790Y-86208595D01*
X199366790Y-86208595D02*
X199938219Y-86780023D01*
X199938219Y-86780023D02*
X199938219Y-86160976D01*
X198938219Y-85541928D02*
X198938219Y-85446690D01*
X198938219Y-85446690D02*
X198985838Y-85351452D01*
X198985838Y-85351452D02*
X199033457Y-85303833D01*
X199033457Y-85303833D02*
X199128695Y-85256214D01*
X199128695Y-85256214D02*
X199319171Y-85208595D01*
X199319171Y-85208595D02*
X199557266Y-85208595D01*
X199557266Y-85208595D02*
X199747742Y-85256214D01*
X199747742Y-85256214D02*
X199842980Y-85303833D01*
X199842980Y-85303833D02*
X199890600Y-85351452D01*
X199890600Y-85351452D02*
X199938219Y-85446690D01*
X199938219Y-85446690D02*
X199938219Y-85541928D01*
X199938219Y-85541928D02*
X199890600Y-85637166D01*
X199890600Y-85637166D02*
X199842980Y-85684785D01*
X199842980Y-85684785D02*
X199747742Y-85732404D01*
X199747742Y-85732404D02*
X199557266Y-85780023D01*
X199557266Y-85780023D02*
X199319171Y-85780023D01*
X199319171Y-85780023D02*
X199128695Y-85732404D01*
X199128695Y-85732404D02*
X199033457Y-85684785D01*
X199033457Y-85684785D02*
X198985838Y-85637166D01*
X198985838Y-85637166D02*
X198938219Y-85541928D01*
X190044580Y-108620357D02*
X190092200Y-108667976D01*
X190092200Y-108667976D02*
X190139819Y-108810833D01*
X190139819Y-108810833D02*
X190139819Y-108906071D01*
X190139819Y-108906071D02*
X190092200Y-109048928D01*
X190092200Y-109048928D02*
X189996961Y-109144166D01*
X189996961Y-109144166D02*
X189901723Y-109191785D01*
X189901723Y-109191785D02*
X189711247Y-109239404D01*
X189711247Y-109239404D02*
X189568390Y-109239404D01*
X189568390Y-109239404D02*
X189377914Y-109191785D01*
X189377914Y-109191785D02*
X189282676Y-109144166D01*
X189282676Y-109144166D02*
X189187438Y-109048928D01*
X189187438Y-109048928D02*
X189139819Y-108906071D01*
X189139819Y-108906071D02*
X189139819Y-108810833D01*
X189139819Y-108810833D02*
X189187438Y-108667976D01*
X189187438Y-108667976D02*
X189235057Y-108620357D01*
X189139819Y-107715595D02*
X189139819Y-108191785D01*
X189139819Y-108191785D02*
X189616009Y-108239404D01*
X189616009Y-108239404D02*
X189568390Y-108191785D01*
X189568390Y-108191785D02*
X189520771Y-108096547D01*
X189520771Y-108096547D02*
X189520771Y-107858452D01*
X189520771Y-107858452D02*
X189568390Y-107763214D01*
X189568390Y-107763214D02*
X189616009Y-107715595D01*
X189616009Y-107715595D02*
X189711247Y-107667976D01*
X189711247Y-107667976D02*
X189949342Y-107667976D01*
X189949342Y-107667976D02*
X190044580Y-107715595D01*
X190044580Y-107715595D02*
X190092200Y-107763214D01*
X190092200Y-107763214D02*
X190139819Y-107858452D01*
X190139819Y-107858452D02*
X190139819Y-108096547D01*
X190139819Y-108096547D02*
X190092200Y-108191785D01*
X190092200Y-108191785D02*
X190044580Y-108239404D01*
X189139819Y-107334642D02*
X189139819Y-106667976D01*
X189139819Y-106667976D02*
X190139819Y-107096547D01*
X192509580Y-111882857D02*
X192557200Y-111930476D01*
X192557200Y-111930476D02*
X192604819Y-112073333D01*
X192604819Y-112073333D02*
X192604819Y-112168571D01*
X192604819Y-112168571D02*
X192557200Y-112311428D01*
X192557200Y-112311428D02*
X192461961Y-112406666D01*
X192461961Y-112406666D02*
X192366723Y-112454285D01*
X192366723Y-112454285D02*
X192176247Y-112501904D01*
X192176247Y-112501904D02*
X192033390Y-112501904D01*
X192033390Y-112501904D02*
X191842914Y-112454285D01*
X191842914Y-112454285D02*
X191747676Y-112406666D01*
X191747676Y-112406666D02*
X191652438Y-112311428D01*
X191652438Y-112311428D02*
X191604819Y-112168571D01*
X191604819Y-112168571D02*
X191604819Y-112073333D01*
X191604819Y-112073333D02*
X191652438Y-111930476D01*
X191652438Y-111930476D02*
X191700057Y-111882857D01*
X191604819Y-111549523D02*
X191604819Y-110930476D01*
X191604819Y-110930476D02*
X191985771Y-111263809D01*
X191985771Y-111263809D02*
X191985771Y-111120952D01*
X191985771Y-111120952D02*
X192033390Y-111025714D01*
X192033390Y-111025714D02*
X192081009Y-110978095D01*
X192081009Y-110978095D02*
X192176247Y-110930476D01*
X192176247Y-110930476D02*
X192414342Y-110930476D01*
X192414342Y-110930476D02*
X192509580Y-110978095D01*
X192509580Y-110978095D02*
X192557200Y-111025714D01*
X192557200Y-111025714D02*
X192604819Y-111120952D01*
X192604819Y-111120952D02*
X192604819Y-111406666D01*
X192604819Y-111406666D02*
X192557200Y-111501904D01*
X192557200Y-111501904D02*
X192509580Y-111549523D01*
X191604819Y-110025714D02*
X191604819Y-110501904D01*
X191604819Y-110501904D02*
X192081009Y-110549523D01*
X192081009Y-110549523D02*
X192033390Y-110501904D01*
X192033390Y-110501904D02*
X191985771Y-110406666D01*
X191985771Y-110406666D02*
X191985771Y-110168571D01*
X191985771Y-110168571D02*
X192033390Y-110073333D01*
X192033390Y-110073333D02*
X192081009Y-110025714D01*
X192081009Y-110025714D02*
X192176247Y-109978095D01*
X192176247Y-109978095D02*
X192414342Y-109978095D01*
X192414342Y-109978095D02*
X192509580Y-110025714D01*
X192509580Y-110025714D02*
X192557200Y-110073333D01*
X192557200Y-110073333D02*
X192604819Y-110168571D01*
X192604819Y-110168571D02*
X192604819Y-110406666D01*
X192604819Y-110406666D02*
X192557200Y-110501904D01*
X192557200Y-110501904D02*
X192509580Y-110549523D01*
X212701905Y-109754819D02*
X212701905Y-108754819D01*
X212701905Y-108754819D02*
X212940000Y-108754819D01*
X212940000Y-108754819D02*
X213082857Y-108802438D01*
X213082857Y-108802438D02*
X213178095Y-108897676D01*
X213178095Y-108897676D02*
X213225714Y-108992914D01*
X213225714Y-108992914D02*
X213273333Y-109183390D01*
X213273333Y-109183390D02*
X213273333Y-109326247D01*
X213273333Y-109326247D02*
X213225714Y-109516723D01*
X213225714Y-109516723D02*
X213178095Y-109611961D01*
X213178095Y-109611961D02*
X213082857Y-109707200D01*
X213082857Y-109707200D02*
X212940000Y-109754819D01*
X212940000Y-109754819D02*
X212701905Y-109754819D01*
X213606667Y-108754819D02*
X214273333Y-108754819D01*
X214273333Y-108754819D02*
X213844762Y-109754819D01*
X197754819Y-74042857D02*
X197278628Y-74376190D01*
X197754819Y-74614285D02*
X196754819Y-74614285D01*
X196754819Y-74614285D02*
X196754819Y-74233333D01*
X196754819Y-74233333D02*
X196802438Y-74138095D01*
X196802438Y-74138095D02*
X196850057Y-74090476D01*
X196850057Y-74090476D02*
X196945295Y-74042857D01*
X196945295Y-74042857D02*
X197088152Y-74042857D01*
X197088152Y-74042857D02*
X197183390Y-74090476D01*
X197183390Y-74090476D02*
X197231009Y-74138095D01*
X197231009Y-74138095D02*
X197278628Y-74233333D01*
X197278628Y-74233333D02*
X197278628Y-74614285D01*
X196850057Y-73661904D02*
X196802438Y-73614285D01*
X196802438Y-73614285D02*
X196754819Y-73519047D01*
X196754819Y-73519047D02*
X196754819Y-73280952D01*
X196754819Y-73280952D02*
X196802438Y-73185714D01*
X196802438Y-73185714D02*
X196850057Y-73138095D01*
X196850057Y-73138095D02*
X196945295Y-73090476D01*
X196945295Y-73090476D02*
X197040533Y-73090476D01*
X197040533Y-73090476D02*
X197183390Y-73138095D01*
X197183390Y-73138095D02*
X197754819Y-73709523D01*
X197754819Y-73709523D02*
X197754819Y-73090476D01*
X196754819Y-72185714D02*
X196754819Y-72661904D01*
X196754819Y-72661904D02*
X197231009Y-72709523D01*
X197231009Y-72709523D02*
X197183390Y-72661904D01*
X197183390Y-72661904D02*
X197135771Y-72566666D01*
X197135771Y-72566666D02*
X197135771Y-72328571D01*
X197135771Y-72328571D02*
X197183390Y-72233333D01*
X197183390Y-72233333D02*
X197231009Y-72185714D01*
X197231009Y-72185714D02*
X197326247Y-72138095D01*
X197326247Y-72138095D02*
X197564342Y-72138095D01*
X197564342Y-72138095D02*
X197659580Y-72185714D01*
X197659580Y-72185714D02*
X197707200Y-72233333D01*
X197707200Y-72233333D02*
X197754819Y-72328571D01*
X197754819Y-72328571D02*
X197754819Y-72566666D01*
X197754819Y-72566666D02*
X197707200Y-72661904D01*
X197707200Y-72661904D02*
X197659580Y-72709523D01*
X203653346Y-76312857D02*
X203177155Y-76646190D01*
X203653346Y-76884285D02*
X202653346Y-76884285D01*
X202653346Y-76884285D02*
X202653346Y-76503333D01*
X202653346Y-76503333D02*
X202700965Y-76408095D01*
X202700965Y-76408095D02*
X202748584Y-76360476D01*
X202748584Y-76360476D02*
X202843822Y-76312857D01*
X202843822Y-76312857D02*
X202986679Y-76312857D01*
X202986679Y-76312857D02*
X203081917Y-76360476D01*
X203081917Y-76360476D02*
X203129536Y-76408095D01*
X203129536Y-76408095D02*
X203177155Y-76503333D01*
X203177155Y-76503333D02*
X203177155Y-76884285D01*
X202748584Y-75931904D02*
X202700965Y-75884285D01*
X202700965Y-75884285D02*
X202653346Y-75789047D01*
X202653346Y-75789047D02*
X202653346Y-75550952D01*
X202653346Y-75550952D02*
X202700965Y-75455714D01*
X202700965Y-75455714D02*
X202748584Y-75408095D01*
X202748584Y-75408095D02*
X202843822Y-75360476D01*
X202843822Y-75360476D02*
X202939060Y-75360476D01*
X202939060Y-75360476D02*
X203081917Y-75408095D01*
X203081917Y-75408095D02*
X203653346Y-75979523D01*
X203653346Y-75979523D02*
X203653346Y-75360476D01*
X202748584Y-74979523D02*
X202700965Y-74931904D01*
X202700965Y-74931904D02*
X202653346Y-74836666D01*
X202653346Y-74836666D02*
X202653346Y-74598571D01*
X202653346Y-74598571D02*
X202700965Y-74503333D01*
X202700965Y-74503333D02*
X202748584Y-74455714D01*
X202748584Y-74455714D02*
X202843822Y-74408095D01*
X202843822Y-74408095D02*
X202939060Y-74408095D01*
X202939060Y-74408095D02*
X203081917Y-74455714D01*
X203081917Y-74455714D02*
X203653346Y-75027142D01*
X203653346Y-75027142D02*
X203653346Y-74408095D01*
X217750819Y-106107666D02*
X217274628Y-106440999D01*
X217750819Y-106679094D02*
X216750819Y-106679094D01*
X216750819Y-106679094D02*
X216750819Y-106298142D01*
X216750819Y-106298142D02*
X216798438Y-106202904D01*
X216798438Y-106202904D02*
X216846057Y-106155285D01*
X216846057Y-106155285D02*
X216941295Y-106107666D01*
X216941295Y-106107666D02*
X217084152Y-106107666D01*
X217084152Y-106107666D02*
X217179390Y-106155285D01*
X217179390Y-106155285D02*
X217227009Y-106202904D01*
X217227009Y-106202904D02*
X217274628Y-106298142D01*
X217274628Y-106298142D02*
X217274628Y-106679094D01*
X217084152Y-105250523D02*
X217750819Y-105250523D01*
X216703200Y-105488618D02*
X217417485Y-105726713D01*
X217417485Y-105726713D02*
X217417485Y-105107666D01*
X216705819Y-117578094D02*
X215705819Y-117578094D01*
X215705819Y-117578094D02*
X215705819Y-117339999D01*
X215705819Y-117339999D02*
X215753438Y-117197142D01*
X215753438Y-117197142D02*
X215848676Y-117101904D01*
X215848676Y-117101904D02*
X215943914Y-117054285D01*
X215943914Y-117054285D02*
X216134390Y-117006666D01*
X216134390Y-117006666D02*
X216277247Y-117006666D01*
X216277247Y-117006666D02*
X216467723Y-117054285D01*
X216467723Y-117054285D02*
X216562961Y-117101904D01*
X216562961Y-117101904D02*
X216658200Y-117197142D01*
X216658200Y-117197142D02*
X216705819Y-117339999D01*
X216705819Y-117339999D02*
X216705819Y-117578094D01*
X215705819Y-116101904D02*
X215705819Y-116578094D01*
X215705819Y-116578094D02*
X216182009Y-116625713D01*
X216182009Y-116625713D02*
X216134390Y-116578094D01*
X216134390Y-116578094D02*
X216086771Y-116482856D01*
X216086771Y-116482856D02*
X216086771Y-116244761D01*
X216086771Y-116244761D02*
X216134390Y-116149523D01*
X216134390Y-116149523D02*
X216182009Y-116101904D01*
X216182009Y-116101904D02*
X216277247Y-116054285D01*
X216277247Y-116054285D02*
X216515342Y-116054285D01*
X216515342Y-116054285D02*
X216610580Y-116101904D01*
X216610580Y-116101904D02*
X216658200Y-116149523D01*
X216658200Y-116149523D02*
X216705819Y-116244761D01*
X216705819Y-116244761D02*
X216705819Y-116482856D01*
X216705819Y-116482856D02*
X216658200Y-116578094D01*
X216658200Y-116578094D02*
X216610580Y-116625713D01*
X191571142Y-136728819D02*
X191237809Y-136252628D01*
X190999714Y-136728819D02*
X190999714Y-135728819D01*
X190999714Y-135728819D02*
X191380666Y-135728819D01*
X191380666Y-135728819D02*
X191475904Y-135776438D01*
X191475904Y-135776438D02*
X191523523Y-135824057D01*
X191523523Y-135824057D02*
X191571142Y-135919295D01*
X191571142Y-135919295D02*
X191571142Y-136062152D01*
X191571142Y-136062152D02*
X191523523Y-136157390D01*
X191523523Y-136157390D02*
X191475904Y-136205009D01*
X191475904Y-136205009D02*
X191380666Y-136252628D01*
X191380666Y-136252628D02*
X190999714Y-136252628D01*
X192523523Y-136728819D02*
X191952095Y-136728819D01*
X192237809Y-136728819D02*
X192237809Y-135728819D01*
X192237809Y-135728819D02*
X192142571Y-135871676D01*
X192142571Y-135871676D02*
X192047333Y-135966914D01*
X192047333Y-135966914D02*
X191952095Y-136014533D01*
X193428285Y-135728819D02*
X192952095Y-135728819D01*
X192952095Y-135728819D02*
X192904476Y-136205009D01*
X192904476Y-136205009D02*
X192952095Y-136157390D01*
X192952095Y-136157390D02*
X193047333Y-136109771D01*
X193047333Y-136109771D02*
X193285428Y-136109771D01*
X193285428Y-136109771D02*
X193380666Y-136157390D01*
X193380666Y-136157390D02*
X193428285Y-136205009D01*
X193428285Y-136205009D02*
X193475904Y-136300247D01*
X193475904Y-136300247D02*
X193475904Y-136538342D01*
X193475904Y-136538342D02*
X193428285Y-136633580D01*
X193428285Y-136633580D02*
X193380666Y-136681200D01*
X193380666Y-136681200D02*
X193285428Y-136728819D01*
X193285428Y-136728819D02*
X193047333Y-136728819D01*
X193047333Y-136728819D02*
X192952095Y-136681200D01*
X192952095Y-136681200D02*
X192904476Y-136633580D01*
X204891819Y-85224857D02*
X204415628Y-85558190D01*
X204891819Y-85796285D02*
X203891819Y-85796285D01*
X203891819Y-85796285D02*
X203891819Y-85415333D01*
X203891819Y-85415333D02*
X203939438Y-85320095D01*
X203939438Y-85320095D02*
X203987057Y-85272476D01*
X203987057Y-85272476D02*
X204082295Y-85224857D01*
X204082295Y-85224857D02*
X204225152Y-85224857D01*
X204225152Y-85224857D02*
X204320390Y-85272476D01*
X204320390Y-85272476D02*
X204368009Y-85320095D01*
X204368009Y-85320095D02*
X204415628Y-85415333D01*
X204415628Y-85415333D02*
X204415628Y-85796285D01*
X204320390Y-84653428D02*
X204272771Y-84748666D01*
X204272771Y-84748666D02*
X204225152Y-84796285D01*
X204225152Y-84796285D02*
X204129914Y-84843904D01*
X204129914Y-84843904D02*
X204082295Y-84843904D01*
X204082295Y-84843904D02*
X203987057Y-84796285D01*
X203987057Y-84796285D02*
X203939438Y-84748666D01*
X203939438Y-84748666D02*
X203891819Y-84653428D01*
X203891819Y-84653428D02*
X203891819Y-84462952D01*
X203891819Y-84462952D02*
X203939438Y-84367714D01*
X203939438Y-84367714D02*
X203987057Y-84320095D01*
X203987057Y-84320095D02*
X204082295Y-84272476D01*
X204082295Y-84272476D02*
X204129914Y-84272476D01*
X204129914Y-84272476D02*
X204225152Y-84320095D01*
X204225152Y-84320095D02*
X204272771Y-84367714D01*
X204272771Y-84367714D02*
X204320390Y-84462952D01*
X204320390Y-84462952D02*
X204320390Y-84653428D01*
X204320390Y-84653428D02*
X204368009Y-84748666D01*
X204368009Y-84748666D02*
X204415628Y-84796285D01*
X204415628Y-84796285D02*
X204510866Y-84843904D01*
X204510866Y-84843904D02*
X204701342Y-84843904D01*
X204701342Y-84843904D02*
X204796580Y-84796285D01*
X204796580Y-84796285D02*
X204844200Y-84748666D01*
X204844200Y-84748666D02*
X204891819Y-84653428D01*
X204891819Y-84653428D02*
X204891819Y-84462952D01*
X204891819Y-84462952D02*
X204844200Y-84367714D01*
X204844200Y-84367714D02*
X204796580Y-84320095D01*
X204796580Y-84320095D02*
X204701342Y-84272476D01*
X204701342Y-84272476D02*
X204510866Y-84272476D01*
X204510866Y-84272476D02*
X204415628Y-84320095D01*
X204415628Y-84320095D02*
X204368009Y-84367714D01*
X204368009Y-84367714D02*
X204320390Y-84462952D01*
X203891819Y-83415333D02*
X203891819Y-83605809D01*
X203891819Y-83605809D02*
X203939438Y-83701047D01*
X203939438Y-83701047D02*
X203987057Y-83748666D01*
X203987057Y-83748666D02*
X204129914Y-83843904D01*
X204129914Y-83843904D02*
X204320390Y-83891523D01*
X204320390Y-83891523D02*
X204701342Y-83891523D01*
X204701342Y-83891523D02*
X204796580Y-83843904D01*
X204796580Y-83843904D02*
X204844200Y-83796285D01*
X204844200Y-83796285D02*
X204891819Y-83701047D01*
X204891819Y-83701047D02*
X204891819Y-83510571D01*
X204891819Y-83510571D02*
X204844200Y-83415333D01*
X204844200Y-83415333D02*
X204796580Y-83367714D01*
X204796580Y-83367714D02*
X204701342Y-83320095D01*
X204701342Y-83320095D02*
X204463247Y-83320095D01*
X204463247Y-83320095D02*
X204368009Y-83367714D01*
X204368009Y-83367714D02*
X204320390Y-83415333D01*
X204320390Y-83415333D02*
X204272771Y-83510571D01*
X204272771Y-83510571D02*
X204272771Y-83701047D01*
X204272771Y-83701047D02*
X204320390Y-83796285D01*
X204320390Y-83796285D02*
X204368009Y-83843904D01*
X204368009Y-83843904D02*
X204463247Y-83891523D01*
X195254819Y-85911904D02*
X196064342Y-85911904D01*
X196064342Y-85911904D02*
X196159580Y-85864285D01*
X196159580Y-85864285D02*
X196207200Y-85816666D01*
X196207200Y-85816666D02*
X196254819Y-85721428D01*
X196254819Y-85721428D02*
X196254819Y-85530952D01*
X196254819Y-85530952D02*
X196207200Y-85435714D01*
X196207200Y-85435714D02*
X196159580Y-85388095D01*
X196159580Y-85388095D02*
X196064342Y-85340476D01*
X196064342Y-85340476D02*
X195254819Y-85340476D01*
X195350057Y-84911904D02*
X195302438Y-84864285D01*
X195302438Y-84864285D02*
X195254819Y-84769047D01*
X195254819Y-84769047D02*
X195254819Y-84530952D01*
X195254819Y-84530952D02*
X195302438Y-84435714D01*
X195302438Y-84435714D02*
X195350057Y-84388095D01*
X195350057Y-84388095D02*
X195445295Y-84340476D01*
X195445295Y-84340476D02*
X195540533Y-84340476D01*
X195540533Y-84340476D02*
X195683390Y-84388095D01*
X195683390Y-84388095D02*
X196254819Y-84959523D01*
X196254819Y-84959523D02*
X196254819Y-84340476D01*
X213783333Y-143459419D02*
X213450000Y-142983228D01*
X213211905Y-143459419D02*
X213211905Y-142459419D01*
X213211905Y-142459419D02*
X213592857Y-142459419D01*
X213592857Y-142459419D02*
X213688095Y-142507038D01*
X213688095Y-142507038D02*
X213735714Y-142554657D01*
X213735714Y-142554657D02*
X213783333Y-142649895D01*
X213783333Y-142649895D02*
X213783333Y-142792752D01*
X213783333Y-142792752D02*
X213735714Y-142887990D01*
X213735714Y-142887990D02*
X213688095Y-142935609D01*
X213688095Y-142935609D02*
X213592857Y-142983228D01*
X213592857Y-142983228D02*
X213211905Y-142983228D01*
X214640476Y-142459419D02*
X214450000Y-142459419D01*
X214450000Y-142459419D02*
X214354762Y-142507038D01*
X214354762Y-142507038D02*
X214307143Y-142554657D01*
X214307143Y-142554657D02*
X214211905Y-142697514D01*
X214211905Y-142697514D02*
X214164286Y-142887990D01*
X214164286Y-142887990D02*
X214164286Y-143268942D01*
X214164286Y-143268942D02*
X214211905Y-143364180D01*
X214211905Y-143364180D02*
X214259524Y-143411800D01*
X214259524Y-143411800D02*
X214354762Y-143459419D01*
X214354762Y-143459419D02*
X214545238Y-143459419D01*
X214545238Y-143459419D02*
X214640476Y-143411800D01*
X214640476Y-143411800D02*
X214688095Y-143364180D01*
X214688095Y-143364180D02*
X214735714Y-143268942D01*
X214735714Y-143268942D02*
X214735714Y-143030847D01*
X214735714Y-143030847D02*
X214688095Y-142935609D01*
X214688095Y-142935609D02*
X214640476Y-142887990D01*
X214640476Y-142887990D02*
X214545238Y-142840371D01*
X214545238Y-142840371D02*
X214354762Y-142840371D01*
X214354762Y-142840371D02*
X214259524Y-142887990D01*
X214259524Y-142887990D02*
X214211905Y-142935609D01*
X214211905Y-142935609D02*
X214164286Y-143030847D01*
X214144819Y-122528094D02*
X213144819Y-122528094D01*
X213144819Y-122528094D02*
X213144819Y-122289999D01*
X213144819Y-122289999D02*
X213192438Y-122147142D01*
X213192438Y-122147142D02*
X213287676Y-122051904D01*
X213287676Y-122051904D02*
X213382914Y-122004285D01*
X213382914Y-122004285D02*
X213573390Y-121956666D01*
X213573390Y-121956666D02*
X213716247Y-121956666D01*
X213716247Y-121956666D02*
X213906723Y-122004285D01*
X213906723Y-122004285D02*
X214001961Y-122051904D01*
X214001961Y-122051904D02*
X214097200Y-122147142D01*
X214097200Y-122147142D02*
X214144819Y-122289999D01*
X214144819Y-122289999D02*
X214144819Y-122528094D01*
X213144819Y-121099523D02*
X213144819Y-121289999D01*
X213144819Y-121289999D02*
X213192438Y-121385237D01*
X213192438Y-121385237D02*
X213240057Y-121432856D01*
X213240057Y-121432856D02*
X213382914Y-121528094D01*
X213382914Y-121528094D02*
X213573390Y-121575713D01*
X213573390Y-121575713D02*
X213954342Y-121575713D01*
X213954342Y-121575713D02*
X214049580Y-121528094D01*
X214049580Y-121528094D02*
X214097200Y-121480475D01*
X214097200Y-121480475D02*
X214144819Y-121385237D01*
X214144819Y-121385237D02*
X214144819Y-121194761D01*
X214144819Y-121194761D02*
X214097200Y-121099523D01*
X214097200Y-121099523D02*
X214049580Y-121051904D01*
X214049580Y-121051904D02*
X213954342Y-121004285D01*
X213954342Y-121004285D02*
X213716247Y-121004285D01*
X213716247Y-121004285D02*
X213621009Y-121051904D01*
X213621009Y-121051904D02*
X213573390Y-121099523D01*
X213573390Y-121099523D02*
X213525771Y-121194761D01*
X213525771Y-121194761D02*
X213525771Y-121385237D01*
X213525771Y-121385237D02*
X213573390Y-121480475D01*
X213573390Y-121480475D02*
X213621009Y-121528094D01*
X213621009Y-121528094D02*
X213716247Y-121575713D01*
X200294819Y-142556666D02*
X199818628Y-142889999D01*
X200294819Y-143128094D02*
X199294819Y-143128094D01*
X199294819Y-143128094D02*
X199294819Y-142747142D01*
X199294819Y-142747142D02*
X199342438Y-142651904D01*
X199342438Y-142651904D02*
X199390057Y-142604285D01*
X199390057Y-142604285D02*
X199485295Y-142556666D01*
X199485295Y-142556666D02*
X199628152Y-142556666D01*
X199628152Y-142556666D02*
X199723390Y-142604285D01*
X199723390Y-142604285D02*
X199771009Y-142651904D01*
X199771009Y-142651904D02*
X199818628Y-142747142D01*
X199818628Y-142747142D02*
X199818628Y-143128094D01*
X199723390Y-141985237D02*
X199675771Y-142080475D01*
X199675771Y-142080475D02*
X199628152Y-142128094D01*
X199628152Y-142128094D02*
X199532914Y-142175713D01*
X199532914Y-142175713D02*
X199485295Y-142175713D01*
X199485295Y-142175713D02*
X199390057Y-142128094D01*
X199390057Y-142128094D02*
X199342438Y-142080475D01*
X199342438Y-142080475D02*
X199294819Y-141985237D01*
X199294819Y-141985237D02*
X199294819Y-141794761D01*
X199294819Y-141794761D02*
X199342438Y-141699523D01*
X199342438Y-141699523D02*
X199390057Y-141651904D01*
X199390057Y-141651904D02*
X199485295Y-141604285D01*
X199485295Y-141604285D02*
X199532914Y-141604285D01*
X199532914Y-141604285D02*
X199628152Y-141651904D01*
X199628152Y-141651904D02*
X199675771Y-141699523D01*
X199675771Y-141699523D02*
X199723390Y-141794761D01*
X199723390Y-141794761D02*
X199723390Y-141985237D01*
X199723390Y-141985237D02*
X199771009Y-142080475D01*
X199771009Y-142080475D02*
X199818628Y-142128094D01*
X199818628Y-142128094D02*
X199913866Y-142175713D01*
X199913866Y-142175713D02*
X200104342Y-142175713D01*
X200104342Y-142175713D02*
X200199580Y-142128094D01*
X200199580Y-142128094D02*
X200247200Y-142080475D01*
X200247200Y-142080475D02*
X200294819Y-141985237D01*
X200294819Y-141985237D02*
X200294819Y-141794761D01*
X200294819Y-141794761D02*
X200247200Y-141699523D01*
X200247200Y-141699523D02*
X200199580Y-141651904D01*
X200199580Y-141651904D02*
X200104342Y-141604285D01*
X200104342Y-141604285D02*
X199913866Y-141604285D01*
X199913866Y-141604285D02*
X199818628Y-141651904D01*
X199818628Y-141651904D02*
X199771009Y-141699523D01*
X199771009Y-141699523D02*
X199723390Y-141794761D01*
X205081169Y-125789693D02*
X205013825Y-125789693D01*
X205013825Y-125789693D02*
X204879138Y-125722349D01*
X204879138Y-125722349D02*
X204811795Y-125655006D01*
X204811795Y-125655006D02*
X204744451Y-125520319D01*
X204744451Y-125520319D02*
X204744451Y-125385632D01*
X204744451Y-125385632D02*
X204778123Y-125284617D01*
X204778123Y-125284617D02*
X204879138Y-125116258D01*
X204879138Y-125116258D02*
X204980153Y-125015243D01*
X204980153Y-125015243D02*
X205148512Y-124914227D01*
X205148512Y-124914227D02*
X205249527Y-124880556D01*
X205249527Y-124880556D02*
X205384214Y-124880556D01*
X205384214Y-124880556D02*
X205518901Y-124947899D01*
X205518901Y-124947899D02*
X205586245Y-125015243D01*
X205586245Y-125015243D02*
X205653588Y-125149930D01*
X205653588Y-125149930D02*
X205653588Y-125217273D01*
X205687260Y-126530471D02*
X205283199Y-126126410D01*
X205485230Y-126328441D02*
X206192336Y-125621334D01*
X206192336Y-125621334D02*
X206023978Y-125655006D01*
X206023978Y-125655006D02*
X205889291Y-125655006D01*
X205889291Y-125655006D02*
X205788275Y-125621334D01*
X206832100Y-126261098D02*
X206899443Y-126328441D01*
X206899443Y-126328441D02*
X206933115Y-126429456D01*
X206933115Y-126429456D02*
X206933115Y-126496800D01*
X206933115Y-126496800D02*
X206899443Y-126597815D01*
X206899443Y-126597815D02*
X206798428Y-126766174D01*
X206798428Y-126766174D02*
X206630069Y-126934533D01*
X206630069Y-126934533D02*
X206461711Y-127035548D01*
X206461711Y-127035548D02*
X206360695Y-127069220D01*
X206360695Y-127069220D02*
X206293352Y-127069220D01*
X206293352Y-127069220D02*
X206192337Y-127035548D01*
X206192337Y-127035548D02*
X206124993Y-126968204D01*
X206124993Y-126968204D02*
X206091321Y-126867189D01*
X206091321Y-126867189D02*
X206091321Y-126799846D01*
X206091321Y-126799846D02*
X206124993Y-126698830D01*
X206124993Y-126698830D02*
X206226008Y-126530472D01*
X206226008Y-126530472D02*
X206394367Y-126362113D01*
X206394367Y-126362113D02*
X206562726Y-126261098D01*
X206562726Y-126261098D02*
X206663741Y-126227426D01*
X206663741Y-126227426D02*
X206731085Y-126227426D01*
X206731085Y-126227426D02*
X206832100Y-126261098D01*
X190797142Y-92769580D02*
X190749523Y-92817200D01*
X190749523Y-92817200D02*
X190606666Y-92864819D01*
X190606666Y-92864819D02*
X190511428Y-92864819D01*
X190511428Y-92864819D02*
X190368571Y-92817200D01*
X190368571Y-92817200D02*
X190273333Y-92721961D01*
X190273333Y-92721961D02*
X190225714Y-92626723D01*
X190225714Y-92626723D02*
X190178095Y-92436247D01*
X190178095Y-92436247D02*
X190178095Y-92293390D01*
X190178095Y-92293390D02*
X190225714Y-92102914D01*
X190225714Y-92102914D02*
X190273333Y-92007676D01*
X190273333Y-92007676D02*
X190368571Y-91912438D01*
X190368571Y-91912438D02*
X190511428Y-91864819D01*
X190511428Y-91864819D02*
X190606666Y-91864819D01*
X190606666Y-91864819D02*
X190749523Y-91912438D01*
X190749523Y-91912438D02*
X190797142Y-91960057D01*
X191178095Y-91960057D02*
X191225714Y-91912438D01*
X191225714Y-91912438D02*
X191320952Y-91864819D01*
X191320952Y-91864819D02*
X191559047Y-91864819D01*
X191559047Y-91864819D02*
X191654285Y-91912438D01*
X191654285Y-91912438D02*
X191701904Y-91960057D01*
X191701904Y-91960057D02*
X191749523Y-92055295D01*
X191749523Y-92055295D02*
X191749523Y-92150533D01*
X191749523Y-92150533D02*
X191701904Y-92293390D01*
X191701904Y-92293390D02*
X191130476Y-92864819D01*
X191130476Y-92864819D02*
X191749523Y-92864819D01*
X192082857Y-91864819D02*
X192749523Y-91864819D01*
X192749523Y-91864819D02*
X192320952Y-92864819D01*
X191554819Y-103061904D02*
X192364342Y-103061904D01*
X192364342Y-103061904D02*
X192459580Y-103014285D01*
X192459580Y-103014285D02*
X192507200Y-102966666D01*
X192507200Y-102966666D02*
X192554819Y-102871428D01*
X192554819Y-102871428D02*
X192554819Y-102680952D01*
X192554819Y-102680952D02*
X192507200Y-102585714D01*
X192507200Y-102585714D02*
X192459580Y-102538095D01*
X192459580Y-102538095D02*
X192364342Y-102490476D01*
X192364342Y-102490476D02*
X191554819Y-102490476D01*
X191554819Y-102109523D02*
X191554819Y-101442857D01*
X191554819Y-101442857D02*
X192554819Y-101871428D01*
X182125714Y-87744819D02*
X182125714Y-86744819D01*
X182125714Y-86744819D02*
X182363809Y-86744819D01*
X182363809Y-86744819D02*
X182506666Y-86792438D01*
X182506666Y-86792438D02*
X182601904Y-86887676D01*
X182601904Y-86887676D02*
X182649523Y-86982914D01*
X182649523Y-86982914D02*
X182697142Y-87173390D01*
X182697142Y-87173390D02*
X182697142Y-87316247D01*
X182697142Y-87316247D02*
X182649523Y-87506723D01*
X182649523Y-87506723D02*
X182601904Y-87601961D01*
X182601904Y-87601961D02*
X182506666Y-87697200D01*
X182506666Y-87697200D02*
X182363809Y-87744819D01*
X182363809Y-87744819D02*
X182125714Y-87744819D01*
X183078095Y-86840057D02*
X183125714Y-86792438D01*
X183125714Y-86792438D02*
X183220952Y-86744819D01*
X183220952Y-86744819D02*
X183459047Y-86744819D01*
X183459047Y-86744819D02*
X183554285Y-86792438D01*
X183554285Y-86792438D02*
X183601904Y-86840057D01*
X183601904Y-86840057D02*
X183649523Y-86935295D01*
X183649523Y-86935295D02*
X183649523Y-87030533D01*
X183649523Y-87030533D02*
X183601904Y-87173390D01*
X183601904Y-87173390D02*
X183030476Y-87744819D01*
X183030476Y-87744819D02*
X183649523Y-87744819D01*
X184030476Y-86840057D02*
X184078095Y-86792438D01*
X184078095Y-86792438D02*
X184173333Y-86744819D01*
X184173333Y-86744819D02*
X184411428Y-86744819D01*
X184411428Y-86744819D02*
X184506666Y-86792438D01*
X184506666Y-86792438D02*
X184554285Y-86840057D01*
X184554285Y-86840057D02*
X184601904Y-86935295D01*
X184601904Y-86935295D02*
X184601904Y-87030533D01*
X184601904Y-87030533D02*
X184554285Y-87173390D01*
X184554285Y-87173390D02*
X183982857Y-87744819D01*
X183982857Y-87744819D02*
X184601904Y-87744819D01*
X182125714Y-135644819D02*
X182125714Y-134644819D01*
X182125714Y-134644819D02*
X182363809Y-134644819D01*
X182363809Y-134644819D02*
X182506666Y-134692438D01*
X182506666Y-134692438D02*
X182601904Y-134787676D01*
X182601904Y-134787676D02*
X182649523Y-134882914D01*
X182649523Y-134882914D02*
X182697142Y-135073390D01*
X182697142Y-135073390D02*
X182697142Y-135216247D01*
X182697142Y-135216247D02*
X182649523Y-135406723D01*
X182649523Y-135406723D02*
X182601904Y-135501961D01*
X182601904Y-135501961D02*
X182506666Y-135597200D01*
X182506666Y-135597200D02*
X182363809Y-135644819D01*
X182363809Y-135644819D02*
X182125714Y-135644819D01*
X183030476Y-134644819D02*
X183649523Y-134644819D01*
X183649523Y-134644819D02*
X183316190Y-135025771D01*
X183316190Y-135025771D02*
X183459047Y-135025771D01*
X183459047Y-135025771D02*
X183554285Y-135073390D01*
X183554285Y-135073390D02*
X183601904Y-135121009D01*
X183601904Y-135121009D02*
X183649523Y-135216247D01*
X183649523Y-135216247D02*
X183649523Y-135454342D01*
X183649523Y-135454342D02*
X183601904Y-135549580D01*
X183601904Y-135549580D02*
X183554285Y-135597200D01*
X183554285Y-135597200D02*
X183459047Y-135644819D01*
X183459047Y-135644819D02*
X183173333Y-135644819D01*
X183173333Y-135644819D02*
X183078095Y-135597200D01*
X183078095Y-135597200D02*
X183030476Y-135549580D01*
X184506666Y-134978152D02*
X184506666Y-135644819D01*
X184268571Y-134597200D02*
X184030476Y-135311485D01*
X184030476Y-135311485D02*
X184649523Y-135311485D01*
X210664819Y-89144285D02*
X209664819Y-89144285D01*
X209664819Y-89144285D02*
X209664819Y-88906190D01*
X209664819Y-88906190D02*
X209712438Y-88763333D01*
X209712438Y-88763333D02*
X209807676Y-88668095D01*
X209807676Y-88668095D02*
X209902914Y-88620476D01*
X209902914Y-88620476D02*
X210093390Y-88572857D01*
X210093390Y-88572857D02*
X210236247Y-88572857D01*
X210236247Y-88572857D02*
X210426723Y-88620476D01*
X210426723Y-88620476D02*
X210521961Y-88668095D01*
X210521961Y-88668095D02*
X210617200Y-88763333D01*
X210617200Y-88763333D02*
X210664819Y-88906190D01*
X210664819Y-88906190D02*
X210664819Y-89144285D01*
X210664819Y-87620476D02*
X210664819Y-88191904D01*
X210664819Y-87906190D02*
X209664819Y-87906190D01*
X209664819Y-87906190D02*
X209807676Y-88001428D01*
X209807676Y-88001428D02*
X209902914Y-88096666D01*
X209902914Y-88096666D02*
X209950533Y-88191904D01*
X209998152Y-86763333D02*
X210664819Y-86763333D01*
X209617200Y-87001428D02*
X210331485Y-87239523D01*
X210331485Y-87239523D02*
X210331485Y-86620476D01*
X211259580Y-98642857D02*
X211307200Y-98690476D01*
X211307200Y-98690476D02*
X211354819Y-98833333D01*
X211354819Y-98833333D02*
X211354819Y-98928571D01*
X211354819Y-98928571D02*
X211307200Y-99071428D01*
X211307200Y-99071428D02*
X211211961Y-99166666D01*
X211211961Y-99166666D02*
X211116723Y-99214285D01*
X211116723Y-99214285D02*
X210926247Y-99261904D01*
X210926247Y-99261904D02*
X210783390Y-99261904D01*
X210783390Y-99261904D02*
X210592914Y-99214285D01*
X210592914Y-99214285D02*
X210497676Y-99166666D01*
X210497676Y-99166666D02*
X210402438Y-99071428D01*
X210402438Y-99071428D02*
X210354819Y-98928571D01*
X210354819Y-98928571D02*
X210354819Y-98833333D01*
X210354819Y-98833333D02*
X210402438Y-98690476D01*
X210402438Y-98690476D02*
X210450057Y-98642857D01*
X210354819Y-97738095D02*
X210354819Y-98214285D01*
X210354819Y-98214285D02*
X210831009Y-98261904D01*
X210831009Y-98261904D02*
X210783390Y-98214285D01*
X210783390Y-98214285D02*
X210735771Y-98119047D01*
X210735771Y-98119047D02*
X210735771Y-97880952D01*
X210735771Y-97880952D02*
X210783390Y-97785714D01*
X210783390Y-97785714D02*
X210831009Y-97738095D01*
X210831009Y-97738095D02*
X210926247Y-97690476D01*
X210926247Y-97690476D02*
X211164342Y-97690476D01*
X211164342Y-97690476D02*
X211259580Y-97738095D01*
X211259580Y-97738095D02*
X211307200Y-97785714D01*
X211307200Y-97785714D02*
X211354819Y-97880952D01*
X211354819Y-97880952D02*
X211354819Y-98119047D01*
X211354819Y-98119047D02*
X211307200Y-98214285D01*
X211307200Y-98214285D02*
X211259580Y-98261904D01*
X210450057Y-97309523D02*
X210402438Y-97261904D01*
X210402438Y-97261904D02*
X210354819Y-97166666D01*
X210354819Y-97166666D02*
X210354819Y-96928571D01*
X210354819Y-96928571D02*
X210402438Y-96833333D01*
X210402438Y-96833333D02*
X210450057Y-96785714D01*
X210450057Y-96785714D02*
X210545295Y-96738095D01*
X210545295Y-96738095D02*
X210640533Y-96738095D01*
X210640533Y-96738095D02*
X210783390Y-96785714D01*
X210783390Y-96785714D02*
X211354819Y-97357142D01*
X211354819Y-97357142D02*
X211354819Y-96738095D01*
X204437142Y-82139580D02*
X204389523Y-82187200D01*
X204389523Y-82187200D02*
X204246666Y-82234819D01*
X204246666Y-82234819D02*
X204151428Y-82234819D01*
X204151428Y-82234819D02*
X204008571Y-82187200D01*
X204008571Y-82187200D02*
X203913333Y-82091961D01*
X203913333Y-82091961D02*
X203865714Y-81996723D01*
X203865714Y-81996723D02*
X203818095Y-81806247D01*
X203818095Y-81806247D02*
X203818095Y-81663390D01*
X203818095Y-81663390D02*
X203865714Y-81472914D01*
X203865714Y-81472914D02*
X203913333Y-81377676D01*
X203913333Y-81377676D02*
X204008571Y-81282438D01*
X204008571Y-81282438D02*
X204151428Y-81234819D01*
X204151428Y-81234819D02*
X204246666Y-81234819D01*
X204246666Y-81234819D02*
X204389523Y-81282438D01*
X204389523Y-81282438D02*
X204437142Y-81330057D01*
X205294285Y-81234819D02*
X205103809Y-81234819D01*
X205103809Y-81234819D02*
X205008571Y-81282438D01*
X205008571Y-81282438D02*
X204960952Y-81330057D01*
X204960952Y-81330057D02*
X204865714Y-81472914D01*
X204865714Y-81472914D02*
X204818095Y-81663390D01*
X204818095Y-81663390D02*
X204818095Y-82044342D01*
X204818095Y-82044342D02*
X204865714Y-82139580D01*
X204865714Y-82139580D02*
X204913333Y-82187200D01*
X204913333Y-82187200D02*
X205008571Y-82234819D01*
X205008571Y-82234819D02*
X205199047Y-82234819D01*
X205199047Y-82234819D02*
X205294285Y-82187200D01*
X205294285Y-82187200D02*
X205341904Y-82139580D01*
X205341904Y-82139580D02*
X205389523Y-82044342D01*
X205389523Y-82044342D02*
X205389523Y-81806247D01*
X205389523Y-81806247D02*
X205341904Y-81711009D01*
X205341904Y-81711009D02*
X205294285Y-81663390D01*
X205294285Y-81663390D02*
X205199047Y-81615771D01*
X205199047Y-81615771D02*
X205008571Y-81615771D01*
X205008571Y-81615771D02*
X204913333Y-81663390D01*
X204913333Y-81663390D02*
X204865714Y-81711009D01*
X204865714Y-81711009D02*
X204818095Y-81806247D01*
X206341904Y-82234819D02*
X205770476Y-82234819D01*
X206056190Y-82234819D02*
X206056190Y-81234819D01*
X206056190Y-81234819D02*
X205960952Y-81377676D01*
X205960952Y-81377676D02*
X205865714Y-81472914D01*
X205865714Y-81472914D02*
X205770476Y-81520533D01*
X190757143Y-78959580D02*
X190709524Y-79007200D01*
X190709524Y-79007200D02*
X190566667Y-79054819D01*
X190566667Y-79054819D02*
X190471429Y-79054819D01*
X190471429Y-79054819D02*
X190328572Y-79007200D01*
X190328572Y-79007200D02*
X190233334Y-78911961D01*
X190233334Y-78911961D02*
X190185715Y-78816723D01*
X190185715Y-78816723D02*
X190138096Y-78626247D01*
X190138096Y-78626247D02*
X190138096Y-78483390D01*
X190138096Y-78483390D02*
X190185715Y-78292914D01*
X190185715Y-78292914D02*
X190233334Y-78197676D01*
X190233334Y-78197676D02*
X190328572Y-78102438D01*
X190328572Y-78102438D02*
X190471429Y-78054819D01*
X190471429Y-78054819D02*
X190566667Y-78054819D01*
X190566667Y-78054819D02*
X190709524Y-78102438D01*
X190709524Y-78102438D02*
X190757143Y-78150057D01*
X191614286Y-78054819D02*
X191423810Y-78054819D01*
X191423810Y-78054819D02*
X191328572Y-78102438D01*
X191328572Y-78102438D02*
X191280953Y-78150057D01*
X191280953Y-78150057D02*
X191185715Y-78292914D01*
X191185715Y-78292914D02*
X191138096Y-78483390D01*
X191138096Y-78483390D02*
X191138096Y-78864342D01*
X191138096Y-78864342D02*
X191185715Y-78959580D01*
X191185715Y-78959580D02*
X191233334Y-79007200D01*
X191233334Y-79007200D02*
X191328572Y-79054819D01*
X191328572Y-79054819D02*
X191519048Y-79054819D01*
X191519048Y-79054819D02*
X191614286Y-79007200D01*
X191614286Y-79007200D02*
X191661905Y-78959580D01*
X191661905Y-78959580D02*
X191709524Y-78864342D01*
X191709524Y-78864342D02*
X191709524Y-78626247D01*
X191709524Y-78626247D02*
X191661905Y-78531009D01*
X191661905Y-78531009D02*
X191614286Y-78483390D01*
X191614286Y-78483390D02*
X191519048Y-78435771D01*
X191519048Y-78435771D02*
X191328572Y-78435771D01*
X191328572Y-78435771D02*
X191233334Y-78483390D01*
X191233334Y-78483390D02*
X191185715Y-78531009D01*
X191185715Y-78531009D02*
X191138096Y-78626247D01*
X192614286Y-78054819D02*
X192138096Y-78054819D01*
X192138096Y-78054819D02*
X192090477Y-78531009D01*
X192090477Y-78531009D02*
X192138096Y-78483390D01*
X192138096Y-78483390D02*
X192233334Y-78435771D01*
X192233334Y-78435771D02*
X192471429Y-78435771D01*
X192471429Y-78435771D02*
X192566667Y-78483390D01*
X192566667Y-78483390D02*
X192614286Y-78531009D01*
X192614286Y-78531009D02*
X192661905Y-78626247D01*
X192661905Y-78626247D02*
X192661905Y-78864342D01*
X192661905Y-78864342D02*
X192614286Y-78959580D01*
X192614286Y-78959580D02*
X192566667Y-79007200D01*
X192566667Y-79007200D02*
X192471429Y-79054819D01*
X192471429Y-79054819D02*
X192233334Y-79054819D01*
X192233334Y-79054819D02*
X192138096Y-79007200D01*
X192138096Y-79007200D02*
X192090477Y-78959580D01*
D13*
%TO.C,U1*%
X193585689Y-123955000D02*
X193903887Y-124273198D01*
X193903887Y-123636802D02*
X193585689Y-123955000D01*
X198372802Y-119167887D02*
X198691000Y-118849689D01*
X198691000Y-118849689D02*
X199009198Y-119167887D01*
X198691000Y-129060311D02*
X198372802Y-128742113D01*
X199009198Y-128742113D02*
X198691000Y-129060311D01*
X203478113Y-124273198D02*
X203796311Y-123955000D01*
X203796311Y-123955000D02*
X203478113Y-123636802D01*
X193486694Y-124690391D02*
X192913938Y-124598467D01*
X193394770Y-124117635D01*
X193486694Y-124690391D01*
G36*
X193486694Y-124690391D02*
G01*
X192913938Y-124598467D01*
X193394770Y-124117635D01*
X193486694Y-124690391D01*
G37*
%TO.C,R26*%
X199020000Y-73432379D02*
X199020000Y-73767621D01*
X199780000Y-73432379D02*
X199780000Y-73767621D01*
%TO.C,R19*%
X195707654Y-130219580D02*
X195347420Y-129859346D01*
X196446580Y-129480654D02*
X196086346Y-129120420D01*
%TO.C,D31*%
X180290000Y-120630000D02*
X181290000Y-120630000D01*
X180290000Y-123350000D02*
X181290000Y-123350000D01*
X181680000Y-123580000D02*
X181680000Y-123300000D01*
X181960000Y-123300000D01*
X181680000Y-123580000D01*
G36*
X181680000Y-123580000D02*
G01*
X181680000Y-123300000D01*
X181960000Y-123300000D01*
X181680000Y-123580000D01*
G37*
%TO.C,U6*%
X211430000Y-82610000D02*
X211430000Y-80660000D01*
X211430000Y-82610000D02*
X211430000Y-84560000D01*
X216550000Y-82610000D02*
X216550000Y-80660000D01*
X216550000Y-82610000D02*
X216550000Y-84560000D01*
X216785000Y-80150000D02*
X216455000Y-79910000D01*
X216785000Y-79670000D01*
X216785000Y-80150000D01*
G36*
X216785000Y-80150000D02*
G01*
X216455000Y-79910000D01*
X216785000Y-79670000D01*
X216785000Y-80150000D01*
G37*
%TO.C,C6*%
X205255845Y-120097030D02*
X205092030Y-120260845D01*
X205764962Y-120606147D02*
X205601147Y-120769962D01*
%TO.C,C9*%
X203535829Y-128759078D02*
X203742682Y-128965931D01*
X204257078Y-128037829D02*
X204463931Y-128244682D01*
%TO.C,R20*%
X201894821Y-92104400D02*
X201559579Y-92104400D01*
X201894821Y-92864400D02*
X201559579Y-92864400D01*
%TO.C,C23*%
X195310800Y-67608667D02*
X195310800Y-67316133D01*
X196330800Y-67608667D02*
X196330800Y-67316133D01*
%TO.C,C66*%
X194453733Y-73090000D02*
X194746267Y-73090000D01*
X194453733Y-74110000D02*
X194746267Y-74110000D01*
%TO.C,R12*%
X216356476Y-138291500D02*
X216865924Y-138291500D01*
X216356476Y-139336500D02*
X216865924Y-139336500D01*
%TO.C,D25*%
X180290000Y-96630000D02*
X181290000Y-96630000D01*
X180290000Y-99350000D02*
X181290000Y-99350000D01*
X181680000Y-99580000D02*
X181680000Y-99300000D01*
X181960000Y-99300000D01*
X181680000Y-99580000D01*
G36*
X181680000Y-99580000D02*
G01*
X181680000Y-99300000D01*
X181960000Y-99300000D01*
X181680000Y-99580000D01*
G37*
%TO.C,D13*%
X205132000Y-86351000D02*
X205132000Y-88811000D01*
X206602000Y-86351000D02*
X205132000Y-86351000D01*
X206602000Y-88811000D02*
X206602000Y-86351000D01*
%TO.C,D17*%
X217000000Y-84100000D02*
X217000000Y-82140000D01*
X218200000Y-82140000D02*
X217000000Y-82140000D01*
X218200000Y-84100000D02*
X218200000Y-82140000D01*
%TO.C,R18*%
X202694961Y-120208123D02*
X202457909Y-119971071D01*
X203232363Y-119670721D02*
X202995311Y-119433669D01*
%TO.C,J1*%
X224430000Y-58925000D02*
X224730000Y-59525000D01*
X224470000Y-52730000D02*
X224470000Y-58250000D01*
X224470000Y-58250000D02*
X225470000Y-58250000D01*
X224470000Y-141730000D02*
X225470000Y-141730000D01*
X224470000Y-147250000D02*
X224470000Y-141730000D01*
X224730000Y-59525000D02*
X225030000Y-58925000D01*
X225030000Y-58925000D02*
X224430000Y-58925000D01*
X225470000Y-58250000D02*
X225470000Y-59525000D01*
X225470000Y-61715000D02*
X225470000Y-62353000D01*
X225470000Y-63967000D02*
X225470000Y-64893000D01*
X225470000Y-66507000D02*
X225470000Y-67433000D01*
X225470000Y-69047000D02*
X225470000Y-69973000D01*
X225470000Y-71587000D02*
X225470000Y-72513000D01*
X225470000Y-74127000D02*
X225470000Y-75053000D01*
X225470000Y-76667000D02*
X225470000Y-77593000D01*
X225470000Y-79207000D02*
X225470000Y-80133000D01*
X225470000Y-81747000D02*
X225470000Y-82673000D01*
X225470000Y-84287000D02*
X225470000Y-85213000D01*
X225470000Y-86827000D02*
X225470000Y-87753000D01*
X225470000Y-89367000D02*
X225470000Y-90293000D01*
X225470000Y-91907000D02*
X225470000Y-92833000D01*
X225470000Y-94447000D02*
X225470000Y-95373000D01*
X225470000Y-96987000D02*
X225470000Y-97913000D01*
X225470000Y-99527000D02*
X225470000Y-100453000D01*
X225470000Y-102067000D02*
X225470000Y-102993000D01*
X225470000Y-104607000D02*
X225470000Y-105533000D01*
X225470000Y-107147000D02*
X225470000Y-108073000D01*
X225470000Y-109687000D02*
X225470000Y-110613000D01*
X225470000Y-112227000D02*
X225470000Y-113153000D01*
X225470000Y-114767000D02*
X225470000Y-115693000D01*
X225470000Y-117307000D02*
X225470000Y-118233000D01*
X225470000Y-119847000D02*
X225470000Y-120773000D01*
X225470000Y-122387000D02*
X225470000Y-123313000D01*
X225470000Y-124927000D02*
X225470000Y-125853000D01*
X225470000Y-127467000D02*
X225470000Y-128393000D01*
X225470000Y-130007000D02*
X225470000Y-130933000D01*
X225470000Y-132547000D02*
X225470000Y-133473000D01*
X225470000Y-135087000D02*
X225470000Y-136013000D01*
X225470000Y-137627000D02*
X225470000Y-138553000D01*
X225470000Y-140167000D02*
X225470000Y-141730000D01*
X229530000Y-52730000D02*
X224470000Y-52730000D01*
X229530000Y-147250000D02*
X224470000Y-147250000D01*
%TO.C,U3*%
X212904000Y-115786000D02*
X214704000Y-115786000D01*
X213904000Y-112566000D02*
X213104000Y-112566000D01*
X213904000Y-112566000D02*
X214704000Y-112566000D01*
X212604000Y-112616000D02*
X212364000Y-112286000D01*
X212844000Y-112286000D01*
X212604000Y-112616000D01*
G36*
X212604000Y-112616000D02*
G01*
X212364000Y-112286000D01*
X212844000Y-112286000D01*
X212604000Y-112616000D01*
G37*
%TO.C,L3*%
X211986800Y-67534064D02*
X211986800Y-66329936D01*
X214706800Y-67534064D02*
X214706800Y-66329936D01*
%TO.C,C31*%
X201599752Y-61043600D02*
X200177248Y-61043600D01*
X201599752Y-62863600D02*
X200177248Y-62863600D01*
%TO.C,C30*%
X201599752Y-58706800D02*
X200177248Y-58706800D01*
X201599752Y-60526800D02*
X200177248Y-60526800D01*
%TO.C,C19*%
X203627800Y-89984035D02*
X203627800Y-89752365D01*
X204347800Y-89984035D02*
X204347800Y-89752365D01*
%TO.C,D35*%
X178802500Y-70630000D02*
X179802500Y-70630000D01*
X178802500Y-73350000D02*
X179802500Y-73350000D01*
X180192500Y-73580000D02*
X180192500Y-73300000D01*
X180472500Y-73300000D01*
X180192500Y-73580000D01*
G36*
X180192500Y-73580000D02*
G01*
X180192500Y-73300000D01*
X180472500Y-73300000D01*
X180192500Y-73580000D01*
G37*
%TO.C,C45*%
X211816667Y-63374000D02*
X211524133Y-63374000D01*
X211816667Y-64394000D02*
X211524133Y-64394000D01*
%TO.C,C71*%
X188060000Y-67033733D02*
X188060000Y-67326267D01*
X189080000Y-67033733D02*
X189080000Y-67326267D01*
%TO.C,D23*%
X180290000Y-88630000D02*
X181290000Y-88630000D01*
X180290000Y-91350000D02*
X181290000Y-91350000D01*
X181680000Y-91580000D02*
X181680000Y-91300000D01*
X181960000Y-91300000D01*
X181680000Y-91580000D01*
G36*
X181680000Y-91580000D02*
G01*
X181680000Y-91300000D01*
X181960000Y-91300000D01*
X181680000Y-91580000D01*
G37*
%TO.C,L4*%
X184851200Y-63792064D02*
X184851200Y-62587936D01*
X187571200Y-63792064D02*
X187571200Y-62587936D01*
%TO.C,C51*%
X192810000Y-88291252D02*
X192810000Y-86868748D01*
X194630000Y-88291252D02*
X194630000Y-86868748D01*
%TO.C,C70*%
X188071200Y-63976267D02*
X188071200Y-63683733D01*
X189091200Y-63976267D02*
X189091200Y-63683733D01*
%TO.C,R1*%
X210080379Y-112906999D02*
X210415621Y-112906999D01*
X210080379Y-113667001D02*
X210415621Y-113667001D01*
%TO.C,C64*%
X197553733Y-80390000D02*
X197846267Y-80390000D01*
X197553733Y-81410000D02*
X197846267Y-81410000D01*
%TO.C,C72*%
X182531200Y-64091252D02*
X182531200Y-62668748D01*
X184351200Y-64091252D02*
X184351200Y-62668748D01*
%TO.C,FB2*%
X216740000Y-111348733D02*
X216740000Y-111691267D01*
X217760000Y-111348733D02*
X217760000Y-111691267D01*
%TO.C,C33*%
X191903067Y-63374000D02*
X191610533Y-63374000D01*
X191903067Y-64394000D02*
X191610533Y-64394000D01*
%TO.C,C37*%
X206677700Y-67687867D02*
X206677700Y-67395333D01*
X207697700Y-67687867D02*
X207697700Y-67395333D01*
%TO.C,C24*%
X196797200Y-67608667D02*
X196797200Y-67316133D01*
X197817200Y-67608667D02*
X197817200Y-67316133D01*
%TO.C,C43*%
X190999200Y-58804052D02*
X190999200Y-57381548D01*
X192819200Y-58804052D02*
X192819200Y-57381548D01*
%TO.C,C63*%
X194403734Y-74590000D02*
X194696268Y-74590000D01*
X194403734Y-75610000D02*
X194696268Y-75610000D01*
%TO.C,R11*%
X202486500Y-136401724D02*
X202486500Y-135892276D01*
X203531500Y-136401724D02*
X203531500Y-135892276D01*
%TO.C,C59*%
X204741665Y-80130000D02*
X204973335Y-80130000D01*
X204741665Y-80850000D02*
X204973335Y-80850000D01*
%TO.C,C32*%
X204907833Y-63374000D02*
X205200367Y-63374000D01*
X204907833Y-64394000D02*
X205200367Y-64394000D01*
%TO.C,D1*%
X207507800Y-122930000D02*
X207507800Y-125390000D01*
X208977800Y-122930000D02*
X207507800Y-122930000D01*
X208977800Y-125390000D02*
X208977800Y-122930000D01*
%TO.C,C55*%
X209733867Y-109602000D02*
X209441333Y-109602000D01*
X209733867Y-110622000D02*
X209441333Y-110622000D01*
%TO.C,C49*%
X206025467Y-91974400D02*
X205732933Y-91974400D01*
X206025467Y-92994400D02*
X205732933Y-92994400D01*
%TO.C,C8*%
X204254817Y-114716066D02*
X204418632Y-114552251D01*
X204763934Y-115225183D02*
X204927749Y-115061368D01*
%TO.C,U5*%
X194190000Y-142250000D02*
X195990000Y-142250000D01*
X195190000Y-139030000D02*
X194390000Y-139030000D01*
X195190000Y-139030000D02*
X195990000Y-139030000D01*
X193890000Y-139080000D02*
X193650000Y-138750000D01*
X194130000Y-138750000D01*
X193890000Y-139080000D01*
G36*
X193890000Y-139080000D02*
G01*
X193650000Y-138750000D01*
X194130000Y-138750000D01*
X193890000Y-139080000D01*
G37*
%TO.C,C46*%
X214876933Y-63374000D02*
X215169467Y-63374000D01*
X214876933Y-64394000D02*
X215169467Y-64394000D01*
%TO.C,C28*%
X201847567Y-63374000D02*
X201555033Y-63374000D01*
X201847567Y-64394000D02*
X201555033Y-64394000D01*
%TO.C,C69*%
X189050000Y-59016267D02*
X189050000Y-58723733D01*
X190070000Y-59016267D02*
X190070000Y-58723733D01*
%TO.C,D2*%
X209006400Y-122930000D02*
X209006400Y-125390000D01*
X210476400Y-122930000D02*
X209006400Y-122930000D01*
X210476400Y-125390000D02*
X210476400Y-122930000D01*
%TO.C,Y1*%
X200017200Y-91394800D02*
X203437200Y-91394800D01*
X203437200Y-91394800D02*
X203437200Y-87274800D01*
%TO.C,Y2*%
X202338343Y-117909383D02*
X204756649Y-120327689D01*
X204756649Y-120327689D02*
X207669929Y-117414409D01*
%TO.C,R2*%
X208844773Y-114834175D02*
X209081825Y-115071227D01*
X209382175Y-114296773D02*
X209619227Y-114533825D01*
%TO.C,RN2*%
X191179268Y-120420833D02*
X191886375Y-121127940D01*
X193555147Y-118044954D02*
X194262254Y-118752061D01*
%TO.C,U4*%
X196775000Y-135598000D02*
X198575000Y-135598000D01*
X197775000Y-132378000D02*
X196975000Y-132378000D01*
X197775000Y-132378000D02*
X198575000Y-132378000D01*
X196475000Y-132428000D02*
X196235000Y-132098000D01*
X196715000Y-132098000D01*
X196475000Y-132428000D01*
G36*
X196475000Y-132428000D02*
G01*
X196235000Y-132098000D01*
X196715000Y-132098000D01*
X196475000Y-132428000D01*
G37*
%TO.C,C62*%
X199488748Y-81890000D02*
X200911252Y-81890000D01*
X199488748Y-83710000D02*
X200911252Y-83710000D01*
%TO.C,R10*%
X202486500Y-131446176D02*
X202486500Y-131955624D01*
X203531500Y-131446176D02*
X203531500Y-131955624D01*
%TO.C,C50*%
X208976000Y-93912933D02*
X208976000Y-94205467D01*
X209996000Y-93912933D02*
X209996000Y-94205467D01*
%TO.C,C22*%
X211568852Y-61043600D02*
X210146348Y-61043600D01*
X211568852Y-62863600D02*
X210146348Y-62863600D01*
%TO.C,RN1*%
X208810000Y-128340000D02*
X208810000Y-127340000D01*
X212170000Y-128340000D02*
X212170000Y-127340000D01*
%TO.C,C4*%
X200975000Y-135785267D02*
X200975000Y-135492733D01*
X201995000Y-135785267D02*
X201995000Y-135492733D01*
D14*
%TO.C,T1*%
X204159000Y-131968000D02*
X205804000Y-131968000D01*
X206154000Y-130813000D02*
X212564000Y-130813000D01*
X206154000Y-143513000D02*
X206154000Y-130813000D01*
X212564000Y-130813000D02*
X212564000Y-143513000D01*
X212564000Y-143513000D02*
X206154000Y-143513000D01*
D13*
%TO.C,R5*%
X200962500Y-132082276D02*
X200962500Y-132591724D01*
X202007500Y-132082276D02*
X202007500Y-132591724D01*
%TO.C,R17*%
X190735276Y-139239500D02*
X191244724Y-139239500D01*
X190735276Y-140284500D02*
X191244724Y-140284500D01*
%TO.C,D30*%
X180290000Y-116630000D02*
X181290000Y-116630000D01*
X180290000Y-119350000D02*
X181290000Y-119350000D01*
X181680000Y-119580000D02*
X181680000Y-119300000D01*
X181960000Y-119300000D01*
X181680000Y-119580000D01*
G36*
X181680000Y-119580000D02*
G01*
X181680000Y-119300000D01*
X181960000Y-119300000D01*
X181680000Y-119580000D01*
G37*
%TO.C,D33*%
X180290000Y-128630000D02*
X181290000Y-128630000D01*
X180290000Y-131350000D02*
X181290000Y-131350000D01*
X181680000Y-131580000D02*
X181680000Y-131300000D01*
X181960000Y-131300000D01*
X181680000Y-131580000D01*
G36*
X181680000Y-131580000D02*
G01*
X181680000Y-131300000D01*
X181960000Y-131300000D01*
X181680000Y-131580000D01*
G37*
%TO.C,R13*%
X216356476Y-141339500D02*
X216865924Y-141339500D01*
X216356476Y-142384500D02*
X216865924Y-142384500D01*
%TO.C,C74*%
X202373767Y-141230000D02*
X202081233Y-141230000D01*
X202373767Y-142250000D02*
X202081233Y-142250000D01*
%TO.C,C47*%
X211568852Y-58706800D02*
X210146348Y-58706800D01*
X211568852Y-60526800D02*
X210146348Y-60526800D01*
%TO.C,C41*%
X215224400Y-67637067D02*
X215224400Y-67344533D01*
X216244400Y-67637067D02*
X216244400Y-67344533D01*
%TO.C,D26*%
X180290000Y-100630000D02*
X181290000Y-100630000D01*
X180290000Y-103350000D02*
X181290000Y-103350000D01*
X181680000Y-103580000D02*
X181680000Y-103300000D01*
X181960000Y-103300000D01*
X181680000Y-103580000D01*
G36*
X181680000Y-103580000D02*
G01*
X181680000Y-103300000D01*
X181960000Y-103300000D01*
X181680000Y-103580000D01*
G37*
%TO.C,C40*%
X199673700Y-67795652D02*
X199673700Y-66373148D01*
X201493700Y-67795652D02*
X201493700Y-66373148D01*
%TO.C,C2*%
X194886267Y-137480000D02*
X194593733Y-137480000D01*
X194886267Y-138500000D02*
X194593733Y-138500000D01*
D14*
%TO.C,IC1*%
X211122400Y-106271800D02*
X211122400Y-104746800D01*
X211252400Y-101196800D02*
X216152400Y-101196800D01*
X211252400Y-104396800D02*
X211252400Y-101196800D01*
X216152400Y-101196800D02*
X216152400Y-104396800D01*
X216152400Y-104396800D02*
X211252400Y-104396800D01*
D13*
%TO.C,C42*%
X216710800Y-67634067D02*
X216710800Y-67341533D01*
X217730800Y-67634067D02*
X217730800Y-67341533D01*
%TO.C,C29*%
X191348400Y-96097333D02*
X191348400Y-96389867D01*
X192368400Y-96097333D02*
X192368400Y-96389867D01*
%TO.C,D28*%
X180290000Y-108680000D02*
X181290000Y-108680000D01*
X180290000Y-111400000D02*
X181290000Y-111400000D01*
X181680000Y-111630000D02*
X181680000Y-111350000D01*
X181960000Y-111350000D01*
X181680000Y-111630000D01*
G36*
X181680000Y-111630000D02*
G01*
X181680000Y-111350000D01*
X181960000Y-111350000D01*
X181680000Y-111630000D01*
G37*
%TO.C,C60*%
X205334166Y-75540000D02*
X205565836Y-75540000D01*
X205334166Y-76260000D02*
X205565836Y-76260000D01*
%TO.C,Y3*%
X196840001Y-75290000D02*
X197565001Y-75290000D01*
X196840001Y-76015000D02*
X196840001Y-75290000D01*
X196840001Y-79510000D02*
X196840001Y-78785000D01*
X197565001Y-79510000D02*
X196840001Y-79510000D01*
X200335001Y-75290000D02*
X201060001Y-75290000D01*
X201060001Y-75290000D02*
X201060001Y-76015000D01*
X201060001Y-78785000D02*
X201060001Y-79510000D01*
X201060001Y-79510000D02*
X200335001Y-79510000D01*
X201890001Y-78640000D02*
X201560001Y-78400000D01*
X201890001Y-78160000D01*
X201890001Y-78640000D01*
G36*
X201890001Y-78640000D02*
G01*
X201560001Y-78400000D01*
X201890001Y-78160000D01*
X201890001Y-78640000D01*
G37*
%TO.C,C12*%
X192156069Y-128371682D02*
X192362922Y-128164829D01*
X192877318Y-129092931D02*
X193084171Y-128886078D01*
%TO.C,R7*%
X216356476Y-133465500D02*
X216865924Y-133465500D01*
X216356476Y-134510500D02*
X216865924Y-134510500D01*
%TO.C,C25*%
X189780000Y-67795652D02*
X189780000Y-66373148D01*
X191600000Y-67795652D02*
X191600000Y-66373148D01*
%TO.C,C44*%
X209693600Y-67846452D02*
X209693600Y-66423948D01*
X211513600Y-67846452D02*
X211513600Y-66423948D01*
%TO.C,D29*%
X180290000Y-112630000D02*
X181290000Y-112630000D01*
X180290000Y-115350000D02*
X181290000Y-115350000D01*
X181680000Y-115580000D02*
X181680000Y-115300000D01*
X181960000Y-115300000D01*
X181680000Y-115580000D01*
G36*
X181680000Y-115580000D02*
G01*
X181680000Y-115300000D01*
X181960000Y-115300000D01*
X181680000Y-115580000D01*
G37*
%TO.C,R87*%
X206995500Y-84836724D02*
X206995500Y-84327276D01*
X208040500Y-84836724D02*
X208040500Y-84327276D01*
%TO.C,R9*%
X197767500Y-141082224D02*
X197767500Y-140572776D01*
X198812500Y-141082224D02*
X198812500Y-140572776D01*
%TO.C,C18*%
X191321602Y-115813464D02*
X192327464Y-114807602D01*
X192608536Y-117100398D02*
X193614398Y-116094536D01*
%TO.C,C58*%
X197323767Y-90155000D02*
X197031233Y-90155000D01*
X197323767Y-91175000D02*
X197031233Y-91175000D01*
%TO.C,C36*%
X192671252Y-61043600D02*
X191248748Y-61043600D01*
X192671252Y-62863600D02*
X191248748Y-62863600D01*
%TO.C,D21*%
X180290000Y-80630000D02*
X181290000Y-80630000D01*
X180290000Y-83350000D02*
X181290000Y-83350000D01*
X181680000Y-83580000D02*
X181680000Y-83300000D01*
X181960000Y-83300000D01*
X181680000Y-83580000D01*
G36*
X181680000Y-83580000D02*
G01*
X181680000Y-83300000D01*
X181960000Y-83300000D01*
X181680000Y-83580000D01*
G37*
%TO.C,R14*%
X193229276Y-132576500D02*
X193738724Y-132576500D01*
X193229276Y-133621500D02*
X193738724Y-133621500D01*
%TO.C,RN3*%
X196586614Y-113396507D02*
X195879507Y-114103614D01*
X198962493Y-115772386D02*
X198255386Y-116479493D01*
%TO.C,D32*%
X180290000Y-124630000D02*
X181290000Y-124630000D01*
X180290000Y-127350000D02*
X181290000Y-127350000D01*
X181680000Y-127580000D02*
X181680000Y-127300000D01*
X181960000Y-127300000D01*
X181680000Y-127580000D01*
G36*
X181680000Y-127580000D02*
G01*
X181680000Y-127300000D01*
X181960000Y-127300000D01*
X181680000Y-127580000D01*
G37*
%TO.C,D24*%
X180290000Y-92630000D02*
X181290000Y-92630000D01*
X180290000Y-95350000D02*
X181290000Y-95350000D01*
X181680000Y-95580000D02*
X181680000Y-95300000D01*
X181960000Y-95300000D01*
X181680000Y-95580000D01*
G36*
X181680000Y-95580000D02*
G01*
X181680000Y-95300000D01*
X181960000Y-95300000D01*
X181680000Y-95580000D01*
G37*
%TO.C,C54*%
X209785767Y-111126000D02*
X209493233Y-111126000D01*
X209785767Y-112146000D02*
X209493233Y-112146000D01*
%TO.C,D16*%
X217000000Y-79500000D02*
X217000000Y-81460000D01*
X217000000Y-81460000D02*
X218200000Y-81460000D01*
X218200000Y-79500000D02*
X218200000Y-81460000D01*
%TO.C,R89*%
X216735900Y-102592876D02*
X216735900Y-103102324D01*
X217780900Y-102592876D02*
X217780900Y-103102324D01*
%TO.C,L2*%
X202017700Y-67534064D02*
X202017700Y-66329936D01*
X204737700Y-67534064D02*
X204737700Y-66329936D01*
%TO.C,R21*%
X215717500Y-97644724D02*
X215717500Y-97135276D01*
X216762500Y-97644724D02*
X216762500Y-97135276D01*
%TO.C,C48*%
X215124748Y-61043600D02*
X216547252Y-61043600D01*
X215124748Y-62863600D02*
X216547252Y-62863600D01*
%TO.C,D27*%
X180290000Y-104630000D02*
X181290000Y-104630000D01*
X180290000Y-107350000D02*
X181290000Y-107350000D01*
X181680000Y-107580000D02*
X181680000Y-107300000D01*
X181960000Y-107300000D01*
X181680000Y-107580000D01*
G36*
X181680000Y-107580000D02*
G01*
X181680000Y-107300000D01*
X181960000Y-107300000D01*
X181680000Y-107580000D01*
G37*
%TO.C,J3*%
X215030800Y-91034800D02*
X216140800Y-91034800D01*
X215030800Y-92144800D02*
X215030800Y-91034800D01*
X215030800Y-93144800D02*
X215030800Y-95254800D01*
X215030800Y-93144800D02*
X217250800Y-93144800D01*
X215030800Y-95254800D02*
X217250800Y-95254800D01*
X217250800Y-93144800D02*
X217250800Y-95254800D01*
%TO.C,C73*%
X202386267Y-138380000D02*
X202093733Y-138380000D01*
X202386267Y-139400000D02*
X202093733Y-139400000D01*
%TO.C,Y4*%
X203330000Y-76480000D02*
X203330000Y-79900000D01*
X203330000Y-79900000D02*
X207450000Y-79900000D01*
%TO.C,D4*%
X210505000Y-122930000D02*
X210505000Y-125390000D01*
X211975000Y-122930000D02*
X210505000Y-122930000D01*
X211975000Y-125390000D02*
X211975000Y-122930000D01*
%TO.C,C5*%
X220090948Y-141279200D02*
X221513452Y-141279200D01*
X220090948Y-143099200D02*
X221513452Y-143099200D01*
%TO.C,R16*%
X190735276Y-141017500D02*
X191244724Y-141017500D01*
X190735276Y-142062500D02*
X191244724Y-142062500D01*
%TO.C,R3*%
X216085276Y-108587500D02*
X216594724Y-108587500D01*
X216085276Y-109632500D02*
X216594724Y-109632500D01*
%TO.C,C1*%
X197440267Y-136018000D02*
X197147733Y-136018000D01*
X197440267Y-137038000D02*
X197147733Y-137038000D01*
%TO.C,D3*%
X216951000Y-120207000D02*
X216951000Y-118247000D01*
X218151000Y-118247000D02*
X216951000Y-118247000D01*
X218151000Y-120207000D02*
X218151000Y-118247000D01*
%TO.C,D20*%
X180290000Y-76630000D02*
X181290000Y-76630000D01*
X180290000Y-79350000D02*
X181290000Y-79350000D01*
X181680000Y-79580000D02*
X181680000Y-79300000D01*
X181960000Y-79300000D01*
X181680000Y-79580000D01*
G36*
X181680000Y-79580000D02*
G01*
X181680000Y-79300000D01*
X181960000Y-79300000D01*
X181680000Y-79580000D01*
G37*
%TO.C,JP1*%
X212570000Y-87351100D02*
X216670000Y-87351100D01*
X212570000Y-89351100D02*
X212570000Y-87351100D01*
X213020000Y-89851100D02*
X213620000Y-89851100D01*
X213320000Y-89551100D02*
X213020000Y-89851100D01*
X213320000Y-89551100D02*
X213620000Y-89851100D01*
X216670000Y-87351100D02*
X216670000Y-89351100D01*
X216670000Y-89351100D02*
X212570000Y-89351100D01*
%TO.C,C20*%
X199130000Y-89105835D02*
X199130000Y-88874165D01*
X199850000Y-89105835D02*
X199850000Y-88874165D01*
%TO.C,C57*%
X190605000Y-108123767D02*
X190605000Y-107831233D01*
X191625000Y-108123767D02*
X191625000Y-107831233D01*
%TO.C,C35*%
X192974000Y-110359867D02*
X192974000Y-110067333D01*
X193994000Y-110359867D02*
X193994000Y-110067333D01*
D10*
%TO.C,X1*%
X173265000Y-55540000D02*
X176365000Y-55540000D01*
X173265000Y-141240000D02*
X176465000Y-141240000D01*
X173265000Y-144440000D02*
X173265000Y-55540000D01*
X175365000Y-60390000D02*
X176465000Y-60390000D01*
X176365000Y-55540000D02*
X176465000Y-55540000D01*
X176465000Y-55540000D02*
X176465000Y-58740000D01*
X176465000Y-58740000D02*
X173265000Y-58740000D01*
X176465000Y-60390000D02*
X176465000Y-61490000D01*
X176465000Y-141240000D02*
X176465000Y-144440000D01*
X176465000Y-144440000D02*
X173265000Y-144440000D01*
D13*
%TO.C,D7*%
X216037000Y-109991000D02*
X212277000Y-109991000D01*
X216037000Y-112011000D02*
X212277000Y-112011000D01*
X216037000Y-112011000D02*
X216037000Y-109991000D01*
%TO.C,R25*%
X198020000Y-73432379D02*
X198020000Y-73767621D01*
X198780000Y-73432379D02*
X198780000Y-73767621D01*
%TO.C,R22*%
X202020001Y-78317621D02*
X202020001Y-77982379D01*
X202780001Y-78317621D02*
X202780001Y-77982379D01*
%TO.C,R4*%
X216594724Y-107067500D02*
X216085276Y-107067500D01*
X216594724Y-108112500D02*
X216085276Y-108112500D01*
%TO.C,D5*%
X216951000Y-116140000D02*
X216951000Y-118100000D01*
X216951000Y-118100000D02*
X218151000Y-118100000D01*
X218151000Y-116140000D02*
X218151000Y-118100000D01*
%TO.C,R15*%
X193229276Y-134354500D02*
X193738724Y-134354500D01*
X193229276Y-135399500D02*
X193738724Y-135399500D01*
%TO.C,R86*%
X205344500Y-84836724D02*
X205344500Y-84327276D01*
X206389500Y-84836724D02*
X206389500Y-84327276D01*
%TO.C,U2*%
X195597500Y-86380000D02*
X196527500Y-86380000D01*
X195597500Y-87180000D02*
X195597500Y-86380000D01*
X195597500Y-87180000D02*
X195597500Y-87980000D01*
X198757500Y-86380000D02*
X197827500Y-86380000D01*
X198757500Y-86380000D02*
X198757500Y-87840000D01*
X195567500Y-88480000D02*
X195237500Y-88720000D01*
X195237500Y-88240000D01*
X195567500Y-88480000D01*
G36*
X195567500Y-88480000D02*
G01*
X195237500Y-88720000D01*
X195237500Y-88240000D01*
X195567500Y-88480000D01*
G37*
%TO.C,R6*%
X216356476Y-139815500D02*
X216865924Y-139815500D01*
X216356476Y-140860500D02*
X216865924Y-140860500D01*
%TO.C,D6*%
X212003600Y-122930000D02*
X212003600Y-125390000D01*
X213473600Y-122930000D02*
X212003600Y-122930000D01*
X213473600Y-125390000D02*
X213473600Y-122930000D01*
%TO.C,R8*%
X199317500Y-139535276D02*
X199317500Y-140044724D01*
X200362500Y-139535276D02*
X200362500Y-140044724D01*
%TO.C,C10*%
X204885682Y-127848331D02*
X204678829Y-127641478D01*
X205606931Y-127127082D02*
X205400078Y-126920229D01*
%TO.C,C67*%
X183211200Y-59058752D02*
X183211200Y-57636248D01*
X185031200Y-59058752D02*
X185031200Y-57636248D01*
%TO.C,C27*%
X194468733Y-91880000D02*
X194761267Y-91880000D01*
X194468733Y-92900000D02*
X194761267Y-92900000D01*
%TO.C,C38*%
X205204500Y-67688967D02*
X205204500Y-67396433D01*
X206224500Y-67688967D02*
X206224500Y-67396433D01*
%TO.C,U7*%
X194375000Y-95001000D02*
X195075000Y-95001000D01*
X194375000Y-95701000D02*
X194375000Y-95001000D01*
X194375000Y-109221000D02*
X194375000Y-108521000D01*
X195075000Y-109221000D02*
X194375000Y-109221000D01*
X207895000Y-95001000D02*
X208595000Y-95001000D01*
X208595000Y-95001000D02*
X208595000Y-95701000D01*
X208595000Y-108521000D02*
X208595000Y-109221000D01*
X208595000Y-109221000D02*
X207895000Y-109221000D01*
X208365000Y-94701000D02*
X207895000Y-94361000D01*
X208365000Y-94021000D01*
X208365000Y-94701000D01*
G36*
X208365000Y-94701000D02*
G01*
X207895000Y-94361000D01*
X208365000Y-94021000D01*
X208365000Y-94701000D01*
G37*
%TO.C,D22*%
X180290000Y-84630000D02*
X181290000Y-84630000D01*
X180290000Y-87350000D02*
X181290000Y-87350000D01*
X181680000Y-87580000D02*
X181680000Y-87300000D01*
X181960000Y-87300000D01*
X181680000Y-87580000D01*
G36*
X181680000Y-87580000D02*
G01*
X181680000Y-87300000D01*
X181960000Y-87300000D01*
X181680000Y-87580000D01*
G37*
%TO.C,L1*%
X192124000Y-67534064D02*
X192124000Y-66329936D01*
X194844000Y-67534064D02*
X194844000Y-66329936D01*
%TO.C,C21*%
X205167948Y-61043600D02*
X206590452Y-61043600D01*
X205167948Y-62863600D02*
X206590452Y-62863600D01*
%TO.C,C34*%
X195571200Y-61140852D02*
X195571200Y-59718348D01*
X197391200Y-61140852D02*
X197391200Y-59718348D01*
%TO.C,D34*%
X180290000Y-132530000D02*
X181290000Y-132530000D01*
X180290000Y-135250000D02*
X181290000Y-135250000D01*
X181680000Y-135480000D02*
X181680000Y-135200000D01*
X181960000Y-135200000D01*
X181680000Y-135480000D01*
G36*
X181680000Y-135480000D02*
G01*
X181680000Y-135200000D01*
X181960000Y-135200000D01*
X181680000Y-135480000D01*
G37*
%TO.C,D14*%
X206783000Y-86351000D02*
X206783000Y-88811000D01*
X208253000Y-86351000D02*
X206783000Y-86351000D01*
X208253000Y-88811000D02*
X208253000Y-86351000D01*
%TO.C,C26*%
X194963333Y-63374000D02*
X195255867Y-63374000D01*
X194963333Y-64394000D02*
X195255867Y-64394000D01*
%TO.C,C52*%
X213657733Y-97765600D02*
X213950267Y-97765600D01*
X213657733Y-98785600D02*
X213950267Y-98785600D01*
%TO.C,C61*%
X201146267Y-80390000D02*
X200853733Y-80390000D01*
X201146267Y-81410000D02*
X200853733Y-81410000D01*
%TO.C,C65*%
X194403734Y-78090000D02*
X194696268Y-78090000D01*
X194403734Y-79110000D02*
X194696268Y-79110000D01*
%TO.C,C68*%
X187550000Y-59016267D02*
X187550000Y-58723733D01*
X188570000Y-59016267D02*
X188570000Y-58723733D01*
%TO.C,J2*%
X213727800Y-94668800D02*
X213727800Y-95303800D01*
X213727800Y-95303800D02*
X213092800Y-95303800D01*
%TD*%
M02*
