%TF.GenerationSoftware,KiCad,Pcbnew,9.0.4*%
%TF.CreationDate,2026-04-21T23:27:28+02:00*%
%TF.ProjectId,UCB_board,5543425f-626f-4617-9264-2e6b69636164,0.3*%
%TF.SameCoordinates,Original*%
%TF.FileFunction,Legend,Bot*%
%TF.FilePolarity,Positive*%
%FSLAX46Y46*%
G04 Gerber Fmt 4.6, Leading zero omitted, Abs format (unit mm)*
G04 Created by KiCad (PCBNEW 9.0.4) date 2026-04-21 23:27:28*
%MOMM*%
%LPD*%
G01*
G04 APERTURE LIST*
%ADD10C,0.150000*%
%ADD11C,0.254000*%
%ADD12C,0.120000*%
%ADD13C,0.200000*%
G04 APERTURE END LIST*
D10*
X207114285Y-64204819D02*
X207114285Y-63204819D01*
X207114285Y-63204819D02*
X206876190Y-63204819D01*
X206876190Y-63204819D02*
X206733333Y-63252438D01*
X206733333Y-63252438D02*
X206638095Y-63347676D01*
X206638095Y-63347676D02*
X206590476Y-63442914D01*
X206590476Y-63442914D02*
X206542857Y-63633390D01*
X206542857Y-63633390D02*
X206542857Y-63776247D01*
X206542857Y-63776247D02*
X206590476Y-63966723D01*
X206590476Y-63966723D02*
X206638095Y-64061961D01*
X206638095Y-64061961D02*
X206733333Y-64157200D01*
X206733333Y-64157200D02*
X206876190Y-64204819D01*
X206876190Y-64204819D02*
X207114285Y-64204819D01*
X205590476Y-64204819D02*
X206161904Y-64204819D01*
X205876190Y-64204819D02*
X205876190Y-63204819D01*
X205876190Y-63204819D02*
X205971428Y-63347676D01*
X205971428Y-63347676D02*
X206066666Y-63442914D01*
X206066666Y-63442914D02*
X206161904Y-63490533D01*
X205209523Y-63300057D02*
X205161904Y-63252438D01*
X205161904Y-63252438D02*
X205066666Y-63204819D01*
X205066666Y-63204819D02*
X204828571Y-63204819D01*
X204828571Y-63204819D02*
X204733333Y-63252438D01*
X204733333Y-63252438D02*
X204685714Y-63300057D01*
X204685714Y-63300057D02*
X204638095Y-63395295D01*
X204638095Y-63395295D02*
X204638095Y-63490533D01*
X204638095Y-63490533D02*
X204685714Y-63633390D01*
X204685714Y-63633390D02*
X205257142Y-64204819D01*
X205257142Y-64204819D02*
X204638095Y-64204819D01*
X203254819Y-115057142D02*
X202778628Y-114723809D01*
X203254819Y-114485714D02*
X202254819Y-114485714D01*
X202254819Y-114485714D02*
X202254819Y-114866666D01*
X202254819Y-114866666D02*
X202302438Y-114961904D01*
X202302438Y-114961904D02*
X202350057Y-115009523D01*
X202350057Y-115009523D02*
X202445295Y-115057142D01*
X202445295Y-115057142D02*
X202588152Y-115057142D01*
X202588152Y-115057142D02*
X202683390Y-115009523D01*
X202683390Y-115009523D02*
X202731009Y-114961904D01*
X202731009Y-114961904D02*
X202778628Y-114866666D01*
X202778628Y-114866666D02*
X202778628Y-114485714D01*
X202350057Y-115438095D02*
X202302438Y-115485714D01*
X202302438Y-115485714D02*
X202254819Y-115580952D01*
X202254819Y-115580952D02*
X202254819Y-115819047D01*
X202254819Y-115819047D02*
X202302438Y-115914285D01*
X202302438Y-115914285D02*
X202350057Y-115961904D01*
X202350057Y-115961904D02*
X202445295Y-116009523D01*
X202445295Y-116009523D02*
X202540533Y-116009523D01*
X202540533Y-116009523D02*
X202683390Y-115961904D01*
X202683390Y-115961904D02*
X203254819Y-115390476D01*
X203254819Y-115390476D02*
X203254819Y-116009523D01*
X202254819Y-116342857D02*
X202254819Y-116961904D01*
X202254819Y-116961904D02*
X202635771Y-116628571D01*
X202635771Y-116628571D02*
X202635771Y-116771428D01*
X202635771Y-116771428D02*
X202683390Y-116866666D01*
X202683390Y-116866666D02*
X202731009Y-116914285D01*
X202731009Y-116914285D02*
X202826247Y-116961904D01*
X202826247Y-116961904D02*
X203064342Y-116961904D01*
X203064342Y-116961904D02*
X203159580Y-116914285D01*
X203159580Y-116914285D02*
X203207200Y-116866666D01*
X203207200Y-116866666D02*
X203254819Y-116771428D01*
X203254819Y-116771428D02*
X203254819Y-116485714D01*
X203254819Y-116485714D02*
X203207200Y-116390476D01*
X203207200Y-116390476D02*
X203159580Y-116342857D01*
X204604819Y-115007142D02*
X204128628Y-114673809D01*
X204604819Y-114435714D02*
X203604819Y-114435714D01*
X203604819Y-114435714D02*
X203604819Y-114816666D01*
X203604819Y-114816666D02*
X203652438Y-114911904D01*
X203652438Y-114911904D02*
X203700057Y-114959523D01*
X203700057Y-114959523D02*
X203795295Y-115007142D01*
X203795295Y-115007142D02*
X203938152Y-115007142D01*
X203938152Y-115007142D02*
X204033390Y-114959523D01*
X204033390Y-114959523D02*
X204081009Y-114911904D01*
X204081009Y-114911904D02*
X204128628Y-114816666D01*
X204128628Y-114816666D02*
X204128628Y-114435714D01*
X204033390Y-115578571D02*
X203985771Y-115483333D01*
X203985771Y-115483333D02*
X203938152Y-115435714D01*
X203938152Y-115435714D02*
X203842914Y-115388095D01*
X203842914Y-115388095D02*
X203795295Y-115388095D01*
X203795295Y-115388095D02*
X203700057Y-115435714D01*
X203700057Y-115435714D02*
X203652438Y-115483333D01*
X203652438Y-115483333D02*
X203604819Y-115578571D01*
X203604819Y-115578571D02*
X203604819Y-115769047D01*
X203604819Y-115769047D02*
X203652438Y-115864285D01*
X203652438Y-115864285D02*
X203700057Y-115911904D01*
X203700057Y-115911904D02*
X203795295Y-115959523D01*
X203795295Y-115959523D02*
X203842914Y-115959523D01*
X203842914Y-115959523D02*
X203938152Y-115911904D01*
X203938152Y-115911904D02*
X203985771Y-115864285D01*
X203985771Y-115864285D02*
X204033390Y-115769047D01*
X204033390Y-115769047D02*
X204033390Y-115578571D01*
X204033390Y-115578571D02*
X204081009Y-115483333D01*
X204081009Y-115483333D02*
X204128628Y-115435714D01*
X204128628Y-115435714D02*
X204223866Y-115388095D01*
X204223866Y-115388095D02*
X204414342Y-115388095D01*
X204414342Y-115388095D02*
X204509580Y-115435714D01*
X204509580Y-115435714D02*
X204557200Y-115483333D01*
X204557200Y-115483333D02*
X204604819Y-115578571D01*
X204604819Y-115578571D02*
X204604819Y-115769047D01*
X204604819Y-115769047D02*
X204557200Y-115864285D01*
X204557200Y-115864285D02*
X204509580Y-115911904D01*
X204509580Y-115911904D02*
X204414342Y-115959523D01*
X204414342Y-115959523D02*
X204223866Y-115959523D01*
X204223866Y-115959523D02*
X204128628Y-115911904D01*
X204128628Y-115911904D02*
X204081009Y-115864285D01*
X204081009Y-115864285D02*
X204033390Y-115769047D01*
X203604819Y-116578571D02*
X203604819Y-116673809D01*
X203604819Y-116673809D02*
X203652438Y-116769047D01*
X203652438Y-116769047D02*
X203700057Y-116816666D01*
X203700057Y-116816666D02*
X203795295Y-116864285D01*
X203795295Y-116864285D02*
X203985771Y-116911904D01*
X203985771Y-116911904D02*
X204223866Y-116911904D01*
X204223866Y-116911904D02*
X204414342Y-116864285D01*
X204414342Y-116864285D02*
X204509580Y-116816666D01*
X204509580Y-116816666D02*
X204557200Y-116769047D01*
X204557200Y-116769047D02*
X204604819Y-116673809D01*
X204604819Y-116673809D02*
X204604819Y-116578571D01*
X204604819Y-116578571D02*
X204557200Y-116483333D01*
X204557200Y-116483333D02*
X204509580Y-116435714D01*
X204509580Y-116435714D02*
X204414342Y-116388095D01*
X204414342Y-116388095D02*
X204223866Y-116340476D01*
X204223866Y-116340476D02*
X203985771Y-116340476D01*
X203985771Y-116340476D02*
X203795295Y-116388095D01*
X203795295Y-116388095D02*
X203700057Y-116435714D01*
X203700057Y-116435714D02*
X203652438Y-116483333D01*
X203652438Y-116483333D02*
X203604819Y-116578571D01*
X198089809Y-57962666D02*
X198089809Y-57629333D01*
X198613619Y-57629333D02*
X197613619Y-57629333D01*
X197613619Y-57629333D02*
X197613619Y-58105523D01*
X197613619Y-58391238D02*
X197613619Y-59010285D01*
X197613619Y-59010285D02*
X197994571Y-58676952D01*
X197994571Y-58676952D02*
X197994571Y-58819809D01*
X197994571Y-58819809D02*
X198042190Y-58915047D01*
X198042190Y-58915047D02*
X198089809Y-58962666D01*
X198089809Y-58962666D02*
X198185047Y-59010285D01*
X198185047Y-59010285D02*
X198423142Y-59010285D01*
X198423142Y-59010285D02*
X198518380Y-58962666D01*
X198518380Y-58962666D02*
X198566000Y-58915047D01*
X198566000Y-58915047D02*
X198613619Y-58819809D01*
X198613619Y-58819809D02*
X198613619Y-58534095D01*
X198613619Y-58534095D02*
X198566000Y-58438857D01*
X198566000Y-58438857D02*
X198518380Y-58391238D01*
X190082209Y-57976666D02*
X190082209Y-57643333D01*
X190606019Y-57643333D02*
X189606019Y-57643333D01*
X189606019Y-57643333D02*
X189606019Y-58119523D01*
X189939352Y-58929047D02*
X190606019Y-58929047D01*
X189558400Y-58690952D02*
X190272685Y-58452857D01*
X190272685Y-58452857D02*
X190272685Y-59071904D01*
X209429580Y-98347142D02*
X209477200Y-98299523D01*
X209477200Y-98299523D02*
X209524819Y-98156666D01*
X209524819Y-98156666D02*
X209524819Y-98061428D01*
X209524819Y-98061428D02*
X209477200Y-97918571D01*
X209477200Y-97918571D02*
X209381961Y-97823333D01*
X209381961Y-97823333D02*
X209286723Y-97775714D01*
X209286723Y-97775714D02*
X209096247Y-97728095D01*
X209096247Y-97728095D02*
X208953390Y-97728095D01*
X208953390Y-97728095D02*
X208762914Y-97775714D01*
X208762914Y-97775714D02*
X208667676Y-97823333D01*
X208667676Y-97823333D02*
X208572438Y-97918571D01*
X208572438Y-97918571D02*
X208524819Y-98061428D01*
X208524819Y-98061428D02*
X208524819Y-98156666D01*
X208524819Y-98156666D02*
X208572438Y-98299523D01*
X208572438Y-98299523D02*
X208620057Y-98347142D01*
X208524819Y-99251904D02*
X208524819Y-98775714D01*
X208524819Y-98775714D02*
X209001009Y-98728095D01*
X209001009Y-98728095D02*
X208953390Y-98775714D01*
X208953390Y-98775714D02*
X208905771Y-98870952D01*
X208905771Y-98870952D02*
X208905771Y-99109047D01*
X208905771Y-99109047D02*
X208953390Y-99204285D01*
X208953390Y-99204285D02*
X209001009Y-99251904D01*
X209001009Y-99251904D02*
X209096247Y-99299523D01*
X209096247Y-99299523D02*
X209334342Y-99299523D01*
X209334342Y-99299523D02*
X209429580Y-99251904D01*
X209429580Y-99251904D02*
X209477200Y-99204285D01*
X209477200Y-99204285D02*
X209524819Y-99109047D01*
X209524819Y-99109047D02*
X209524819Y-98870952D01*
X209524819Y-98870952D02*
X209477200Y-98775714D01*
X209477200Y-98775714D02*
X209429580Y-98728095D01*
X208524819Y-100156666D02*
X208524819Y-99966190D01*
X208524819Y-99966190D02*
X208572438Y-99870952D01*
X208572438Y-99870952D02*
X208620057Y-99823333D01*
X208620057Y-99823333D02*
X208762914Y-99728095D01*
X208762914Y-99728095D02*
X208953390Y-99680476D01*
X208953390Y-99680476D02*
X209334342Y-99680476D01*
X209334342Y-99680476D02*
X209429580Y-99728095D01*
X209429580Y-99728095D02*
X209477200Y-99775714D01*
X209477200Y-99775714D02*
X209524819Y-99870952D01*
X209524819Y-99870952D02*
X209524819Y-100061428D01*
X209524819Y-100061428D02*
X209477200Y-100156666D01*
X209477200Y-100156666D02*
X209429580Y-100204285D01*
X209429580Y-100204285D02*
X209334342Y-100251904D01*
X209334342Y-100251904D02*
X209096247Y-100251904D01*
X209096247Y-100251904D02*
X209001009Y-100204285D01*
X209001009Y-100204285D02*
X208953390Y-100156666D01*
X208953390Y-100156666D02*
X208905771Y-100061428D01*
X208905771Y-100061428D02*
X208905771Y-99870952D01*
X208905771Y-99870952D02*
X208953390Y-99775714D01*
X208953390Y-99775714D02*
X209001009Y-99728095D01*
X209001009Y-99728095D02*
X209096247Y-99680476D01*
X193002894Y-64408419D02*
X193002894Y-63408419D01*
X193002894Y-63408419D02*
X192764799Y-63408419D01*
X192764799Y-63408419D02*
X192621942Y-63456038D01*
X192621942Y-63456038D02*
X192526704Y-63551276D01*
X192526704Y-63551276D02*
X192479085Y-63646514D01*
X192479085Y-63646514D02*
X192431466Y-63836990D01*
X192431466Y-63836990D02*
X192431466Y-63979847D01*
X192431466Y-63979847D02*
X192479085Y-64170323D01*
X192479085Y-64170323D02*
X192526704Y-64265561D01*
X192526704Y-64265561D02*
X192621942Y-64360800D01*
X192621942Y-64360800D02*
X192764799Y-64408419D01*
X192764799Y-64408419D02*
X193002894Y-64408419D01*
X191860037Y-63836990D02*
X191955275Y-63789371D01*
X191955275Y-63789371D02*
X192002894Y-63741752D01*
X192002894Y-63741752D02*
X192050513Y-63646514D01*
X192050513Y-63646514D02*
X192050513Y-63598895D01*
X192050513Y-63598895D02*
X192002894Y-63503657D01*
X192002894Y-63503657D02*
X191955275Y-63456038D01*
X191955275Y-63456038D02*
X191860037Y-63408419D01*
X191860037Y-63408419D02*
X191669561Y-63408419D01*
X191669561Y-63408419D02*
X191574323Y-63456038D01*
X191574323Y-63456038D02*
X191526704Y-63503657D01*
X191526704Y-63503657D02*
X191479085Y-63598895D01*
X191479085Y-63598895D02*
X191479085Y-63646514D01*
X191479085Y-63646514D02*
X191526704Y-63741752D01*
X191526704Y-63741752D02*
X191574323Y-63789371D01*
X191574323Y-63789371D02*
X191669561Y-63836990D01*
X191669561Y-63836990D02*
X191860037Y-63836990D01*
X191860037Y-63836990D02*
X191955275Y-63884609D01*
X191955275Y-63884609D02*
X192002894Y-63932228D01*
X192002894Y-63932228D02*
X192050513Y-64027466D01*
X192050513Y-64027466D02*
X192050513Y-64217942D01*
X192050513Y-64217942D02*
X192002894Y-64313180D01*
X192002894Y-64313180D02*
X191955275Y-64360800D01*
X191955275Y-64360800D02*
X191860037Y-64408419D01*
X191860037Y-64408419D02*
X191669561Y-64408419D01*
X191669561Y-64408419D02*
X191574323Y-64360800D01*
X191574323Y-64360800D02*
X191526704Y-64313180D01*
X191526704Y-64313180D02*
X191479085Y-64217942D01*
X191479085Y-64217942D02*
X191479085Y-64027466D01*
X191479085Y-64027466D02*
X191526704Y-63932228D01*
X191526704Y-63932228D02*
X191574323Y-63884609D01*
X191574323Y-63884609D02*
X191669561Y-63836990D01*
X198891830Y-129596694D02*
X198959174Y-129596694D01*
X198959174Y-129596694D02*
X199093861Y-129529350D01*
X199093861Y-129529350D02*
X199161204Y-129462007D01*
X199161204Y-129462007D02*
X199228548Y-129327320D01*
X199228548Y-129327320D02*
X199228548Y-129192633D01*
X199228548Y-129192633D02*
X199194876Y-129091618D01*
X199194876Y-129091618D02*
X199093861Y-128923259D01*
X199093861Y-128923259D02*
X198992846Y-128822244D01*
X198992846Y-128822244D02*
X198824487Y-128721228D01*
X198824487Y-128721228D02*
X198723472Y-128687557D01*
X198723472Y-128687557D02*
X198588785Y-128687557D01*
X198588785Y-128687557D02*
X198454098Y-128754900D01*
X198454098Y-128754900D02*
X198386754Y-128822244D01*
X198386754Y-128822244D02*
X198319411Y-128956931D01*
X198319411Y-128956931D02*
X198319411Y-129024274D01*
X198285739Y-130337472D02*
X198689800Y-129933411D01*
X198487769Y-130135442D02*
X197780663Y-129428335D01*
X197780663Y-129428335D02*
X197949021Y-129462007D01*
X197949021Y-129462007D02*
X198083708Y-129462007D01*
X198083708Y-129462007D02*
X198184724Y-129428335D01*
X197342930Y-129866068D02*
X196905197Y-130303801D01*
X196905197Y-130303801D02*
X197410273Y-130337473D01*
X197410273Y-130337473D02*
X197309258Y-130438488D01*
X197309258Y-130438488D02*
X197275586Y-130539503D01*
X197275586Y-130539503D02*
X197275586Y-130606847D01*
X197275586Y-130606847D02*
X197309258Y-130707862D01*
X197309258Y-130707862D02*
X197477617Y-130876221D01*
X197477617Y-130876221D02*
X197578632Y-130909892D01*
X197578632Y-130909892D02*
X197645975Y-130909892D01*
X197645975Y-130909892D02*
X197746991Y-130876221D01*
X197746991Y-130876221D02*
X197949021Y-130674190D01*
X197949021Y-130674190D02*
X197982693Y-130573175D01*
X197982693Y-130573175D02*
X197982693Y-130505831D01*
X214154819Y-99707142D02*
X213678628Y-99373809D01*
X214154819Y-99135714D02*
X213154819Y-99135714D01*
X213154819Y-99135714D02*
X213154819Y-99516666D01*
X213154819Y-99516666D02*
X213202438Y-99611904D01*
X213202438Y-99611904D02*
X213250057Y-99659523D01*
X213250057Y-99659523D02*
X213345295Y-99707142D01*
X213345295Y-99707142D02*
X213488152Y-99707142D01*
X213488152Y-99707142D02*
X213583390Y-99659523D01*
X213583390Y-99659523D02*
X213631009Y-99611904D01*
X213631009Y-99611904D02*
X213678628Y-99516666D01*
X213678628Y-99516666D02*
X213678628Y-99135714D01*
X214154819Y-100183333D02*
X214154819Y-100373809D01*
X214154819Y-100373809D02*
X214107200Y-100469047D01*
X214107200Y-100469047D02*
X214059580Y-100516666D01*
X214059580Y-100516666D02*
X213916723Y-100611904D01*
X213916723Y-100611904D02*
X213726247Y-100659523D01*
X213726247Y-100659523D02*
X213345295Y-100659523D01*
X213345295Y-100659523D02*
X213250057Y-100611904D01*
X213250057Y-100611904D02*
X213202438Y-100564285D01*
X213202438Y-100564285D02*
X213154819Y-100469047D01*
X213154819Y-100469047D02*
X213154819Y-100278571D01*
X213154819Y-100278571D02*
X213202438Y-100183333D01*
X213202438Y-100183333D02*
X213250057Y-100135714D01*
X213250057Y-100135714D02*
X213345295Y-100088095D01*
X213345295Y-100088095D02*
X213583390Y-100088095D01*
X213583390Y-100088095D02*
X213678628Y-100135714D01*
X213678628Y-100135714D02*
X213726247Y-100183333D01*
X213726247Y-100183333D02*
X213773866Y-100278571D01*
X213773866Y-100278571D02*
X213773866Y-100469047D01*
X213773866Y-100469047D02*
X213726247Y-100564285D01*
X213726247Y-100564285D02*
X213678628Y-100611904D01*
X213678628Y-100611904D02*
X213583390Y-100659523D01*
X213154819Y-101278571D02*
X213154819Y-101373809D01*
X213154819Y-101373809D02*
X213202438Y-101469047D01*
X213202438Y-101469047D02*
X213250057Y-101516666D01*
X213250057Y-101516666D02*
X213345295Y-101564285D01*
X213345295Y-101564285D02*
X213535771Y-101611904D01*
X213535771Y-101611904D02*
X213773866Y-101611904D01*
X213773866Y-101611904D02*
X213964342Y-101564285D01*
X213964342Y-101564285D02*
X214059580Y-101516666D01*
X214059580Y-101516666D02*
X214107200Y-101469047D01*
X214107200Y-101469047D02*
X214154819Y-101373809D01*
X214154819Y-101373809D02*
X214154819Y-101278571D01*
X214154819Y-101278571D02*
X214107200Y-101183333D01*
X214107200Y-101183333D02*
X214059580Y-101135714D01*
X214059580Y-101135714D02*
X213964342Y-101088095D01*
X213964342Y-101088095D02*
X213773866Y-101040476D01*
X213773866Y-101040476D02*
X213535771Y-101040476D01*
X213535771Y-101040476D02*
X213345295Y-101088095D01*
X213345295Y-101088095D02*
X213250057Y-101135714D01*
X213250057Y-101135714D02*
X213202438Y-101183333D01*
X213202438Y-101183333D02*
X213154819Y-101278571D01*
X210827619Y-101188742D02*
X210351428Y-100855409D01*
X210827619Y-100617314D02*
X209827619Y-100617314D01*
X209827619Y-100617314D02*
X209827619Y-100998266D01*
X209827619Y-100998266D02*
X209875238Y-101093504D01*
X209875238Y-101093504D02*
X209922857Y-101141123D01*
X209922857Y-101141123D02*
X210018095Y-101188742D01*
X210018095Y-101188742D02*
X210160952Y-101188742D01*
X210160952Y-101188742D02*
X210256190Y-101141123D01*
X210256190Y-101141123D02*
X210303809Y-101093504D01*
X210303809Y-101093504D02*
X210351428Y-100998266D01*
X210351428Y-100998266D02*
X210351428Y-100617314D01*
X210827619Y-101664933D02*
X210827619Y-101855409D01*
X210827619Y-101855409D02*
X210780000Y-101950647D01*
X210780000Y-101950647D02*
X210732380Y-101998266D01*
X210732380Y-101998266D02*
X210589523Y-102093504D01*
X210589523Y-102093504D02*
X210399047Y-102141123D01*
X210399047Y-102141123D02*
X210018095Y-102141123D01*
X210018095Y-102141123D02*
X209922857Y-102093504D01*
X209922857Y-102093504D02*
X209875238Y-102045885D01*
X209875238Y-102045885D02*
X209827619Y-101950647D01*
X209827619Y-101950647D02*
X209827619Y-101760171D01*
X209827619Y-101760171D02*
X209875238Y-101664933D01*
X209875238Y-101664933D02*
X209922857Y-101617314D01*
X209922857Y-101617314D02*
X210018095Y-101569695D01*
X210018095Y-101569695D02*
X210256190Y-101569695D01*
X210256190Y-101569695D02*
X210351428Y-101617314D01*
X210351428Y-101617314D02*
X210399047Y-101664933D01*
X210399047Y-101664933D02*
X210446666Y-101760171D01*
X210446666Y-101760171D02*
X210446666Y-101950647D01*
X210446666Y-101950647D02*
X210399047Y-102045885D01*
X210399047Y-102045885D02*
X210351428Y-102093504D01*
X210351428Y-102093504D02*
X210256190Y-102141123D01*
X210827619Y-103093504D02*
X210827619Y-102522076D01*
X210827619Y-102807790D02*
X209827619Y-102807790D01*
X209827619Y-102807790D02*
X209970476Y-102712552D01*
X209970476Y-102712552D02*
X210065714Y-102617314D01*
X210065714Y-102617314D02*
X210113333Y-102522076D01*
X222509580Y-134583333D02*
X222557200Y-134535714D01*
X222557200Y-134535714D02*
X222604819Y-134392857D01*
X222604819Y-134392857D02*
X222604819Y-134297619D01*
X222604819Y-134297619D02*
X222557200Y-134154762D01*
X222557200Y-134154762D02*
X222461961Y-134059524D01*
X222461961Y-134059524D02*
X222366723Y-134011905D01*
X222366723Y-134011905D02*
X222176247Y-133964286D01*
X222176247Y-133964286D02*
X222033390Y-133964286D01*
X222033390Y-133964286D02*
X221842914Y-134011905D01*
X221842914Y-134011905D02*
X221747676Y-134059524D01*
X221747676Y-134059524D02*
X221652438Y-134154762D01*
X221652438Y-134154762D02*
X221604819Y-134297619D01*
X221604819Y-134297619D02*
X221604819Y-134392857D01*
X221604819Y-134392857D02*
X221652438Y-134535714D01*
X221652438Y-134535714D02*
X221700057Y-134583333D01*
X221604819Y-134916667D02*
X221604819Y-135535714D01*
X221604819Y-135535714D02*
X221985771Y-135202381D01*
X221985771Y-135202381D02*
X221985771Y-135345238D01*
X221985771Y-135345238D02*
X222033390Y-135440476D01*
X222033390Y-135440476D02*
X222081009Y-135488095D01*
X222081009Y-135488095D02*
X222176247Y-135535714D01*
X222176247Y-135535714D02*
X222414342Y-135535714D01*
X222414342Y-135535714D02*
X222509580Y-135488095D01*
X222509580Y-135488095D02*
X222557200Y-135440476D01*
X222557200Y-135440476D02*
X222604819Y-135345238D01*
X222604819Y-135345238D02*
X222604819Y-135059524D01*
X222604819Y-135059524D02*
X222557200Y-134964286D01*
X222557200Y-134964286D02*
X222509580Y-134916667D01*
X212442857Y-85604819D02*
X212776190Y-85128628D01*
X213014285Y-85604819D02*
X213014285Y-84604819D01*
X213014285Y-84604819D02*
X212633333Y-84604819D01*
X212633333Y-84604819D02*
X212538095Y-84652438D01*
X212538095Y-84652438D02*
X212490476Y-84700057D01*
X212490476Y-84700057D02*
X212442857Y-84795295D01*
X212442857Y-84795295D02*
X212442857Y-84938152D01*
X212442857Y-84938152D02*
X212490476Y-85033390D01*
X212490476Y-85033390D02*
X212538095Y-85081009D01*
X212538095Y-85081009D02*
X212633333Y-85128628D01*
X212633333Y-85128628D02*
X213014285Y-85128628D01*
X211871428Y-85033390D02*
X211966666Y-84985771D01*
X211966666Y-84985771D02*
X212014285Y-84938152D01*
X212014285Y-84938152D02*
X212061904Y-84842914D01*
X212061904Y-84842914D02*
X212061904Y-84795295D01*
X212061904Y-84795295D02*
X212014285Y-84700057D01*
X212014285Y-84700057D02*
X211966666Y-84652438D01*
X211966666Y-84652438D02*
X211871428Y-84604819D01*
X211871428Y-84604819D02*
X211680952Y-84604819D01*
X211680952Y-84604819D02*
X211585714Y-84652438D01*
X211585714Y-84652438D02*
X211538095Y-84700057D01*
X211538095Y-84700057D02*
X211490476Y-84795295D01*
X211490476Y-84795295D02*
X211490476Y-84842914D01*
X211490476Y-84842914D02*
X211538095Y-84938152D01*
X211538095Y-84938152D02*
X211585714Y-84985771D01*
X211585714Y-84985771D02*
X211680952Y-85033390D01*
X211680952Y-85033390D02*
X211871428Y-85033390D01*
X211871428Y-85033390D02*
X211966666Y-85081009D01*
X211966666Y-85081009D02*
X212014285Y-85128628D01*
X212014285Y-85128628D02*
X212061904Y-85223866D01*
X212061904Y-85223866D02*
X212061904Y-85414342D01*
X212061904Y-85414342D02*
X212014285Y-85509580D01*
X212014285Y-85509580D02*
X211966666Y-85557200D01*
X211966666Y-85557200D02*
X211871428Y-85604819D01*
X211871428Y-85604819D02*
X211680952Y-85604819D01*
X211680952Y-85604819D02*
X211585714Y-85557200D01*
X211585714Y-85557200D02*
X211538095Y-85509580D01*
X211538095Y-85509580D02*
X211490476Y-85414342D01*
X211490476Y-85414342D02*
X211490476Y-85223866D01*
X211490476Y-85223866D02*
X211538095Y-85128628D01*
X211538095Y-85128628D02*
X211585714Y-85081009D01*
X211585714Y-85081009D02*
X211680952Y-85033390D01*
X210633333Y-84938152D02*
X210633333Y-85604819D01*
X210871428Y-84557200D02*
X211109523Y-85271485D01*
X211109523Y-85271485D02*
X210490476Y-85271485D01*
X216181009Y-61416666D02*
X216181009Y-61083333D01*
X216704819Y-61083333D02*
X215704819Y-61083333D01*
X215704819Y-61083333D02*
X215704819Y-61559523D01*
X215800057Y-61892857D02*
X215752438Y-61940476D01*
X215752438Y-61940476D02*
X215704819Y-62035714D01*
X215704819Y-62035714D02*
X215704819Y-62273809D01*
X215704819Y-62273809D02*
X215752438Y-62369047D01*
X215752438Y-62369047D02*
X215800057Y-62416666D01*
X215800057Y-62416666D02*
X215895295Y-62464285D01*
X215895295Y-62464285D02*
X215990533Y-62464285D01*
X215990533Y-62464285D02*
X216133390Y-62416666D01*
X216133390Y-62416666D02*
X216704819Y-61845238D01*
X216704819Y-61845238D02*
X216704819Y-62464285D01*
X217242857Y-86954819D02*
X217576190Y-86478628D01*
X217814285Y-86954819D02*
X217814285Y-85954819D01*
X217814285Y-85954819D02*
X217433333Y-85954819D01*
X217433333Y-85954819D02*
X217338095Y-86002438D01*
X217338095Y-86002438D02*
X217290476Y-86050057D01*
X217290476Y-86050057D02*
X217242857Y-86145295D01*
X217242857Y-86145295D02*
X217242857Y-86288152D01*
X217242857Y-86288152D02*
X217290476Y-86383390D01*
X217290476Y-86383390D02*
X217338095Y-86431009D01*
X217338095Y-86431009D02*
X217433333Y-86478628D01*
X217433333Y-86478628D02*
X217814285Y-86478628D01*
X216671428Y-86383390D02*
X216766666Y-86335771D01*
X216766666Y-86335771D02*
X216814285Y-86288152D01*
X216814285Y-86288152D02*
X216861904Y-86192914D01*
X216861904Y-86192914D02*
X216861904Y-86145295D01*
X216861904Y-86145295D02*
X216814285Y-86050057D01*
X216814285Y-86050057D02*
X216766666Y-86002438D01*
X216766666Y-86002438D02*
X216671428Y-85954819D01*
X216671428Y-85954819D02*
X216480952Y-85954819D01*
X216480952Y-85954819D02*
X216385714Y-86002438D01*
X216385714Y-86002438D02*
X216338095Y-86050057D01*
X216338095Y-86050057D02*
X216290476Y-86145295D01*
X216290476Y-86145295D02*
X216290476Y-86192914D01*
X216290476Y-86192914D02*
X216338095Y-86288152D01*
X216338095Y-86288152D02*
X216385714Y-86335771D01*
X216385714Y-86335771D02*
X216480952Y-86383390D01*
X216480952Y-86383390D02*
X216671428Y-86383390D01*
X216671428Y-86383390D02*
X216766666Y-86431009D01*
X216766666Y-86431009D02*
X216814285Y-86478628D01*
X216814285Y-86478628D02*
X216861904Y-86573866D01*
X216861904Y-86573866D02*
X216861904Y-86764342D01*
X216861904Y-86764342D02*
X216814285Y-86859580D01*
X216814285Y-86859580D02*
X216766666Y-86907200D01*
X216766666Y-86907200D02*
X216671428Y-86954819D01*
X216671428Y-86954819D02*
X216480952Y-86954819D01*
X216480952Y-86954819D02*
X216385714Y-86907200D01*
X216385714Y-86907200D02*
X216338095Y-86859580D01*
X216338095Y-86859580D02*
X216290476Y-86764342D01*
X216290476Y-86764342D02*
X216290476Y-86573866D01*
X216290476Y-86573866D02*
X216338095Y-86478628D01*
X216338095Y-86478628D02*
X216385714Y-86431009D01*
X216385714Y-86431009D02*
X216480952Y-86383390D01*
X215385714Y-85954819D02*
X215861904Y-85954819D01*
X215861904Y-85954819D02*
X215909523Y-86431009D01*
X215909523Y-86431009D02*
X215861904Y-86383390D01*
X215861904Y-86383390D02*
X215766666Y-86335771D01*
X215766666Y-86335771D02*
X215528571Y-86335771D01*
X215528571Y-86335771D02*
X215433333Y-86383390D01*
X215433333Y-86383390D02*
X215385714Y-86431009D01*
X215385714Y-86431009D02*
X215338095Y-86526247D01*
X215338095Y-86526247D02*
X215338095Y-86764342D01*
X215338095Y-86764342D02*
X215385714Y-86859580D01*
X215385714Y-86859580D02*
X215433333Y-86907200D01*
X215433333Y-86907200D02*
X215528571Y-86954819D01*
X215528571Y-86954819D02*
X215766666Y-86954819D01*
X215766666Y-86954819D02*
X215861904Y-86907200D01*
X215861904Y-86907200D02*
X215909523Y-86859580D01*
X203250306Y-131358830D02*
X203250306Y-131426174D01*
X203250306Y-131426174D02*
X203317650Y-131560861D01*
X203317650Y-131560861D02*
X203384993Y-131628204D01*
X203384993Y-131628204D02*
X203519680Y-131695548D01*
X203519680Y-131695548D02*
X203654367Y-131695548D01*
X203654367Y-131695548D02*
X203755382Y-131661876D01*
X203755382Y-131661876D02*
X203923741Y-131560861D01*
X203923741Y-131560861D02*
X204024756Y-131459846D01*
X204024756Y-131459846D02*
X204125772Y-131291487D01*
X204125772Y-131291487D02*
X204159443Y-131190472D01*
X204159443Y-131190472D02*
X204159443Y-131055785D01*
X204159443Y-131055785D02*
X204092100Y-130921098D01*
X204092100Y-130921098D02*
X204024756Y-130853754D01*
X204024756Y-130853754D02*
X203890069Y-130786411D01*
X203890069Y-130786411D02*
X203822726Y-130786411D01*
X202509528Y-130752739D02*
X202913589Y-131156800D01*
X202711558Y-130954769D02*
X203418665Y-130247663D01*
X203418665Y-130247663D02*
X203384993Y-130416021D01*
X203384993Y-130416021D02*
X203384993Y-130550708D01*
X203384993Y-130550708D02*
X203418665Y-130651724D01*
X202980932Y-129809930D02*
X202509527Y-129338525D01*
X202509527Y-129338525D02*
X202105466Y-130348678D01*
X197058830Y-121949693D02*
X197126174Y-121949693D01*
X197126174Y-121949693D02*
X197260861Y-121882349D01*
X197260861Y-121882349D02*
X197328204Y-121815006D01*
X197328204Y-121815006D02*
X197395548Y-121680319D01*
X197395548Y-121680319D02*
X197395548Y-121545632D01*
X197395548Y-121545632D02*
X197361876Y-121444617D01*
X197361876Y-121444617D02*
X197260861Y-121276258D01*
X197260861Y-121276258D02*
X197159846Y-121175243D01*
X197159846Y-121175243D02*
X196991487Y-121074227D01*
X196991487Y-121074227D02*
X196890472Y-121040556D01*
X196890472Y-121040556D02*
X196755785Y-121040556D01*
X196755785Y-121040556D02*
X196621098Y-121107899D01*
X196621098Y-121107899D02*
X196553754Y-121175243D01*
X196553754Y-121175243D02*
X196486411Y-121309930D01*
X196486411Y-121309930D02*
X196486411Y-121377273D01*
X196452739Y-122690471D02*
X196856800Y-122286410D01*
X196654769Y-122488441D02*
X195947663Y-121781334D01*
X195947663Y-121781334D02*
X196116021Y-121815006D01*
X196116021Y-121815006D02*
X196250708Y-121815006D01*
X196250708Y-121815006D02*
X196351724Y-121781334D01*
X195139540Y-122589456D02*
X195274227Y-122454769D01*
X195274227Y-122454769D02*
X195375243Y-122421098D01*
X195375243Y-122421098D02*
X195442586Y-122421098D01*
X195442586Y-122421098D02*
X195610945Y-122454769D01*
X195610945Y-122454769D02*
X195779304Y-122555785D01*
X195779304Y-122555785D02*
X196048678Y-122825159D01*
X196048678Y-122825159D02*
X196082349Y-122926174D01*
X196082349Y-122926174D02*
X196082349Y-122993517D01*
X196082349Y-122993517D02*
X196048678Y-123094533D01*
X196048678Y-123094533D02*
X195913991Y-123229220D01*
X195913991Y-123229220D02*
X195812975Y-123262891D01*
X195812975Y-123262891D02*
X195745632Y-123262891D01*
X195745632Y-123262891D02*
X195644617Y-123229220D01*
X195644617Y-123229220D02*
X195476258Y-123060861D01*
X195476258Y-123060861D02*
X195442586Y-122959846D01*
X195442586Y-122959846D02*
X195442586Y-122892502D01*
X195442586Y-122892502D02*
X195476258Y-122791487D01*
X195476258Y-122791487D02*
X195610945Y-122656800D01*
X195610945Y-122656800D02*
X195711960Y-122623128D01*
X195711960Y-122623128D02*
X195779304Y-122623128D01*
X195779304Y-122623128D02*
X195880319Y-122656800D01*
X204093469Y-123906667D02*
X204093469Y-123974011D01*
X204093469Y-123974011D02*
X204160813Y-124108698D01*
X204160813Y-124108698D02*
X204228156Y-124176041D01*
X204228156Y-124176041D02*
X204362843Y-124243385D01*
X204362843Y-124243385D02*
X204497530Y-124243385D01*
X204497530Y-124243385D02*
X204598545Y-124209713D01*
X204598545Y-124209713D02*
X204766904Y-124108698D01*
X204766904Y-124108698D02*
X204867919Y-124007683D01*
X204867919Y-124007683D02*
X204968935Y-123839324D01*
X204968935Y-123839324D02*
X205002606Y-123738309D01*
X205002606Y-123738309D02*
X205002606Y-123603622D01*
X205002606Y-123603622D02*
X204935263Y-123468935D01*
X204935263Y-123468935D02*
X204867919Y-123401591D01*
X204867919Y-123401591D02*
X204733232Y-123334248D01*
X204733232Y-123334248D02*
X204665889Y-123334248D01*
X203352691Y-123300576D02*
X203756752Y-123704637D01*
X203554721Y-123502606D02*
X204261828Y-122795500D01*
X204261828Y-122795500D02*
X204228156Y-122963858D01*
X204228156Y-122963858D02*
X204228156Y-123098545D01*
X204228156Y-123098545D02*
X204261828Y-123199561D01*
X203420034Y-121953706D02*
X203756752Y-122290423D01*
X203756752Y-122290423D02*
X203453706Y-122660812D01*
X203453706Y-122660812D02*
X203453706Y-122593469D01*
X203453706Y-122593469D02*
X203420034Y-122492454D01*
X203420034Y-122492454D02*
X203251675Y-122324095D01*
X203251675Y-122324095D02*
X203150660Y-122290423D01*
X203150660Y-122290423D02*
X203083316Y-122290423D01*
X203083316Y-122290423D02*
X202982301Y-122324095D01*
X202982301Y-122324095D02*
X202813942Y-122492454D01*
X202813942Y-122492454D02*
X202780271Y-122593469D01*
X202780271Y-122593469D02*
X202780271Y-122660812D01*
X202780271Y-122660812D02*
X202813942Y-122761828D01*
X202813942Y-122761828D02*
X202982301Y-122930186D01*
X202982301Y-122930186D02*
X203083316Y-122963858D01*
X203083316Y-122963858D02*
X203150660Y-122963858D01*
X200413333Y-136671009D02*
X200746666Y-136671009D01*
X200746666Y-137194819D02*
X200746666Y-136194819D01*
X200746666Y-136194819D02*
X200270476Y-136194819D01*
X199556190Y-136671009D02*
X199413333Y-136718628D01*
X199413333Y-136718628D02*
X199365714Y-136766247D01*
X199365714Y-136766247D02*
X199318095Y-136861485D01*
X199318095Y-136861485D02*
X199318095Y-137004342D01*
X199318095Y-137004342D02*
X199365714Y-137099580D01*
X199365714Y-137099580D02*
X199413333Y-137147200D01*
X199413333Y-137147200D02*
X199508571Y-137194819D01*
X199508571Y-137194819D02*
X199889523Y-137194819D01*
X199889523Y-137194819D02*
X199889523Y-136194819D01*
X199889523Y-136194819D02*
X199556190Y-136194819D01*
X199556190Y-136194819D02*
X199460952Y-136242438D01*
X199460952Y-136242438D02*
X199413333Y-136290057D01*
X199413333Y-136290057D02*
X199365714Y-136385295D01*
X199365714Y-136385295D02*
X199365714Y-136480533D01*
X199365714Y-136480533D02*
X199413333Y-136575771D01*
X199413333Y-136575771D02*
X199460952Y-136623390D01*
X199460952Y-136623390D02*
X199556190Y-136671009D01*
X199556190Y-136671009D02*
X199889523Y-136671009D01*
X198365714Y-137194819D02*
X198937142Y-137194819D01*
X198651428Y-137194819D02*
X198651428Y-136194819D01*
X198651428Y-136194819D02*
X198746666Y-136337676D01*
X198746666Y-136337676D02*
X198841904Y-136432914D01*
X198841904Y-136432914D02*
X198937142Y-136480533D01*
X203402863Y-91846074D02*
X203975282Y-91745059D01*
X203806924Y-92250135D02*
X204514030Y-91543028D01*
X204514030Y-91543028D02*
X204244656Y-91273654D01*
X204244656Y-91273654D02*
X204143641Y-91239982D01*
X204143641Y-91239982D02*
X204076298Y-91239982D01*
X204076298Y-91239982D02*
X203975282Y-91273654D01*
X203975282Y-91273654D02*
X203874267Y-91374669D01*
X203874267Y-91374669D02*
X203840595Y-91475685D01*
X203840595Y-91475685D02*
X203840595Y-91543028D01*
X203840595Y-91543028D02*
X203874267Y-91644043D01*
X203874267Y-91644043D02*
X204143641Y-91913417D01*
X203773252Y-90936937D02*
X203773252Y-90869593D01*
X203773252Y-90869593D02*
X203739580Y-90768578D01*
X203739580Y-90768578D02*
X203571221Y-90600219D01*
X203571221Y-90600219D02*
X203470206Y-90566547D01*
X203470206Y-90566547D02*
X203402863Y-90566547D01*
X203402863Y-90566547D02*
X203301847Y-90600219D01*
X203301847Y-90600219D02*
X203234504Y-90667563D01*
X203234504Y-90667563D02*
X203167160Y-90802250D01*
X203167160Y-90802250D02*
X203167160Y-91610372D01*
X203167160Y-91610372D02*
X202729428Y-91172639D01*
X202594740Y-90095143D02*
X202123336Y-90566547D01*
X203032473Y-89994127D02*
X202695756Y-90667562D01*
X202695756Y-90667562D02*
X202258023Y-90229830D01*
D11*
X222774318Y-97207856D02*
X221504318Y-97207856D01*
X221504318Y-97207856D02*
X221504318Y-97510237D01*
X221504318Y-97510237D02*
X221564794Y-97691666D01*
X221564794Y-97691666D02*
X221685746Y-97812618D01*
X221685746Y-97812618D02*
X221806699Y-97873095D01*
X221806699Y-97873095D02*
X222048603Y-97933571D01*
X222048603Y-97933571D02*
X222230032Y-97933571D01*
X222230032Y-97933571D02*
X222471937Y-97873095D01*
X222471937Y-97873095D02*
X222592889Y-97812618D01*
X222592889Y-97812618D02*
X222713842Y-97691666D01*
X222713842Y-97691666D02*
X222774318Y-97510237D01*
X222774318Y-97510237D02*
X222774318Y-97207856D01*
X222774318Y-99143095D02*
X222774318Y-98417380D01*
X222774318Y-98780237D02*
X221504318Y-98780237D01*
X221504318Y-98780237D02*
X221685746Y-98659285D01*
X221685746Y-98659285D02*
X221806699Y-98538333D01*
X221806699Y-98538333D02*
X221867175Y-98417380D01*
X221504318Y-100292142D02*
X221504318Y-99687380D01*
X221504318Y-99687380D02*
X222109080Y-99626904D01*
X222109080Y-99626904D02*
X222048603Y-99687380D01*
X222048603Y-99687380D02*
X221988127Y-99808333D01*
X221988127Y-99808333D02*
X221988127Y-100110714D01*
X221988127Y-100110714D02*
X222048603Y-100231666D01*
X222048603Y-100231666D02*
X222109080Y-100292142D01*
X222109080Y-100292142D02*
X222230032Y-100352619D01*
X222230032Y-100352619D02*
X222532413Y-100352619D01*
X222532413Y-100352619D02*
X222653365Y-100292142D01*
X222653365Y-100292142D02*
X222713842Y-100231666D01*
X222713842Y-100231666D02*
X222774318Y-100110714D01*
X222774318Y-100110714D02*
X222774318Y-99808333D01*
X222774318Y-99808333D02*
X222713842Y-99687380D01*
X222713842Y-99687380D02*
X222653365Y-99626904D01*
D10*
X207945009Y-57962666D02*
X207945009Y-57629333D01*
X208468819Y-57629333D02*
X207468819Y-57629333D01*
X207468819Y-57629333D02*
X207468819Y-58105523D01*
X208468819Y-59010285D02*
X208468819Y-58438857D01*
X208468819Y-58724571D02*
X207468819Y-58724571D01*
X207468819Y-58724571D02*
X207611676Y-58629333D01*
X207611676Y-58629333D02*
X207706914Y-58534095D01*
X207706914Y-58534095D02*
X207754533Y-58438857D01*
X201455980Y-92960242D02*
X201503600Y-92912623D01*
X201503600Y-92912623D02*
X201551219Y-92769766D01*
X201551219Y-92769766D02*
X201551219Y-92674528D01*
X201551219Y-92674528D02*
X201503600Y-92531671D01*
X201503600Y-92531671D02*
X201408361Y-92436433D01*
X201408361Y-92436433D02*
X201313123Y-92388814D01*
X201313123Y-92388814D02*
X201122647Y-92341195D01*
X201122647Y-92341195D02*
X200979790Y-92341195D01*
X200979790Y-92341195D02*
X200789314Y-92388814D01*
X200789314Y-92388814D02*
X200694076Y-92436433D01*
X200694076Y-92436433D02*
X200598838Y-92531671D01*
X200598838Y-92531671D02*
X200551219Y-92674528D01*
X200551219Y-92674528D02*
X200551219Y-92769766D01*
X200551219Y-92769766D02*
X200598838Y-92912623D01*
X200598838Y-92912623D02*
X200646457Y-92960242D01*
X200551219Y-93865004D02*
X200551219Y-93388814D01*
X200551219Y-93388814D02*
X201027409Y-93341195D01*
X201027409Y-93341195D02*
X200979790Y-93388814D01*
X200979790Y-93388814D02*
X200932171Y-93484052D01*
X200932171Y-93484052D02*
X200932171Y-93722147D01*
X200932171Y-93722147D02*
X200979790Y-93817385D01*
X200979790Y-93817385D02*
X201027409Y-93865004D01*
X201027409Y-93865004D02*
X201122647Y-93912623D01*
X201122647Y-93912623D02*
X201360742Y-93912623D01*
X201360742Y-93912623D02*
X201455980Y-93865004D01*
X201455980Y-93865004D02*
X201503600Y-93817385D01*
X201503600Y-93817385D02*
X201551219Y-93722147D01*
X201551219Y-93722147D02*
X201551219Y-93484052D01*
X201551219Y-93484052D02*
X201503600Y-93388814D01*
X201503600Y-93388814D02*
X201455980Y-93341195D01*
X200551219Y-94245957D02*
X200551219Y-94865004D01*
X200551219Y-94865004D02*
X200932171Y-94531671D01*
X200932171Y-94531671D02*
X200932171Y-94674528D01*
X200932171Y-94674528D02*
X200979790Y-94769766D01*
X200979790Y-94769766D02*
X201027409Y-94817385D01*
X201027409Y-94817385D02*
X201122647Y-94865004D01*
X201122647Y-94865004D02*
X201360742Y-94865004D01*
X201360742Y-94865004D02*
X201455980Y-94817385D01*
X201455980Y-94817385D02*
X201503600Y-94769766D01*
X201503600Y-94769766D02*
X201551219Y-94674528D01*
X201551219Y-94674528D02*
X201551219Y-94388814D01*
X201551219Y-94388814D02*
X201503600Y-94293576D01*
X201503600Y-94293576D02*
X201455980Y-94245957D01*
X194304819Y-57461905D02*
X193304819Y-57461905D01*
X193304819Y-57461905D02*
X193304819Y-57700000D01*
X193304819Y-57700000D02*
X193352438Y-57842857D01*
X193352438Y-57842857D02*
X193447676Y-57938095D01*
X193447676Y-57938095D02*
X193542914Y-57985714D01*
X193542914Y-57985714D02*
X193733390Y-58033333D01*
X193733390Y-58033333D02*
X193876247Y-58033333D01*
X193876247Y-58033333D02*
X194066723Y-57985714D01*
X194066723Y-57985714D02*
X194161961Y-57938095D01*
X194161961Y-57938095D02*
X194257200Y-57842857D01*
X194257200Y-57842857D02*
X194304819Y-57700000D01*
X194304819Y-57700000D02*
X194304819Y-57461905D01*
X194304819Y-58509524D02*
X194304819Y-58700000D01*
X194304819Y-58700000D02*
X194257200Y-58795238D01*
X194257200Y-58795238D02*
X194209580Y-58842857D01*
X194209580Y-58842857D02*
X194066723Y-58938095D01*
X194066723Y-58938095D02*
X193876247Y-58985714D01*
X193876247Y-58985714D02*
X193495295Y-58985714D01*
X193495295Y-58985714D02*
X193400057Y-58938095D01*
X193400057Y-58938095D02*
X193352438Y-58890476D01*
X193352438Y-58890476D02*
X193304819Y-58795238D01*
X193304819Y-58795238D02*
X193304819Y-58604762D01*
X193304819Y-58604762D02*
X193352438Y-58509524D01*
X193352438Y-58509524D02*
X193400057Y-58461905D01*
X193400057Y-58461905D02*
X193495295Y-58414286D01*
X193495295Y-58414286D02*
X193733390Y-58414286D01*
X193733390Y-58414286D02*
X193828628Y-58461905D01*
X193828628Y-58461905D02*
X193876247Y-58509524D01*
X193876247Y-58509524D02*
X193923866Y-58604762D01*
X193923866Y-58604762D02*
X193923866Y-58795238D01*
X193923866Y-58795238D02*
X193876247Y-58890476D01*
X193876247Y-58890476D02*
X193828628Y-58938095D01*
X193828628Y-58938095D02*
X193733390Y-58985714D01*
X205200306Y-129158830D02*
X205200306Y-129226174D01*
X205200306Y-129226174D02*
X205267650Y-129360861D01*
X205267650Y-129360861D02*
X205334993Y-129428204D01*
X205334993Y-129428204D02*
X205469680Y-129495548D01*
X205469680Y-129495548D02*
X205604367Y-129495548D01*
X205604367Y-129495548D02*
X205705382Y-129461876D01*
X205705382Y-129461876D02*
X205873741Y-129360861D01*
X205873741Y-129360861D02*
X205974756Y-129259846D01*
X205974756Y-129259846D02*
X206075772Y-129091487D01*
X206075772Y-129091487D02*
X206109443Y-128990472D01*
X206109443Y-128990472D02*
X206109443Y-128855785D01*
X206109443Y-128855785D02*
X206042100Y-128721098D01*
X206042100Y-128721098D02*
X205974756Y-128653754D01*
X205974756Y-128653754D02*
X205840069Y-128586411D01*
X205840069Y-128586411D02*
X205772726Y-128586411D01*
X204459528Y-128552739D02*
X204863589Y-128956800D01*
X204661558Y-128754769D02*
X205368665Y-128047663D01*
X205368665Y-128047663D02*
X205334993Y-128216021D01*
X205334993Y-128216021D02*
X205334993Y-128350708D01*
X205334993Y-128350708D02*
X205368665Y-128451724D01*
X203786092Y-127879304D02*
X204190153Y-128283365D01*
X203988123Y-128081334D02*
X204695230Y-127374227D01*
X204695230Y-127374227D02*
X204661558Y-127542586D01*
X204661558Y-127542586D02*
X204661558Y-127677273D01*
X204661558Y-127677273D02*
X204695230Y-127778288D01*
X212914285Y-61904819D02*
X212914285Y-60904819D01*
X212914285Y-60904819D02*
X212676190Y-60904819D01*
X212676190Y-60904819D02*
X212533333Y-60952438D01*
X212533333Y-60952438D02*
X212438095Y-61047676D01*
X212438095Y-61047676D02*
X212390476Y-61142914D01*
X212390476Y-61142914D02*
X212342857Y-61333390D01*
X212342857Y-61333390D02*
X212342857Y-61476247D01*
X212342857Y-61476247D02*
X212390476Y-61666723D01*
X212390476Y-61666723D02*
X212438095Y-61761961D01*
X212438095Y-61761961D02*
X212533333Y-61857200D01*
X212533333Y-61857200D02*
X212676190Y-61904819D01*
X212676190Y-61904819D02*
X212914285Y-61904819D01*
X211390476Y-61904819D02*
X211961904Y-61904819D01*
X211676190Y-61904819D02*
X211676190Y-60904819D01*
X211676190Y-60904819D02*
X211771428Y-61047676D01*
X211771428Y-61047676D02*
X211866666Y-61142914D01*
X211866666Y-61142914D02*
X211961904Y-61190533D01*
X210771428Y-60904819D02*
X210676190Y-60904819D01*
X210676190Y-60904819D02*
X210580952Y-60952438D01*
X210580952Y-60952438D02*
X210533333Y-61000057D01*
X210533333Y-61000057D02*
X210485714Y-61095295D01*
X210485714Y-61095295D02*
X210438095Y-61285771D01*
X210438095Y-61285771D02*
X210438095Y-61523866D01*
X210438095Y-61523866D02*
X210485714Y-61714342D01*
X210485714Y-61714342D02*
X210533333Y-61809580D01*
X210533333Y-61809580D02*
X210580952Y-61857200D01*
X210580952Y-61857200D02*
X210676190Y-61904819D01*
X210676190Y-61904819D02*
X210771428Y-61904819D01*
X210771428Y-61904819D02*
X210866666Y-61857200D01*
X210866666Y-61857200D02*
X210914285Y-61809580D01*
X210914285Y-61809580D02*
X210961904Y-61714342D01*
X210961904Y-61714342D02*
X211009523Y-61523866D01*
X211009523Y-61523866D02*
X211009523Y-61285771D01*
X211009523Y-61285771D02*
X210961904Y-61095295D01*
X210961904Y-61095295D02*
X210914285Y-61000057D01*
X210914285Y-61000057D02*
X210866666Y-60952438D01*
X210866666Y-60952438D02*
X210771428Y-60904819D01*
X217689580Y-81967142D02*
X217737200Y-81919523D01*
X217737200Y-81919523D02*
X217784819Y-81776666D01*
X217784819Y-81776666D02*
X217784819Y-81681428D01*
X217784819Y-81681428D02*
X217737200Y-81538571D01*
X217737200Y-81538571D02*
X217641961Y-81443333D01*
X217641961Y-81443333D02*
X217546723Y-81395714D01*
X217546723Y-81395714D02*
X217356247Y-81348095D01*
X217356247Y-81348095D02*
X217213390Y-81348095D01*
X217213390Y-81348095D02*
X217022914Y-81395714D01*
X217022914Y-81395714D02*
X216927676Y-81443333D01*
X216927676Y-81443333D02*
X216832438Y-81538571D01*
X216832438Y-81538571D02*
X216784819Y-81681428D01*
X216784819Y-81681428D02*
X216784819Y-81776666D01*
X216784819Y-81776666D02*
X216832438Y-81919523D01*
X216832438Y-81919523D02*
X216880057Y-81967142D01*
X216784819Y-82300476D02*
X216784819Y-82919523D01*
X216784819Y-82919523D02*
X217165771Y-82586190D01*
X217165771Y-82586190D02*
X217165771Y-82729047D01*
X217165771Y-82729047D02*
X217213390Y-82824285D01*
X217213390Y-82824285D02*
X217261009Y-82871904D01*
X217261009Y-82871904D02*
X217356247Y-82919523D01*
X217356247Y-82919523D02*
X217594342Y-82919523D01*
X217594342Y-82919523D02*
X217689580Y-82871904D01*
X217689580Y-82871904D02*
X217737200Y-82824285D01*
X217737200Y-82824285D02*
X217784819Y-82729047D01*
X217784819Y-82729047D02*
X217784819Y-82443333D01*
X217784819Y-82443333D02*
X217737200Y-82348095D01*
X217737200Y-82348095D02*
X217689580Y-82300476D01*
X217784819Y-83395714D02*
X217784819Y-83586190D01*
X217784819Y-83586190D02*
X217737200Y-83681428D01*
X217737200Y-83681428D02*
X217689580Y-83729047D01*
X217689580Y-83729047D02*
X217546723Y-83824285D01*
X217546723Y-83824285D02*
X217356247Y-83871904D01*
X217356247Y-83871904D02*
X216975295Y-83871904D01*
X216975295Y-83871904D02*
X216880057Y-83824285D01*
X216880057Y-83824285D02*
X216832438Y-83776666D01*
X216832438Y-83776666D02*
X216784819Y-83681428D01*
X216784819Y-83681428D02*
X216784819Y-83490952D01*
X216784819Y-83490952D02*
X216832438Y-83395714D01*
X216832438Y-83395714D02*
X216880057Y-83348095D01*
X216880057Y-83348095D02*
X216975295Y-83300476D01*
X216975295Y-83300476D02*
X217213390Y-83300476D01*
X217213390Y-83300476D02*
X217308628Y-83348095D01*
X217308628Y-83348095D02*
X217356247Y-83395714D01*
X217356247Y-83395714D02*
X217403866Y-83490952D01*
X217403866Y-83490952D02*
X217403866Y-83681428D01*
X217403866Y-83681428D02*
X217356247Y-83776666D01*
X217356247Y-83776666D02*
X217308628Y-83824285D01*
X217308628Y-83824285D02*
X217213390Y-83871904D01*
X187745485Y-64524819D02*
X187745485Y-63524819D01*
X187745485Y-63524819D02*
X187507390Y-63524819D01*
X187507390Y-63524819D02*
X187364533Y-63572438D01*
X187364533Y-63572438D02*
X187269295Y-63667676D01*
X187269295Y-63667676D02*
X187221676Y-63762914D01*
X187221676Y-63762914D02*
X187174057Y-63953390D01*
X187174057Y-63953390D02*
X187174057Y-64096247D01*
X187174057Y-64096247D02*
X187221676Y-64286723D01*
X187221676Y-64286723D02*
X187269295Y-64381961D01*
X187269295Y-64381961D02*
X187364533Y-64477200D01*
X187364533Y-64477200D02*
X187507390Y-64524819D01*
X187507390Y-64524819D02*
X187745485Y-64524819D01*
X186221676Y-64524819D02*
X186793104Y-64524819D01*
X186507390Y-64524819D02*
X186507390Y-63524819D01*
X186507390Y-63524819D02*
X186602628Y-63667676D01*
X186602628Y-63667676D02*
X186697866Y-63762914D01*
X186697866Y-63762914D02*
X186793104Y-63810533D01*
X185650247Y-63953390D02*
X185745485Y-63905771D01*
X185745485Y-63905771D02*
X185793104Y-63858152D01*
X185793104Y-63858152D02*
X185840723Y-63762914D01*
X185840723Y-63762914D02*
X185840723Y-63715295D01*
X185840723Y-63715295D02*
X185793104Y-63620057D01*
X185793104Y-63620057D02*
X185745485Y-63572438D01*
X185745485Y-63572438D02*
X185650247Y-63524819D01*
X185650247Y-63524819D02*
X185459771Y-63524819D01*
X185459771Y-63524819D02*
X185364533Y-63572438D01*
X185364533Y-63572438D02*
X185316914Y-63620057D01*
X185316914Y-63620057D02*
X185269295Y-63715295D01*
X185269295Y-63715295D02*
X185269295Y-63762914D01*
X185269295Y-63762914D02*
X185316914Y-63858152D01*
X185316914Y-63858152D02*
X185364533Y-63905771D01*
X185364533Y-63905771D02*
X185459771Y-63953390D01*
X185459771Y-63953390D02*
X185650247Y-63953390D01*
X185650247Y-63953390D02*
X185745485Y-64001009D01*
X185745485Y-64001009D02*
X185793104Y-64048628D01*
X185793104Y-64048628D02*
X185840723Y-64143866D01*
X185840723Y-64143866D02*
X185840723Y-64334342D01*
X185840723Y-64334342D02*
X185793104Y-64429580D01*
X185793104Y-64429580D02*
X185745485Y-64477200D01*
X185745485Y-64477200D02*
X185650247Y-64524819D01*
X185650247Y-64524819D02*
X185459771Y-64524819D01*
X185459771Y-64524819D02*
X185364533Y-64477200D01*
X185364533Y-64477200D02*
X185316914Y-64429580D01*
X185316914Y-64429580D02*
X185269295Y-64334342D01*
X185269295Y-64334342D02*
X185269295Y-64143866D01*
X185269295Y-64143866D02*
X185316914Y-64048628D01*
X185316914Y-64048628D02*
X185364533Y-64001009D01*
X185364533Y-64001009D02*
X185459771Y-63953390D01*
X201397666Y-142221580D02*
X201445285Y-142269200D01*
X201445285Y-142269200D02*
X201588142Y-142316819D01*
X201588142Y-142316819D02*
X201683380Y-142316819D01*
X201683380Y-142316819D02*
X201826237Y-142269200D01*
X201826237Y-142269200D02*
X201921475Y-142173961D01*
X201921475Y-142173961D02*
X201969094Y-142078723D01*
X201969094Y-142078723D02*
X202016713Y-141888247D01*
X202016713Y-141888247D02*
X202016713Y-141745390D01*
X202016713Y-141745390D02*
X201969094Y-141554914D01*
X201969094Y-141554914D02*
X201921475Y-141459676D01*
X201921475Y-141459676D02*
X201826237Y-141364438D01*
X201826237Y-141364438D02*
X201683380Y-141316819D01*
X201683380Y-141316819D02*
X201588142Y-141316819D01*
X201588142Y-141316819D02*
X201445285Y-141364438D01*
X201445285Y-141364438D02*
X201397666Y-141412057D01*
X201064332Y-141316819D02*
X200397666Y-141316819D01*
X200397666Y-141316819D02*
X200826237Y-142316819D01*
X186576019Y-57135714D02*
X185576019Y-57135714D01*
X185576019Y-57135714D02*
X185576019Y-57373809D01*
X185576019Y-57373809D02*
X185623638Y-57516666D01*
X185623638Y-57516666D02*
X185718876Y-57611904D01*
X185718876Y-57611904D02*
X185814114Y-57659523D01*
X185814114Y-57659523D02*
X186004590Y-57707142D01*
X186004590Y-57707142D02*
X186147447Y-57707142D01*
X186147447Y-57707142D02*
X186337923Y-57659523D01*
X186337923Y-57659523D02*
X186433161Y-57611904D01*
X186433161Y-57611904D02*
X186528400Y-57516666D01*
X186528400Y-57516666D02*
X186576019Y-57373809D01*
X186576019Y-57373809D02*
X186576019Y-57135714D01*
X186576019Y-58659523D02*
X186576019Y-58088095D01*
X186576019Y-58373809D02*
X185576019Y-58373809D01*
X185576019Y-58373809D02*
X185718876Y-58278571D01*
X185718876Y-58278571D02*
X185814114Y-58183333D01*
X185814114Y-58183333D02*
X185861733Y-58088095D01*
X186576019Y-59135714D02*
X186576019Y-59326190D01*
X186576019Y-59326190D02*
X186528400Y-59421428D01*
X186528400Y-59421428D02*
X186480780Y-59469047D01*
X186480780Y-59469047D02*
X186337923Y-59564285D01*
X186337923Y-59564285D02*
X186147447Y-59611904D01*
X186147447Y-59611904D02*
X185766495Y-59611904D01*
X185766495Y-59611904D02*
X185671257Y-59564285D01*
X185671257Y-59564285D02*
X185623638Y-59516666D01*
X185623638Y-59516666D02*
X185576019Y-59421428D01*
X185576019Y-59421428D02*
X185576019Y-59230952D01*
X185576019Y-59230952D02*
X185623638Y-59135714D01*
X185623638Y-59135714D02*
X185671257Y-59088095D01*
X185671257Y-59088095D02*
X185766495Y-59040476D01*
X185766495Y-59040476D02*
X186004590Y-59040476D01*
X186004590Y-59040476D02*
X186099828Y-59088095D01*
X186099828Y-59088095D02*
X186147447Y-59135714D01*
X186147447Y-59135714D02*
X186195066Y-59230952D01*
X186195066Y-59230952D02*
X186195066Y-59421428D01*
X186195066Y-59421428D02*
X186147447Y-59516666D01*
X186147447Y-59516666D02*
X186099828Y-59564285D01*
X186099828Y-59564285D02*
X186004590Y-59611904D01*
X218042857Y-105893219D02*
X218376190Y-105417028D01*
X218614285Y-105893219D02*
X218614285Y-104893219D01*
X218614285Y-104893219D02*
X218233333Y-104893219D01*
X218233333Y-104893219D02*
X218138095Y-104940838D01*
X218138095Y-104940838D02*
X218090476Y-104988457D01*
X218090476Y-104988457D02*
X218042857Y-105083695D01*
X218042857Y-105083695D02*
X218042857Y-105226552D01*
X218042857Y-105226552D02*
X218090476Y-105321790D01*
X218090476Y-105321790D02*
X218138095Y-105369409D01*
X218138095Y-105369409D02*
X218233333Y-105417028D01*
X218233333Y-105417028D02*
X218614285Y-105417028D01*
X217471428Y-105321790D02*
X217566666Y-105274171D01*
X217566666Y-105274171D02*
X217614285Y-105226552D01*
X217614285Y-105226552D02*
X217661904Y-105131314D01*
X217661904Y-105131314D02*
X217661904Y-105083695D01*
X217661904Y-105083695D02*
X217614285Y-104988457D01*
X217614285Y-104988457D02*
X217566666Y-104940838D01*
X217566666Y-104940838D02*
X217471428Y-104893219D01*
X217471428Y-104893219D02*
X217280952Y-104893219D01*
X217280952Y-104893219D02*
X217185714Y-104940838D01*
X217185714Y-104940838D02*
X217138095Y-104988457D01*
X217138095Y-104988457D02*
X217090476Y-105083695D01*
X217090476Y-105083695D02*
X217090476Y-105131314D01*
X217090476Y-105131314D02*
X217138095Y-105226552D01*
X217138095Y-105226552D02*
X217185714Y-105274171D01*
X217185714Y-105274171D02*
X217280952Y-105321790D01*
X217280952Y-105321790D02*
X217471428Y-105321790D01*
X217471428Y-105321790D02*
X217566666Y-105369409D01*
X217566666Y-105369409D02*
X217614285Y-105417028D01*
X217614285Y-105417028D02*
X217661904Y-105512266D01*
X217661904Y-105512266D02*
X217661904Y-105702742D01*
X217661904Y-105702742D02*
X217614285Y-105797980D01*
X217614285Y-105797980D02*
X217566666Y-105845600D01*
X217566666Y-105845600D02*
X217471428Y-105893219D01*
X217471428Y-105893219D02*
X217280952Y-105893219D01*
X217280952Y-105893219D02*
X217185714Y-105845600D01*
X217185714Y-105845600D02*
X217138095Y-105797980D01*
X217138095Y-105797980D02*
X217090476Y-105702742D01*
X217090476Y-105702742D02*
X217090476Y-105512266D01*
X217090476Y-105512266D02*
X217138095Y-105417028D01*
X217138095Y-105417028D02*
X217185714Y-105369409D01*
X217185714Y-105369409D02*
X217280952Y-105321790D01*
X216519047Y-105321790D02*
X216614285Y-105274171D01*
X216614285Y-105274171D02*
X216661904Y-105226552D01*
X216661904Y-105226552D02*
X216709523Y-105131314D01*
X216709523Y-105131314D02*
X216709523Y-105083695D01*
X216709523Y-105083695D02*
X216661904Y-104988457D01*
X216661904Y-104988457D02*
X216614285Y-104940838D01*
X216614285Y-104940838D02*
X216519047Y-104893219D01*
X216519047Y-104893219D02*
X216328571Y-104893219D01*
X216328571Y-104893219D02*
X216233333Y-104940838D01*
X216233333Y-104940838D02*
X216185714Y-104988457D01*
X216185714Y-104988457D02*
X216138095Y-105083695D01*
X216138095Y-105083695D02*
X216138095Y-105131314D01*
X216138095Y-105131314D02*
X216185714Y-105226552D01*
X216185714Y-105226552D02*
X216233333Y-105274171D01*
X216233333Y-105274171D02*
X216328571Y-105321790D01*
X216328571Y-105321790D02*
X216519047Y-105321790D01*
X216519047Y-105321790D02*
X216614285Y-105369409D01*
X216614285Y-105369409D02*
X216661904Y-105417028D01*
X216661904Y-105417028D02*
X216709523Y-105512266D01*
X216709523Y-105512266D02*
X216709523Y-105702742D01*
X216709523Y-105702742D02*
X216661904Y-105797980D01*
X216661904Y-105797980D02*
X216614285Y-105845600D01*
X216614285Y-105845600D02*
X216519047Y-105893219D01*
X216519047Y-105893219D02*
X216328571Y-105893219D01*
X216328571Y-105893219D02*
X216233333Y-105845600D01*
X216233333Y-105845600D02*
X216185714Y-105797980D01*
X216185714Y-105797980D02*
X216138095Y-105702742D01*
X216138095Y-105702742D02*
X216138095Y-105512266D01*
X216138095Y-105512266D02*
X216185714Y-105417028D01*
X216185714Y-105417028D02*
X216233333Y-105369409D01*
X216233333Y-105369409D02*
X216328571Y-105321790D01*
X202114285Y-64304819D02*
X202114285Y-63304819D01*
X202114285Y-63304819D02*
X201876190Y-63304819D01*
X201876190Y-63304819D02*
X201733333Y-63352438D01*
X201733333Y-63352438D02*
X201638095Y-63447676D01*
X201638095Y-63447676D02*
X201590476Y-63542914D01*
X201590476Y-63542914D02*
X201542857Y-63733390D01*
X201542857Y-63733390D02*
X201542857Y-63876247D01*
X201542857Y-63876247D02*
X201590476Y-64066723D01*
X201590476Y-64066723D02*
X201638095Y-64161961D01*
X201638095Y-64161961D02*
X201733333Y-64257200D01*
X201733333Y-64257200D02*
X201876190Y-64304819D01*
X201876190Y-64304819D02*
X202114285Y-64304819D01*
X200590476Y-64304819D02*
X201161904Y-64304819D01*
X200876190Y-64304819D02*
X200876190Y-63304819D01*
X200876190Y-63304819D02*
X200971428Y-63447676D01*
X200971428Y-63447676D02*
X201066666Y-63542914D01*
X201066666Y-63542914D02*
X201161904Y-63590533D01*
X199638095Y-64304819D02*
X200209523Y-64304819D01*
X199923809Y-64304819D02*
X199923809Y-63304819D01*
X199923809Y-63304819D02*
X200019047Y-63447676D01*
X200019047Y-63447676D02*
X200114285Y-63542914D01*
X200114285Y-63542914D02*
X200209523Y-63590533D01*
X200429580Y-124470382D02*
X200477200Y-124422763D01*
X200477200Y-124422763D02*
X200524819Y-124279906D01*
X200524819Y-124279906D02*
X200524819Y-124184668D01*
X200524819Y-124184668D02*
X200477200Y-124041811D01*
X200477200Y-124041811D02*
X200381961Y-123946573D01*
X200381961Y-123946573D02*
X200286723Y-123898954D01*
X200286723Y-123898954D02*
X200096247Y-123851335D01*
X200096247Y-123851335D02*
X199953390Y-123851335D01*
X199953390Y-123851335D02*
X199762914Y-123898954D01*
X199762914Y-123898954D02*
X199667676Y-123946573D01*
X199667676Y-123946573D02*
X199572438Y-124041811D01*
X199572438Y-124041811D02*
X199524819Y-124184668D01*
X199524819Y-124184668D02*
X199524819Y-124279906D01*
X199524819Y-124279906D02*
X199572438Y-124422763D01*
X199572438Y-124422763D02*
X199620057Y-124470382D01*
X200524819Y-125422763D02*
X200524819Y-124851335D01*
X200524819Y-125137049D02*
X199524819Y-125137049D01*
X199524819Y-125137049D02*
X199667676Y-125041811D01*
X199667676Y-125041811D02*
X199762914Y-124946573D01*
X199762914Y-124946573D02*
X199810533Y-124851335D01*
X199858152Y-126279906D02*
X200524819Y-126279906D01*
X199477200Y-126041811D02*
X200191485Y-125803716D01*
X200191485Y-125803716D02*
X200191485Y-126422763D01*
D12*
%TO.C,D12*%
X203557700Y-60943600D02*
X207317700Y-60943600D01*
X203557700Y-62963600D02*
X203557700Y-60943600D01*
X203557700Y-62963600D02*
X207317700Y-62963600D01*
%TO.C,TP2*%
X214415600Y-106984800D02*
G75*
G02*
X213015600Y-106984800I-700000J0D01*
G01*
X213015600Y-106984800D02*
G75*
G02*
X214415600Y-106984800I700000J0D01*
G01*
%TO.C,TP15*%
X202058000Y-113541000D02*
G75*
G02*
X200658000Y-113541000I-700000J0D01*
G01*
X200658000Y-113541000D02*
G75*
G02*
X202058000Y-113541000I700000J0D01*
G01*
%TO.C,R23*%
X202520000Y-113267621D02*
X202520000Y-112932379D01*
X203280000Y-113267621D02*
X203280000Y-112932379D01*
%TO.C,TP7*%
X212500000Y-86700000D02*
G75*
G02*
X211100000Y-86700000I-700000J0D01*
G01*
X211100000Y-86700000D02*
G75*
G02*
X212500000Y-86700000I700000J0D01*
G01*
%TO.C,TP8*%
X214568000Y-86800000D02*
G75*
G02*
X213168000Y-86800000I-700000J0D01*
G01*
X213168000Y-86800000D02*
G75*
G02*
X214568000Y-86800000I700000J0D01*
G01*
%TO.C,TP12*%
X205500000Y-119000000D02*
G75*
G02*
X204100000Y-119000000I-700000J0D01*
G01*
X204100000Y-119000000D02*
G75*
G02*
X205500000Y-119000000I700000J0D01*
G01*
%TO.C,R80*%
X203519999Y-112932379D02*
X203519999Y-113267621D01*
X204280001Y-112932379D02*
X204280001Y-113267621D01*
%TO.C,F3*%
X195418800Y-58898064D02*
X195418800Y-57693936D01*
X197238800Y-58898064D02*
X197238800Y-57693936D01*
%TO.C,TP19*%
X222924600Y-107213400D02*
G75*
G02*
X221524600Y-107213400I-700000J0D01*
G01*
X221524600Y-107213400D02*
G75*
G02*
X222924600Y-107213400I700000J0D01*
G01*
%TO.C,TP6*%
X216536000Y-117097000D02*
G75*
G02*
X215136000Y-117097000I-700000J0D01*
G01*
X215136000Y-117097000D02*
G75*
G02*
X216536000Y-117097000I700000J0D01*
G01*
%TO.C,F4*%
X187411200Y-58912064D02*
X187411200Y-57707936D01*
X189231200Y-58912064D02*
X189231200Y-57707936D01*
%TO.C,TP18*%
X201550000Y-115573000D02*
G75*
G02*
X200150000Y-115573000I-700000J0D01*
G01*
X200150000Y-115573000D02*
G75*
G02*
X201550000Y-115573000I700000J0D01*
G01*
%TO.C,TP16*%
X200534000Y-112144000D02*
G75*
G02*
X199134000Y-112144000I-700000J0D01*
G01*
X199134000Y-112144000D02*
G75*
G02*
X200534000Y-112144000I700000J0D01*
G01*
%TO.C,C56*%
X207130000Y-99136267D02*
X207130000Y-98843733D01*
X208150000Y-99136267D02*
X208150000Y-98843733D01*
%TO.C,TP4*%
X212522800Y-104540000D02*
G75*
G02*
X211122800Y-104540000I-700000J0D01*
G01*
X211122800Y-104540000D02*
G75*
G02*
X212522800Y-104540000I700000J0D01*
G01*
%TO.C,D8*%
X189604800Y-60843600D02*
X194014800Y-60843600D01*
X189604800Y-63063600D02*
X189604800Y-60843600D01*
X194014800Y-63063600D02*
X189604800Y-63063600D01*
%TO.C,C13*%
X196702949Y-128396802D02*
X196909802Y-128189949D01*
X197424198Y-129118051D02*
X197631051Y-128911198D01*
%TO.C,TP1*%
X214740000Y-109010000D02*
G75*
G02*
X213340000Y-109010000I-700000J0D01*
G01*
X213340000Y-109010000D02*
G75*
G02*
X214740000Y-109010000I700000J0D01*
G01*
%TO.C,R90*%
X213179900Y-103405676D02*
X213179900Y-103915124D01*
X214224900Y-103405676D02*
X214224900Y-103915124D01*
%TO.C,R91*%
X211300300Y-102086324D02*
X211300300Y-101576876D01*
X212345300Y-102086324D02*
X212345300Y-101576876D01*
%TO.C,C3*%
X221240000Y-139093752D02*
X221240000Y-137671248D01*
X223060000Y-139093752D02*
X223060000Y-137671248D01*
%TO.C,R84*%
X212775276Y-82977500D02*
X213284724Y-82977500D01*
X212775276Y-84022500D02*
X213284724Y-84022500D01*
%TO.C,F2*%
X215332400Y-58948864D02*
X215332400Y-57744736D01*
X217152400Y-58948864D02*
X217152400Y-57744736D01*
%TO.C,TP20*%
X218650000Y-103800000D02*
G75*
G02*
X217250000Y-103800000I-700000J0D01*
G01*
X217250000Y-103800000D02*
G75*
G02*
X218650000Y-103800000I700000J0D01*
G01*
%TO.C,TP5*%
X216536000Y-119129000D02*
G75*
G02*
X215136000Y-119129000I-700000J0D01*
G01*
X215136000Y-119129000D02*
G75*
G02*
X216536000Y-119129000I700000J0D01*
G01*
%TO.C,R85*%
X214715276Y-84527500D02*
X215224724Y-84527500D01*
X214715276Y-85572500D02*
X215224724Y-85572500D01*
%TO.C,C17*%
X200592802Y-128864051D02*
X200385949Y-128657198D01*
X201314051Y-128142802D02*
X201107198Y-127935949D01*
%TO.C,TP3*%
X216308107Y-104219200D02*
G75*
G02*
X214908107Y-104219200I-700000J0D01*
G01*
X214908107Y-104219200D02*
G75*
G02*
X216308107Y-104219200I700000J0D01*
G01*
%TO.C,C16*%
X197036802Y-122601949D02*
X196829949Y-122808802D01*
X197758051Y-123323198D02*
X197551198Y-123530051D01*
%TO.C,C15*%
X202624802Y-124673051D02*
X202417949Y-124466198D01*
X203346051Y-123951802D02*
X203139198Y-123744949D01*
%TO.C,FB1*%
X199751267Y-137660000D02*
X199408733Y-137660000D01*
X199751267Y-138680000D02*
X199408733Y-138680000D01*
%TO.C,R24*%
X201139825Y-89477227D02*
X200902773Y-89240175D01*
X201677227Y-88939825D02*
X201440175Y-88702773D01*
D13*
%TO.C,D15*%
X220740000Y-102775000D02*
X220740000Y-102825000D01*
X220740000Y-102825000D02*
X223640000Y-102825000D01*
X223640000Y-102775000D02*
X220740000Y-102775000D01*
X223640000Y-102825000D02*
X223640000Y-102775000D01*
X223690000Y-104425000D02*
X223690000Y-103175000D01*
D12*
%TO.C,TP13*%
X196470000Y-113541000D02*
G75*
G02*
X195070000Y-113541000I-700000J0D01*
G01*
X195070000Y-113541000D02*
G75*
G02*
X196470000Y-113541000I700000J0D01*
G01*
%TO.C,F1*%
X205274000Y-58898064D02*
X205274000Y-57693936D01*
X207094000Y-58898064D02*
X207094000Y-57693936D01*
%TO.C,C53*%
X202016400Y-93456833D02*
X202016400Y-93749367D01*
X203036400Y-93456833D02*
X203036400Y-93749367D01*
%TO.C,D9*%
X190899200Y-60605200D02*
X190899200Y-56845200D01*
X192919200Y-60605200D02*
X190899200Y-60605200D01*
X192919200Y-60605200D02*
X192919200Y-56845200D01*
%TO.C,C11*%
X202497802Y-126705051D02*
X202290949Y-126498198D01*
X203219051Y-125983802D02*
X203012198Y-125776949D01*
%TO.C,D10*%
X211021200Y-59067600D02*
X212981200Y-59067600D01*
X211021200Y-60267600D02*
X212981200Y-60267600D01*
X212981200Y-59067600D02*
X212981200Y-60267600D01*
%TO.C,TP21*%
X217920800Y-69570600D02*
G75*
G02*
X216520800Y-69570600I-700000J0D01*
G01*
X216520800Y-69570600D02*
G75*
G02*
X217920800Y-69570600I700000J0D01*
G01*
%TO.C,C39*%
X215390000Y-82756267D02*
X215390000Y-82463733D01*
X216410000Y-82756267D02*
X216410000Y-82463733D01*
%TO.C,D18*%
X183871200Y-60960000D02*
X188281200Y-60960000D01*
X183871200Y-63180000D02*
X183871200Y-60960000D01*
X188281200Y-63180000D02*
X183871200Y-63180000D01*
%TO.C,C7*%
X202227733Y-139828000D02*
X202520267Y-139828000D01*
X202227733Y-140848000D02*
X202520267Y-140848000D01*
%TO.C,D19*%
X183111200Y-60710000D02*
X183111200Y-56950000D01*
X185131200Y-60710000D02*
X183111200Y-60710000D01*
X185131200Y-60710000D02*
X185131200Y-56950000D01*
%TO.C,TP14*%
X199899000Y-114176000D02*
G75*
G02*
X198499000Y-114176000I-700000J0D01*
G01*
X198499000Y-114176000D02*
G75*
G02*
X199899000Y-114176000I700000J0D01*
G01*
%TO.C,TP17*%
X198629000Y-117351000D02*
G75*
G02*
X197229000Y-117351000I-700000J0D01*
G01*
X197229000Y-117351000D02*
G75*
G02*
X198629000Y-117351000I700000J0D01*
G01*
%TO.C,R88*%
X221931276Y-104915900D02*
X222440724Y-104915900D01*
X221931276Y-105960900D02*
X222440724Y-105960900D01*
%TO.C,TP10*%
X198007200Y-69596000D02*
G75*
G02*
X196607200Y-69596000I-700000J0D01*
G01*
X196607200Y-69596000D02*
G75*
G02*
X198007200Y-69596000I700000J0D01*
G01*
%TO.C,D11*%
X198228500Y-60843600D02*
X202638500Y-60843600D01*
X198228500Y-63063600D02*
X198228500Y-60843600D01*
X202638500Y-63063600D02*
X198228500Y-63063600D01*
%TO.C,TP9*%
X207887800Y-69570600D02*
G75*
G02*
X206487800Y-69570600I-700000J0D01*
G01*
X206487800Y-69570600D02*
G75*
G02*
X207887800Y-69570600I700000J0D01*
G01*
%TO.C,C14*%
X198054000Y-125078733D02*
X198054000Y-125371267D01*
X199074000Y-125078733D02*
X199074000Y-125371267D01*
%TO.C,TP22*%
X216160000Y-72100000D02*
G75*
G02*
X214760000Y-72100000I-700000J0D01*
G01*
X214760000Y-72100000D02*
G75*
G02*
X216160000Y-72100000I700000J0D01*
G01*
%TD*%
M02*
