%TF.GenerationSoftware,KiCad,Pcbnew,9.0.6*%
%TF.CreationDate,2026-05-11T15:02:08+02:00*%
%TF.ProjectId,UCB_board,5543425f-626f-4617-9264-2e6b69636164,0.3*%
%TF.SameCoordinates,Original*%
%TF.FileFunction,Paste,Top*%
%TF.FilePolarity,Positive*%
%FSLAX46Y46*%
G04 Gerber Fmt 4.6, Leading zero omitted, Abs format (unit mm)*
G04 Created by KiCad (PCBNEW 9.0.6) date 2026-05-11 15:02:08*
%MOMM*%
%LPD*%
G01*
G04 APERTURE LIST*
G04 Aperture macros list*
%AMRoundRect*
0 Rectangle with rounded corners*
0 $1 Rounding radius*
0 $2 $3 $4 $5 $6 $7 $8 $9 X,Y pos of 4 corners*
0 Add a 4 corners polygon primitive as box body*
4,1,4,$2,$3,$4,$5,$6,$7,$8,$9,$2,$3,0*
0 Add four circle primitives for the rounded corners*
1,1,$1+$1,$2,$3*
1,1,$1+$1,$4,$5*
1,1,$1+$1,$6,$7*
1,1,$1+$1,$8,$9*
0 Add four rect primitives between the rounded corners*
20,1,$1+$1,$2,$3,$4,$5,0*
20,1,$1+$1,$4,$5,$6,$7,0*
20,1,$1+$1,$6,$7,$8,$9,0*
20,1,$1+$1,$8,$9,$2,$3,0*%
%AMRotRect*
0 Rectangle, with rotation*
0 The origin of the aperture is its center*
0 $1 length*
0 $2 width*
0 $3 Rotation angle, in degrees counterclockwise*
0 Add horizontal line*
21,1,$1,$2,0,0,$3*%
G04 Aperture macros list end*
%ADD10RoundRect,0.075000X-0.415425X-0.521491X0.521491X0.415425X0.415425X0.521491X-0.521491X-0.415425X0*%
%ADD11RoundRect,0.075000X0.415425X-0.521491X0.521491X-0.415425X-0.415425X0.521491X-0.521491X0.415425X0*%
%ADD12RoundRect,0.160000X-0.160000X0.197500X-0.160000X-0.197500X0.160000X-0.197500X0.160000X0.197500X0*%
%ADD13RoundRect,0.237500X0.344715X-0.008839X-0.008839X0.344715X-0.344715X0.008839X0.008839X-0.344715X0*%
%ADD14R,0.625000X0.250000*%
%ADD15R,0.700000X0.450000*%
%ADD16R,0.575000X0.450000*%
%ADD17RoundRect,0.150000X-0.150000X0.825000X-0.150000X-0.825000X0.150000X-0.825000X0.150000X0.825000X0*%
%ADD18RoundRect,0.155000X0.040659X0.259862X-0.259862X-0.040659X-0.040659X-0.259862X0.259862X0.040659X0*%
%ADD19RoundRect,0.237500X-0.380070X0.044194X0.044194X-0.380070X0.380070X-0.044194X-0.044194X0.380070X0*%
%ADD20RoundRect,0.160000X0.197500X0.160000X-0.197500X0.160000X-0.197500X-0.160000X0.197500X-0.160000X0*%
%ADD21RoundRect,0.237500X0.237500X-0.300000X0.237500X0.300000X-0.237500X0.300000X-0.237500X-0.300000X0*%
%ADD22RoundRect,0.237500X-0.300000X-0.237500X0.300000X-0.237500X0.300000X0.237500X-0.300000X0.237500X0*%
%ADD23RoundRect,0.237500X-0.250000X-0.237500X0.250000X-0.237500X0.250000X0.237500X-0.250000X0.237500X0*%
%ADD24RoundRect,0.237500X-0.237500X0.287500X-0.237500X-0.287500X0.237500X-0.287500X0.237500X0.287500X0*%
%ADD25RoundRect,0.150000X0.200000X-0.150000X0.200000X0.150000X-0.200000X0.150000X-0.200000X-0.150000X0*%
%ADD26RoundRect,0.160000X0.252791X-0.026517X-0.026517X0.252791X-0.252791X0.026517X0.026517X-0.252791X0*%
%ADD27RoundRect,0.162500X-0.617500X-0.162500X0.617500X-0.162500X0.617500X0.162500X-0.617500X0.162500X0*%
%ADD28RoundRect,0.250000X1.075000X-0.375000X1.075000X0.375000X-1.075000X0.375000X-1.075000X-0.375000X0*%
%ADD29RoundRect,0.250000X0.412500X0.650000X-0.412500X0.650000X-0.412500X-0.650000X0.412500X-0.650000X0*%
%ADD30RoundRect,0.155000X0.155000X-0.212500X0.155000X0.212500X-0.155000X0.212500X-0.155000X-0.212500X0*%
%ADD31RoundRect,0.237500X0.300000X0.237500X-0.300000X0.237500X-0.300000X-0.237500X0.300000X-0.237500X0*%
%ADD32RoundRect,0.237500X-0.237500X0.300000X-0.237500X-0.300000X0.237500X-0.300000X0.237500X0.300000X0*%
%ADD33RoundRect,0.250000X0.650000X-0.412500X0.650000X0.412500X-0.650000X0.412500X-0.650000X-0.412500X0*%
%ADD34RoundRect,0.160000X-0.197500X-0.160000X0.197500X-0.160000X0.197500X0.160000X-0.197500X0.160000X0*%
%ADD35RoundRect,0.237500X0.237500X-0.250000X0.237500X0.250000X-0.237500X0.250000X-0.237500X-0.250000X0*%
%ADD36RoundRect,0.155000X-0.212500X-0.155000X0.212500X-0.155000X0.212500X0.155000X-0.212500X0.155000X0*%
%ADD37RoundRect,0.155000X-0.040659X-0.259862X0.259862X0.040659X0.040659X0.259862X-0.259862X-0.040659X0*%
%ADD38RoundRect,0.250000X0.350000X-0.450000X0.350000X0.450000X-0.350000X0.450000X-0.350000X-0.450000X0*%
%ADD39RoundRect,0.250000X-0.070711X-0.565685X0.565685X0.070711X0.070711X0.565685X-0.565685X-0.070711X0*%
%ADD40RoundRect,0.160000X-0.252791X0.026517X0.026517X-0.252791X0.252791X-0.026517X-0.026517X0.252791X0*%
%ADD41RotRect,0.800000X0.500000X135.000000*%
%ADD42RotRect,0.800000X0.400000X135.000000*%
%ADD43RoundRect,0.250000X-0.412500X-0.650000X0.412500X-0.650000X0.412500X0.650000X-0.412500X0.650000X0*%
%ADD44RoundRect,0.237500X-0.237500X0.250000X-0.237500X-0.250000X0.237500X-0.250000X0.237500X0.250000X0*%
%ADD45R,0.500000X0.800000*%
%ADD46R,0.400000X0.800000*%
%ADD47R,1.645000X0.800000*%
%ADD48R,0.650000X1.525000*%
%ADD49RoundRect,0.250000X0.255000X0.255000X-0.255000X0.255000X-0.255000X-0.255000X0.255000X-0.255000X0*%
%ADD50RoundRect,0.062500X0.350000X0.062500X-0.350000X0.062500X-0.350000X-0.062500X0.350000X-0.062500X0*%
%ADD51RoundRect,0.062500X0.062500X0.350000X-0.062500X0.350000X-0.062500X-0.350000X0.062500X-0.350000X0*%
%ADD52RoundRect,0.237500X-0.044194X-0.380070X0.380070X0.044194X0.044194X0.380070X-0.380070X-0.044194X0*%
%ADD53RoundRect,0.250000X0.167938X-0.751301X0.751301X-0.167938X-0.167938X0.751301X-0.751301X0.167938X0*%
%ADD54RotRect,0.800000X0.500000X45.000000*%
%ADD55RotRect,0.800000X0.400000X45.000000*%
%ADD56RoundRect,0.150000X-0.200000X0.150000X-0.200000X-0.150000X0.200000X-0.150000X0.200000X0.150000X0*%
%ADD57RoundRect,0.250000X-0.450000X-0.350000X0.450000X-0.350000X0.450000X0.350000X-0.450000X0.350000X0*%
%ADD58RoundRect,0.150000X-1.350000X-0.350000X1.350000X-0.350000X1.350000X0.350000X-1.350000X0.350000X0*%
%ADD59RoundRect,0.250000X0.400000X0.450000X-0.400000X0.450000X-0.400000X-0.450000X0.400000X-0.450000X0*%
%ADD60RoundRect,0.160000X0.160000X-0.197500X0.160000X0.197500X-0.160000X0.197500X-0.160000X-0.197500X0*%
%ADD61RoundRect,0.237500X0.250000X0.237500X-0.250000X0.237500X-0.250000X-0.237500X0.250000X-0.237500X0*%
%ADD62RoundRect,0.200000X0.200000X-0.750000X0.200000X0.750000X-0.200000X0.750000X-0.200000X-0.750000X0*%
%ADD63RoundRect,0.237500X0.380070X-0.044194X-0.044194X0.380070X-0.380070X0.044194X0.044194X-0.380070X0*%
%ADD64RoundRect,0.075000X-0.075000X0.725000X-0.075000X-0.725000X0.075000X-0.725000X0.075000X0.725000X0*%
%ADD65RoundRect,0.075000X-0.725000X0.075000X-0.725000X-0.075000X0.725000X-0.075000X0.725000X0.075000X0*%
G04 APERTURE END LIST*
D10*
%TO.C,U1*%
X193803124Y-124953788D03*
X194156678Y-125307342D03*
X194510231Y-125660895D03*
X194863785Y-126014449D03*
X195217338Y-126368002D03*
X195570891Y-126721555D03*
X195924445Y-127075109D03*
X196277998Y-127428662D03*
X196631551Y-127782215D03*
X196985105Y-128135769D03*
X197338658Y-128489322D03*
X197692212Y-128842876D03*
D11*
X199689788Y-128842876D03*
X200043342Y-128489322D03*
X200396895Y-128135769D03*
X200750449Y-127782215D03*
X201104002Y-127428662D03*
X201457555Y-127075109D03*
X201811109Y-126721555D03*
X202164662Y-126368002D03*
X202518215Y-126014449D03*
X202871769Y-125660895D03*
X203225322Y-125307342D03*
X203578876Y-124953788D03*
D10*
X203578876Y-122956212D03*
X203225322Y-122602658D03*
X202871769Y-122249105D03*
X202518215Y-121895551D03*
X202164662Y-121541998D03*
X201811109Y-121188445D03*
X201457555Y-120834891D03*
X201104002Y-120481338D03*
X200750449Y-120127785D03*
X200396895Y-119774231D03*
X200043342Y-119420678D03*
X199689788Y-119067124D03*
D11*
X197692212Y-119067124D03*
X197338658Y-119420678D03*
X196985105Y-119774231D03*
X196631551Y-120127785D03*
X196277998Y-120481338D03*
X195924445Y-120834891D03*
X195570891Y-121188445D03*
X195217338Y-121541998D03*
X194863785Y-121895551D03*
X194510231Y-122249105D03*
X194156678Y-122602658D03*
X193803124Y-122956212D03*
%TD*%
D12*
%TO.C,R26*%
X199400000Y-73002500D03*
X199400000Y-74197500D03*
%TD*%
D13*
%TO.C,R19*%
X196542235Y-130315235D03*
X195251765Y-129024765D03*
%TD*%
D14*
%TO.C,D31*%
X181177500Y-122990000D03*
X181177500Y-122490000D03*
D15*
X181140000Y-121990000D03*
D14*
X181177500Y-121490000D03*
X181177500Y-120990000D03*
X180402500Y-120990000D03*
X180402500Y-121490000D03*
D16*
X180377500Y-121990000D03*
D14*
X180402500Y-122490000D03*
X180402500Y-122990000D03*
%TD*%
D17*
%TO.C,U6*%
X215895000Y-80135000D03*
X214625000Y-80135000D03*
X213355000Y-80135000D03*
X212085000Y-80135000D03*
X212085000Y-85085000D03*
X213355000Y-85085000D03*
X214625000Y-85085000D03*
X215895000Y-85085000D03*
%TD*%
D18*
%TO.C,C6*%
X205829779Y-120032213D03*
X205027213Y-120834779D03*
%TD*%
D19*
%TO.C,C9*%
X203390000Y-127892000D03*
X204609760Y-129111760D03*
%TD*%
D20*
%TO.C,R20*%
X202324700Y-92484400D03*
X201129700Y-92484400D03*
%TD*%
D21*
%TO.C,C23*%
X195820800Y-68324900D03*
X195820800Y-66599900D03*
%TD*%
D22*
%TO.C,C66*%
X193737500Y-73600000D03*
X195462500Y-73600000D03*
%TD*%
D23*
%TO.C,R12*%
X215698700Y-138814000D03*
X217523700Y-138814000D03*
%TD*%
D14*
%TO.C,D25*%
X181177500Y-98990000D03*
X181177500Y-98490000D03*
D15*
X181140000Y-97990000D03*
D14*
X181177500Y-97490000D03*
X181177500Y-96990000D03*
X180402500Y-96990000D03*
X180402500Y-97490000D03*
D16*
X180377500Y-97990000D03*
D14*
X180402500Y-98490000D03*
X180402500Y-98990000D03*
%TD*%
D24*
%TO.C,D13*%
X205867000Y-87136000D03*
X205867000Y-88886000D03*
%TD*%
D25*
%TO.C,D17*%
X217600000Y-82700000D03*
X217600000Y-84100000D03*
%TD*%
D26*
%TO.C,R18*%
X203267632Y-120243392D03*
X202422640Y-119398400D03*
%TD*%
D27*
%TO.C,U3*%
X212454000Y-113226000D03*
X212454000Y-114176000D03*
X212454000Y-115126000D03*
X215154000Y-115126000D03*
X215154000Y-114176000D03*
X215154000Y-113226000D03*
%TD*%
D28*
%TO.C,L3*%
X213346800Y-68332000D03*
X213346800Y-65532000D03*
%TD*%
D29*
%TO.C,C31*%
X202451000Y-61953600D03*
X199326000Y-61953600D03*
%TD*%
%TO.C,C30*%
X202451000Y-59616800D03*
X199326000Y-59616800D03*
%TD*%
D30*
%TO.C,C19*%
X203987800Y-90435700D03*
X203987800Y-89300700D03*
%TD*%
D14*
%TO.C,D35*%
X179690000Y-72990000D03*
X179690000Y-72490000D03*
D15*
X179652500Y-71990000D03*
D14*
X179690000Y-71490000D03*
X179690000Y-70990000D03*
X178915000Y-70990000D03*
X178915000Y-71490000D03*
D16*
X178890000Y-71990000D03*
D14*
X178915000Y-72490000D03*
X178915000Y-72990000D03*
%TD*%
D31*
%TO.C,C45*%
X212532900Y-63884000D03*
X210807900Y-63884000D03*
%TD*%
D32*
%TO.C,C71*%
X188570000Y-66317500D03*
X188570000Y-68042500D03*
%TD*%
D14*
%TO.C,D23*%
X181177500Y-90990000D03*
X181177500Y-90490000D03*
D15*
X181140000Y-89990000D03*
D14*
X181177500Y-89490000D03*
X181177500Y-88990000D03*
X180402500Y-88990000D03*
X180402500Y-89490000D03*
D16*
X180377500Y-89990000D03*
D14*
X180402500Y-90490000D03*
X180402500Y-90990000D03*
%TD*%
D28*
%TO.C,L4*%
X186211200Y-64590000D03*
X186211200Y-61790000D03*
%TD*%
D33*
%TO.C,C51*%
X193720000Y-89142500D03*
X193720000Y-86017500D03*
%TD*%
D21*
%TO.C,C70*%
X188581200Y-64692500D03*
X188581200Y-62967500D03*
%TD*%
D34*
%TO.C,R1*%
X209650500Y-113287000D03*
X210845500Y-113287000D03*
%TD*%
D22*
%TO.C,C64*%
X196837500Y-80900000D03*
X198562500Y-80900000D03*
%TD*%
D33*
%TO.C,C72*%
X183441200Y-64942500D03*
X183441200Y-61817500D03*
%TD*%
D24*
%TO.C,FB2*%
X217250000Y-110645000D03*
X217250000Y-112395000D03*
%TD*%
D31*
%TO.C,C33*%
X192619300Y-63884000D03*
X190894300Y-63884000D03*
%TD*%
D21*
%TO.C,C37*%
X207187700Y-68404100D03*
X207187700Y-66679100D03*
%TD*%
%TO.C,C24*%
X197307200Y-68324900D03*
X197307200Y-66599900D03*
%TD*%
D33*
%TO.C,C43*%
X191909200Y-59655300D03*
X191909200Y-56530300D03*
%TD*%
D22*
%TO.C,C63*%
X193687501Y-75100000D03*
X195412501Y-75100000D03*
%TD*%
D35*
%TO.C,R11*%
X203009000Y-137059500D03*
X203009000Y-135234500D03*
%TD*%
D36*
%TO.C,C59*%
X204290000Y-80490000D03*
X205425000Y-80490000D03*
%TD*%
D22*
%TO.C,C32*%
X204191600Y-63884000D03*
X205916600Y-63884000D03*
%TD*%
D24*
%TO.C,D1*%
X208242800Y-123715000D03*
X208242800Y-125465000D03*
%TD*%
D31*
%TO.C,C55*%
X210450100Y-110112000D03*
X208725100Y-110112000D03*
%TD*%
%TO.C,C49*%
X206741700Y-92484400D03*
X205016700Y-92484400D03*
%TD*%
D37*
%TO.C,C8*%
X204190000Y-115290000D03*
X204992566Y-114487434D03*
%TD*%
D27*
%TO.C,U5*%
X193740000Y-139690000D03*
X193740000Y-140640000D03*
X193740000Y-141590000D03*
X196440000Y-141590000D03*
X196440000Y-140640000D03*
X196440000Y-139690000D03*
%TD*%
D22*
%TO.C,C46*%
X214160700Y-63884000D03*
X215885700Y-63884000D03*
%TD*%
D31*
%TO.C,C28*%
X202563800Y-63884000D03*
X200838800Y-63884000D03*
%TD*%
D21*
%TO.C,C69*%
X189560000Y-59732500D03*
X189560000Y-58007500D03*
%TD*%
D24*
%TO.C,D2*%
X209741400Y-123715000D03*
X209741400Y-125465000D03*
%TD*%
D38*
%TO.C,Y1*%
X202577200Y-90434800D03*
X202577200Y-88234800D03*
X200877200Y-88234800D03*
X200877200Y-90434800D03*
%TD*%
D39*
%TO.C,Y2*%
X204827359Y-119040754D03*
X206382994Y-117485119D03*
X205180913Y-116283038D03*
X203625278Y-117838673D03*
%TD*%
D40*
%TO.C,R2*%
X208809504Y-114261504D03*
X209654496Y-115106496D03*
%TD*%
D41*
%TO.C,RN2*%
X192508629Y-121071371D03*
D42*
X193074314Y-120505686D03*
X193640000Y-119940000D03*
D41*
X194205685Y-119374315D03*
X192932893Y-118101523D03*
D42*
X192367208Y-118667208D03*
X191801522Y-119232894D03*
D41*
X191235837Y-119798579D03*
%TD*%
D27*
%TO.C,U4*%
X196325000Y-133038000D03*
X196325000Y-133988000D03*
X196325000Y-134938000D03*
X199025000Y-134938000D03*
X199025000Y-133988000D03*
X199025000Y-133038000D03*
%TD*%
D43*
%TO.C,C62*%
X198637500Y-82800000D03*
X201762500Y-82800000D03*
%TD*%
D44*
%TO.C,R10*%
X203009000Y-130788400D03*
X203009000Y-132613400D03*
%TD*%
D32*
%TO.C,C50*%
X209486000Y-93196700D03*
X209486000Y-94921700D03*
%TD*%
D29*
%TO.C,C22*%
X212420100Y-61953600D03*
X209295100Y-61953600D03*
%TD*%
D45*
%TO.C,RN1*%
X211690000Y-126940000D03*
D46*
X210890000Y-126940000D03*
X210090000Y-126940000D03*
D45*
X209290000Y-126940000D03*
X209290000Y-128740000D03*
D46*
X210090000Y-128740000D03*
X210890000Y-128740000D03*
D45*
X211690000Y-128740000D03*
%TD*%
D21*
%TO.C,C4*%
X201485000Y-136501500D03*
X201485000Y-134776500D03*
%TD*%
D47*
%TO.C,T1*%
X204981000Y-132718000D03*
X204981000Y-133988000D03*
X204981000Y-135258000D03*
X204981000Y-136528000D03*
X204981000Y-137798000D03*
X204981000Y-139068000D03*
X204981000Y-140338000D03*
X204981000Y-141608000D03*
X213737000Y-141608000D03*
X213737000Y-140338000D03*
X213737000Y-139068000D03*
X213737000Y-137798000D03*
X213737000Y-136528000D03*
X213737000Y-135258000D03*
X213737000Y-133988000D03*
X213737000Y-132718000D03*
%TD*%
D44*
%TO.C,R5*%
X201485000Y-131424500D03*
X201485000Y-133249500D03*
%TD*%
D23*
%TO.C,R17*%
X190077500Y-139762000D03*
X191902500Y-139762000D03*
%TD*%
D14*
%TO.C,D30*%
X181177500Y-118990000D03*
X181177500Y-118490000D03*
D15*
X181140000Y-117990000D03*
D14*
X181177500Y-117490000D03*
X181177500Y-116990000D03*
X180402500Y-116990000D03*
X180402500Y-117490000D03*
D16*
X180377500Y-117990000D03*
D14*
X180402500Y-118490000D03*
X180402500Y-118990000D03*
%TD*%
%TO.C,D33*%
X181177500Y-130990000D03*
X181177500Y-130490000D03*
D15*
X181140000Y-129990000D03*
D14*
X181177500Y-129490000D03*
X181177500Y-128990000D03*
X180402500Y-128990000D03*
X180402500Y-129490000D03*
D16*
X180377500Y-129990000D03*
D14*
X180402500Y-130490000D03*
X180402500Y-130990000D03*
%TD*%
D23*
%TO.C,R13*%
X215698700Y-141862000D03*
X217523700Y-141862000D03*
%TD*%
D31*
%TO.C,C74*%
X203090000Y-141740000D03*
X201365000Y-141740000D03*
%TD*%
D29*
%TO.C,C47*%
X212420100Y-59616800D03*
X209295100Y-59616800D03*
%TD*%
D21*
%TO.C,C41*%
X215734400Y-68353300D03*
X215734400Y-66628300D03*
%TD*%
D14*
%TO.C,D26*%
X181177500Y-102990000D03*
X181177500Y-102490000D03*
D15*
X181140000Y-101990000D03*
D14*
X181177500Y-101490000D03*
X181177500Y-100990000D03*
X180402500Y-100990000D03*
X180402500Y-101490000D03*
D16*
X180377500Y-101990000D03*
D14*
X180402500Y-102490000D03*
X180402500Y-102990000D03*
%TD*%
D33*
%TO.C,C40*%
X200583700Y-68646900D03*
X200583700Y-65521900D03*
%TD*%
D31*
%TO.C,C2*%
X195602500Y-137990000D03*
X193877500Y-137990000D03*
%TD*%
D48*
%TO.C,IC1*%
X211797400Y-105508800D03*
X213067400Y-105508800D03*
X214337400Y-105508800D03*
X215607400Y-105508800D03*
X215607400Y-100084800D03*
X214337400Y-100084800D03*
X213067400Y-100084800D03*
X211797400Y-100084800D03*
%TD*%
D21*
%TO.C,C42*%
X217220800Y-68350300D03*
X217220800Y-66625300D03*
%TD*%
D32*
%TO.C,C29*%
X191858400Y-95381100D03*
X191858400Y-97106100D03*
%TD*%
D14*
%TO.C,D28*%
X181177500Y-111040000D03*
X181177500Y-110540000D03*
D15*
X181140000Y-110040000D03*
D14*
X181177500Y-109540000D03*
X181177500Y-109040000D03*
X180402500Y-109040000D03*
X180402500Y-109540000D03*
D16*
X180377500Y-110040000D03*
D14*
X180402500Y-110540000D03*
X180402500Y-111040000D03*
%TD*%
D36*
%TO.C,C60*%
X204882501Y-75900000D03*
X206017501Y-75900000D03*
%TD*%
D49*
%TO.C,Y3*%
X199575001Y-78025000D03*
X199575001Y-76775000D03*
X198325001Y-78025000D03*
X198325001Y-76775000D03*
D50*
X200887501Y-78400000D03*
X200887501Y-77900000D03*
X200887501Y-77400000D03*
X200887501Y-76900000D03*
X200887501Y-76400000D03*
D51*
X199950001Y-75462500D03*
X199450001Y-75462500D03*
X198950001Y-75462500D03*
X198450001Y-75462500D03*
X197950001Y-75462500D03*
D50*
X197012501Y-76400000D03*
X197012501Y-76900000D03*
X197012501Y-77400000D03*
X197012501Y-77900000D03*
X197012501Y-78400000D03*
D51*
X197950001Y-79337500D03*
X198450001Y-79337500D03*
X198950001Y-79337500D03*
X199450001Y-79337500D03*
X199950001Y-79337500D03*
%TD*%
D52*
%TO.C,C12*%
X192010240Y-129238760D03*
X193230000Y-128019000D03*
%TD*%
D23*
%TO.C,R7*%
X215698700Y-133988000D03*
X217523700Y-133988000D03*
%TD*%
D33*
%TO.C,C25*%
X190690000Y-68646900D03*
X190690000Y-65521900D03*
%TD*%
%TO.C,C44*%
X210603600Y-68697700D03*
X210603600Y-65572700D03*
%TD*%
D14*
%TO.C,D29*%
X181177500Y-114990000D03*
X181177500Y-114490000D03*
D15*
X181140000Y-113990000D03*
D14*
X181177500Y-113490000D03*
X181177500Y-112990000D03*
X180402500Y-112990000D03*
X180402500Y-113490000D03*
D16*
X180377500Y-113990000D03*
D14*
X180402500Y-114490000D03*
X180402500Y-114990000D03*
%TD*%
D35*
%TO.C,R87*%
X207518000Y-85494500D03*
X207518000Y-83669500D03*
%TD*%
%TO.C,R9*%
X198290000Y-141740000D03*
X198290000Y-139915000D03*
%TD*%
D53*
%TO.C,C18*%
X191363146Y-117058854D03*
X193572854Y-114849146D03*
%TD*%
D31*
%TO.C,C58*%
X198040000Y-90665000D03*
X196315000Y-90665000D03*
%TD*%
D29*
%TO.C,C36*%
X193522500Y-61953600D03*
X190397500Y-61953600D03*
%TD*%
D14*
%TO.C,D21*%
X181177500Y-82990000D03*
X181177500Y-82490000D03*
D15*
X181140000Y-81990000D03*
D14*
X181177500Y-81490000D03*
X181177500Y-80990000D03*
X180402500Y-80990000D03*
X180402500Y-81490000D03*
D16*
X180377500Y-81990000D03*
D14*
X180402500Y-82490000D03*
X180402500Y-82990000D03*
%TD*%
D23*
%TO.C,R14*%
X192571500Y-133099000D03*
X194396500Y-133099000D03*
%TD*%
D54*
%TO.C,RN3*%
X195936076Y-114725868D03*
D55*
X196501761Y-115291553D03*
X197067447Y-115857239D03*
D54*
X197633132Y-116422924D03*
X198905924Y-115150132D03*
D55*
X198340239Y-114584447D03*
X197774553Y-114018761D03*
D54*
X197208868Y-113453076D03*
%TD*%
D14*
%TO.C,D32*%
X181177500Y-126990000D03*
X181177500Y-126490000D03*
D15*
X181140000Y-125990000D03*
D14*
X181177500Y-125490000D03*
X181177500Y-124990000D03*
X180402500Y-124990000D03*
X180402500Y-125490000D03*
D16*
X180377500Y-125990000D03*
D14*
X180402500Y-126490000D03*
X180402500Y-126990000D03*
%TD*%
%TO.C,D24*%
X181177500Y-94990000D03*
X181177500Y-94490000D03*
D15*
X181140000Y-93990000D03*
D14*
X181177500Y-93490000D03*
X181177500Y-92990000D03*
X180402500Y-92990000D03*
X180402500Y-93490000D03*
D16*
X180377500Y-93990000D03*
D14*
X180402500Y-94490000D03*
X180402500Y-94990000D03*
%TD*%
D31*
%TO.C,C54*%
X210502000Y-111636000D03*
X208777000Y-111636000D03*
%TD*%
D56*
%TO.C,D16*%
X217600000Y-80900000D03*
X217600000Y-79500000D03*
%TD*%
D44*
%TO.C,R89*%
X217258400Y-101935100D03*
X217258400Y-103760100D03*
%TD*%
D28*
%TO.C,L2*%
X203377700Y-68332000D03*
X203377700Y-65532000D03*
%TD*%
D35*
%TO.C,R21*%
X216240000Y-98302500D03*
X216240000Y-96477500D03*
%TD*%
D43*
%TO.C,C48*%
X214273500Y-61953600D03*
X217398500Y-61953600D03*
%TD*%
D14*
%TO.C,D27*%
X181177500Y-106990000D03*
X181177500Y-106490000D03*
D15*
X181140000Y-105990000D03*
D14*
X181177500Y-105490000D03*
X181177500Y-104990000D03*
X180402500Y-104990000D03*
X180402500Y-105490000D03*
D16*
X180377500Y-105990000D03*
D14*
X180402500Y-106490000D03*
X180402500Y-106990000D03*
%TD*%
D31*
%TO.C,C73*%
X203102500Y-138890000D03*
X201377500Y-138890000D03*
%TD*%
D57*
%TO.C,Y4*%
X204290000Y-79040000D03*
X206490000Y-79040000D03*
X206490000Y-77340000D03*
X204290000Y-77340000D03*
%TD*%
D24*
%TO.C,D4*%
X211240000Y-123715000D03*
X211240000Y-125465000D03*
%TD*%
D43*
%TO.C,C5*%
X219239700Y-142189200D03*
X222364700Y-142189200D03*
%TD*%
D23*
%TO.C,R16*%
X190077500Y-141540000D03*
X191902500Y-141540000D03*
%TD*%
%TO.C,R3*%
X215427500Y-109110000D03*
X217252500Y-109110000D03*
%TD*%
D31*
%TO.C,C1*%
X198156500Y-136528000D03*
X196431500Y-136528000D03*
%TD*%
D25*
%TO.C,D3*%
X217551000Y-118807000D03*
X217551000Y-120207000D03*
%TD*%
D14*
%TO.C,D20*%
X181177500Y-78990000D03*
X181177500Y-78490000D03*
D15*
X181140000Y-77990000D03*
D14*
X181177500Y-77490000D03*
X181177500Y-76990000D03*
X180402500Y-76990000D03*
X180402500Y-77490000D03*
D16*
X180377500Y-77990000D03*
D14*
X180402500Y-78490000D03*
X180402500Y-78990000D03*
%TD*%
D30*
%TO.C,C20*%
X199490000Y-89557500D03*
X199490000Y-88422500D03*
%TD*%
D21*
%TO.C,C57*%
X191115000Y-108840000D03*
X191115000Y-107115000D03*
%TD*%
%TO.C,C35*%
X193484000Y-111076100D03*
X193484000Y-109351100D03*
%TD*%
D58*
%TO.C,X1*%
X174865000Y-60990000D03*
X174865000Y-62990000D03*
X174865000Y-64990000D03*
X174865000Y-66990000D03*
X174865000Y-68990000D03*
X174865000Y-70990000D03*
X174865000Y-72990000D03*
X174865000Y-74990000D03*
X174865000Y-76990000D03*
X174865000Y-78990000D03*
X174865000Y-80990000D03*
X174865000Y-82990000D03*
X174865000Y-84990000D03*
X174865000Y-86990000D03*
X174865000Y-88990000D03*
X174865000Y-90990000D03*
X174865000Y-92990000D03*
X174865000Y-94990000D03*
X174865000Y-96990000D03*
X174865000Y-98990000D03*
X174865000Y-100990000D03*
X174865000Y-102990000D03*
X174865000Y-104990000D03*
X174865000Y-106990000D03*
X174865000Y-108990000D03*
X174865000Y-110990000D03*
X174865000Y-112990000D03*
X174865000Y-114990000D03*
X174865000Y-116990000D03*
X174865000Y-118990000D03*
X174865000Y-120990000D03*
X174865000Y-122990000D03*
X174865000Y-124990000D03*
X174865000Y-126990000D03*
X174865000Y-128990000D03*
X174865000Y-130990000D03*
X174865000Y-132990000D03*
X174865000Y-134990000D03*
X174865000Y-136990000D03*
X174865000Y-138990000D03*
X174865000Y-56140000D03*
X174865000Y-58140000D03*
X174865000Y-141840000D03*
X174865000Y-143840000D03*
%TD*%
D59*
%TO.C,D7*%
X215127000Y-111001000D03*
X212227000Y-111001000D03*
%TD*%
D12*
%TO.C,R25*%
X198400000Y-73002500D03*
X198400000Y-74197500D03*
%TD*%
D60*
%TO.C,R22*%
X202400001Y-78747500D03*
X202400001Y-77552500D03*
%TD*%
D61*
%TO.C,R4*%
X217252500Y-107590000D03*
X215427500Y-107590000D03*
%TD*%
D56*
%TO.C,D5*%
X217551000Y-117540000D03*
X217551000Y-116140000D03*
%TD*%
D23*
%TO.C,R15*%
X192571500Y-134877000D03*
X194396500Y-134877000D03*
%TD*%
D35*
%TO.C,R86*%
X205867000Y-85494500D03*
X205867000Y-83669500D03*
%TD*%
D62*
%TO.C,U2*%
X196227500Y-88640000D03*
X198127500Y-88640000D03*
X197177500Y-85640000D03*
%TD*%
D23*
%TO.C,R6*%
X215698700Y-140338000D03*
X217523700Y-140338000D03*
%TD*%
D24*
%TO.C,D6*%
X212738600Y-123715000D03*
X212738600Y-125465000D03*
%TD*%
D44*
%TO.C,R8*%
X199840000Y-138877500D03*
X199840000Y-140702500D03*
%TD*%
D63*
%TO.C,C10*%
X205752760Y-127994160D03*
X204533000Y-126774400D03*
%TD*%
D33*
%TO.C,C67*%
X184121200Y-59910000D03*
X184121200Y-56785000D03*
%TD*%
D22*
%TO.C,C27*%
X193752500Y-92390000D03*
X195477500Y-92390000D03*
%TD*%
D21*
%TO.C,C38*%
X205714500Y-68405200D03*
X205714500Y-66680200D03*
%TD*%
D64*
%TO.C,U7*%
X207485000Y-94436000D03*
X206985000Y-94436000D03*
X206485000Y-94436000D03*
X205985000Y-94436000D03*
X205485000Y-94436000D03*
X204985000Y-94436000D03*
X204485000Y-94436000D03*
X203985000Y-94436000D03*
X203485000Y-94436000D03*
X202985000Y-94436000D03*
X202485000Y-94436000D03*
X201985000Y-94436000D03*
X201485000Y-94436000D03*
X200985000Y-94436000D03*
X200485000Y-94436000D03*
X199985000Y-94436000D03*
X199485000Y-94436000D03*
X198985000Y-94436000D03*
X198485000Y-94436000D03*
X197985000Y-94436000D03*
X197485000Y-94436000D03*
X196985000Y-94436000D03*
X196485000Y-94436000D03*
X195985000Y-94436000D03*
X195485000Y-94436000D03*
D65*
X193810000Y-96111000D03*
X193810000Y-96611000D03*
X193810000Y-97111000D03*
X193810000Y-97611000D03*
X193810000Y-98111000D03*
X193810000Y-98611000D03*
X193810000Y-99111000D03*
X193810000Y-99611000D03*
X193810000Y-100111000D03*
X193810000Y-100611000D03*
X193810000Y-101111000D03*
X193810000Y-101611000D03*
X193810000Y-102111000D03*
X193810000Y-102611000D03*
X193810000Y-103111000D03*
X193810000Y-103611000D03*
X193810000Y-104111000D03*
X193810000Y-104611000D03*
X193810000Y-105111000D03*
X193810000Y-105611000D03*
X193810000Y-106111000D03*
X193810000Y-106611000D03*
X193810000Y-107111000D03*
X193810000Y-107611000D03*
X193810000Y-108111000D03*
D64*
X195485000Y-109786000D03*
X195985000Y-109786000D03*
X196485000Y-109786000D03*
X196985000Y-109786000D03*
X197485000Y-109786000D03*
X197985000Y-109786000D03*
X198485000Y-109786000D03*
X198985000Y-109786000D03*
X199485000Y-109786000D03*
X199985000Y-109786000D03*
X200485000Y-109786000D03*
X200985000Y-109786000D03*
X201485000Y-109786000D03*
X201985000Y-109786000D03*
X202485000Y-109786000D03*
X202985000Y-109786000D03*
X203485000Y-109786000D03*
X203985000Y-109786000D03*
X204485000Y-109786000D03*
X204985000Y-109786000D03*
X205485000Y-109786000D03*
X205985000Y-109786000D03*
X206485000Y-109786000D03*
X206985000Y-109786000D03*
X207485000Y-109786000D03*
D65*
X209160000Y-108111000D03*
X209160000Y-107611000D03*
X209160000Y-107111000D03*
X209160000Y-106611000D03*
X209160000Y-106111000D03*
X209160000Y-105611000D03*
X209160000Y-105111000D03*
X209160000Y-104611000D03*
X209160000Y-104111000D03*
X209160000Y-103611000D03*
X209160000Y-103111000D03*
X209160000Y-102611000D03*
X209160000Y-102111000D03*
X209160000Y-101611000D03*
X209160000Y-101111000D03*
X209160000Y-100611000D03*
X209160000Y-100111000D03*
X209160000Y-99611000D03*
X209160000Y-99111000D03*
X209160000Y-98611000D03*
X209160000Y-98111000D03*
X209160000Y-97611000D03*
X209160000Y-97111000D03*
X209160000Y-96611000D03*
X209160000Y-96111000D03*
%TD*%
D14*
%TO.C,D22*%
X181177500Y-86990000D03*
X181177500Y-86490000D03*
D15*
X181140000Y-85990000D03*
D14*
X181177500Y-85490000D03*
X181177500Y-84990000D03*
X180402500Y-84990000D03*
X180402500Y-85490000D03*
D16*
X180377500Y-85990000D03*
D14*
X180402500Y-86490000D03*
X180402500Y-86990000D03*
%TD*%
D28*
%TO.C,L1*%
X193484000Y-68332000D03*
X193484000Y-65532000D03*
%TD*%
D43*
%TO.C,C21*%
X204316700Y-61953600D03*
X207441700Y-61953600D03*
%TD*%
D33*
%TO.C,C34*%
X196481200Y-61992100D03*
X196481200Y-58867100D03*
%TD*%
D14*
%TO.C,D34*%
X181177500Y-134890000D03*
X181177500Y-134390000D03*
D15*
X181140000Y-133890000D03*
D14*
X181177500Y-133390000D03*
X181177500Y-132890000D03*
X180402500Y-132890000D03*
X180402500Y-133390000D03*
D16*
X180377500Y-133890000D03*
D14*
X180402500Y-134390000D03*
X180402500Y-134890000D03*
%TD*%
D24*
%TO.C,D14*%
X207518000Y-87136000D03*
X207518000Y-88886000D03*
%TD*%
D22*
%TO.C,C26*%
X194247100Y-63884000D03*
X195972100Y-63884000D03*
%TD*%
%TO.C,C52*%
X212941500Y-98275600D03*
X214666500Y-98275600D03*
%TD*%
D31*
%TO.C,C61*%
X201862500Y-80900000D03*
X200137500Y-80900000D03*
%TD*%
D22*
%TO.C,C65*%
X193687501Y-78600000D03*
X195412501Y-78600000D03*
%TD*%
D21*
%TO.C,C68*%
X188060000Y-59732500D03*
X188060000Y-58007500D03*
%TD*%
M02*
