%TF.GenerationSoftware,KiCad,Pcbnew,9.0.4*%
%TF.CreationDate,2026-04-21T23:27:28+02:00*%
%TF.ProjectId,UCB_board,5543425f-626f-4617-9264-2e6b69636164,0.3*%
%TF.SameCoordinates,Original*%
%TF.FileFunction,Soldermask,Bot*%
%TF.FilePolarity,Negative*%
%FSLAX46Y46*%
G04 Gerber Fmt 4.6, Leading zero omitted, Abs format (unit mm)*
G04 Created by KiCad (PCBNEW 9.0.4) date 2026-04-21 23:27:28*
%MOMM*%
%LPD*%
G01*
G04 APERTURE LIST*
G04 Aperture macros list*
%AMRoundRect*
0 Rectangle with rounded corners*
0 $1 Rounding radius*
0 $2 $3 $4 $5 $6 $7 $8 $9 X,Y pos of 4 corners*
0 Add a 4 corners polygon primitive as box body*
4,1,4,$2,$3,$4,$5,$6,$7,$8,$9,$2,$3,0*
0 Add four circle primitives for the rounded corners*
1,1,$1+$1,$2,$3*
1,1,$1+$1,$4,$5*
1,1,$1+$1,$6,$7*
1,1,$1+$1,$8,$9*
0 Add four rect primitives between the rounded corners*
20,1,$1+$1,$2,$3,$4,$5,0*
20,1,$1+$1,$4,$5,$6,$7,0*
20,1,$1+$1,$6,$7,$8,$9,0*
20,1,$1+$1,$8,$9,$2,$3,0*%
G04 Aperture macros list end*
%ADD10C,2.850000*%
%ADD11RoundRect,0.249999X-0.525001X0.525001X-0.525001X-0.525001X0.525001X-0.525001X0.525001X0.525001X0*%
%ADD12C,1.550000*%
%ADD13R,1.350000X1.350000*%
%ADD14C,1.350000*%
%ADD15RoundRect,0.150000X-1.350000X-0.350000X1.350000X-0.350000X1.350000X0.350000X-1.350000X0.350000X0*%
%ADD16C,0.990600*%
%ADD17RoundRect,0.250000X-0.400000X-0.450000X0.400000X-0.450000X0.400000X0.450000X-0.400000X0.450000X0*%
%ADD18C,1.000000*%
%ADD19RoundRect,0.160000X0.160000X-0.197500X0.160000X0.197500X-0.160000X0.197500X-0.160000X-0.197500X0*%
%ADD20RoundRect,0.160000X-0.160000X0.197500X-0.160000X-0.197500X0.160000X-0.197500X0.160000X0.197500X0*%
%ADD21RoundRect,0.250001X0.624999X-0.462499X0.624999X0.462499X-0.624999X0.462499X-0.624999X-0.462499X0*%
%ADD22RoundRect,0.237500X0.237500X-0.300000X0.237500X0.300000X-0.237500X0.300000X-0.237500X-0.300000X0*%
%ADD23RoundRect,0.250000X-0.400000X-0.600000X0.400000X-0.600000X0.400000X0.600000X-0.400000X0.600000X0*%
%ADD24RoundRect,0.237500X-0.044194X-0.380070X0.380070X0.044194X0.044194X0.380070X-0.380070X-0.044194X0*%
%ADD25RoundRect,0.237500X-0.237500X0.250000X-0.237500X-0.250000X0.237500X-0.250000X0.237500X0.250000X0*%
%ADD26RoundRect,0.237500X0.237500X-0.250000X0.237500X0.250000X-0.237500X0.250000X-0.237500X-0.250000X0*%
%ADD27RoundRect,0.250000X0.650000X-0.412500X0.650000X0.412500X-0.650000X0.412500X-0.650000X-0.412500X0*%
%ADD28RoundRect,0.237500X-0.250000X-0.237500X0.250000X-0.237500X0.250000X0.237500X-0.250000X0.237500X0*%
%ADD29RoundRect,0.237500X0.380070X-0.044194X-0.044194X0.380070X-0.380070X0.044194X0.044194X-0.380070X0*%
%ADD30RoundRect,0.237500X0.044194X0.380070X-0.380070X-0.044194X-0.044194X-0.380070X0.380070X0.044194X0*%
%ADD31RoundRect,0.237500X0.287500X0.237500X-0.287500X0.237500X-0.287500X-0.237500X0.287500X-0.237500X0*%
%ADD32RoundRect,0.160000X0.252791X-0.026517X-0.026517X0.252791X-0.252791X0.026517X0.026517X-0.252791X0*%
%ADD33R,0.600000X1.250000*%
%ADD34RoundRect,0.237500X-0.237500X0.300000X-0.237500X-0.300000X0.237500X-0.300000X0.237500X0.300000X0*%
%ADD35RoundRect,0.250000X0.450000X-0.400000X0.450000X0.400000X-0.450000X0.400000X-0.450000X-0.400000X0*%
%ADD36RoundRect,0.150000X-0.150000X-0.200000X0.150000X-0.200000X0.150000X0.200000X-0.150000X0.200000X0*%
%ADD37RoundRect,0.237500X-0.300000X-0.237500X0.300000X-0.237500X0.300000X0.237500X-0.300000X0.237500X0*%
G04 APERTURE END LIST*
D10*
%TO.C,J1*%
X227270000Y-55540000D03*
X227270000Y-144440000D03*
D11*
X224730000Y-60620000D03*
D12*
X224730000Y-63160000D03*
X224730000Y-65700000D03*
X224730000Y-68240000D03*
X224730000Y-70780000D03*
X224730000Y-73320000D03*
X224730000Y-75860000D03*
X224730000Y-78400000D03*
X224730000Y-80940000D03*
X224730000Y-83480000D03*
X224730000Y-86020000D03*
X224730000Y-88560000D03*
X224730000Y-91100000D03*
X224730000Y-93640000D03*
X224730000Y-96180000D03*
X224730000Y-98720000D03*
X224730000Y-101260000D03*
X224730000Y-103800000D03*
X224730000Y-106340000D03*
X224730000Y-108880000D03*
X224730000Y-111420000D03*
X224730000Y-113960000D03*
X224730000Y-116500000D03*
X224730000Y-119040000D03*
X224730000Y-121580000D03*
X224730000Y-124120000D03*
X224730000Y-126660000D03*
X224730000Y-129200000D03*
X224730000Y-131740000D03*
X224730000Y-134280000D03*
X224730000Y-136820000D03*
X224730000Y-139360000D03*
X219650000Y-60620000D03*
X219650000Y-63160000D03*
X219650000Y-65700000D03*
X219650000Y-68240000D03*
X219650000Y-70780000D03*
X219650000Y-73320000D03*
X219650000Y-75860000D03*
X219650000Y-78400000D03*
X219650000Y-80940000D03*
X219650000Y-83480000D03*
X219650000Y-86020000D03*
X219650000Y-88560000D03*
X219650000Y-91100000D03*
X219650000Y-93640000D03*
X219650000Y-96180000D03*
X219650000Y-98720000D03*
X219650000Y-101260000D03*
X219650000Y-103800000D03*
X219650000Y-106340000D03*
X219650000Y-108880000D03*
X219650000Y-111420000D03*
X219650000Y-113960000D03*
X219650000Y-116500000D03*
X219650000Y-119040000D03*
X219650000Y-121580000D03*
X219650000Y-124120000D03*
X219650000Y-126660000D03*
X219650000Y-129200000D03*
X219650000Y-131740000D03*
X219650000Y-134280000D03*
X219650000Y-136820000D03*
X219650000Y-139360000D03*
%TD*%
D13*
%TO.C,J3*%
X216140800Y-92144800D03*
D14*
X216140800Y-94144800D03*
%TD*%
D15*
%TO.C,X1*%
X174865000Y-60990000D03*
X174865000Y-62990000D03*
X174865000Y-64990000D03*
X174865000Y-66990000D03*
X174865000Y-68990000D03*
X174865000Y-70990000D03*
X174865000Y-72990000D03*
X174865000Y-74990000D03*
X174865000Y-76990000D03*
X174865000Y-78990000D03*
X174865000Y-80990000D03*
X174865000Y-82990000D03*
X174865000Y-84990000D03*
X174865000Y-86990000D03*
X174865000Y-88990000D03*
X174865000Y-90990000D03*
X174865000Y-92990000D03*
X174865000Y-94990000D03*
X174865000Y-96990000D03*
X174865000Y-98990000D03*
X174865000Y-100990000D03*
X174865000Y-102990000D03*
X174865000Y-104990000D03*
X174865000Y-106990000D03*
X174865000Y-108990000D03*
X174865000Y-110990000D03*
X174865000Y-112990000D03*
X174865000Y-114990000D03*
X174865000Y-116990000D03*
X174865000Y-118990000D03*
X174865000Y-120990000D03*
X174865000Y-122990000D03*
X174865000Y-124990000D03*
X174865000Y-126990000D03*
X174865000Y-128990000D03*
X174865000Y-130990000D03*
X174865000Y-132990000D03*
X174865000Y-134990000D03*
X174865000Y-136990000D03*
X174865000Y-138990000D03*
X174865000Y-56140000D03*
X174865000Y-58140000D03*
X174865000Y-141840000D03*
X174865000Y-143840000D03*
%TD*%
D16*
%TO.C,J2*%
X212457800Y-95938800D03*
X211441800Y-90858800D03*
X213473800Y-90858800D03*
%TD*%
D17*
%TO.C,D12*%
X204467700Y-61953600D03*
X207367700Y-61953600D03*
%TD*%
D18*
%TO.C,TP2*%
X213715600Y-106984800D03*
%TD*%
%TO.C,TP15*%
X201358000Y-113541000D03*
%TD*%
D19*
%TO.C,R23*%
X202900000Y-113697500D03*
X202900000Y-112502500D03*
%TD*%
D18*
%TO.C,TP7*%
X211800000Y-86700000D03*
%TD*%
%TO.C,TP8*%
X213868000Y-86800000D03*
%TD*%
%TO.C,TP12*%
X204800000Y-119000000D03*
%TD*%
D20*
%TO.C,R80*%
X203900000Y-112502500D03*
X203900000Y-113697500D03*
%TD*%
D21*
%TO.C,F3*%
X196328800Y-59783500D03*
X196328800Y-56808500D03*
%TD*%
D18*
%TO.C,TP19*%
X222224600Y-107213400D03*
%TD*%
%TO.C,TP6*%
X215836000Y-117097000D03*
%TD*%
D21*
%TO.C,F4*%
X188321200Y-59797500D03*
X188321200Y-56822500D03*
%TD*%
D18*
%TO.C,TP18*%
X200850000Y-115573000D03*
%TD*%
%TO.C,TP16*%
X199834000Y-112144000D03*
%TD*%
D22*
%TO.C,C56*%
X207640000Y-99852500D03*
X207640000Y-98127500D03*
%TD*%
D18*
%TO.C,TP4*%
X211822800Y-104540000D03*
%TD*%
D23*
%TO.C,D8*%
X190514800Y-61953600D03*
X194014800Y-61953600D03*
%TD*%
D24*
%TO.C,C13*%
X196557120Y-129263880D03*
X197776880Y-128044120D03*
%TD*%
D18*
%TO.C,TP1*%
X214040000Y-109010000D03*
%TD*%
D25*
%TO.C,R90*%
X213702400Y-102747900D03*
X213702400Y-104572900D03*
%TD*%
D26*
%TO.C,R91*%
X211822800Y-102744100D03*
X211822800Y-100919100D03*
%TD*%
D27*
%TO.C,C3*%
X222150000Y-139945000D03*
X222150000Y-136820000D03*
%TD*%
D28*
%TO.C,R84*%
X212117500Y-83500000D03*
X213942500Y-83500000D03*
%TD*%
D21*
%TO.C,F2*%
X216242400Y-59834300D03*
X216242400Y-56859300D03*
%TD*%
D18*
%TO.C,TP20*%
X217950000Y-103800000D03*
%TD*%
%TO.C,TP5*%
X215836000Y-119129000D03*
%TD*%
D28*
%TO.C,R85*%
X214057500Y-85050000D03*
X215882500Y-85050000D03*
%TD*%
D29*
%TO.C,C17*%
X201459880Y-129009880D03*
X200240120Y-127790120D03*
%TD*%
D18*
%TO.C,TP3*%
X215608107Y-104219200D03*
%TD*%
D30*
%TO.C,C16*%
X197903880Y-122456120D03*
X196684120Y-123675880D03*
%TD*%
D29*
%TO.C,C15*%
X203491880Y-124818880D03*
X202272120Y-123599120D03*
%TD*%
D31*
%TO.C,FB1*%
X200455000Y-138170000D03*
X198705000Y-138170000D03*
%TD*%
D32*
%TO.C,R24*%
X201712496Y-89512496D03*
X200867504Y-88667504D03*
%TD*%
D33*
%TO.C,D15*%
X223140000Y-103800000D03*
X221240000Y-103800000D03*
X222190000Y-101800000D03*
%TD*%
D18*
%TO.C,TP13*%
X195770000Y-113541000D03*
%TD*%
D21*
%TO.C,F1*%
X206184000Y-59783500D03*
X206184000Y-56808500D03*
%TD*%
D34*
%TO.C,C53*%
X202526400Y-92740600D03*
X202526400Y-94465600D03*
%TD*%
D35*
%TO.C,D9*%
X191909200Y-59695200D03*
X191909200Y-56795200D03*
%TD*%
D29*
%TO.C,C11*%
X203364880Y-126850880D03*
X202145120Y-125631120D03*
%TD*%
D36*
%TO.C,D10*%
X212421200Y-59667600D03*
X211021200Y-59667600D03*
%TD*%
D18*
%TO.C,TP21*%
X217220800Y-69570600D03*
%TD*%
D22*
%TO.C,C39*%
X215900000Y-83472500D03*
X215900000Y-81747500D03*
%TD*%
D23*
%TO.C,D18*%
X184781200Y-62070000D03*
X188281200Y-62070000D03*
%TD*%
D37*
%TO.C,C7*%
X201511500Y-140338000D03*
X203236500Y-140338000D03*
%TD*%
D35*
%TO.C,D19*%
X184121200Y-59800000D03*
X184121200Y-56900000D03*
%TD*%
D18*
%TO.C,TP14*%
X199199000Y-114176000D03*
%TD*%
%TO.C,TP17*%
X197929000Y-117351000D03*
%TD*%
D28*
%TO.C,R88*%
X221273500Y-105438400D03*
X223098500Y-105438400D03*
%TD*%
D18*
%TO.C,TP10*%
X197307200Y-69596000D03*
%TD*%
D23*
%TO.C,D11*%
X199138500Y-61953600D03*
X202638500Y-61953600D03*
%TD*%
D18*
%TO.C,TP9*%
X207187800Y-69570600D03*
%TD*%
D34*
%TO.C,C14*%
X198564000Y-124362500D03*
X198564000Y-126087500D03*
%TD*%
D18*
%TO.C,TP22*%
X215460000Y-72100000D03*
%TD*%
G36*
X216808239Y-120898285D02*
G01*
X216853994Y-120951089D01*
X216865200Y-121002600D01*
X216865200Y-127104600D01*
X216845515Y-127171639D01*
X216792711Y-127217394D01*
X216741200Y-127228600D01*
X214449200Y-127228600D01*
X214382161Y-127208915D01*
X214336406Y-127156111D01*
X214325200Y-127104600D01*
X214325200Y-121002600D01*
X214344885Y-120935561D01*
X214397689Y-120889806D01*
X214449200Y-120878600D01*
X216741200Y-120878600D01*
X216808239Y-120898285D01*
G37*
G36*
X224198828Y-147201860D02*
G01*
X224200000Y-147204688D01*
X224200000Y-147500000D01*
X230026008Y-147500000D01*
X230028836Y-147501172D01*
X230030008Y-147503992D01*
X230034999Y-149975993D01*
X230033833Y-149978824D01*
X230031007Y-149980001D01*
X230030999Y-149980001D01*
X173244000Y-149983549D01*
X173241172Y-149982378D01*
X173240000Y-149979549D01*
X173240000Y-147204688D01*
X173241172Y-147201860D01*
X173244000Y-147200688D01*
X224196000Y-147200688D01*
X224198828Y-147201860D01*
G37*
G36*
X230028836Y-49991172D02*
G01*
X230030008Y-49993992D01*
X230035000Y-52445992D01*
X230033834Y-52448823D01*
X230031008Y-52450000D01*
X224250000Y-52450000D01*
X224250000Y-52765668D01*
X224248828Y-52768496D01*
X224246000Y-52769668D01*
X173244000Y-52772857D01*
X173241172Y-52771686D01*
X173240000Y-52768857D01*
X173240000Y-49994000D01*
X173241172Y-49991172D01*
X173244000Y-49990000D01*
X230026008Y-49990000D01*
X230028836Y-49991172D01*
G37*
M02*
